<svg width="100" height="100" viewBox="0 0 100 100" fill="none" xmlns="http://www.w3.org/2000/svg">
<path d="M10 16.2C10 13.6798 10 12.4196 10.4905 11.457C10.9219 10.6103 11.6103 9.92191 12.457 9.49045C13.4196 9 14.6798 9 17.2 9H83.8C86.3204 9 87.5805 9 88.543 9.49045C89.3899 9.92191 90.078 10.6103 90.5095 11.457C91 12.4196 91 13.6798 91 16.2V24.0177C91 25.1183 91 25.6686 90.8758 26.1865C90.7656 26.6457 90.5838 27.0846 90.3367 27.4873C90.0586 27.9414 89.6694 28.3306 88.8913 29.1088L61.6087 56.3913C60.8307 57.1693 60.4414 57.5586 60.1633 58.0126C59.9162 58.4154 59.7345 58.8542 59.6242 59.3136C59.5 59.8316 59.5 60.3819 59.5 61.4821V72L41.5 90V61.4821C41.5 60.3819 41.5 59.8316 41.3757 59.3136C41.2654 58.8542 41.0836 58.4154 40.8369 58.0126C40.5586 57.5586 40.1694 57.1693 39.3912 56.3913L12.1088 29.1088C11.3306 28.3306 10.9414 27.9414 10.6631 27.4873C10.4164 27.0846 10.2346 26.6457 10.1243 26.1865C10 25.6686 10 25.1183 10 24.0177V16.2Z" stroke="black" stroke-width="4" stroke-linecap="round" stroke-linejoin="round"/>
</svg>
