<svg width="100" height="100" viewBox="0 0 100 100" fill="none" xmlns="http://www.w3.org/2000/svg">
<path d="M93.2395 86.6356L84.6806 81.2739V84.8969H13.8556V15.9177H17.4868L12.1224 7.36159L6.76074 15.9177H10.3892V88.3688H84.6806V92L93.2395 86.6356Z" fill="black"/>
<path d="M17.2664 70.0068L18.7496 70.9049L23.6883 62.7636H29.819V61.9835L36.2107 67.9824V73.7066H44.0115V65.9004H42.2645L47.9641 45.2063H48.2909L53.5043 60.4865H51.8123V68.29H59.613V62.5026L65.1395 58.4594V58.8577H70.7676L75.525 67.4193H74.7806V75.2201H82.5814V67.4193H79.9417L82.8505 38.1637H86.2648V30.3629H78.464V38.1637H81.1036L78.2003 67.4193H77.5081L72.7507 58.8577H72.9458V51.0569H65.1395V56.3087L59.429 60.4865H55.3336L50.1203 45.2063H51.8123V37.4056H44.0115V45.2063H46.1649L40.4654 65.9004H36.5293L29.819 59.6021V54.9601H22.0182V62.173L17.2664 70.0068Z" fill="black"/>
</svg>
