<svg width="100" height="100" viewBox="0 0 100 100" fill="none" xmlns="http://www.w3.org/2000/svg">
<path d="M49.4998 54.3591C49.2117 54.3591 48.9265 54.2954 48.6444 54.1711L5.31614 34.7819C4.50017 34.4179 3.98147 33.5838 3.99967 32.6525C4.01787 31.7334 4.57904 30.8993 5.395 30.5808L48.7294 13.3483C48.9781 13.2513 49.2359 13.1997 49.4998 13.1997C49.7607 13.1997 50.0216 13.2513 50.2703 13.3483L93.6016 30.5747C94.4358 30.9084 94.9818 31.7213 95 32.6465C95.0243 33.5807 94.5056 34.4179 93.6835 34.7819L50.3522 54.1802C50.0822 54.2985 49.791 54.3591 49.4998 54.3591ZM11.9652 32.8194L49.3937 49.5695L87.0344 32.8194L49.4998 17.8984L11.9652 32.8194Z" fill="black"/>
<path d="M5.31619 51.0862C4.22115 50.5918 3.70851 49.2541 4.17565 48.1044C4.51842 47.2703 5.30405 46.7273 6.17462 46.7273C6.46886 46.7273 6.75399 46.791 7.03003 46.9154L49.3967 65.8707L91.9758 46.9154C92.2549 46.788 92.54 46.7273 92.8342 46.7273C93.7018 46.7273 94.4844 47.2642 94.8241 48.1044C95.2943 49.2541 94.7816 50.5918 93.6836 51.0862L49.4999 70.8575L5.31619 51.0862Z" fill="black"/>
<path d="M5.31619 66.2228C4.21812 65.7254 3.70548 64.3907 4.17565 63.2471C4.51842 62.413 5.30406 61.87 6.17463 61.87C6.46886 61.87 6.75399 61.9337 7.03003 62.055L49.3967 81.0134L91.9758 62.055C92.2488 61.9367 92.54 61.87 92.8342 61.87C93.7018 61.87 94.4844 62.413 94.8241 63.2471C95.2943 64.3937 94.7816 65.7314 93.6866 66.2228L49.4999 86.0002L5.31619 66.2228Z" fill="black"/>
</svg>
