<svg width="250" height="250" viewBox="0 0 250 250" fill="none" xmlns="http://www.w3.org/2000/svg">
<g clip-path="url(#clip0_306_705)">
<path d="M9 6.5H241C244.038 6.5 246.5 8.96243 246.5 12V263.5H3.5V12C3.5 8.96244 5.96243 6.5 9 6.5Z" fill="white" stroke="#D9D9D9"/>
<path d="M46.7724 29.1881L47.928 29.48C47.6858 30.4291 47.2489 31.1539 46.6175 31.6543C45.99 32.1507 45.2215 32.3989 44.3121 32.3989C43.3709 32.3989 42.6044 32.2083 42.0127 31.8271C41.4249 31.4418 40.9762 30.8858 40.6664 30.1591C40.3606 29.4323 40.2077 28.652 40.2077 27.818C40.2077 26.9085 40.3805 26.1162 40.726 25.4411C41.0755 24.762 41.5699 24.2477 42.2093 23.8982C42.8526 23.5448 43.5595 23.3681 44.33 23.3681C45.2037 23.3681 45.9384 23.5905 46.5341 24.0353C47.1298 24.48 47.5448 25.1055 47.7791 25.9117L46.6413 26.1798C46.4388 25.5444 46.1449 25.0817 45.7597 24.7918C45.3744 24.5019 44.8899 24.3569 44.3062 24.3569C43.635 24.3569 43.073 24.5178 42.6203 24.8395C42.1715 25.1611 41.8558 25.594 41.6731 26.1381C41.4905 26.6782 41.3991 27.2362 41.3991 27.812C41.3991 28.5547 41.5063 29.204 41.7208 29.76C41.9392 30.312 42.2768 30.725 42.7335 30.999C43.1902 31.273 43.6846 31.4101 44.2168 31.4101C44.8641 31.4101 45.4122 31.2234 45.8609 30.8501C46.3097 30.4768 46.6135 29.9228 46.7724 29.1881ZM49.2207 32.25V23.517H50.293V26.6504C50.7934 26.0706 51.4248 25.7807 52.1873 25.7807C52.6559 25.7807 53.063 25.874 53.4085 26.0606C53.754 26.2433 54.0002 26.4975 54.1472 26.8231C54.2981 27.1488 54.3735 27.6214 54.3735 28.2409V32.25H53.3013V28.2409C53.3013 27.7048 53.1841 27.3156 52.9498 27.0733C52.7195 26.8271 52.3918 26.704 51.9669 26.704C51.6492 26.704 51.3493 26.7874 51.0674 26.9542C50.7894 27.117 50.5908 27.3394 50.4717 27.6214C50.3525 27.9034 50.293 28.2925 50.293 28.789V32.25H49.2207ZM60.1399 31.4696C59.7428 31.8072 59.3596 32.0455 58.9902 32.1845C58.6249 32.3235 58.2317 32.393 57.8107 32.393C57.1158 32.393 56.5816 32.2242 56.2083 31.8866C55.835 31.5451 55.6483 31.1102 55.6483 30.582C55.6483 30.2723 55.7178 29.9903 55.8568 29.7361C55.9998 29.478 56.1845 29.2715 56.4108 29.1166C56.6412 28.9617 56.8993 28.8446 57.1853 28.7651C57.3957 28.7095 57.7134 28.6559 58.1384 28.6043C59.0041 28.501 59.6415 28.3779 60.0506 28.235C60.0546 28.088 60.0565 27.9947 60.0565 27.955C60.0565 27.5181 59.9553 27.2104 59.7527 27.0316C59.4787 26.7894 59.0716 26.6683 58.5315 26.6683C58.0272 26.6683 57.6539 26.7576 57.4116 26.9363C57.1733 27.1111 56.9966 27.4228 56.8814 27.8716L55.833 27.7286C55.9283 27.2799 56.0852 26.9185 56.3036 26.6444C56.522 26.3664 56.8378 26.154 57.2508 26.007C57.6638 25.8561 58.1424 25.7807 58.6864 25.7807C59.2265 25.7807 59.6654 25.8442 60.0029 25.9713C60.3405 26.0984 60.5887 26.2592 60.7476 26.4538C60.9064 26.6444 61.0176 26.8867 61.0812 27.1806C61.1169 27.3632 61.1348 27.6929 61.1348 28.1694V29.5991C61.1348 30.5959 61.1566 31.2274 61.2003 31.4935C61.2479 31.7556 61.3393 32.0077 61.4743 32.25H60.3544C60.2432 32.0276 60.1717 31.7675 60.1399 31.4696ZM60.0506 29.0749C59.6614 29.2338 59.0776 29.3688 58.2992 29.48C57.8584 29.5435 57.5466 29.615 57.364 29.6944C57.1813 29.7739 57.0403 29.891 56.941 30.0459C56.8417 30.1968 56.7921 30.3656 56.7921 30.5522C56.7921 30.8382 56.8993 31.0765 57.1138 31.2671C57.3322 31.4577 57.6499 31.553 58.0669 31.553C58.4799 31.553 58.8473 31.4637 59.1689 31.285C59.4906 31.1023 59.7269 30.8541 59.8778 30.5403C59.993 30.2981 60.0506 29.9407 60.0506 29.4681V29.0749ZM62.8027 32.25V25.9236H63.7678V26.8231C64.2324 26.1282 64.9036 25.7807 65.7812 25.7807C66.1625 25.7807 66.512 25.8502 66.8297 25.9892C67.1514 26.1242 67.3916 26.3029 67.5505 26.5253C67.7093 26.7477 67.8205 27.0118 67.8841 27.3176C67.9238 27.5161 67.9437 27.8636 67.9437 28.3601V32.25H66.8714V28.4018C66.8714 27.9649 66.8297 27.6393 66.7463 27.4248C66.6629 27.2064 66.514 27.0336 66.2995 26.9065C66.089 26.7755 65.8408 26.71 65.5549 26.71C65.0982 26.71 64.703 26.8549 64.3694 27.1448C64.0398 27.4347 63.875 27.9848 63.875 28.7949V32.25H62.8027ZM69.5937 32.25V25.9236H70.5588V26.8231C71.0234 26.1282 71.6946 25.7807 72.5723 25.7807C72.9535 25.7807 73.303 25.8502 73.6207 25.9892C73.9424 26.1242 74.1826 26.3029 74.3415 26.5253C74.5004 26.7477 74.6116 27.0118 74.6751 27.3176C74.7148 27.5161 74.7347 27.8636 74.7347 28.3601V32.25H73.6624V28.4018C73.6624 27.9649 73.6207 27.6393 73.5373 27.4248C73.4539 27.2064 73.305 27.0336 73.0905 26.9065C72.88 26.7755 72.6318 26.71 72.3459 26.71C71.8892 26.71 71.494 26.8549 71.1604 27.1448C70.8308 27.4347 70.666 27.9848 70.666 28.7949V32.25H69.5937ZM80.7155 30.2127L81.8235 30.3497C81.6488 30.997 81.3251 31.4994 80.8525 31.8568C80.3799 32.2143 79.7763 32.393 79.0416 32.393C78.1163 32.393 77.3816 32.109 76.8375 31.5411C76.2974 30.9692 76.0273 30.169 76.0273 29.1404C76.0273 28.0761 76.3014 27.2501 76.8494 26.6623C77.3975 26.0745 78.1083 25.7807 78.982 25.7807C79.8279 25.7807 80.5189 26.0686 81.0551 26.6444C81.5912 27.2203 81.8593 28.0304 81.8593 29.0749C81.8593 29.1384 81.8573 29.2338 81.8533 29.3608H77.1354C77.1751 30.0558 77.3716 30.588 77.7251 30.9573C78.0785 31.3267 78.5194 31.5113 79.0476 31.5113C79.4407 31.5113 79.7763 31.4081 80.0543 31.2016C80.3323 30.9951 80.5527 30.6654 80.7155 30.2127ZM77.1949 28.4792H80.7274C80.6798 27.947 80.5448 27.5479 80.3224 27.2818C79.9808 26.8688 79.538 26.6623 78.9939 26.6623C78.5015 26.6623 78.0865 26.8271 77.7489 27.1567C77.4153 27.4864 77.2307 27.9272 77.1949 28.4792ZM83.152 32.25V23.517H84.2242V32.25H83.152ZM85.4633 30.3616L86.5236 30.1948C86.5832 30.6198 86.748 30.9454 87.0181 31.1718C87.2921 31.3981 87.6733 31.5113 88.1618 31.5113C88.6543 31.5113 89.0196 31.412 89.2579 31.2135C89.4962 31.0109 89.6153 30.7746 89.6153 30.5046C89.6153 30.2623 89.5101 30.0717 89.2996 29.9327C89.1527 29.8374 88.7873 29.7163 88.2035 29.5693C87.4172 29.3708 86.8711 29.2 86.5653 29.057C86.2635 28.9101 86.0332 28.7095 85.8743 28.4554C85.7194 28.1972 85.642 27.9133 85.642 27.6035C85.642 27.3215 85.7055 27.0614 85.8326 26.8231C85.9637 26.5809 86.1404 26.3803 86.3628 26.2215C86.5296 26.0984 86.756 25.9951 87.0419 25.9117C87.3318 25.8243 87.6416 25.7807 87.9712 25.7807C88.4676 25.7807 88.9025 25.8521 89.2758 25.9951C89.6531 26.1381 89.9311 26.3327 90.1098 26.5789C90.2885 26.8212 90.4116 27.1468 90.4791 27.5559L89.4307 27.6988C89.383 27.3732 89.244 27.119 89.0137 26.9363C88.7873 26.7536 88.4656 26.6623 88.0486 26.6623C87.5562 26.6623 87.2047 26.7437 86.9942 26.9065C86.7838 27.0694 86.6785 27.26 86.6785 27.4784C86.6785 27.6174 86.7222 27.7425 86.8096 27.8537C86.8969 27.9689 87.034 28.0642 87.2206 28.1396C87.3278 28.1794 87.6436 28.2707 88.1678 28.4137C88.9263 28.6162 89.4545 28.783 89.7523 28.9141C90.0542 29.0411 90.2905 29.2278 90.4612 29.474C90.632 29.7202 90.7174 30.026 90.7174 30.3914C90.7174 30.7488 90.6121 31.0864 90.4017 31.4041C90.1952 31.7178 89.8953 31.9621 89.5021 32.1368C89.109 32.3076 88.6642 32.393 88.1678 32.393C87.3457 32.393 86.7182 32.2222 86.2854 31.8807C85.8564 31.5391 85.5824 31.0328 85.4633 30.3616ZM92.29 27.1448V25.9236H93.5112V27.1448H92.29ZM92.29 32.25V31.0288H93.5112V32.25H92.29Z" fill="black"/>
<path d="M40.2256 60.9702V54.8571H41.0346V60.2488H44.0452V60.9702H40.2256ZM44.9209 55.7203V54.8571H45.6715V55.7203H44.9209ZM44.9209 60.9702V56.5418H45.6715V60.9702H44.9209ZM46.8182 60.9702V56.5418H47.4938V57.1714C47.819 56.6849 48.2888 56.4417 48.9032 56.4417C49.1701 56.4417 49.4147 56.4903 49.6371 56.5876C49.8623 56.6821 50.0305 56.8072 50.1417 56.9629C50.2529 57.1186 50.3307 57.3035 50.3752 57.5175C50.403 57.6565 50.4169 57.8998 50.4169 58.2473V60.9702H49.6663V58.2764C49.6663 57.9707 49.6371 57.7427 49.5787 57.5926C49.5203 57.4397 49.4161 57.3188 49.266 57.2298C49.1186 57.1381 48.9449 57.0922 48.7447 57.0922C48.425 57.0922 48.1484 57.1937 47.9149 57.3966C47.6842 57.5995 47.5688 57.9846 47.5688 58.5517V60.9702H46.8182ZM51.5761 60.9702V54.8571H52.3267V58.3432L54.1031 56.5418H55.0747L53.3817 58.1847L55.2456 60.9702H54.3199L52.8563 58.7059L52.3267 59.2147V60.9702H51.5761ZM58.8735 59.5441L59.6491 59.64C59.5268 60.0931 59.3002 60.4448 58.9694 60.695C58.6386 60.9452 58.216 61.0703 57.7017 61.0703C57.054 61.0703 56.5397 60.8715 56.1589 60.474C55.7808 60.0737 55.5917 59.5135 55.5917 58.7935C55.5917 58.0485 55.7836 57.4703 56.1672 57.0588C56.5508 56.6474 57.0484 56.4417 57.66 56.4417C58.2522 56.4417 58.7359 56.6432 59.1112 57.0463C59.4865 57.4494 59.6741 58.0165 59.6741 58.7476C59.6741 58.7921 59.6727 58.8588 59.6699 58.9478H56.3674C56.3952 59.4343 56.5328 59.8068 56.7802 60.0653C57.0276 60.3239 57.3362 60.4531 57.7059 60.4531C57.9811 60.4531 58.216 60.3809 58.4106 60.2363C58.6052 60.0918 58.7595 59.861 58.8735 59.5441ZM56.4091 58.3307H58.8818C58.8485 57.9581 58.7539 57.6788 58.5983 57.4925C58.3592 57.2034 58.0492 57.0588 57.6684 57.0588C57.3237 57.0588 57.0332 57.1742 56.7969 57.4049C56.5633 57.6357 56.4341 57.9442 56.4091 58.3307ZM63.4687 60.9702V60.4114C63.188 60.8507 62.7751 61.0703 62.2303 61.0703C61.8772 61.0703 61.552 60.973 61.2545 60.7784C60.9598 60.5838 60.7305 60.3128 60.5665 59.9653C60.4052 59.615 60.3246 59.2133 60.3246 58.7602C60.3246 58.3181 60.3983 57.9178 60.5456 57.5592C60.693 57.1978 60.914 56.9212 61.2086 56.7294C61.5033 56.5376 61.8327 56.4417 62.1969 56.4417C62.4638 56.4417 62.7015 56.4987 62.91 56.6126C63.1185 56.7238 63.288 56.8698 63.4187 57.0505V54.8571H64.1651V60.9702H63.4687ZM61.096 58.7602C61.096 59.3273 61.2156 59.7512 61.4547 60.032C61.6937 60.3128 61.9759 60.4531 62.3012 60.4531C62.6292 60.4531 62.9072 60.3197 63.1351 60.0528C63.3659 59.7832 63.4812 59.3731 63.4812 58.8227C63.4812 58.2167 63.3645 57.7719 63.131 57.4883C62.8975 57.2048 62.6097 57.063 62.2678 57.063C61.9342 57.063 61.6548 57.1992 61.4296 57.4717C61.2072 57.7441 61.096 58.1736 61.096 58.7602ZM65.5829 60.9702V54.8571H66.3918V60.9702H65.5829ZM67.7262 60.9702V56.5418H68.4017V57.1714C68.727 56.6849 69.1968 56.4417 69.8112 56.4417C70.0781 56.4417 70.3227 56.4903 70.5451 56.5876C70.7703 56.6821 70.9384 56.8072 71.0496 56.9629C71.1608 57.1186 71.2387 57.3035 71.2832 57.5175C71.311 57.6565 71.3249 57.8998 71.3249 58.2473V60.9702H70.5743V58.2764C70.5743 57.9707 70.5451 57.7427 70.4867 57.5926C70.4283 57.4397 70.3241 57.3188 70.174 57.2298C70.0266 57.1381 69.8529 57.0922 69.6527 57.0922C69.333 57.0922 69.0564 57.1937 68.8229 57.3966C68.5922 57.5995 68.4768 57.9846 68.4768 58.5517V60.9702H67.7262Z" fill="black"/>
<path d="M40.3966 89.6401V83.527H41.2055V89.6401H40.3966ZM42.5399 89.6401V85.2117H43.2154V85.8413C43.5407 85.3548 44.0105 85.1116 44.6249 85.1116C44.8917 85.1116 45.1364 85.1603 45.3588 85.2575C45.5839 85.3521 45.7521 85.4772 45.8633 85.6328C45.9745 85.7885 46.0524 85.9734 46.0968 86.1874C46.1246 86.3264 46.1385 86.5697 46.1385 86.9172V89.6401H45.3879V86.9464C45.3879 86.6406 45.3588 86.4126 45.3004 86.2625C45.242 86.1096 45.1378 85.9887 44.9876 85.8997C44.8403 85.808 44.6666 85.7621 44.4664 85.7621C44.1467 85.7621 43.8701 85.8636 43.6366 86.0665C43.4058 86.2694 43.2905 86.6545 43.2905 87.2216V89.6401H42.5399ZM46.9934 88.3183L47.7356 88.2015C47.7773 88.499 47.8927 88.7269 48.0817 88.8854C48.2735 89.0438 48.5404 89.1231 48.8823 89.1231C49.2271 89.1231 49.4828 89.0536 49.6496 88.9146C49.8164 88.7728 49.8998 88.6074 49.8998 88.4183C49.8998 88.2488 49.8261 88.1153 49.6788 88.018C49.5759 87.9513 49.3202 87.8665 48.9115 87.7637C48.3611 87.6247 47.9789 87.5051 47.7648 87.4051C47.5535 87.3022 47.3923 87.1618 47.2811 86.9839C47.1727 86.8032 47.1185 86.6044 47.1185 86.3876C47.1185 86.1902 47.1629 86.0081 47.2519 85.8413C47.3436 85.6718 47.4673 85.5314 47.623 85.4202C47.7398 85.334 47.8982 85.2617 48.0984 85.2033C48.3013 85.1422 48.5182 85.1116 48.7489 85.1116C49.0964 85.1116 49.4008 85.1616 49.6621 85.2617C49.9262 85.3618 50.1208 85.498 50.2459 85.6704C50.371 85.8399 50.4572 86.0679 50.5044 86.3542L49.7705 86.4543C49.7372 86.2264 49.6399 86.0484 49.4786 85.9206C49.3202 85.7927 49.095 85.7288 48.8031 85.7288C48.4584 85.7288 48.2124 85.7857 48.065 85.8997C47.9177 86.0137 47.844 86.1471 47.844 86.3C47.844 86.3973 47.8746 86.4849 47.9358 86.5627C47.9969 86.6434 48.0928 86.7101 48.2235 86.7629C48.2986 86.7907 48.5196 86.8546 48.8865 86.9547C49.4175 87.0965 49.7872 87.2132 49.9957 87.305C50.207 87.3939 50.3724 87.5246 50.4919 87.697C50.6115 87.8693 50.6712 88.0834 50.6712 88.3391C50.6712 88.5893 50.5976 88.8256 50.4502 89.048C50.3057 89.2676 50.0958 89.4386 49.8206 89.5609C49.5454 89.6804 49.234 89.7402 48.8865 89.7402C48.3111 89.7402 47.8718 89.6207 47.5688 89.3816C47.2686 89.1425 47.0768 88.7881 46.9934 88.3183ZM53.2024 88.9688L53.3108 89.6318C53.0995 89.6763 52.9105 89.6985 52.7437 89.6985C52.4713 89.6985 52.26 89.6554 52.1099 89.5692C51.9597 89.4831 51.8541 89.3705 51.7929 89.2315C51.7318 89.0897 51.7012 88.7936 51.7012 88.3433V85.7955H51.1508V85.2117H51.7012V84.115L52.4476 83.6646V85.2117H53.2024V85.7955H52.4476V88.385C52.4476 88.599 52.4601 88.7367 52.4852 88.7978C52.513 88.859 52.556 88.9076 52.6144 88.9438C52.6756 88.9799 52.7618 88.998 52.873 88.998C52.9564 88.998 53.0662 88.9882 53.2024 88.9688ZM56.8302 89.0939C56.5522 89.3302 56.284 89.497 56.0254 89.5943C55.7697 89.6916 55.4944 89.7402 55.1998 89.7402C54.7133 89.7402 54.3394 89.6221 54.0781 89.3858C53.8168 89.1467 53.6861 88.8423 53.6861 88.4726C53.6861 88.2557 53.7347 88.0583 53.832 87.8804C53.9321 87.6997 54.0614 87.5552 54.2198 87.4468C54.3811 87.3383 54.5618 87.2563 54.7619 87.2007C54.9093 87.1618 55.1317 87.1243 55.4291 87.0881C56.0351 87.0159 56.4813 86.9297 56.7677 86.8296C56.7704 86.7268 56.7718 86.6614 56.7718 86.6336C56.7718 86.3278 56.7009 86.1124 56.5592 85.9873C56.3674 85.8177 56.0824 85.7329 55.7043 85.7329C55.3513 85.7329 55.09 85.7955 54.9204 85.9206C54.7536 86.0429 54.6299 86.2611 54.5493 86.5752L53.8154 86.4752C53.8821 86.161 53.9919 85.9081 54.1448 85.7162C54.2977 85.5216 54.5187 85.3729 54.8078 85.2701C55.0969 85.1644 55.4319 85.1116 55.8128 85.1116C56.1908 85.1116 56.498 85.1561 56.7343 85.245C56.9706 85.334 57.1443 85.4466 57.2555 85.5828C57.3667 85.7162 57.4446 85.8858 57.4891 86.0915C57.5141 86.2194 57.5266 86.4501 57.5266 86.7837V87.7845C57.5266 88.4823 57.5419 88.9243 57.5725 89.1106C57.6058 89.294 57.6698 89.4706 57.7643 89.6401H56.9803C56.9025 89.4845 56.8525 89.3024 56.8302 89.0939ZM56.7677 87.4176C56.4952 87.5288 56.0866 87.6233 55.5417 87.7011C55.2331 87.7456 55.0149 87.7956 54.887 87.8512C54.7592 87.9068 54.6605 87.9888 54.591 88.0973C54.5215 88.2029 54.4867 88.3211 54.4867 88.4517C54.4867 88.6519 54.5618 88.8187 54.7119 88.9521C54.8648 89.0855 55.0872 89.1523 55.3791 89.1523C55.6682 89.1523 55.9253 89.0897 56.1505 88.9646C56.3757 88.8367 56.5411 88.663 56.6467 88.4434C56.7274 88.2738 56.7677 88.0236 56.7677 87.6928V87.4176ZM58.5566 90.0071L59.2863 90.1155C59.3169 90.3407 59.4017 90.5047 59.5407 90.6076C59.7269 90.7466 59.9813 90.8161 60.3038 90.8161C60.6513 90.8161 60.9195 90.7466 61.1086 90.6076C61.2976 90.4686 61.4255 90.274 61.4922 90.0238C61.5311 89.8709 61.5492 89.5498 61.5464 89.0605C61.2184 89.4469 60.8097 89.6401 60.3204 89.6401C59.7116 89.6401 59.2404 89.4205 58.9068 88.9813C58.5732 88.5421 58.4064 88.0153 58.4064 87.4009C58.4064 86.9783 58.4829 86.5891 58.6358 86.2333C58.7887 85.8747 59.0097 85.5981 59.2988 85.4035C59.5907 85.2089 59.9326 85.1116 60.3246 85.1116C60.8472 85.1116 61.2781 85.3229 61.6173 85.7454V85.2117H62.3095V89.0397C62.3095 89.7291 62.2386 90.217 62.0968 90.5033C61.9578 90.7924 61.7354 91.0204 61.4296 91.1872C61.1266 91.354 60.7527 91.4374 60.3079 91.4374C59.7797 91.4374 59.353 91.3178 59.0278 91.0788C58.7025 90.8425 58.5454 90.4852 58.5566 90.0071ZM59.1779 87.3467C59.1779 87.9277 59.2932 88.3516 59.524 88.6185C59.7547 88.8854 60.0438 89.0188 60.3913 89.0188C60.736 89.0188 61.0252 88.8868 61.2587 88.6227C61.4922 88.3558 61.6089 87.9388 61.6089 87.3717C61.6089 86.8296 61.488 86.421 61.2462 86.1457C61.0071 85.8705 60.718 85.7329 60.3788 85.7329C60.0452 85.7329 59.7617 85.8691 59.5282 86.1416C59.2946 86.4112 59.1779 86.8129 59.1779 87.3467ZM63.4395 89.6401V85.2117H64.1151V85.883C64.2874 85.5689 64.4459 85.3618 64.5904 85.2617C64.7378 85.1616 64.899 85.1116 65.0742 85.1116C65.3271 85.1116 65.5843 85.1922 65.8456 85.3535L65.5871 86.0498C65.4036 85.9414 65.2201 85.8872 65.0366 85.8872C64.8726 85.8872 64.7253 85.9372 64.5946 86.0373C64.464 86.1346 64.3708 86.2708 64.3152 86.446C64.2318 86.7129 64.1901 87.0047 64.1901 87.3217V89.6401H63.4395ZM69.1815 89.0939C68.9035 89.3302 68.6353 89.497 68.3767 89.5943C68.121 89.6916 67.8458 89.7402 67.5511 89.7402C67.0646 89.7402 66.6907 89.6221 66.4294 89.3858C66.1681 89.1467 66.0374 88.8423 66.0374 88.4726C66.0374 88.2557 66.086 88.0583 66.1833 87.8804C66.2834 87.6997 66.4127 87.5552 66.5712 87.4468C66.7324 87.3383 66.9131 87.2563 67.1132 87.2007C67.2606 87.1618 67.483 87.1243 67.7804 87.0881C68.3865 87.0159 68.8326 86.9297 69.119 86.8296C69.1218 86.7268 69.1231 86.6614 69.1231 86.6336C69.1231 86.3278 69.0523 86.1124 68.9105 85.9873C68.7187 85.8177 68.4337 85.7329 68.0556 85.7329C67.7026 85.7329 67.4413 85.7955 67.2717 85.9206C67.1049 86.0429 66.9812 86.2611 66.9006 86.5752L66.1667 86.4752C66.2334 86.161 66.3432 85.9081 66.4961 85.7162C66.649 85.5216 66.87 85.3729 67.1591 85.2701C67.4482 85.1644 67.7832 85.1116 68.1641 85.1116C68.5421 85.1116 68.8493 85.1561 69.0856 85.245C69.3219 85.334 69.4957 85.4466 69.6069 85.5828C69.7181 85.7162 69.7959 85.8858 69.8404 86.0915C69.8654 86.2194 69.8779 86.4501 69.8779 86.7837V87.7845C69.8779 88.4823 69.8932 88.9243 69.9238 89.1106C69.9571 89.294 70.0211 89.4706 70.1156 89.6401H69.3316C69.2538 89.4845 69.2038 89.3024 69.1815 89.0939ZM69.119 87.4176C68.8465 87.5288 68.4379 87.6233 67.893 87.7011C67.5844 87.7456 67.3662 87.7956 67.2383 87.8512C67.1105 87.9068 67.0118 87.9888 66.9423 88.0973C66.8728 88.2029 66.838 88.3211 66.838 88.4517C66.838 88.6519 66.9131 88.8187 67.0632 88.9521C67.2161 89.0855 67.4385 89.1523 67.7304 89.1523C68.0195 89.1523 68.2766 89.0897 68.5018 88.9646C68.727 88.8367 68.8924 88.663 68.998 88.4434C69.0787 88.2738 69.119 88.0236 69.119 87.6928V87.4176ZM71.0455 89.6401V85.2117H71.7168V85.833C71.8558 85.6162 72.0407 85.4424 72.2714 85.3118C72.5022 85.1783 72.7649 85.1116 73.0595 85.1116C73.3876 85.1116 73.6558 85.1797 73.8643 85.3159C74.0756 85.4521 74.2243 85.6426 74.3105 85.8872C74.6608 85.3701 75.1167 85.1116 75.6783 85.1116C76.1175 85.1116 76.4553 85.2339 76.6916 85.4786C76.9278 85.7204 77.046 86.0943 77.046 86.6003V89.6401H76.2996V86.8505C76.2996 86.5502 76.2746 86.3348 76.2245 86.2041C76.1773 86.0707 76.0897 85.9637 75.9618 85.883C75.8339 85.8024 75.6838 85.7621 75.5115 85.7621C75.2001 85.7621 74.9416 85.8664 74.7359 86.0749C74.5301 86.2806 74.4273 86.6114 74.4273 87.0673V89.6401H73.6767V86.7629C73.6767 86.4293 73.6155 86.1791 73.4932 86.0123C73.3709 85.8455 73.1707 85.7621 72.8928 85.7621C72.6815 85.7621 72.4855 85.8177 72.3048 85.9289C72.1269 86.0401 71.9976 86.2027 71.917 86.4168C71.8364 86.6308 71.7961 86.9394 71.7961 87.3425V89.6401H71.0455Z" fill="black"/>
<path d="M40.3006 119.53V113.417H44.4247V114.138H41.1096V116.031H43.9785V116.753H41.1096V119.53H40.3006ZM48.2735 118.984C47.9955 119.22 47.7273 119.387 47.4687 119.484C47.213 119.581 46.9378 119.63 46.6431 119.63C46.1566 119.63 45.7827 119.512 45.5214 119.275C45.2601 119.036 45.1294 118.732 45.1294 118.362C45.1294 118.145 45.1781 117.948 45.2754 117.77C45.3754 117.589 45.5047 117.445 45.6632 117.336C45.8244 117.228 46.0051 117.146 46.2053 117.09C46.3526 117.051 46.575 117.014 46.8724 116.978C47.4785 116.906 47.9247 116.819 48.211 116.719C48.2138 116.616 48.2152 116.551 48.2152 116.523C48.2152 116.217 48.1443 116.002 48.0025 115.877C47.8107 115.707 47.5257 115.623 47.1477 115.623C46.7946 115.623 46.5333 115.685 46.3637 115.81C46.1969 115.933 46.0732 116.151 45.9926 116.465L45.2587 116.365C45.3254 116.051 45.4352 115.798 45.5881 115.606C45.741 115.411 45.962 115.263 46.2511 115.16C46.5402 115.054 46.8752 115.001 47.2561 115.001C47.6341 115.001 47.9413 115.046 48.1776 115.135C48.4139 115.224 48.5877 115.336 48.6989 115.472C48.8101 115.606 48.8879 115.775 48.9324 115.981C48.9574 116.109 48.9699 116.34 48.9699 116.673V117.674C48.9699 118.372 48.9852 118.814 49.0158 119C49.0491 119.184 49.1131 119.36 49.2076 119.53H48.4237C48.3458 119.374 48.2958 119.192 48.2735 118.984ZM48.211 117.307C47.9386 117.418 47.5299 117.513 46.985 117.591C46.6765 117.635 46.4582 117.685 46.3304 117.741C46.2025 117.796 46.1038 117.878 46.0343 117.987C45.9648 118.093 45.93 118.211 45.93 118.341C45.93 118.542 46.0051 118.708 46.1552 118.842C46.3081 118.975 46.5305 119.042 46.8224 119.042C47.1115 119.042 47.3687 118.979 47.5938 118.854C47.819 118.726 47.9844 118.553 48.0901 118.333C48.1707 118.163 48.211 117.913 48.211 117.582V117.307ZM53.0272 117.908L53.7653 118.004C53.6847 118.512 53.4776 118.911 53.144 119.2C52.8132 119.487 52.4059 119.63 51.9222 119.63C51.3162 119.63 50.8283 119.432 50.4586 119.038C50.0916 118.64 49.9081 118.072 49.9081 117.332C49.9081 116.854 49.9874 116.436 50.1458 116.077C50.3043 115.718 50.5448 115.45 50.8672 115.272C51.1925 115.092 51.5455 115.001 51.9264 115.001C52.4073 115.001 52.8007 115.124 53.1065 115.368C53.4123 115.61 53.6083 115.955 53.6944 116.402L52.9647 116.515C52.8952 116.217 52.7715 115.994 52.5936 115.844C52.4184 115.693 52.2058 115.618 51.9556 115.618C51.5775 115.618 51.2703 115.755 51.034 116.027C50.7977 116.297 50.6796 116.725 50.6796 117.311C50.6796 117.906 50.7936 118.339 51.0215 118.608C51.2495 118.878 51.5469 119.013 51.9139 119.013C52.2086 119.013 52.4546 118.922 52.652 118.742C52.8493 118.561 52.9744 118.283 53.0272 117.908ZM57.439 118.104L58.2146 118.2C58.0923 118.653 57.8657 119.004 57.5349 119.255C57.2041 119.505 56.7816 119.63 56.2673 119.63C55.6195 119.63 55.1053 119.431 54.7244 119.034C54.3463 118.633 54.1573 118.073 54.1573 117.353C54.1573 116.608 54.3491 116.03 54.7327 115.618C55.1164 115.207 55.614 115.001 56.2256 115.001C56.8177 115.001 57.3014 115.203 57.6767 115.606C58.052 116.009 58.2396 116.576 58.2396 117.307C58.2396 117.352 58.2383 117.418 58.2355 117.507H54.9329C54.9607 117.994 55.0983 118.366 55.3457 118.625C55.5931 118.883 55.9017 119.013 56.2714 119.013C56.5467 119.013 56.7816 118.94 56.9762 118.796C57.1708 118.651 57.325 118.421 57.439 118.104ZM54.9746 116.89H57.4474C57.414 116.518 57.3195 116.238 57.1638 116.052C56.9247 115.763 56.6148 115.618 56.2339 115.618C55.8892 115.618 55.5987 115.734 55.3624 115.965C55.1289 116.195 54.9996 116.504 54.9746 116.89ZM59.8534 119.53H59.157V113.417H59.9076V115.598C60.2245 115.2 60.629 115.001 61.1211 115.001C61.3935 115.001 61.6506 115.057 61.8925 115.168C62.1371 115.276 62.3373 115.431 62.493 115.631C62.6514 115.828 62.7751 116.067 62.8641 116.348C62.953 116.629 62.9975 116.929 62.9975 117.249C62.9975 118.008 62.8099 118.594 62.4346 119.009C62.0593 119.423 61.6089 119.63 61.0835 119.63C60.5609 119.63 60.1509 119.412 59.8534 118.975V119.53ZM59.8451 117.282C59.8451 117.813 59.9173 118.197 60.0619 118.433C60.2982 118.82 60.6179 119.013 61.021 119.013C61.349 119.013 61.6326 118.871 61.8716 118.587C62.1107 118.301 62.2303 117.876 62.2303 117.311C62.2303 116.733 62.1149 116.306 61.8842 116.031C61.6562 115.756 61.3796 115.618 61.0543 115.618C60.7263 115.618 60.4428 115.762 60.2037 116.048C59.9646 116.331 59.8451 116.743 59.8451 117.282ZM63.6355 117.316C63.6355 116.495 63.8635 115.888 64.3194 115.493C64.7002 115.165 65.1645 115.001 65.7121 115.001C66.321 115.001 66.8186 115.201 67.205 115.602C67.5914 115.999 67.7846 116.55 67.7846 117.253C67.7846 117.823 67.6984 118.272 67.5261 118.6C67.3565 118.925 67.1077 119.178 66.7796 119.359C66.4544 119.54 66.0986 119.63 65.7121 119.63C65.0922 119.63 64.5904 119.431 64.2068 119.034C63.826 118.636 63.6355 118.063 63.6355 117.316ZM64.407 117.316C64.407 117.883 64.5307 118.308 64.7781 118.592C65.0255 118.872 65.3369 119.013 65.7121 119.013C66.0847 119.013 66.3946 118.871 66.642 118.587C66.8895 118.304 67.0132 117.872 67.0132 117.291C67.0132 116.743 66.8881 116.329 66.6379 116.048C66.3905 115.764 66.0819 115.623 65.7121 115.623C65.3369 115.623 65.0255 115.763 64.7781 116.044C64.5307 116.325 64.407 116.748 64.407 117.316ZM68.3892 117.316C68.3892 116.495 68.6172 115.888 69.0731 115.493C69.454 115.165 69.9182 115.001 70.4659 115.001C71.0747 115.001 71.5723 115.201 71.9587 115.602C72.3451 115.999 72.5383 116.55 72.5383 117.253C72.5383 117.823 72.4521 118.272 72.2798 118.6C72.1102 118.925 71.8614 119.178 71.5334 119.359C71.2081 119.54 70.8523 119.63 70.4659 119.63C69.8459 119.63 69.3441 119.431 68.9605 119.034C68.5797 118.636 68.3892 118.063 68.3892 117.316ZM69.1607 117.316C69.1607 117.883 69.2844 118.308 69.5318 118.592C69.7792 118.872 70.0906 119.013 70.4659 119.013C70.8384 119.013 71.1483 118.871 71.3958 118.587C71.6432 118.304 71.7669 117.872 71.7669 117.291C71.7669 116.743 71.6418 116.329 71.3916 116.048C71.1442 115.764 70.8356 115.623 70.4659 115.623C70.0906 115.623 69.7792 115.763 69.5318 116.044C69.2844 116.325 69.1607 116.748 69.1607 117.316ZM73.4265 119.53V113.417H74.1771V116.903L75.9535 115.101H76.9251L75.2321 116.744L77.096 119.53H76.1703L74.7067 117.266L74.1771 117.774V119.53H73.4265Z" fill="black"/>
<path d="M40.2715 148.2V142.087H42.9819C43.5268 142.087 43.941 142.143 44.2245 142.254C44.5081 142.362 44.7347 142.556 44.9042 142.834C45.0738 143.112 45.1586 143.419 45.1586 143.755C45.1586 144.189 45.0182 144.554 44.7374 144.852C44.4567 145.149 44.023 145.338 43.4364 145.419C43.6505 145.522 43.8131 145.623 43.9243 145.723C44.1606 145.94 44.3844 146.211 44.5957 146.536L45.659 148.2H44.6415L43.8326 146.928C43.5963 146.561 43.4017 146.281 43.2488 146.086C43.0959 145.891 42.9583 145.755 42.836 145.677C42.7164 145.6 42.5941 145.545 42.469 145.515C42.3773 145.495 42.2271 145.486 42.0187 145.486H41.0804V148.2H40.2715ZM41.0804 144.785H42.8193C43.189 144.785 43.4781 144.748 43.6866 144.672C43.8951 144.595 44.0536 144.472 44.162 144.305C44.2704 144.136 44.3246 143.952 44.3246 143.755C44.3246 143.466 44.219 143.228 44.0077 143.042C43.7992 142.856 43.4684 142.763 43.0153 142.763H41.0804V144.785ZM49.3661 146.774L50.1417 146.87C50.0193 147.323 49.7928 147.675 49.462 147.925C49.1311 148.175 48.7086 148.3 48.1943 148.3C47.5466 148.3 47.0323 148.102 46.6514 147.704C46.2734 147.304 46.0843 146.744 46.0843 146.023C46.0843 145.278 46.2761 144.7 46.6598 144.289C47.0434 143.877 47.541 143.672 48.1526 143.672C48.7447 143.672 49.2284 143.873 49.6037 144.276C49.979 144.679 50.1667 145.247 50.1667 145.978C50.1667 146.022 50.1653 146.089 50.1625 146.178H46.8599C46.8877 146.664 47.0253 147.037 47.2728 147.295C47.5202 147.554 47.8287 147.683 48.1985 147.683C48.4737 147.683 48.7086 147.611 48.9032 147.466C49.0978 147.322 49.2521 147.091 49.3661 146.774ZM46.9016 145.561H49.3744C49.341 145.188 49.2465 144.909 49.0908 144.722C48.8518 144.433 48.5418 144.289 48.1609 144.289C47.8162 144.289 47.5257 144.404 47.2894 144.635C47.0559 144.866 46.9267 145.174 46.9016 145.561ZM53.9613 148.2V147.641C53.6805 148.081 53.2677 148.3 52.7228 148.3C52.3698 148.3 52.0445 148.203 51.7471 148.008C51.4524 147.814 51.2231 147.543 51.059 147.195C50.8978 146.845 50.8172 146.443 50.8172 145.99C50.8172 145.548 50.8909 145.148 51.0382 144.789C51.1855 144.428 51.4065 144.151 51.7012 143.959C51.9959 143.768 52.3253 143.672 52.6895 143.672C52.9564 143.672 53.194 143.729 53.4025 143.843C53.611 143.954 53.7806 144.1 53.9113 144.28V142.087H54.6577V148.2H53.9613ZM51.5886 145.99C51.5886 146.557 51.7082 146.981 51.9472 147.262C52.1863 147.543 52.4685 147.683 52.7937 147.683C53.1218 147.683 53.3998 147.55 53.6277 147.283C53.8585 147.013 53.9738 146.603 53.9738 146.053C53.9738 145.447 53.8571 145.002 53.6235 144.718C53.39 144.435 53.1023 144.293 52.7604 144.293C52.4268 144.293 52.1474 144.429 51.9222 144.702C51.6998 144.974 51.5886 145.404 51.5886 145.99ZM58.715 148.2V147.641C58.4342 148.081 58.0214 148.3 57.4766 148.3C57.1235 148.3 56.7982 148.203 56.5008 148.008C56.2061 147.814 55.9768 147.543 55.8128 147.195C55.6515 146.845 55.5709 146.443 55.5709 145.99C55.5709 145.548 55.6446 145.148 55.7919 144.789C55.9392 144.428 56.1602 144.151 56.4549 143.959C56.7496 143.768 57.079 143.672 57.4432 143.672C57.7101 143.672 57.9478 143.729 58.1562 143.843C58.3647 143.954 58.5343 144.1 58.665 144.28V142.087H59.4114V148.2H58.715ZM56.3423 145.99C56.3423 146.557 56.4619 146.981 56.7009 147.262C56.94 147.543 57.2222 147.683 57.5474 147.683C57.8755 147.683 58.1535 147.55 58.3814 147.283C58.6122 147.013 58.7275 146.603 58.7275 146.053C58.7275 145.447 58.6108 145.002 58.3773 144.718C58.1437 144.435 57.856 144.293 57.5141 144.293C57.1805 144.293 56.9011 144.429 56.6759 144.702C56.4535 144.974 56.3423 145.404 56.3423 145.99ZM60.5998 142.95V142.087H61.3504V142.95H60.5998ZM60.5998 148.2V143.772H61.3504V148.2H60.5998ZM64.1359 147.529L64.2443 148.192C64.0331 148.236 63.844 148.259 63.6772 148.259C63.4048 148.259 63.1935 148.215 63.0434 148.129C62.8933 148.043 62.7876 147.931 62.7265 147.792C62.6653 147.65 62.6347 147.354 62.6347 146.903V144.356H62.0843V143.772H62.6347V142.675L63.3812 142.225V143.772H64.1359V144.356H63.3812V146.945C63.3812 147.159 63.3937 147.297 63.4187 147.358C63.4465 147.419 63.4896 147.468 63.548 147.504C63.6091 147.54 63.6953 147.558 63.8065 147.558C63.8899 147.558 63.9997 147.548 64.1359 147.529Z" fill="black"/>
<path d="M41.9811 177.48V174.891L39.6251 171.367H40.6092L41.8143 173.21C42.0367 173.555 42.2438 173.9 42.4356 174.245C42.6191 173.925 42.8415 173.565 43.1028 173.165L44.2871 171.367H45.2295L42.7901 174.891V177.48H41.9811ZM44.7958 175.266C44.7958 174.446 45.0238 173.839 45.4797 173.444C45.8605 173.116 46.3248 172.952 46.8724 172.952C47.4813 172.952 47.9789 173.152 48.3653 173.552C48.7517 173.95 48.9449 174.5 48.9449 175.204C48.9449 175.774 48.8587 176.223 48.6864 176.551C48.5168 176.876 48.268 177.129 47.9399 177.31C47.6147 177.49 47.2589 177.581 46.8724 177.581C46.2525 177.581 45.7507 177.382 45.3671 176.984C44.9862 176.587 44.7958 176.014 44.7958 175.266ZM45.5673 175.266C45.5673 175.833 45.691 176.259 45.9384 176.542C46.1858 176.823 46.4971 176.963 46.8724 176.963C47.245 176.963 47.5549 176.822 47.8023 176.538C48.0497 176.255 48.1735 175.822 48.1735 175.241C48.1735 174.694 48.0484 174.279 47.7982 173.999C47.5507 173.715 47.2422 173.573 46.8724 173.573C46.4971 173.573 46.1858 173.714 45.9384 173.994C45.691 174.275 45.5673 174.699 45.5673 175.266ZM52.7312 177.48V176.83C52.3865 177.33 51.918 177.581 51.3259 177.581C51.0646 177.581 50.82 177.531 50.592 177.43C50.3668 177.33 50.1986 177.205 50.0875 177.055C49.979 176.902 49.9026 176.716 49.8581 176.496C49.8275 176.349 49.8122 176.116 49.8122 175.796V173.052H50.5628V175.508C50.5628 175.9 50.5781 176.164 50.6087 176.3C50.6559 176.498 50.756 176.653 50.9089 176.767C51.0618 176.879 51.2509 176.934 51.476 176.934C51.7012 176.934 51.9125 176.877 52.1099 176.763C52.3072 176.646 52.4462 176.489 52.5269 176.292C52.6103 176.092 52.652 175.803 52.652 175.425V173.052H53.4025V177.48H52.7312ZM56.2214 176.809L56.3298 177.472C56.1185 177.517 55.9295 177.539 55.7627 177.539C55.4903 177.539 55.279 177.496 55.1289 177.41C54.9788 177.323 54.8731 177.211 54.812 177.072C54.7508 176.93 54.7202 176.634 54.7202 176.184V173.636H54.1698V173.052H54.7202V171.955L55.4667 171.505V173.052H56.2214V173.636H55.4667V176.225C55.4667 176.439 55.4792 176.577 55.5042 176.638C55.532 176.699 55.5751 176.748 55.6334 176.784C55.6946 176.82 55.7808 176.838 55.892 176.838C55.9754 176.838 56.0852 176.829 56.2214 176.809ZM59.8617 177.48V176.83C59.517 177.33 59.0486 177.581 58.4565 177.581C58.1952 177.581 57.9505 177.531 57.7226 177.43C57.4974 177.33 57.3292 177.205 57.218 177.055C57.1096 176.902 57.0331 176.716 56.9887 176.496C56.9581 176.349 56.9428 176.116 56.9428 175.796V173.052H57.6934V175.508C57.6934 175.9 57.7087 176.164 57.7393 176.3C57.7865 176.498 57.8866 176.653 58.0395 176.767C58.1924 176.879 58.3814 176.934 58.6066 176.934C58.8318 176.934 59.0431 176.877 59.2404 176.763C59.4378 176.646 59.5768 176.489 59.6574 176.292C59.7408 176.092 59.7825 175.803 59.7825 175.425V173.052H60.5331V177.48H59.8617ZM62.4054 177.48H61.709V171.367H62.4596V173.548C62.7765 173.151 63.181 172.952 63.6731 172.952C63.9455 172.952 64.2026 173.008 64.4445 173.119C64.6891 173.227 64.8893 173.381 65.045 173.582C65.2034 173.779 65.3271 174.018 65.4161 174.299C65.505 174.58 65.5495 174.88 65.5495 175.2C65.5495 175.958 65.3619 176.545 64.9866 176.959C64.6113 177.373 64.1609 177.581 63.6355 177.581C63.1129 177.581 62.7029 177.362 62.4054 176.926V177.48ZM62.3971 175.233C62.3971 175.764 62.4693 176.147 62.6139 176.384C62.8502 176.77 63.1699 176.963 63.573 176.963C63.901 176.963 64.1846 176.822 64.4236 176.538C64.6627 176.252 64.7823 175.826 64.7823 175.262C64.7823 174.684 64.6669 174.257 64.4362 173.982C64.2082 173.707 63.9316 173.569 63.6063 173.569C63.2783 173.569 62.9947 173.712 62.7557 173.999C62.5166 174.282 62.3971 174.694 62.3971 175.233ZM69.4984 176.054L70.274 176.15C70.1517 176.603 69.9252 176.955 69.5943 177.205C69.2635 177.455 68.841 177.581 68.3267 177.581C67.679 177.581 67.1647 177.382 66.7838 176.984C66.4057 176.584 66.2167 176.024 66.2167 175.304C66.2167 174.559 66.4085 173.981 66.7922 173.569C67.1758 173.158 67.6734 172.952 68.285 172.952C68.8771 172.952 69.3608 173.153 69.7361 173.557C70.1114 173.96 70.2991 174.527 70.2991 175.258C70.2991 175.302 70.2977 175.369 70.2949 175.458H66.9923C67.0201 175.945 67.1577 176.317 67.4051 176.576C67.6526 176.834 67.9611 176.963 68.3309 176.963C68.6061 176.963 68.841 176.891 69.0356 176.747C69.2302 176.602 69.3845 176.371 69.4984 176.054ZM67.034 174.841H69.5068C69.4734 174.468 69.3789 174.189 69.2232 174.003C68.9841 173.714 68.6742 173.569 68.2933 173.569C67.9486 173.569 67.6581 173.684 67.4218 173.915C67.1883 174.146 67.059 174.454 67.034 174.841Z" fill="black"/>
<path d="M40.2589 207.37V201.257H42.5649C42.9708 201.257 43.2807 201.276 43.4948 201.315C43.795 201.365 44.0466 201.461 44.2496 201.603C44.4525 201.742 44.6151 201.938 44.7374 202.191C44.8625 202.444 44.9251 202.722 44.9251 203.025C44.9251 203.545 44.7597 203.986 44.4289 204.347C44.0981 204.706 43.5004 204.885 42.6358 204.885H41.0679V207.37H40.2589ZM41.0679 204.163H42.6483C43.1709 204.163 43.5421 204.066 43.7617 203.872C43.9813 203.677 44.0911 203.403 44.0911 203.05C44.0911 202.794 44.0258 202.576 43.8951 202.395C43.7672 202.212 43.5977 202.091 43.3864 202.033C43.2502 201.996 42.9986 201.978 42.6316 201.978H41.0679V204.163ZM45.8633 202.12V201.257H46.6139V202.12H45.8633ZM45.8633 207.37V202.942H46.6139V207.37H45.8633ZM47.7606 207.37V202.942H48.4362V203.571C48.7614 203.085 49.2312 202.842 49.8456 202.842C50.1125 202.842 50.3571 202.89 50.5795 202.988C50.8047 203.082 50.9729 203.207 51.0841 203.363C51.1953 203.518 51.2731 203.703 51.3176 203.917C51.3454 204.056 51.3593 204.3 51.3593 204.647V207.37H50.6087V204.676C50.6087 204.371 50.5795 204.143 50.5211 203.992C50.4627 203.84 50.3585 203.719 50.2084 203.63C50.061 203.538 49.8873 203.492 49.6871 203.492C49.3674 203.492 49.0908 203.594 48.8573 203.796C48.6266 203.999 48.5112 204.384 48.5112 204.952V207.37H47.7606ZM54.1531 206.699L54.2615 207.362C54.0503 207.406 53.8612 207.428 53.6944 207.428C53.422 207.428 53.2107 207.385 53.0606 207.299C52.9105 207.213 52.8048 207.1 52.7437 206.961C52.6825 206.82 52.652 206.524 52.652 206.073V203.525H52.1015V202.942H52.652V201.845L53.3984 201.395V202.942H54.1531V203.525H53.3984V206.115C53.3984 206.329 53.4109 206.467 53.4359 206.528C53.4637 206.589 53.5068 206.638 53.5652 206.674C53.6263 206.71 53.7125 206.728 53.8237 206.728C53.9071 206.728 54.0169 206.718 54.1531 206.699ZM57.9227 205.944L58.6983 206.04C58.576 206.493 58.3495 206.845 58.0186 207.095C57.6878 207.345 57.2653 207.47 56.751 207.47C56.1033 207.47 55.589 207.271 55.2081 206.874C54.83 206.474 54.641 205.913 54.641 205.193C54.641 204.448 54.8328 203.87 55.2165 203.459C55.6001 203.047 56.0977 202.842 56.7093 202.842C57.3014 202.842 57.7851 203.043 58.1604 203.446C58.5357 203.849 58.7234 204.416 58.7234 205.148C58.7234 205.192 58.722 205.259 58.7192 205.348H55.4166C55.4444 205.834 55.582 206.207 55.8294 206.465C56.0768 206.724 56.3854 206.853 56.7552 206.853C57.0304 206.853 57.2653 206.781 57.4599 206.636C57.6545 206.492 57.8088 206.261 57.9227 205.944ZM55.4583 204.731H57.9311C57.8977 204.358 57.8032 204.079 57.6475 203.892C57.4084 203.603 57.0985 203.459 56.7176 203.459C56.3729 203.459 56.0824 203.574 55.8461 203.805C55.6126 204.036 55.4833 204.344 55.4583 204.731ZM59.6366 207.37V202.942H60.3121V203.613C60.4845 203.299 60.6429 203.092 60.7875 202.992C60.9348 202.892 61.096 202.842 61.2712 202.842C61.5242 202.842 61.7813 202.922 62.0426 203.083L61.7841 203.78C61.6006 203.671 61.4171 203.617 61.2337 203.617C61.0696 203.617 60.9223 203.667 60.7916 203.767C60.661 203.865 60.5679 204.001 60.5123 204.176C60.4289 204.443 60.3872 204.735 60.3872 205.052V207.37H59.6366ZM65.5203 205.944L66.2959 206.04C66.1736 206.493 65.9471 206.845 65.6162 207.095C65.2854 207.345 64.8629 207.47 64.3486 207.47C63.7009 207.47 63.1866 207.271 62.8057 206.874C62.4276 206.474 62.2386 205.913 62.2386 205.193C62.2386 204.448 62.4304 203.87 62.8141 203.459C63.1977 203.047 63.6953 202.842 64.3069 202.842C64.899 202.842 65.3827 203.043 65.758 203.446C66.1333 203.849 66.321 204.416 66.321 205.148C66.321 205.192 66.3196 205.259 66.3168 205.348H63.0142C63.042 205.834 63.1796 206.207 63.427 206.465C63.6744 206.724 63.983 206.853 64.3528 206.853C64.628 206.853 64.8629 206.781 65.0575 206.636C65.2521 206.492 65.4064 206.261 65.5203 205.944ZM63.0559 204.731H65.5287C65.4953 204.358 65.4008 204.079 65.2451 203.892C65.006 203.603 64.6961 203.459 64.3152 203.459C63.9705 203.459 63.68 203.574 63.4437 203.805C63.2102 204.036 63.0809 204.344 63.0559 204.731ZM66.9423 206.048L67.6845 205.931C67.7262 206.229 67.8416 206.457 68.0306 206.615C68.2224 206.774 68.4893 206.853 68.8312 206.853C69.176 206.853 69.4317 206.784 69.5985 206.645C69.7653 206.503 69.8487 206.337 69.8487 206.148C69.8487 205.979 69.775 205.845 69.6277 205.748C69.5248 205.681 69.2691 205.597 68.8604 205.494C68.31 205.355 67.9278 205.235 67.7137 205.135C67.5024 205.032 67.3412 204.892 67.23 204.714C67.1216 204.533 67.0674 204.334 67.0674 204.118C67.0674 203.92 67.1119 203.738 67.2008 203.571C67.2925 203.402 67.4163 203.261 67.5719 203.15C67.6887 203.064 67.8471 202.992 68.0473 202.933C68.2502 202.872 68.4671 202.842 68.6978 202.842C69.0453 202.842 69.3497 202.892 69.611 202.992C69.8751 203.092 70.0697 203.228 70.1948 203.4C70.3199 203.57 70.4061 203.798 70.4533 204.084L69.7194 204.184C69.6861 203.956 69.5888 203.778 69.4275 203.651C69.2691 203.523 69.0439 203.459 68.752 203.459C68.4073 203.459 68.1613 203.516 68.0139 203.63C67.8666 203.744 67.7929 203.877 67.7929 204.03C67.7929 204.127 67.8235 204.215 67.8847 204.293C67.9458 204.373 68.0417 204.44 68.1724 204.493C68.2475 204.521 68.4685 204.585 68.8354 204.685C69.3664 204.826 69.7361 204.943 69.9446 205.035C70.1559 205.124 70.3213 205.255 70.4408 205.427C70.5604 205.599 70.6201 205.813 70.6201 206.069C70.6201 206.319 70.5465 206.556 70.3991 206.778C70.2546 206.998 70.0447 207.169 69.7695 207.291C69.4943 207.41 69.1829 207.47 68.8354 207.47C68.26 207.47 67.8207 207.351 67.5177 207.112C67.2175 206.873 67.0257 206.518 66.9423 206.048ZM73.1513 206.699L73.2597 207.362C73.0484 207.406 72.8594 207.428 72.6926 207.428C72.4202 207.428 72.2089 207.385 72.0588 207.299C71.9087 207.213 71.803 207.1 71.7419 206.961C71.6807 206.82 71.6501 206.524 71.6501 206.073V203.525H71.0997V202.942H71.6501V201.845L72.3965 201.395V202.942H73.1513V203.525H72.3965V206.115C72.3965 206.329 72.409 206.467 72.4341 206.528C72.4619 206.589 72.505 206.638 72.5633 206.674C72.6245 206.71 72.7107 206.728 72.8219 206.728C72.9053 206.728 73.0151 206.718 73.1513 206.699Z" fill="black"/>
<path d="M41.8143 236.04V230.648H39.8003V229.927H44.6457V230.648H42.6233V236.04H41.8143ZM45.071 230.79V229.927H45.8216V230.79H45.071ZM45.071 236.04V231.612H45.8216V236.04H45.071ZM46.9725 236.04V229.927H47.7231V233.413L49.4995 231.612H50.4711L48.7781 233.255L50.6421 236.04H49.7163L48.2527 233.776L47.7231 234.285V236.04H46.9725ZM52.8771 235.369L52.9855 236.032C52.7743 236.076 52.5852 236.098 52.4184 236.098C52.146 236.098 51.9347 236.055 51.7846 235.969C51.6345 235.883 51.5289 235.77 51.4677 235.631C51.4065 235.49 51.376 235.194 51.376 234.743V232.195H50.8255V231.612H51.376V230.515L52.1224 230.065V231.612H52.8771V232.195H52.1224V234.785C52.1224 234.999 52.1349 235.137 52.1599 235.198C52.1877 235.259 52.2308 235.308 52.2892 235.344C52.3503 235.38 52.4365 235.398 52.5477 235.398C52.6311 235.398 52.7409 235.388 52.8771 235.369ZM53.3358 233.826C53.3358 233.006 53.5638 232.398 54.0197 232.004C54.4005 231.676 54.8648 231.512 55.4124 231.512C56.0212 231.512 56.5189 231.712 56.9053 232.112C57.2917 232.51 57.4849 233.06 57.4849 233.763C57.4849 234.333 57.3987 234.782 57.2264 235.11C57.0568 235.435 56.808 235.688 56.4799 235.869C56.1547 236.05 55.7989 236.14 55.4124 236.14C54.7925 236.14 54.2907 235.941 53.9071 235.544C53.5262 235.146 53.3358 234.574 53.3358 233.826ZM54.1073 233.826C54.1073 234.393 54.231 234.818 54.4784 235.102C54.7258 235.383 55.0371 235.523 55.4124 235.523C55.785 235.523 56.0949 235.381 56.3423 235.098C56.5897 234.814 56.7135 234.382 56.7135 233.801C56.7135 233.253 56.5884 232.839 56.3382 232.558C56.0907 232.275 55.7822 232.133 55.4124 232.133C55.0371 232.133 54.7258 232.273 54.4784 232.554C54.231 232.835 54.1073 233.259 54.1073 233.826ZM58.3731 236.04V229.927H59.1237V233.413L60.9001 231.612H61.8717L60.1787 233.255L62.0426 236.04H61.1169L59.6533 233.776L59.1237 234.285V236.04H58.3731Z" fill="black"/>
<path d="M16.4199 40.77H234.19" stroke="#ADADAD" stroke-width="0.305" stroke-linecap="round" stroke-dasharray="2.44 2.44"/>
<path d="M16.4199 41.9902H234.19" stroke="#ADADAD" stroke-width="0.305" stroke-linecap="round" stroke-dasharray="2.44 2.44"/>
<circle cx="25.0704" cy="57.3506" r="8.65043" fill="#3985ED"/>
<g filter="url(#filter0_d_306_705)">
<circle cx="25.0704" cy="86.6304" r="8.65043" fill="white"/>
<circle cx="25.0704" cy="86.6304" r="8.55157" stroke="#B8B8B8" stroke-width="0.197724"/>
</g>
<g filter="url(#filter1_d_306_705)">
<circle cx="25.0704" cy="115.91" r="8.65043" fill="white"/>
<circle cx="25.0704" cy="115.91" r="8.74929" stroke="#B8B8B8" stroke-width="0.197724"/>
</g>
<path d="M21.1498 61.0576H22.2754C22.4307 61.0576 22.5565 60.9318 22.5565 60.7765V55.8566C22.5565 55.7013 22.4307 55.5754 22.2754 55.5754H21.1498C20.9945 55.5754 20.8687 55.7013 20.8687 55.8566V60.7765C20.8687 60.9317 20.9945 61.0576 21.1498 61.0576Z" fill="white"/>
<path d="M21.1498 54.7108H22.2754C22.4307 54.7108 22.5565 54.5849 22.5565 54.4296V53.4301C22.5565 53.2748 22.4307 53.1489 22.2754 53.1489H21.1498C20.9945 53.1489 20.8687 53.2748 20.8687 53.4301V54.4296C20.8687 54.5849 20.9945 54.7108 21.1498 54.7108Z" fill="white"/>
<path d="M29.1033 56.1462C28.9451 55.938 28.7119 55.7668 28.4035 55.6326C28.0951 55.4985 27.7547 55.4314 27.3823 55.4314C26.6263 55.4314 25.9856 55.7199 25.4604 56.2971C25.3559 56.4119 25.2799 56.3868 25.2799 56.2315V55.8567C25.2799 55.7014 25.1541 55.5756 24.9988 55.5756H23.9933C23.838 55.5756 23.7122 55.7014 23.7122 55.8567V60.7766C23.7122 60.9319 23.838 61.0578 23.9933 61.0578H25.1189C25.2742 61.0578 25.4 60.9319 25.4 60.7766V59.0656C25.4 58.3528 25.4431 57.8642 25.5292 57.5999C25.6152 57.3356 25.7745 57.1234 26.0067 56.9632C26.239 56.803 26.5013 56.7229 26.7936 56.7229C27.0219 56.7229 27.2171 56.779 27.3793 56.8911C27.5415 57.0033 27.6587 57.1604 27.7307 57.3627C27.8029 57.5649 27.8389 58.0104 27.8389 58.6992V60.7766C27.8389 60.9319 27.9647 61.0578 28.12 61.0578H29.2456C29.4009 61.0578 29.5267 60.9319 29.5267 60.7766V57.9904C29.5267 57.4978 29.4957 57.1194 29.4337 56.8551C29.3717 56.5908 29.2615 56.3545 29.1033 56.1462Z" fill="white"/>
<path d="M27.7541 81.9348H22.3873C21.2758 81.9348 20.3748 82.8359 20.3748 83.9474V89.3142C20.3748 90.4257 21.2758 91.3267 22.3873 91.3267H27.7541C28.8656 91.3267 29.7667 90.4257 29.7667 89.3142V83.9474C29.7667 82.8359 28.8656 81.9348 27.7541 81.9348Z" fill="url(#paint0_radial_306_705)"/>
<path d="M27.7541 81.9348H22.3873C21.2758 81.9348 20.3748 82.8359 20.3748 83.9474V89.3142C20.3748 90.4257 21.2758 91.3267 22.3873 91.3267H27.7541C28.8656 91.3267 29.7667 90.4257 29.7667 89.3142V83.9474C29.7667 82.8359 28.8656 81.9348 27.7541 81.9348Z" fill="url(#paint1_radial_306_705)"/>
<path d="M27.7541 81.9348H22.3873C21.2758 81.9348 20.3748 82.8359 20.3748 83.9474V89.3142C20.3748 90.4257 21.2758 91.3267 22.3873 91.3267H27.7541C28.8656 91.3267 29.7667 90.4257 29.7667 89.3142V83.9474C29.7667 82.8359 28.8656 81.9348 27.7541 81.9348Z" fill="url(#paint2_radial_306_705)"/>
<path fill-rule="evenodd" clip-rule="evenodd" d="M25.0702 88.3074C25.9964 88.3074 26.7473 87.5565 26.7473 86.6302C26.7473 85.704 25.9964 84.9531 25.0702 84.9531C24.1439 84.9531 23.3931 85.704 23.3931 86.6302C23.3931 87.5565 24.1439 88.3074 25.0702 88.3074ZM25.0702 87.6365C25.626 87.6365 26.0765 87.186 26.0765 86.6302C26.0765 86.0745 25.626 85.624 25.0702 85.624C24.5144 85.624 24.0639 86.0745 24.0639 86.6302C24.0639 87.186 24.5144 87.6365 25.0702 87.6365Z" fill="white"/>
<path fill-rule="evenodd" clip-rule="evenodd" d="M21.7163 86.4962C21.7163 85.3691 21.7163 84.8055 21.9357 84.375C22.1286 83.9963 22.4365 83.6884 22.8152 83.4955C23.2457 83.2761 23.8093 83.2761 24.9364 83.2761H25.2047C26.3319 83.2761 26.8954 83.2761 27.3259 83.4955C27.7046 83.6884 28.0125 83.9963 28.2054 84.375C28.4248 84.8055 28.4248 85.3691 28.4248 86.4962V86.7645C28.4248 87.8917 28.4248 88.4553 28.2054 88.8857C28.0125 89.2644 27.7046 89.5723 27.3259 89.7653C26.8954 89.9846 26.3319 89.9846 25.2047 89.9846H24.9364C23.8093 89.9846 23.2457 89.9846 22.8152 89.7653C22.4365 89.5723 22.1286 89.2644 21.9357 88.8857C21.7163 88.4553 21.7163 87.8917 21.7163 86.7645V86.4962ZM24.9364 83.947H25.2047C25.7794 83.947 26.17 83.9475 26.4719 83.9722C26.7661 83.9962 26.9165 84.0397 27.0214 84.0932C27.2738 84.2218 27.4791 84.4271 27.6077 84.6795C27.6612 84.7845 27.7047 84.9349 27.7288 85.229C27.7534 85.5309 27.754 85.9216 27.754 86.4962V86.7645C27.754 87.3392 27.7534 87.7298 27.7288 88.0317C27.7047 88.3259 27.6612 88.4763 27.6077 88.5812C27.4791 88.8336 27.2738 89.0389 27.0214 89.1675C26.9165 89.221 26.7661 89.2646 26.4719 89.2886C26.17 89.3132 25.7794 89.3138 25.2047 89.3138H24.9364C24.3617 89.3138 23.9711 89.3132 23.6692 89.2886C23.3751 89.2646 23.2246 89.221 23.1197 89.1675C22.8673 89.0389 22.662 88.8336 22.5334 88.5812C22.4799 88.4763 22.4364 88.3259 22.4123 88.0317C22.3877 87.7298 22.3872 87.3392 22.3872 86.7645V86.4962C22.3872 85.9216 22.3877 85.5309 22.4123 85.229C22.4364 84.9349 22.4799 84.7845 22.5334 84.6795C22.662 84.4271 22.8673 84.2218 23.1197 84.0932C23.2246 84.0397 23.3751 83.9962 23.6692 83.9722C23.9711 83.9475 24.3617 83.947 24.9364 83.947Z" fill="white"/>
<path d="M33.7208 115.963C33.7208 113.655 32.8098 111.441 31.1883 109.809C29.5668 108.177 27.3675 107.26 25.0744 107.26C22.8971 107.258 20.7993 108.083 19.1998 109.57C17.6004 111.056 16.6172 113.096 16.4465 115.281C16.2759 117.466 16.9304 119.635 18.2793 121.355C19.6282 123.075 21.5722 124.22 23.723 124.561V118.478H21.5293V115.963H23.7243V114.046C23.7243 111.865 25.0151 110.659 26.9902 110.659C27.9363 110.659 28.9257 110.829 28.9257 110.829V112.972H27.835C26.7604 112.972 26.4269 113.643 26.4269 114.331V115.963H28.8244L28.4415 118.478H26.4257V124.561C28.4594 124.236 30.3115 123.192 31.6488 121.616C32.9861 120.04 33.7208 118.036 33.7208 115.963Z" fill="#1877F2"/>
<g filter="url(#filter2_d_306_705)">
<circle cx="25.0704" cy="145.19" r="8.65043" fill="#FC471E"/>
<circle cx="25.0704" cy="145.19" r="8.74929" stroke="#B8B8B8" stroke-width="0.197724"/>
</g>
<g filter="url(#filter3_d_306_705)">
<circle cx="25.0704" cy="204.36" r="8.65043" fill="white"/>
<circle cx="25.0704" cy="204.36" r="8.74929" stroke="#B8B8B8" stroke-width="0.197724"/>
</g>
<g filter="url(#filter4_d_306_705)">
<circle cx="25.0704" cy="174.471" r="8.65043" fill="white"/>
<circle cx="25.0704" cy="174.471" r="8.74929" stroke="#B8B8B8" stroke-width="0.197724"/>
</g>
<g filter="url(#filter5_d_306_705)">
<circle cx="25.0704" cy="233.641" r="8.65043" fill="white"/>
<circle cx="25.0704" cy="233.641" r="8.74929" stroke="#B8B8B8" stroke-width="0.197724"/>
</g>
<path d="M25.2648 137.15C20.7227 137.15 17.0298 140.843 17.0298 145.385C17.0298 149.927 20.7227 153.62 25.2648 153.62C29.8069 153.62 33.4998 149.927 33.4998 145.385C33.4998 140.843 29.8069 137.15 25.2648 137.15Z" fill="#FC471E"/>
<path fill-rule="evenodd" clip-rule="evenodd" d="M27.5806 141.296C27.5733 141.343 27.5695 141.39 27.5695 141.438C27.5695 141.925 27.9564 142.32 28.4337 142.32C28.9109 142.32 29.2979 141.925 29.2979 141.438C29.2979 140.951 28.9109 140.557 28.4337 140.557C28.221 140.557 28.0263 140.635 27.8757 140.765L25.6316 140.2L24.8205 143.51C23.7415 143.582 22.7711 143.916 22.039 144.419C21.8312 144.211 21.5464 144.083 21.2323 144.083C20.5959 144.083 20.0801 144.609 20.0801 145.258C20.0801 145.71 20.3299 146.102 20.6963 146.299C20.6699 146.439 20.6562 146.582 20.6562 146.728C20.6562 148.513 22.7196 149.96 25.2651 149.96C27.8105 149.96 29.874 148.513 29.874 146.728C29.874 146.582 29.8603 146.439 29.8338 146.299C30.2002 146.102 30.4501 145.71 30.4501 145.258C30.4501 144.609 29.9342 144.083 29.2979 144.083C28.9838 144.083 28.699 144.211 28.4911 144.419C27.6936 143.871 26.6131 143.524 25.4176 143.497L26.0508 140.913L27.5806 141.296ZM23.2487 147.022C23.7259 147.022 24.1129 146.627 24.1129 146.14C24.1129 145.653 23.7259 145.258 23.2487 145.258C22.7714 145.258 22.3845 145.653 22.3845 146.14C22.3845 146.627 22.7714 147.022 23.2487 147.022ZM27.2815 147.022C27.7587 147.022 28.1456 146.627 28.1456 146.14C28.1456 145.653 27.7587 145.258 27.2815 145.258C26.8042 145.258 26.4173 145.653 26.4173 146.14C26.4173 146.627 26.8042 147.022 27.2815 147.022ZM23.4084 147.953C23.2761 147.862 23.0973 147.899 23.009 148.034C22.9208 148.169 22.9565 148.352 23.0889 148.442C23.7157 148.868 24.4904 149.081 25.2651 149.081C26.0397 149.081 26.8144 148.868 27.4412 148.442C27.5736 148.352 27.6094 148.169 27.5211 148.034C27.4329 147.899 27.254 147.862 27.1217 147.953C26.5916 148.313 25.9284 148.493 25.2651 148.493C24.8718 148.493 24.4784 148.43 24.1129 148.303C23.862 148.216 23.6242 148.099 23.4084 147.953Z" fill="white"/>
<path fill-rule="evenodd" clip-rule="evenodd" d="M24.1801 175.71L24.1798 172.786L26.972 174.253L24.1801 175.71ZM30.3109 172.279C30.3109 172.279 30.2098 171.562 29.9001 171.246C29.5071 170.832 29.0666 170.83 28.8647 170.806C27.4186 170.7 25.2494 170.7 25.2494 170.7H25.2449C25.2449 170.7 23.0757 170.7 21.6296 170.806C21.4274 170.83 20.9872 170.832 20.5939 171.246C20.2842 171.562 20.1834 172.279 20.1834 172.279C20.1834 172.279 20.0801 173.122 20.0801 173.964V174.753C20.0801 175.596 20.1834 176.438 20.1834 176.438C20.1834 176.438 20.2842 177.155 20.5939 177.471C20.9872 177.885 21.5036 177.872 21.7335 177.915C22.5603 177.995 25.2471 178.02 25.2471 178.02C25.2471 178.02 27.4186 178.017 28.8647 177.912C29.0666 177.887 29.5071 177.885 29.9001 177.471C30.2098 177.155 30.3109 176.438 30.3109 176.438C30.3109 176.438 30.4142 175.596 30.4142 174.753V173.964C30.4142 173.122 30.3109 172.279 30.3109 172.279Z" fill="#CE1312"/>
<path d="M21.2983 235.487C21.379 234.819 21.6529 234.446 22.1691 234.062C22.9076 233.543 23.8301 233.837 23.8301 233.837V232.095C24.0545 232.089 24.2788 232.102 24.5006 232.134V234.376C24.5006 234.376 23.5784 234.083 22.8399 234.602C22.324 234.985 22.0495 235.359 21.9691 236.027C21.9666 236.39 22.0346 236.864 22.3481 237.274C22.2705 237.234 22.1916 237.189 22.1111 237.138C21.4207 236.674 21.295 235.979 21.2983 235.487ZM28.3099 228.874C27.8018 228.317 27.6097 227.755 27.5403 227.36H28.1794C28.1794 227.36 28.0519 228.395 28.9806 229.413L28.9935 229.427C28.7432 229.27 28.5137 229.084 28.3099 228.874ZM31.3886 230.452V232.649C31.3886 232.649 30.5731 232.617 29.9696 232.463C29.1268 232.248 28.5852 231.919 28.5852 231.919C28.5852 231.919 28.211 231.684 28.1808 231.668V236.204C28.1808 236.457 28.1116 237.088 27.9007 237.614C27.6254 238.302 27.2005 238.754 27.1224 238.846C27.1224 238.846 26.6057 239.457 25.694 239.868C24.8723 240.239 24.1508 240.23 23.9352 240.239C23.9352 240.239 22.6881 240.288 21.5658 239.559C21.3231 239.398 21.0966 239.216 20.8892 239.015L20.8948 239.019C22.0173 239.749 23.2641 239.699 23.2641 239.699C23.4801 239.69 24.2015 239.699 25.023 239.328C25.9338 238.917 26.4513 238.306 26.4513 238.306C26.5286 238.214 26.9555 237.762 27.2296 237.074C27.44 236.548 27.5097 235.917 27.5097 235.664V231.128C27.5399 231.145 27.9138 231.38 27.9138 231.38C27.9138 231.38 28.4558 231.709 29.2985 231.924C29.9023 232.078 30.7176 232.109 30.7176 232.109V230.388C30.9966 230.451 31.2344 230.467 31.3886 230.452Z" fill="#EE1D52"/>
<path d="M30.7177 230.388V232.109C30.7177 232.109 29.9024 232.077 29.2986 231.923C28.4558 231.709 27.9139 231.379 27.9139 231.379C27.9139 231.379 27.54 231.144 27.5097 231.128V235.665C27.5097 235.917 27.4406 236.548 27.2297 237.074C26.9544 237.763 26.5295 238.215 26.4514 238.307C26.4514 238.307 25.9344 238.918 25.023 239.329C24.2016 239.7 23.4801 239.69 23.2642 239.7C23.2642 239.7 22.0173 239.749 20.8948 239.02L20.8892 239.016C20.7707 238.901 20.6591 238.78 20.5551 238.653C20.1969 238.216 19.9773 237.7 19.9221 237.552V237.55C19.8333 237.294 19.6468 236.679 19.6723 236.084C19.7174 235.033 20.0871 234.388 20.1848 234.226C20.4437 233.786 20.7804 233.391 21.1799 233.061C21.5325 232.776 21.9321 232.549 22.3623 232.39C22.8275 232.203 23.3256 232.103 23.8299 232.095V233.837C23.8299 233.837 22.9073 233.544 22.1691 234.062C21.6529 234.446 21.379 234.819 21.2984 235.487C21.295 235.979 21.4208 236.674 22.1106 237.138C22.191 237.189 22.27 237.234 22.3475 237.274C22.468 237.431 22.6147 237.567 22.7816 237.678C23.4555 238.105 24.0201 238.134 24.7421 237.857C25.2235 237.672 25.5859 237.255 25.754 236.792C25.8596 236.503 25.8582 236.213 25.8582 235.912V227.36H27.5386C27.6081 227.755 27.8002 228.317 28.3082 228.874C28.512 229.084 28.7416 229.27 28.9919 229.427C29.0658 229.504 29.4439 229.882 29.9293 230.114C30.1802 230.234 30.4448 230.326 30.7177 230.388Z" fill="black"/>
<path d="M22.3623 232.391C21.9321 232.55 21.5325 232.777 21.1799 233.062C20.7802 233.393 20.4436 233.788 20.1851 234.229C20.0873 234.39 19.7177 235.036 19.6726 236.087C19.6471 236.683 19.8336 237.298 19.9224 237.554V237.555C19.9784 237.702 20.1971 238.218 20.5553 238.656C20.6594 238.783 20.7709 238.904 20.8895 239.019C20.5097 238.767 20.1711 238.463 19.8846 238.116C19.5294 237.683 19.3104 237.172 19.2533 237.021C19.2532 237.02 19.2532 237.019 19.2533 237.018V237.016C19.1642 236.76 18.9772 236.145 19.0032 235.548C19.0483 234.498 19.418 233.853 19.5157 233.691C19.7742 233.249 20.1108 232.854 20.5105 232.523C20.863 232.238 21.2626 232.011 21.693 231.852C21.9614 231.745 22.241 231.667 22.527 231.617C22.958 231.545 23.3983 231.539 23.8313 231.599V232.095C23.3265 232.103 22.8279 232.203 22.3623 232.391Z" fill="#69C9D0"/>
<path d="M27.5396 227.36H25.8592V235.913C25.8592 236.213 25.8592 236.503 25.755 236.793C25.5853 237.255 25.2242 237.673 24.7431 237.858C24.0208 238.136 23.4562 238.105 22.7826 237.679C22.6154 237.568 22.4683 237.432 22.3474 237.276C22.9213 237.569 23.4349 237.564 24.0712 237.319C24.5521 237.134 24.9137 236.717 25.0828 236.254C25.1887 235.965 25.1873 235.675 25.1873 235.374V226.82H27.5077C27.5077 226.82 27.4816 227.033 27.5396 227.36ZM30.7172 229.913V230.389C30.4449 230.326 30.1808 230.234 29.9303 230.114C29.4449 229.882 29.0668 229.504 28.9929 229.428C29.0787 229.482 29.1677 229.531 29.2595 229.575C29.8496 229.857 30.4307 229.941 30.7172 229.913Z" fill="#69C9D0"/>
<path fill-rule="evenodd" clip-rule="evenodd" d="M20.5159 204.25C20.5159 201.795 22.5057 199.805 24.9602 199.805C27.4147 199.805 29.4045 201.795 29.4045 204.25C29.4045 206.704 27.4147 208.694 24.9602 208.694C24.4225 208.694 23.9071 208.599 23.43 208.424C23.7306 207.615 24.0251 206.804 24.3075 205.989C24.6078 206.203 24.9951 206.341 25.4831 206.341C26.4948 206.341 27.5614 205.674 27.8258 204.352C28.1577 202.692 26.8283 201.113 24.9602 201.113C24.1745 201.113 23.4015 201.428 22.8233 201.93C22.2439 202.432 21.8231 203.155 21.8231 203.988C21.8231 204.393 21.9454 204.845 22.2369 205.142C22.4385 205.344 22.7751 205.344 22.9771 205.142C23.1774 204.942 23.1812 204.62 22.9885 204.415C22.5776 203.902 23.119 203.057 23.5083 202.72C23.9123 202.369 24.4465 202.158 24.9602 202.158C26.2293 202.158 26.9913 203.193 26.8004 204.147C26.642 204.939 26.0399 205.295 25.4831 205.295C25.0554 205.295 24.8251 205.115 24.6778 204.881C24.7582 204.628 24.8271 204.398 24.8759 204.211C24.9765 203.826 25.0372 203.361 24.6904 203.072C24.4325 202.857 24.1282 202.905 23.9421 202.998C23.5963 203.171 23.3916 203.575 23.3916 203.988C23.3916 204.219 23.4276 204.577 23.5573 204.946C23.2234 205.953 22.8614 206.951 22.4919 207.946C21.3005 207.149 20.5159 205.791 20.5159 204.25ZM24.9602 198.76C21.9282 198.76 19.4702 201.218 19.4702 204.25C19.4702 207.282 21.9282 209.74 24.9602 209.74C27.9923 209.74 30.4502 207.282 30.4502 204.25C30.4502 201.218 27.9923 198.76 24.9602 198.76Z" fill="#CE1312"/>
<rect x="138.42" y="56.02" width="95.77" height="2.44" rx="1.22" fill="#EEEEEE"/>
<rect x="138.42" y="114.58" width="95.77" height="2.44" rx="1.22" fill="#EEEEEE"/>
<rect x="138.42" y="202.42" width="95.77" height="2.44" rx="1.22" fill="#EEEEEE"/>
<rect x="138.42" y="85.2998" width="95.77" height="2.44" rx="1.22" fill="#EEEEEE"/>
<rect x="138.42" y="173.14" width="95.77" height="2.44" rx="1.22" fill="#EEEEEE"/>
<rect x="138.42" y="143.86" width="95.77" height="2.44" rx="1.22" fill="#EEEEEE"/>
<rect x="138.42" y="231.7" width="95.77" height="2.44" rx="1.22" fill="#EEEEEE"/>
<rect x="138.42" y="56.02" width="47.58" height="2.44" rx="1.22" fill="#2563EB"/>
<rect x="138.42" y="114.58" width="47.58" height="2.44" rx="1.22" fill="#2563EB"/>
<rect x="138.42" y="202.42" width="47.58" height="2.44" rx="1.22" fill="#2563EB"/>
<rect x="138.42" y="85.2998" width="47.58" height="2.44" rx="1.22" fill="#2563EB"/>
<rect x="138.42" y="173.14" width="47.58" height="2.44" rx="1.22" fill="#2563EB"/>
<rect x="138.42" y="143.86" width="47.58" height="2.44" rx="1.22" fill="#2563EB"/>
<rect x="138.42" y="231.7" width="47.58" height="2.44" rx="1.22" fill="#2563EB"/>
<path d="M20.1973 34.5293H30.3326" stroke="black" stroke-width="0.915" stroke-linecap="round" stroke-linejoin="round"/>
<path d="M32.6552 21.8599H17.8744C17.4079 21.8599 17.0298 22.238 17.0298 22.7045V31.9952C17.0298 32.4617 17.4079 32.8399 17.8744 32.8399H32.6552C33.1216 32.8399 33.4998 32.4617 33.4998 31.9952V22.7045C33.4998 22.238 33.1216 21.8599 32.6552 21.8599Z" stroke="black" stroke-width="0.915" stroke-linecap="round" stroke-linejoin="round"/>
<path d="M27.7396 27.3501L23.635 24.9868V29.7133L27.7396 27.3501Z" stroke="black" stroke-width="0.915" stroke-linecap="round" stroke-linejoin="round"/>
</g>
<defs>
<filter id="filter0_d_306_705" x="13.4541" y="76.0027" width="21.2553" height="21.2553" filterUnits="userSpaceOnUse" color-interpolation-filters="sRGB">
<feFlood flood-opacity="0" result="BackgroundImageFix"/>
<feColorMatrix in="SourceAlpha" type="matrix" values="0 0 0 0 0 0 0 0 0 0 0 0 0 0 0 0 0 0 127 0" result="hardAlpha"/>
<feOffset dx="-0.988621"/>
<feGaussianBlur stdDeviation="0.988621"/>
<feComposite in2="hardAlpha" operator="out"/>
<feColorMatrix type="matrix" values="0 0 0 0 0 0 0 0 0 0 0 0 0 0 0 0 0 0 0.25 0"/>
<feBlend mode="normal" in2="BackgroundImageFix" result="effect1_dropShadow_306_705"/>
<feBlend mode="normal" in="SourceGraphic" in2="effect1_dropShadow_306_705" result="shape"/>
</filter>
<filter id="filter1_d_306_705" x="13.2563" y="105.085" width="21.6508" height="21.6508" filterUnits="userSpaceOnUse" color-interpolation-filters="sRGB">
<feFlood flood-opacity="0" result="BackgroundImageFix"/>
<feColorMatrix in="SourceAlpha" type="matrix" values="0 0 0 0 0 0 0 0 0 0 0 0 0 0 0 0 0 0 127 0" result="hardAlpha"/>
<feOffset dx="-0.988621"/>
<feGaussianBlur stdDeviation="0.988621"/>
<feComposite in2="hardAlpha" operator="out"/>
<feColorMatrix type="matrix" values="0 0 0 0 0 0 0 0 0 0 0 0 0 0 0 0 0 0 0.25 0"/>
<feBlend mode="normal" in2="BackgroundImageFix" result="effect1_dropShadow_306_705"/>
<feBlend mode="normal" in="SourceGraphic" in2="effect1_dropShadow_306_705" result="shape"/>
</filter>
<filter id="filter2_d_306_705" x="13.2563" y="134.365" width="21.6508" height="21.6508" filterUnits="userSpaceOnUse" color-interpolation-filters="sRGB">
<feFlood flood-opacity="0" result="BackgroundImageFix"/>
<feColorMatrix in="SourceAlpha" type="matrix" values="0 0 0 0 0 0 0 0 0 0 0 0 0 0 0 0 0 0 127 0" result="hardAlpha"/>
<feOffset dx="-0.988621"/>
<feGaussianBlur stdDeviation="0.988621"/>
<feComposite in2="hardAlpha" operator="out"/>
<feColorMatrix type="matrix" values="0 0 0 0 0 0 0 0 0 0 0 0 0 0 0 0 0 0 0.25 0"/>
<feBlend mode="normal" in2="BackgroundImageFix" result="effect1_dropShadow_306_705"/>
<feBlend mode="normal" in="SourceGraphic" in2="effect1_dropShadow_306_705" result="shape"/>
</filter>
<filter id="filter3_d_306_705" x="13.2563" y="193.535" width="21.6508" height="21.6508" filterUnits="userSpaceOnUse" color-interpolation-filters="sRGB">
<feFlood flood-opacity="0" result="BackgroundImageFix"/>
<feColorMatrix in="SourceAlpha" type="matrix" values="0 0 0 0 0 0 0 0 0 0 0 0 0 0 0 0 0 0 127 0" result="hardAlpha"/>
<feOffset dx="-0.988621"/>
<feGaussianBlur stdDeviation="0.988621"/>
<feComposite in2="hardAlpha" operator="out"/>
<feColorMatrix type="matrix" values="0 0 0 0 0 0 0 0 0 0 0 0 0 0 0 0 0 0 0.25 0"/>
<feBlend mode="normal" in2="BackgroundImageFix" result="effect1_dropShadow_306_705"/>
<feBlend mode="normal" in="SourceGraphic" in2="effect1_dropShadow_306_705" result="shape"/>
</filter>
<filter id="filter4_d_306_705" x="13.2563" y="163.645" width="21.6508" height="21.6508" filterUnits="userSpaceOnUse" color-interpolation-filters="sRGB">
<feFlood flood-opacity="0" result="BackgroundImageFix"/>
<feColorMatrix in="SourceAlpha" type="matrix" values="0 0 0 0 0 0 0 0 0 0 0 0 0 0 0 0 0 0 127 0" result="hardAlpha"/>
<feOffset dx="-0.988621"/>
<feGaussianBlur stdDeviation="0.988621"/>
<feComposite in2="hardAlpha" operator="out"/>
<feColorMatrix type="matrix" values="0 0 0 0 0 0 0 0 0 0 0 0 0 0 0 0 0 0 0.25 0"/>
<feBlend mode="normal" in2="BackgroundImageFix" result="effect1_dropShadow_306_705"/>
<feBlend mode="normal" in="SourceGraphic" in2="effect1_dropShadow_306_705" result="shape"/>
</filter>
<filter id="filter5_d_306_705" x="13.2563" y="222.815" width="21.6508" height="21.6508" filterUnits="userSpaceOnUse" color-interpolation-filters="sRGB">
<feFlood flood-opacity="0" result="BackgroundImageFix"/>
<feColorMatrix in="SourceAlpha" type="matrix" values="0 0 0 0 0 0 0 0 0 0 0 0 0 0 0 0 0 0 127 0" result="hardAlpha"/>
<feOffset dx="-0.988621"/>
<feGaussianBlur stdDeviation="0.988621"/>
<feComposite in2="hardAlpha" operator="out"/>
<feColorMatrix type="matrix" values="0 0 0 0 0 0 0 0 0 0 0 0 0 0 0 0 0 0 0.25 0"/>
<feBlend mode="normal" in2="BackgroundImageFix" result="effect1_dropShadow_306_705"/>
<feBlend mode="normal" in="SourceGraphic" in2="effect1_dropShadow_306_705" result="shape"/>
</filter>
<radialGradient id="paint0_radial_306_705" cx="0" cy="0" r="1" gradientUnits="userSpaceOnUse" gradientTransform="translate(23.729 88.9787) rotate(-55.3758) scale(8.55991)">
<stop stop-color="#B13589"/>
<stop offset="0.79309" stop-color="#C62F94"/>
<stop offset="1" stop-color="#8A3AC8"/>
</radialGradient>
<radialGradient id="paint1_radial_306_705" cx="0" cy="0" r="1" gradientUnits="userSpaceOnUse" gradientTransform="translate(23.3936 91.6621) rotate(-65.1363) scale(7.57866)">
<stop stop-color="#E0E8B7"/>
<stop offset="0.444662" stop-color="#FB8A2E"/>
<stop offset="0.71474" stop-color="#E2425C"/>
<stop offset="1" stop-color="#E2425C" stop-opacity="0"/>
</radialGradient>
<radialGradient id="paint2_radial_306_705" cx="0" cy="0" r="1" gradientUnits="userSpaceOnUse" gradientTransform="translate(19.8716 82.2702) rotate(-8.1301) scale(13.045 2.79019)">
<stop offset="0.156701" stop-color="#406ADC"/>
<stop offset="0.467799" stop-color="#6A45BE"/>
<stop offset="1" stop-color="#6A45BE" stop-opacity="0"/>
</radialGradient>
<clipPath id="clip0_306_705">
<rect width="250" height="250" fill="white"/>
</clipPath>
</defs>
</svg>
