<svg width="301" height="250" viewBox="0 0 301 250" fill="none" xmlns="http://www.w3.org/2000/svg">
<g clip-path="url(#clip0_306_705)">
<path d="M14 7.5H287C290.038 7.5 292.5 9.96244 292.5 13V264.5H8.5V13C8.5 9.96244 10.9624 7.5 14 7.5Z" fill="white" stroke="#D9D9D9"/>
<path d="M53.3524 24.9381L54.5081 25.23C54.2659 26.1791 53.829 26.9039 53.1976 27.4043C52.5701 27.9007 51.8016 28.1489 50.8922 28.1489C49.951 28.1489 49.1845 27.9583 48.5928 27.5771C48.005 27.1918 47.5562 26.6358 47.2465 25.9091C46.9407 25.1823 46.7878 24.402 46.7878 23.568C46.7878 22.6585 46.9605 21.8662 47.3061 21.1911C47.6555 20.512 48.15 19.9977 48.7894 19.6482C49.4327 19.2948 50.1396 19.1181 50.9101 19.1181C51.7838 19.1181 52.5185 19.3405 53.1142 19.7853C53.7099 20.23 54.1249 20.8555 54.3592 21.6617L53.2214 21.9298C53.0188 21.2944 52.725 20.8317 52.3397 20.5418C51.9545 20.2519 51.47 20.1069 50.8862 20.1069C50.2151 20.1069 49.6531 20.2678 49.2004 20.5895C48.7516 20.9111 48.4359 21.344 48.2532 21.8881C48.0705 22.4282 47.9792 22.9862 47.9792 23.562C47.9792 24.3047 48.0864 24.954 48.3009 25.51C48.5193 26.062 48.8569 26.475 49.3136 26.749C49.7703 27.023 50.2647 27.1601 50.7969 27.1601C51.4442 27.1601 51.9923 26.9734 52.441 26.6001C52.8898 26.2268 53.1936 25.6728 53.3524 24.9381ZM55.8008 28V19.267H56.873V22.4004C57.3734 21.8206 58.0049 21.5307 58.7674 21.5307C59.236 21.5307 59.6431 21.624 59.9886 21.8106C60.3341 21.9933 60.5803 22.2475 60.7272 22.5731C60.8782 22.8988 60.9536 23.3714 60.9536 23.9909V28H59.8813V23.9909C59.8813 23.4548 59.7642 23.0656 59.5299 22.8233C59.2995 22.5771 58.9719 22.454 58.547 22.454C58.2293 22.454 57.9294 22.5374 57.6475 22.7042C57.3695 22.867 57.1709 23.0894 57.0518 23.3714C56.9326 23.6534 56.873 24.0425 56.873 24.539V28H55.8008ZM66.72 27.2196C66.3229 27.5572 65.9396 27.7955 65.5703 27.9345C65.2049 28.0735 64.8118 28.143 64.3908 28.143C63.6958 28.143 63.1617 27.9742 62.7884 27.6366C62.4151 27.2951 62.2284 26.8602 62.2284 26.332C62.2284 26.0223 62.2979 25.7403 62.4369 25.4861C62.5799 25.228 62.7646 25.0215 62.9909 24.8666C63.2213 24.7117 63.4794 24.5946 63.7653 24.5151C63.9758 24.4595 64.2935 24.4059 64.7185 24.3543C65.5842 24.251 66.2216 24.1279 66.6307 23.985C66.6346 23.838 66.6366 23.7447 66.6366 23.705C66.6366 23.2681 66.5354 22.9604 66.3328 22.7816C66.0588 22.5394 65.6517 22.4183 65.1116 22.4183C64.6073 22.4183 64.234 22.5076 63.9917 22.6863C63.7534 22.8611 63.5767 23.1728 63.4615 23.6216L62.4131 23.4786C62.5084 23.0299 62.6653 22.6685 62.8837 22.3944C63.1021 22.1164 63.4178 21.904 63.8309 21.757C64.2439 21.6061 64.7224 21.5307 65.2665 21.5307C65.8066 21.5307 66.2454 21.5942 66.583 21.7213C66.9206 21.8484 67.1688 22.0092 67.3276 22.2038C67.4865 22.3944 67.5977 22.6367 67.6612 22.9306C67.697 23.1132 67.7148 23.4429 67.7148 23.9194V25.3491C67.7148 26.3459 67.7367 26.9774 67.7804 27.2435C67.828 27.5056 67.9194 27.7577 68.0544 28H66.9345C66.8233 27.7776 66.7518 27.5175 66.72 27.2196ZM66.6307 24.8249C66.2415 24.9838 65.6577 25.1188 64.8793 25.23C64.4385 25.2935 64.1267 25.365 63.944 25.4444C63.7614 25.5239 63.6204 25.641 63.5211 25.7959C63.4218 25.9468 63.3722 26.1156 63.3722 26.3022C63.3722 26.5882 63.4794 26.8265 63.6938 27.0171C63.9123 27.2077 64.23 27.303 64.647 27.303C65.06 27.303 65.4273 27.2137 65.749 27.035C66.0707 26.8523 66.307 26.6041 66.4579 26.2903C66.5731 26.0481 66.6307 25.6907 66.6307 25.2181V24.8249ZM69.3828 28V21.6736H70.3479V22.5731C70.8125 21.8782 71.4837 21.5307 72.3613 21.5307C72.7426 21.5307 73.0921 21.6002 73.4098 21.7392C73.7314 21.8742 73.9717 22.0529 74.1306 22.2753C74.2894 22.4977 74.4006 22.7618 74.4642 23.0676C74.5039 23.2661 74.5237 23.6136 74.5237 24.1101V28H73.4515V24.1518C73.4515 23.7149 73.4098 23.3893 73.3264 23.1748C73.243 22.9564 73.094 22.7836 72.8796 22.6565C72.6691 22.5255 72.4209 22.46 72.135 22.46C71.6783 22.46 71.2831 22.6049 70.9495 22.8948C70.6199 23.1847 70.4551 23.7348 70.4551 24.5449V28H69.3828ZM76.1738 28V21.6736H77.1389V22.5731C77.6035 21.8782 78.2747 21.5307 79.1523 21.5307C79.5336 21.5307 79.8831 21.6002 80.2008 21.7392C80.5225 21.8742 80.7627 22.0529 80.9216 22.2753C81.0804 22.4977 81.1916 22.7618 81.2552 23.0676C81.2949 23.2661 81.3147 23.6136 81.3147 24.1101V28H80.2425V24.1518C80.2425 23.7149 80.2008 23.3893 80.1174 23.1748C80.034 22.9564 79.8851 22.7836 79.6706 22.6565C79.4601 22.5255 79.2119 22.46 78.926 22.46C78.4693 22.46 78.0741 22.6049 77.7405 22.8948C77.4109 23.1847 77.2461 23.7348 77.2461 24.5449V28H76.1738ZM87.2956 25.9627L88.4036 26.0997C88.2289 26.747 87.9052 27.2494 87.4326 27.6068C86.96 27.9643 86.3564 28.143 85.6217 28.143C84.6964 28.143 83.9617 27.859 83.4176 27.2911C82.8775 26.7192 82.6074 25.919 82.6074 24.8904C82.6074 23.8261 82.8814 23.0001 83.4295 22.4123C83.9775 21.8245 84.6884 21.5307 85.5621 21.5307C86.408 21.5307 87.099 21.8186 87.6352 22.3944C88.1713 22.9703 88.4394 23.7804 88.4394 24.8249C88.4394 24.8884 88.4374 24.9838 88.4334 25.1108H83.7154C83.7551 25.8058 83.9517 26.338 84.3052 26.7073C84.6586 27.0767 85.0994 27.2613 85.6276 27.2613C86.0208 27.2613 86.3564 27.1581 86.6344 26.9516C86.9124 26.7451 87.1328 26.4154 87.2956 25.9627ZM83.775 24.2292H87.3075C87.2599 23.697 87.1248 23.2979 86.9024 23.0318C86.5609 22.6188 86.1181 22.4123 85.574 22.4123C85.0816 22.4123 84.6666 22.5771 84.329 22.9067C83.9954 23.2364 83.8107 23.6772 83.775 24.2292ZM89.732 28V19.267H90.8043V28H89.732ZM92.0434 26.1116L93.1037 25.9448C93.1633 26.3698 93.3281 26.6954 93.5981 26.9218C93.8722 27.1481 94.2534 27.2613 94.7419 27.2613C95.2343 27.2613 95.5997 27.162 95.838 26.9635C96.0763 26.7609 96.1954 26.5246 96.1954 26.2546C96.1954 26.0123 96.0902 25.8217 95.8797 25.6827C95.7327 25.5874 95.3674 25.4663 94.7836 25.3193C93.9973 25.1208 93.4512 24.95 93.1454 24.807C92.8436 24.6601 92.6133 24.4595 92.4544 24.2054C92.2995 23.9472 92.2221 23.6633 92.2221 23.3535C92.2221 23.0715 92.2856 22.8114 92.4127 22.5731C92.5438 22.3309 92.7205 22.1303 92.9429 21.9715C93.1097 21.8484 93.336 21.7451 93.622 21.6617C93.9119 21.5743 94.2216 21.5307 94.5513 21.5307C95.0477 21.5307 95.4826 21.6021 95.8559 21.7451C96.2331 21.8881 96.5111 22.0827 96.6898 22.3289C96.8686 22.5712 96.9917 22.8968 97.0592 23.3059L96.0107 23.4488C95.9631 23.1232 95.8241 22.869 95.5938 22.6863C95.3674 22.5036 95.0457 22.4123 94.6287 22.4123C94.1363 22.4123 93.7848 22.4937 93.5743 22.6565C93.3638 22.8194 93.2586 23.01 93.2586 23.2284C93.2586 23.3674 93.3023 23.4925 93.3896 23.6037C93.477 23.7189 93.614 23.8142 93.8007 23.8896C93.9079 23.9294 94.2236 24.0207 94.7479 24.1637C95.5064 24.3662 96.0346 24.533 96.3324 24.6641C96.6342 24.7911 96.8705 24.9778 97.0413 25.224C97.2121 25.4702 97.2975 25.776 97.2975 26.1414C97.2975 26.4988 97.1922 26.8364 96.9817 27.1541C96.7752 27.4678 96.4754 27.7121 96.0822 27.8868C95.6891 28.0576 95.2443 28.143 94.7479 28.143C93.9258 28.143 93.2983 27.9722 92.8654 27.6307C92.4365 27.2891 92.1625 26.7828 92.0434 26.1116ZM98.8701 22.8948V21.6736H100.091V22.8948H98.8701ZM98.8701 28V26.7788H100.091V28H98.8701Z" fill="black"/>
<path d="M46.8057 56.7202V50.6071H47.6146V55.9988H50.6253V56.7202H46.8057ZM51.501 51.4703V50.6071H52.2516V51.4703H51.501ZM51.501 56.7202V52.2918H52.2516V56.7202H51.501ZM53.3983 56.7202V52.2918H54.0738V52.9214C54.3991 52.4349 54.8689 52.1917 55.4833 52.1917C55.7501 52.1917 55.9948 52.2403 56.2172 52.3376C56.4424 52.4321 56.6105 52.5572 56.7217 52.7129C56.8329 52.8686 56.9108 53.0535 56.9553 53.2675C56.9831 53.4065 56.997 53.6498 56.997 53.9973V56.7202H56.2464V54.0264C56.2464 53.7207 56.2172 53.4927 56.1588 53.3426C56.1004 53.1897 55.9962 53.0688 55.8461 52.9798C55.6987 52.8881 55.525 52.8422 55.3248 52.8422C55.0051 52.8422 54.7285 52.9437 54.495 53.1466C54.2643 53.3495 54.1489 53.7346 54.1489 54.3017V56.7202H53.3983ZM58.1562 56.7202V50.6071H58.9068V54.0932L60.6832 52.2918H61.6548L59.9618 53.9347L61.8257 56.7202H60.9L59.4364 54.4559L58.9068 54.9647V56.7202H58.1562ZM65.4536 55.2941L66.2292 55.39C66.1068 55.8431 65.8803 56.1948 65.5495 56.445C65.2186 56.6952 64.7961 56.8203 64.2818 56.8203C63.6341 56.8203 63.1198 56.6215 62.7389 56.224C62.3609 55.8237 62.1718 55.2635 62.1718 54.5435C62.1718 53.7985 62.3636 53.2203 62.7473 52.8088C63.1309 52.3974 63.6285 52.1917 64.2401 52.1917C64.8322 52.1917 65.3159 52.3932 65.6912 52.7963C66.0665 53.1994 66.2542 53.7665 66.2542 54.4976C66.2542 54.5421 66.2528 54.6088 66.25 54.6978H62.9474C62.9752 55.1843 63.1128 55.5568 63.3603 55.8153C63.6077 56.0739 63.9162 56.2031 64.286 56.2031C64.5612 56.2031 64.7961 56.1309 64.9907 55.9863C65.1853 55.8418 65.3396 55.611 65.4536 55.2941ZM62.9891 54.0807H65.4619C65.4285 53.7081 65.334 53.4288 65.1783 53.2425C64.9393 52.9534 64.6293 52.8088 64.2484 52.8088C63.9037 52.8088 63.6132 52.9242 63.3769 53.1549C63.1434 53.3857 63.0141 53.6942 62.9891 54.0807ZM70.0488 56.7202V56.1614C69.768 56.6007 69.3552 56.8203 68.8103 56.8203C68.4573 56.8203 68.132 56.723 67.8346 56.5284C67.5399 56.3338 67.3106 56.0628 67.1465 55.7153C66.9853 55.365 66.9047 54.9633 66.9047 54.5102C66.9047 54.0681 66.9784 53.6678 67.1257 53.3092C67.273 52.9478 67.494 52.6712 67.7887 52.4794C68.0834 52.2876 68.4128 52.1917 68.777 52.1917C69.0439 52.1917 69.2815 52.2487 69.49 52.3626C69.6985 52.4738 69.8681 52.6198 69.9988 52.8005V50.6071H70.7452V56.7202H70.0488ZM67.6761 54.5102C67.6761 55.0773 67.7957 55.5012 68.0347 55.782C68.2738 56.0628 68.556 56.2031 68.8812 56.2031C69.2093 56.2031 69.4873 56.0697 69.7152 55.8028C69.946 55.5332 70.0613 55.1231 70.0613 54.5727C70.0613 53.9667 69.9446 53.5219 69.711 53.2383C69.4775 52.9548 69.1898 52.813 68.8479 52.813C68.5143 52.813 68.2349 52.9492 68.0097 53.2217C67.7873 53.4941 67.6761 53.9236 67.6761 54.5102ZM72.163 56.7202V50.6071H72.9719V56.7202H72.163ZM74.3063 56.7202V52.2918H74.9818V52.9214C75.3071 52.4349 75.7769 52.1917 76.3913 52.1917C76.6581 52.1917 76.9028 52.2403 77.1252 52.3376C77.3503 52.4321 77.5185 52.5572 77.6297 52.7129C77.7409 52.8686 77.8188 53.0535 77.8632 53.2675C77.891 53.4065 77.9049 53.6498 77.9049 53.9973V56.7202H77.1544V54.0264C77.1544 53.7207 77.1252 53.4927 77.0668 53.3426C77.0084 53.1897 76.9042 53.0688 76.754 52.9798C76.6067 52.8881 76.433 52.8422 76.2328 52.8422C75.9131 52.8422 75.6365 52.9437 75.403 53.1466C75.1723 53.3495 75.0569 53.7346 75.0569 54.3017V56.7202H74.3063Z" fill="black"/>
<path d="M46.9766 85.3901V79.277H47.7856V85.3901H46.9766ZM49.12 85.3901V80.9617H49.7955V81.5913C50.1208 81.1048 50.5906 80.8616 51.2049 80.8616C51.4718 80.8616 51.7164 80.9103 51.9388 81.0075C52.164 81.1021 52.3322 81.2272 52.4434 81.3828C52.5546 81.5385 52.6324 81.7234 52.6769 81.9374C52.7047 82.0764 52.7186 82.3197 52.7186 82.6672V85.3901H51.968V82.6964C51.968 82.3906 51.9388 82.1626 51.8805 82.0125C51.8221 81.8596 51.7178 81.7387 51.5677 81.6497C51.4204 81.558 51.2466 81.5121 51.0465 81.5121C50.7268 81.5121 50.4502 81.6136 50.2167 81.8165C49.9859 82.0194 49.8706 82.4045 49.8706 82.9716V85.3901H49.12ZM53.5734 84.0683L54.3157 83.9515C54.3574 84.249 54.4728 84.4769 54.6618 84.6354C54.8536 84.7938 55.1205 84.8731 55.4624 84.8731C55.8071 84.8731 56.0629 84.8036 56.2297 84.6646C56.3965 84.5228 56.4799 84.3574 56.4799 84.1683C56.4799 83.9988 56.4062 83.8653 56.2589 83.768C56.156 83.7013 55.9003 83.6165 55.4916 83.5137C54.9412 83.3747 54.5589 83.2551 54.3449 83.1551C54.1336 83.0522 53.9724 82.9118 53.8612 82.7339C53.7528 82.5532 53.6985 82.3544 53.6985 82.1376C53.6985 81.9402 53.743 81.7581 53.832 81.5913C53.9237 81.4218 54.0474 81.2814 54.2031 81.1702C54.3199 81.084 54.4783 81.0117 54.6785 80.9533C54.8814 80.8922 55.0982 80.8616 55.329 80.8616C55.6765 80.8616 55.9809 80.9116 56.2422 81.0117C56.5063 81.1118 56.7009 81.248 56.826 81.4204C56.9511 81.5899 57.0373 81.8179 57.0845 82.1042L56.3506 82.2043C56.3173 81.9764 56.22 81.7984 56.0587 81.6706C55.9003 81.5427 55.6751 81.4788 55.3832 81.4788C55.0385 81.4788 54.7925 81.5357 54.6451 81.6497C54.4978 81.7637 54.4241 81.8971 54.4241 82.05C54.4241 82.1473 54.4547 82.2349 54.5158 82.3127C54.577 82.3934 54.6729 82.4601 54.8036 82.5129C54.8786 82.5407 55.0996 82.6046 55.4666 82.7047C55.9976 82.8465 56.3673 82.9632 56.5758 83.055C56.7871 83.1439 56.9525 83.2746 57.072 83.447C57.1915 83.6193 57.2513 83.8334 57.2513 84.0891C57.2513 84.3393 57.1776 84.5756 57.0303 84.798C56.8858 85.0176 56.6759 85.1886 56.4007 85.3109C56.1254 85.4304 55.8141 85.4902 55.4666 85.4902C54.8911 85.4902 54.4519 85.3707 54.1489 85.1316C53.8487 84.8925 53.6568 84.5381 53.5734 84.0683ZM59.7825 84.7188L59.8909 85.3818C59.6796 85.4263 59.4906 85.4485 59.3238 85.4485C59.0513 85.4485 58.8401 85.4054 58.6899 85.3192C58.5398 85.2331 58.4342 85.1205 58.373 84.9815C58.3119 84.8397 58.2813 84.5436 58.2813 84.0933V81.5455H57.7309V80.9617H58.2813V79.865L59.0277 79.4146V80.9617H59.7825V81.5455H59.0277V84.135C59.0277 84.349 59.0402 84.4867 59.0652 84.5478C59.093 84.609 59.1361 84.6576 59.1945 84.6938C59.2557 84.7299 59.3418 84.748 59.453 84.748C59.5364 84.748 59.6462 84.7382 59.7825 84.7188ZM63.4103 84.8439C63.1323 85.0802 62.864 85.247 62.6055 85.3443C62.3497 85.4416 62.0745 85.4902 61.7799 85.4902C61.2934 85.4902 60.9195 85.3721 60.6581 85.1358C60.3968 84.8967 60.2662 84.5923 60.2662 84.2226C60.2662 84.0057 60.3148 83.8083 60.4121 83.6304C60.5122 83.4497 60.6415 83.3052 60.7999 83.1968C60.9612 83.0883 61.1419 83.0063 61.342 82.9507C61.4893 82.9118 61.7117 82.8743 62.0092 82.8381C62.6152 82.7659 63.0614 82.6797 63.3477 82.5796C63.3505 82.4768 63.3519 82.4114 63.3519 82.3836C63.3519 82.0778 63.281 81.8624 63.1392 81.7373C62.9474 81.5677 62.6625 81.4829 62.2844 81.4829C61.9314 81.4829 61.67 81.5455 61.5005 81.6706C61.3337 81.7929 61.21 82.0111 61.1293 82.3252L60.3954 82.2252C60.4622 81.911 60.572 81.6581 60.7249 81.4662C60.8778 81.2716 61.0988 81.1229 61.3879 81.0201C61.677 80.9144 62.012 80.8616 62.3928 80.8616C62.7709 80.8616 63.0781 80.9061 63.3144 80.995C63.5507 81.084 63.7244 81.1966 63.8356 81.3328C63.9468 81.4662 64.0247 81.6358 64.0691 81.8415C64.0942 81.9694 64.1067 82.2001 64.1067 82.5337V83.5345C64.1067 84.2323 64.122 84.6743 64.1525 84.8606C64.1859 85.044 64.2498 85.2206 64.3444 85.3901H63.5604C63.4826 85.2345 63.4325 85.0524 63.4103 84.8439ZM63.3477 83.1676C63.0753 83.2788 62.6667 83.3733 62.1218 83.4511C61.8132 83.4956 61.595 83.5456 61.4671 83.6012C61.3392 83.6568 61.2405 83.7388 61.171 83.8473C61.1015 83.9529 61.0668 84.0711 61.0668 84.2017C61.0668 84.4019 61.1419 84.5687 61.292 84.7021C61.4449 84.8355 61.6673 84.9023 61.9592 84.9023C62.2483 84.9023 62.5054 84.8397 62.7306 84.7146C62.9558 84.5867 63.1212 84.413 63.2268 84.1934C63.3074 84.0238 63.3477 83.7736 63.3477 83.4428V83.1676ZM65.1366 85.7571L65.8664 85.8655C65.897 86.0907 65.9817 86.2547 66.1207 86.3576C66.307 86.4966 66.5614 86.5661 66.8838 86.5661C67.2313 86.5661 67.4996 86.4966 67.6886 86.3576C67.8777 86.2186 68.0055 86.024 68.0723 85.7738C68.1112 85.6209 68.1293 85.2998 68.1265 84.8105C67.7984 85.1969 67.3898 85.3901 66.9005 85.3901C66.2917 85.3901 65.8205 85.1705 65.4869 84.7313C65.1533 84.2921 64.9865 83.7653 64.9865 83.1509C64.9865 82.7283 65.063 82.3391 65.2159 81.9833C65.3688 81.6247 65.5898 81.3481 65.8789 81.1535C66.1708 80.9589 66.5127 80.8616 66.9047 80.8616C67.4273 80.8616 67.8582 81.0729 68.1974 81.4954V80.9617H68.8896V84.7897C68.8896 85.4791 68.8187 85.967 68.6769 86.2533C68.5379 86.5424 68.3155 86.7704 68.0097 86.9372C67.7067 87.104 67.3328 87.1874 66.888 87.1874C66.3598 87.1874 65.9331 87.0678 65.6078 86.8288C65.2826 86.5925 65.1255 86.2352 65.1366 85.7571ZM65.758 83.0967C65.758 83.6777 65.8733 84.1016 66.1041 84.3685C66.3348 84.6354 66.6239 84.7688 66.9714 84.7688C67.3161 84.7688 67.6052 84.6368 67.8387 84.3727C68.0723 84.1058 68.189 83.6888 68.189 83.1217C68.189 82.5796 68.0681 82.171 67.8262 81.8957C67.5872 81.6205 67.298 81.4829 66.9589 81.4829C66.6253 81.4829 66.3417 81.6191 66.1082 81.8916C65.8747 82.1612 65.758 82.5629 65.758 83.0967ZM70.0196 85.3901V80.9617H70.6951V81.633C70.8675 81.3189 71.026 81.1118 71.1705 81.0117C71.3179 80.9116 71.4791 80.8616 71.6542 80.8616C71.9072 80.8616 72.1643 80.9422 72.4257 81.1035L72.1671 81.7998C71.9837 81.6914 71.8002 81.6372 71.6167 81.6372C71.4527 81.6372 71.3053 81.6872 71.1747 81.7873C71.044 81.8846 70.9509 82.0208 70.8953 82.196C70.8119 82.4629 70.7702 82.7547 70.7702 83.0717V85.3901H70.0196ZM75.7616 84.8439C75.4836 85.0802 75.2153 85.247 74.9568 85.3443C74.701 85.4416 74.4258 85.4902 74.1312 85.4902C73.6447 85.4902 73.2708 85.3721 73.0095 85.1358C72.7481 84.8967 72.6175 84.5923 72.6175 84.2226C72.6175 84.0057 72.6661 83.8083 72.7634 83.6304C72.8635 83.4497 72.9928 83.3052 73.1512 83.1968C73.3125 83.0883 73.4932 83.0063 73.6933 82.9507C73.8407 82.9118 74.0631 82.8743 74.3605 82.8381C74.9665 82.7659 75.4127 82.6797 75.6991 82.5796C75.7018 82.4768 75.7032 82.4114 75.7032 82.3836C75.7032 82.0778 75.6323 81.8624 75.4906 81.7373C75.2987 81.5677 75.0138 81.4829 74.6357 81.4829C74.2827 81.4829 74.0214 81.5455 73.8518 81.6706C73.685 81.7929 73.5613 82.0111 73.4807 82.3252L72.7467 82.2252C72.8135 81.911 72.9233 81.6581 73.0762 81.4662C73.2291 81.2716 73.4501 81.1229 73.7392 81.0201C74.0283 80.9144 74.3633 80.8616 74.7441 80.8616C75.1222 80.8616 75.4294 80.9061 75.6657 80.995C75.902 81.084 76.0757 81.1966 76.1869 81.3328C76.2981 81.4662 76.376 81.6358 76.4204 81.8415C76.4455 81.9694 76.458 82.2001 76.458 82.5337V83.5345C76.458 84.2323 76.4733 84.6743 76.5038 84.8606C76.5372 85.044 76.6011 85.2206 76.6957 85.3901H75.9117C75.8339 85.2345 75.7838 85.0524 75.7616 84.8439ZM75.6991 83.1676C75.4266 83.2788 75.018 83.3733 74.4731 83.4511C74.1645 83.4956 73.9463 83.5456 73.8184 83.6012C73.6905 83.6568 73.5919 83.7388 73.5224 83.8473C73.4529 83.9529 73.4181 84.0711 73.4181 84.2017C73.4181 84.4019 73.4932 84.5687 73.6433 84.7021C73.7962 84.8355 74.0186 84.9023 74.3105 84.9023C74.5996 84.9023 74.8567 84.8397 75.0819 84.7146C75.3071 84.5867 75.4725 84.413 75.5781 84.1934C75.6587 84.0238 75.6991 83.7736 75.6991 83.4428V83.1676ZM77.6256 85.3901V80.9617H78.2969V81.583C78.4359 81.3662 78.6208 81.1924 78.8515 81.0618C79.0822 80.9283 79.345 80.8616 79.6396 80.8616C79.9677 80.8616 80.2359 80.9297 80.4444 81.0659C80.6557 81.2021 80.8044 81.3926 80.8906 81.6372C81.2409 81.1201 81.6968 80.8616 82.2583 80.8616C82.6976 80.8616 83.0353 80.9839 83.2716 81.2286C83.5079 81.4704 83.6261 81.8443 83.6261 82.3503V85.3901H82.8797V82.6005C82.8797 82.3002 82.8546 82.0848 82.8046 81.9541C82.7573 81.8207 82.6698 81.7137 82.5419 81.633C82.414 81.5524 82.2639 81.5121 82.0915 81.5121C81.7802 81.5121 81.5217 81.6164 81.3159 81.8249C81.1102 82.0306 81.0074 82.3614 81.0074 82.8173V85.3901H80.2568V82.5129C80.2568 82.1793 80.1956 81.9291 80.0733 81.7623C79.951 81.5955 79.7508 81.5121 79.4728 81.5121C79.2616 81.5121 79.0656 81.5677 78.8849 81.6789C78.707 81.7901 78.5777 81.9527 78.4971 82.1668C78.4165 82.3808 78.3761 82.6894 78.3761 83.0925V85.3901H77.6256Z" fill="black"/>
<path d="M46.8807 115.28V109.167H51.0048V109.888H47.6897V111.781H50.5586V112.503H47.6897V115.28H46.8807ZM54.8536 114.734C54.5756 114.97 54.3074 115.137 54.0488 115.234C53.7931 115.331 53.5178 115.38 53.2232 115.38C52.7367 115.38 52.3628 115.262 52.1015 115.025C51.8401 114.786 51.7095 114.482 51.7095 114.112C51.7095 113.895 51.7581 113.698 51.8554 113.52C51.9555 113.339 52.0848 113.195 52.2432 113.086C52.4045 112.978 52.5852 112.896 52.7853 112.84C52.9327 112.801 53.1551 112.764 53.4525 112.728C54.0585 112.656 54.5047 112.569 54.7911 112.469C54.7938 112.366 54.7952 112.301 54.7952 112.273C54.7952 111.967 54.7243 111.752 54.5826 111.627C54.3908 111.457 54.1058 111.373 53.7277 111.373C53.3747 111.373 53.1134 111.435 52.9438 111.56C52.777 111.683 52.6533 111.901 52.5727 112.215L51.8388 112.115C51.9055 111.801 52.0153 111.548 52.1682 111.356C52.3211 111.161 52.5421 111.013 52.8312 110.91C53.1203 110.804 53.4553 110.751 53.8362 110.751C54.2142 110.751 54.5214 110.796 54.7577 110.885C54.994 110.974 55.1677 111.086 55.2789 111.222C55.3901 111.356 55.468 111.525 55.5125 111.731C55.5375 111.859 55.55 112.09 55.55 112.423V113.424C55.55 114.122 55.5653 114.564 55.5959 114.75C55.6292 114.934 55.6932 115.11 55.7877 115.28H55.0037C54.9259 115.124 54.8759 114.942 54.8536 114.734ZM54.7911 113.057C54.5186 113.168 54.11 113.263 53.5651 113.341C53.2565 113.385 53.0383 113.435 52.9104 113.491C52.7826 113.546 52.6839 113.628 52.6144 113.737C52.5449 113.843 52.5101 113.961 52.5101 114.091C52.5101 114.292 52.5852 114.458 52.7353 114.592C52.8882 114.725 53.1106 114.792 53.4025 114.792C53.6916 114.792 53.9487 114.729 54.1739 114.604C54.3991 114.476 54.5645 114.303 54.6701 114.083C54.7508 113.913 54.7911 113.663 54.7911 113.332V113.057ZM59.6073 113.658L60.3454 113.754C60.2648 114.262 60.0577 114.661 59.7241 114.95C59.3933 115.237 58.986 115.38 58.5023 115.38C57.8963 115.38 57.4084 115.182 57.0387 114.788C56.6717 114.39 56.4882 113.822 56.4882 113.082C56.4882 112.604 56.5675 112.186 56.7259 111.827C56.8844 111.468 57.1248 111.2 57.4473 111.022C57.7726 110.842 58.1256 110.751 58.5065 110.751C58.9874 110.751 59.3808 110.874 59.6866 111.118C59.9923 111.36 60.1883 111.705 60.2745 112.152L59.5448 112.265C59.4753 111.967 59.3516 111.744 59.1737 111.594C58.9985 111.443 58.7858 111.368 58.5357 111.368C58.1576 111.368 57.8504 111.505 57.6141 111.777C57.3778 112.047 57.2597 112.475 57.2597 113.061C57.2597 113.656 57.3736 114.089 57.6016 114.358C57.8295 114.628 58.127 114.763 58.494 114.763C58.7886 114.763 59.0347 114.672 59.232 114.492C59.4294 114.311 59.5545 114.033 59.6073 113.658ZM64.0191 113.854L64.7947 113.95C64.6724 114.403 64.4458 114.754 64.115 115.005C63.7842 115.255 63.3616 115.38 62.8474 115.38C62.1996 115.38 61.6853 115.181 61.3045 114.784C60.9264 114.383 60.7374 113.823 60.7374 113.103C60.7374 112.358 60.9292 111.78 61.3128 111.368C61.6965 110.957 62.1941 110.751 62.8057 110.751C63.3978 110.751 63.8815 110.953 64.2568 111.356C64.6321 111.759 64.8197 112.326 64.8197 113.057C64.8197 113.102 64.8183 113.168 64.8156 113.257H61.513C61.5408 113.744 61.6784 114.116 61.9258 114.375C62.1732 114.633 62.4818 114.763 62.8515 114.763C63.1267 114.763 63.3616 114.69 63.5562 114.546C63.7508 114.401 63.9051 114.171 64.0191 113.854ZM61.5547 112.64H64.0274C63.9941 112.268 63.8996 111.988 63.7439 111.802C63.5048 111.513 63.1948 111.368 62.814 111.368C62.4693 111.368 62.1788 111.484 61.9425 111.715C61.709 111.945 61.5797 112.254 61.5547 112.64ZM66.4335 115.28H65.7371V109.167H66.4877V111.348C66.8046 110.95 67.2091 110.751 67.7011 110.751C67.9736 110.751 68.2307 110.807 68.4726 110.918C68.7172 111.026 68.9174 111.181 69.073 111.381C69.2315 111.578 69.3552 111.817 69.4442 112.098C69.5331 112.379 69.5776 112.679 69.5776 112.999C69.5776 113.758 69.39 114.344 69.0147 114.759C68.6394 115.173 68.189 115.38 67.6636 115.38C67.141 115.38 66.7309 115.162 66.4335 114.725V115.28ZM66.4251 113.032C66.4251 113.563 66.4974 113.947 66.642 114.183C66.8783 114.57 67.198 114.763 67.6011 114.763C67.9291 114.763 68.2127 114.621 68.4517 114.337C68.6908 114.051 68.8103 113.626 68.8103 113.061C68.8103 112.483 68.695 112.056 68.4642 111.781C68.2363 111.506 67.9597 111.368 67.6344 111.368C67.3064 111.368 67.0228 111.512 66.7838 111.798C66.5447 112.081 66.4251 112.493 66.4251 113.032ZM70.2156 113.066C70.2156 112.245 70.4436 111.638 70.8995 111.243C71.2803 110.915 71.7446 110.751 72.2922 110.751C72.901 110.751 73.3986 110.951 73.7851 111.352C74.1715 111.749 74.3647 112.3 74.3647 113.003C74.3647 113.573 74.2785 114.022 74.1061 114.35C73.9366 114.675 73.6878 114.928 73.3597 115.109C73.0345 115.29 72.6786 115.38 72.2922 115.38C71.6723 115.38 71.1705 115.181 70.7869 114.784C70.406 114.386 70.2156 113.813 70.2156 113.066ZM70.987 113.066C70.987 113.633 71.1107 114.058 71.3582 114.342C71.6056 114.622 71.9169 114.763 72.2922 114.763C72.6647 114.763 72.9747 114.621 73.2221 114.337C73.4695 114.054 73.5932 113.622 73.5932 113.041C73.5932 112.493 73.4681 112.079 73.2179 111.798C72.9705 111.514 72.662 111.373 72.2922 111.373C71.9169 111.373 71.6056 111.513 71.3582 111.794C71.1107 112.075 70.987 112.498 70.987 113.066ZM74.9693 113.066C74.9693 112.245 75.1973 111.638 75.6532 111.243C76.034 110.915 76.4983 110.751 77.0459 110.751C77.6547 110.751 78.1524 110.951 78.5388 111.352C78.9252 111.749 79.1184 112.3 79.1184 113.003C79.1184 113.573 79.0322 114.022 78.8599 114.35C78.6903 114.675 78.4415 114.928 78.1134 115.109C77.7882 115.29 77.4323 115.38 77.0459 115.38C76.426 115.38 75.9242 115.181 75.5406 114.784C75.1597 114.386 74.9693 113.813 74.9693 113.066ZM75.7408 113.066C75.7408 113.633 75.8645 114.058 76.1119 114.342C76.3593 114.622 76.6706 114.763 77.0459 114.763C77.4184 114.763 77.7284 114.621 77.9758 114.337C78.2232 114.054 78.347 113.622 78.347 113.041C78.347 112.493 78.2219 112.079 77.9717 111.798C77.7242 111.514 77.4157 111.373 77.0459 111.373C76.6706 111.373 76.3593 111.513 76.1119 111.794C75.8645 112.075 75.7408 112.498 75.7408 113.066ZM80.0066 115.28V109.167H80.7572V112.653L82.5336 110.851H83.5051L81.8122 112.494L83.6761 115.28H82.7504L81.2867 113.016L80.7572 113.524V115.28H80.0066Z" fill="black"/>
<path d="M46.8515 143.95V137.837H49.562C50.1069 137.837 50.5211 137.893 50.8046 138.004C51.0882 138.112 51.3147 138.306 51.4843 138.584C51.6539 138.862 51.7387 139.169 51.7387 139.505C51.7387 139.939 51.5983 140.304 51.3175 140.602C51.0367 140.899 50.6031 141.088 50.0165 141.169C50.2306 141.272 50.3932 141.373 50.5044 141.473C50.7407 141.69 50.9645 141.961 51.1757 142.286L52.2391 143.95H51.2216L50.4126 142.678C50.1764 142.311 49.9818 142.031 49.8289 141.836C49.676 141.641 49.5384 141.505 49.416 141.427C49.2965 141.35 49.1742 141.295 49.0491 141.265C48.9573 141.245 48.8072 141.236 48.5987 141.236H47.6605V143.95H46.8515ZM47.6605 140.535H49.3994C49.7691 140.535 50.0582 140.498 50.2667 140.422C50.4752 140.345 50.6337 140.222 50.7421 140.055C50.8505 139.886 50.9047 139.702 50.9047 139.505C50.9047 139.216 50.7991 138.978 50.5878 138.792C50.3793 138.606 50.0485 138.513 49.5953 138.513H47.6605V140.535ZM55.9461 142.524L56.7217 142.62C56.5994 143.073 56.3729 143.425 56.042 143.675C55.7112 143.925 55.2887 144.05 54.7744 144.05C54.1267 144.05 53.6124 143.852 53.2315 143.454C52.8534 143.054 52.6644 142.494 52.6644 141.773C52.6644 141.028 52.8562 140.45 53.2399 140.039C53.6235 139.627 54.1211 139.422 54.7327 139.422C55.3248 139.422 55.8085 139.623 56.1838 140.026C56.5591 140.429 56.7468 140.997 56.7468 141.728C56.7468 141.772 56.7454 141.839 56.7426 141.928H53.44C53.4678 142.414 53.6054 142.787 53.8528 143.045C54.1002 143.304 54.4088 143.433 54.7786 143.433C55.0538 143.433 55.2887 143.361 55.4833 143.216C55.6779 143.072 55.8322 142.841 55.9461 142.524ZM53.4817 141.311H55.9545C55.9211 140.938 55.8266 140.659 55.6709 140.472C55.4318 140.183 55.1219 140.039 54.741 140.039C54.3963 140.039 54.1058 140.154 53.8695 140.385C53.636 140.616 53.5067 140.924 53.4817 141.311ZM60.5414 143.95V143.391C60.2606 143.831 59.8478 144.05 59.3029 144.05C58.9499 144.05 58.6246 143.953 58.3272 143.758C58.0325 143.564 57.8031 143.293 57.6391 142.945C57.4779 142.595 57.3973 142.193 57.3973 141.74C57.3973 141.298 57.4709 140.898 57.6183 140.539C57.7656 140.178 57.9866 139.901 58.2813 139.709C58.576 139.518 58.9054 139.422 59.2696 139.422C59.5364 139.422 59.7741 139.479 59.9826 139.593C60.1911 139.704 60.3607 139.85 60.4913 140.03V137.837H61.2378V143.95H60.5414ZM58.1687 141.74C58.1687 142.307 58.2882 142.731 58.5273 143.012C58.7664 143.293 59.0486 143.433 59.3738 143.433C59.7018 143.433 59.9798 143.3 60.2078 143.033C60.4385 142.763 60.5539 142.353 60.5539 141.803C60.5539 141.197 60.4371 140.752 60.2036 140.468C59.9701 140.185 59.6824 140.043 59.3404 140.043C59.0069 140.043 58.7275 140.179 58.5023 140.452C58.2799 140.724 58.1687 141.154 58.1687 141.74ZM65.2951 143.95V143.391C65.0143 143.831 64.6015 144.05 64.0566 144.05C63.7036 144.05 63.3783 143.953 63.0809 143.758C62.7862 143.564 62.5568 143.293 62.3928 142.945C62.2316 142.595 62.151 142.193 62.151 141.74C62.151 141.298 62.2246 140.898 62.372 140.539C62.5193 140.178 62.7403 139.901 63.035 139.709C63.3297 139.518 63.6591 139.422 64.0233 139.422C64.2901 139.422 64.5278 139.479 64.7363 139.593C64.9448 139.704 65.1144 139.85 65.2451 140.03V137.837H65.9915V143.95H65.2951ZM62.9224 141.74C62.9224 142.307 63.0419 142.731 63.281 143.012C63.5201 143.293 63.8023 143.433 64.1275 143.433C64.4556 143.433 64.7335 143.3 64.9615 143.033C65.1922 142.763 65.3076 142.353 65.3076 141.803C65.3076 141.197 65.1908 140.752 64.9573 140.468C64.7238 140.185 64.4361 140.043 64.0942 140.043C63.7606 140.043 63.4812 140.179 63.256 140.452C63.0336 140.724 62.9224 141.154 62.9224 141.74ZM67.1799 138.7V137.837H67.9305V138.7H67.1799ZM67.1799 143.95V139.522H67.9305V143.95H67.1799ZM70.716 143.279L70.8244 143.942C70.6131 143.986 70.4241 144.009 70.2573 144.009C69.9849 144.009 69.7736 143.965 69.6235 143.879C69.4734 143.793 69.3677 143.681 69.3066 143.542C69.2454 143.4 69.2148 143.104 69.2148 142.653V140.106H68.6644V139.522H69.2148V138.425L69.9612 137.975V139.522H70.716V140.106H69.9612V142.695C69.9612 142.909 69.9737 143.047 69.9988 143.108C70.0266 143.169 70.0697 143.218 70.128 143.254C70.1892 143.29 70.2754 143.308 70.3866 143.308C70.47 143.308 70.5798 143.298 70.716 143.279Z" fill="black"/>
<path d="M48.5612 173.23V170.641L46.2052 167.117H47.1893L48.3944 168.96C48.6168 169.305 48.8239 169.65 49.0157 169.995C49.1992 169.675 49.4216 169.315 49.6829 168.915L50.8672 167.117H51.8096L49.3702 170.641V173.23H48.5612ZM51.3759 171.016C51.3759 170.196 51.6039 169.589 52.0598 169.194C52.4406 168.866 52.9049 168.702 53.4525 168.702C54.0613 168.702 54.5589 168.902 54.9454 169.302C55.3318 169.7 55.525 170.25 55.525 170.954C55.525 171.524 55.4388 171.973 55.2664 172.301C55.0969 172.626 54.8481 172.879 54.52 173.06C54.1948 173.24 53.8389 173.331 53.4525 173.331C52.8326 173.331 52.3308 173.132 51.9472 172.734C51.5663 172.337 51.3759 171.764 51.3759 171.016ZM52.1473 171.016C52.1473 171.583 52.271 172.009 52.5185 172.292C52.7659 172.573 53.0772 172.713 53.4525 172.713C53.825 172.713 54.135 172.572 54.3824 172.288C54.6298 172.005 54.7535 171.572 54.7535 170.991C54.7535 170.444 54.6284 170.029 54.3782 169.749C54.1308 169.465 53.8223 169.323 53.4525 169.323C53.0772 169.323 52.7659 169.464 52.5185 169.744C52.271 170.025 52.1473 170.449 52.1473 171.016ZM59.3113 173.23V172.58C58.9665 173.08 58.4981 173.331 57.906 173.331C57.6447 173.331 57.4 173.281 57.1721 173.18C56.9469 173.08 56.7787 172.955 56.6675 172.805C56.5591 172.652 56.4827 172.466 56.4382 172.246C56.4076 172.099 56.3923 171.866 56.3923 171.546V168.802H57.1429V171.258C57.1429 171.65 57.1582 171.914 57.1888 172.05C57.236 172.248 57.3361 172.403 57.489 172.517C57.6419 172.629 57.8309 172.684 58.0561 172.684C58.2813 172.684 58.4926 172.627 58.6899 172.513C58.8873 172.396 59.0263 172.239 59.1069 172.042C59.1903 171.842 59.232 171.553 59.232 171.175V168.802H59.9826V173.23H59.3113ZM62.8015 172.559L62.9099 173.222C62.6986 173.267 62.5096 173.289 62.3428 173.289C62.0704 173.289 61.8591 173.246 61.709 173.16C61.5588 173.073 61.4532 172.961 61.3921 172.822C61.3309 172.68 61.3003 172.384 61.3003 171.934V169.386H60.7499V168.802H61.3003V167.705L62.0467 167.255V168.802H62.8015V169.386H62.0467V171.975C62.0467 172.189 62.0592 172.327 62.0843 172.388C62.1121 172.449 62.1551 172.498 62.2135 172.534C62.2747 172.57 62.3609 172.588 62.4721 172.588C62.5555 172.588 62.6653 172.579 62.8015 172.559ZM66.4418 173.23V172.58C66.0971 173.08 65.6287 173.331 65.0366 173.331C64.7752 173.331 64.5306 173.281 64.3027 173.18C64.0775 173.08 63.9093 172.955 63.7981 172.805C63.6897 172.652 63.6132 172.466 63.5687 172.246C63.5382 172.099 63.5229 171.866 63.5229 171.546V168.802H64.2735V171.258C64.2735 171.65 64.2888 171.914 64.3193 172.05C64.3666 172.248 64.4667 172.403 64.6196 172.517C64.7725 172.629 64.9615 172.684 65.1867 172.684C65.4119 172.684 65.6231 172.627 65.8205 172.513C66.0179 172.396 66.1569 172.239 66.2375 172.042C66.3209 171.842 66.3626 171.553 66.3626 171.175V168.802H67.1132V173.23H66.4418ZM68.9855 173.23H68.2891V167.117H69.0397V169.298C69.3566 168.901 69.7611 168.702 70.2531 168.702C70.5256 168.702 70.7827 168.758 71.0246 168.869C71.2692 168.977 71.4694 169.131 71.625 169.332C71.7835 169.529 71.9072 169.768 71.9962 170.049C72.0851 170.33 72.1296 170.63 72.1296 170.95C72.1296 171.708 71.942 172.295 71.5667 172.709C71.1914 173.123 70.741 173.331 70.2156 173.331C69.693 173.331 69.2829 173.112 68.9855 172.676V173.23ZM68.9771 170.983C68.9771 171.514 69.0494 171.897 69.194 172.134C69.4303 172.52 69.75 172.713 70.1531 172.713C70.4811 172.713 70.7646 172.572 71.0037 172.288C71.2428 172.002 71.3623 171.576 71.3623 171.012C71.3623 170.434 71.247 170.007 71.0162 169.732C70.7883 169.457 70.5117 169.319 70.1864 169.319C69.8584 169.319 69.5748 169.462 69.3358 169.749C69.0967 170.032 68.9771 170.444 68.9771 170.983ZM76.0785 171.804L76.8541 171.9C76.7318 172.353 76.5052 172.705 76.1744 172.955C75.8436 173.205 75.4211 173.331 74.9068 173.331C74.259 173.331 73.7447 173.132 73.3639 172.734C72.9858 172.334 72.7968 171.774 72.7968 171.054C72.7968 170.309 72.9886 169.731 73.3722 169.319C73.7559 168.908 74.2535 168.702 74.8651 168.702C75.4572 168.702 75.9409 168.903 76.3162 169.307C76.6915 169.71 76.8791 170.277 76.8791 171.008C76.8791 171.052 76.8778 171.119 76.875 171.208H73.5724C73.6002 171.695 73.7378 172.067 73.9852 172.326C74.2326 172.584 74.5412 172.713 74.9109 172.713C75.1862 172.713 75.4211 172.641 75.6157 172.497C75.8103 172.352 75.9645 172.121 76.0785 171.804ZM73.6141 170.591H76.0869C76.0535 170.218 75.959 169.939 75.8033 169.753C75.5642 169.464 75.2543 169.319 74.8734 169.319C74.5287 169.319 74.2382 169.434 74.0019 169.665C73.7684 169.896 73.6391 170.204 73.6141 170.591Z" fill="black"/>
<path d="M46.839 203.12V197.007H49.145C49.5509 197.007 49.8608 197.026 50.0749 197.065C50.3751 197.115 50.6267 197.211 50.8296 197.353C51.0326 197.492 51.1952 197.688 51.3175 197.941C51.4426 198.194 51.5052 198.472 51.5052 198.775C51.5052 199.295 51.3398 199.736 51.0089 200.097C50.6781 200.456 50.0804 200.635 49.2159 200.635H47.648V203.12H46.839ZM47.648 199.913H49.2284C49.751 199.913 50.1221 199.816 50.3418 199.622C50.5614 199.427 50.6712 199.153 50.6712 198.8C50.6712 198.544 50.6059 198.326 50.4752 198.145C50.3473 197.962 50.1777 197.841 49.9665 197.783C49.8302 197.746 49.5787 197.728 49.2117 197.728H47.648V199.913ZM52.4434 197.87V197.007H53.194V197.87H52.4434ZM52.4434 203.12V198.692H53.194V203.12H52.4434ZM54.3407 203.12V198.692H55.0162V199.321C55.3415 198.835 55.8113 198.592 56.4257 198.592C56.6925 198.592 56.9372 198.64 57.1596 198.738C57.3848 198.832 57.5529 198.957 57.6641 199.113C57.7753 199.268 57.8532 199.453 57.8977 199.667C57.9255 199.806 57.9394 200.05 57.9394 200.397V203.12H57.1888V200.426C57.1888 200.121 57.1596 199.893 57.1012 199.742C57.0428 199.59 56.9386 199.469 56.7885 199.38C56.6411 199.288 56.4674 199.242 56.2672 199.242C55.9475 199.242 55.6709 199.344 55.4374 199.546C55.2067 199.749 55.0913 200.134 55.0913 200.702V203.12H54.3407ZM60.7332 202.449L60.8416 203.112C60.6303 203.156 60.4413 203.178 60.2745 203.178C60.0021 203.178 59.7908 203.135 59.6407 203.049C59.4906 202.963 59.3849 202.85 59.3238 202.711C59.2626 202.57 59.232 202.274 59.232 201.823V199.275H58.6816V198.692H59.232V197.595L59.9784 197.145V198.692H60.7332V199.275H59.9784V201.865C59.9784 202.079 59.991 202.217 60.016 202.278C60.0438 202.339 60.0869 202.388 60.1452 202.424C60.2064 202.46 60.2926 202.478 60.4038 202.478C60.4872 202.478 60.597 202.468 60.7332 202.449ZM64.5028 201.694L65.2784 201.79C65.1561 202.243 64.9295 202.595 64.5987 202.845C64.2679 203.095 63.8454 203.22 63.3311 203.22C62.6833 203.22 62.169 203.021 61.7882 202.624C61.4101 202.224 61.2211 201.663 61.2211 200.943C61.2211 200.198 61.4129 199.62 61.7965 199.209C62.1802 198.797 62.6778 198.592 63.2894 198.592C63.8815 198.592 64.3652 198.793 64.7405 199.196C65.1158 199.599 65.3034 200.166 65.3034 200.898C65.3034 200.942 65.302 201.009 65.2993 201.098H61.9967C62.0245 201.584 62.1621 201.957 62.4095 202.215C62.6569 202.474 62.9655 202.603 63.3352 202.603C63.6104 202.603 63.8454 202.531 64.04 202.386C64.2345 202.242 64.3888 202.011 64.5028 201.694ZM62.0384 200.481H64.5112C64.4778 200.108 64.3833 199.829 64.2276 199.642C63.9885 199.353 63.6786 199.209 63.2977 199.209C62.953 199.209 62.6625 199.324 62.4262 199.555C62.1927 199.786 62.0634 200.094 62.0384 200.481ZM66.2166 203.12V198.692H66.8922V199.363C67.0645 199.049 67.223 198.842 67.3675 198.742C67.5149 198.642 67.6761 198.592 67.8513 198.592C68.1042 198.592 68.3614 198.672 68.6227 198.833L68.3642 199.53C68.1807 199.421 67.9972 199.367 67.8137 199.367C67.6497 199.367 67.5024 199.417 67.3717 199.517C67.2411 199.615 67.1479 199.751 67.0923 199.926C67.0089 200.193 66.9672 200.485 66.9672 200.802V203.12H66.2166ZM72.1004 201.694L72.876 201.79C72.7537 202.243 72.5271 202.595 72.1963 202.845C71.8655 203.095 71.443 203.22 70.9287 203.22C70.2809 203.22 69.7666 203.021 69.3858 202.624C69.0077 202.224 68.8187 201.663 68.8187 200.943C68.8187 200.198 69.0105 199.62 69.3941 199.209C69.7778 198.797 70.2754 198.592 70.887 198.592C71.4791 198.592 71.9628 198.793 72.3381 199.196C72.7134 199.599 72.901 200.166 72.901 200.898C72.901 200.942 72.8996 201.009 72.8969 201.098H69.5943C69.6221 201.584 69.7597 201.957 70.0071 202.215C70.2545 202.474 70.5631 202.603 70.9328 202.603C71.208 202.603 71.443 202.531 71.6375 202.386C71.8321 202.242 71.9864 202.011 72.1004 201.694ZM69.636 200.481H72.1088C72.0754 200.108 71.9809 199.829 71.8252 199.642C71.5861 199.353 71.2762 199.209 70.8953 199.209C70.5506 199.209 70.2601 199.324 70.0238 199.555C69.7903 199.786 69.661 200.094 69.636 200.481ZM73.5224 201.798L74.2646 201.681C74.3063 201.979 74.4217 202.207 74.6107 202.365C74.8025 202.524 75.0694 202.603 75.4113 202.603C75.756 202.603 76.0118 202.534 76.1786 202.395C76.3454 202.253 76.4288 202.087 76.4288 201.898C76.4288 201.729 76.3551 201.595 76.2078 201.498C76.1049 201.431 75.8492 201.347 75.4405 201.244C74.8901 201.105 74.5078 200.985 74.2938 200.885C74.0825 200.782 73.9213 200.642 73.8101 200.464C73.7017 200.283 73.6475 200.084 73.6475 199.868C73.6475 199.67 73.6919 199.488 73.7809 199.321C73.8726 199.152 73.9963 199.011 74.152 198.9C74.2688 198.814 74.4272 198.742 74.6274 198.683C74.8303 198.622 75.0472 198.592 75.2779 198.592C75.6254 198.592 75.9298 198.642 76.1911 198.742C76.4552 198.842 76.6498 198.978 76.7749 199.15C76.9 199.32 76.9862 199.548 77.0334 199.834L76.2995 199.934C76.2662 199.706 76.1689 199.528 76.0076 199.401C75.8492 199.273 75.624 199.209 75.3321 199.209C74.9874 199.209 74.7414 199.266 74.594 199.38C74.4467 199.494 74.373 199.627 74.373 199.78C74.373 199.877 74.4036 199.965 74.4648 200.043C74.5259 200.123 74.6218 200.19 74.7525 200.243C74.8275 200.271 75.0485 200.335 75.4155 200.435C75.9465 200.576 76.3162 200.693 76.5247 200.785C76.736 200.874 76.9014 201.005 77.0209 201.177C77.1405 201.349 77.2002 201.563 77.2002 201.819C77.2002 202.069 77.1266 202.306 76.9792 202.528C76.8347 202.748 76.6248 202.919 76.3496 203.041C76.0743 203.16 75.763 203.22 75.4155 203.22C74.84 203.22 74.4008 203.101 74.0978 202.862C73.7976 202.623 73.6058 202.268 73.5224 201.798ZM79.7314 202.449L79.8398 203.112C79.6285 203.156 79.4395 203.178 79.2727 203.178C79.0002 203.178 78.789 203.135 78.6388 203.049C78.4887 202.963 78.3831 202.85 78.3219 202.711C78.2608 202.57 78.2302 202.274 78.2302 201.823V199.275H77.6798V198.692H78.2302V197.595L78.9766 197.145V198.692H79.7314V199.275H78.9766V201.865C78.9766 202.079 78.9891 202.217 79.0141 202.278C79.0419 202.339 79.085 202.388 79.1434 202.424C79.2046 202.46 79.2907 202.478 79.4019 202.478C79.4853 202.478 79.5951 202.468 79.7314 202.449Z" fill="black"/>
<path d="M48.3944 231.79V226.398H46.3803V225.677H51.2258V226.398H49.2034V231.79H48.3944ZM51.6511 226.54V225.677H52.4017V226.54H51.6511ZM51.6511 231.79V227.362H52.4017V231.79H51.6511ZM53.5526 231.79V225.677H54.3032V229.163L56.0796 227.362H57.0512L55.3582 229.005L57.2221 231.79H56.2964L54.8328 229.526L54.3032 230.035V231.79H53.5526ZM59.4572 231.119L59.5656 231.782C59.3543 231.826 59.1653 231.848 58.9985 231.848C58.7261 231.848 58.5148 231.805 58.3647 231.719C58.2146 231.633 58.1089 231.52 58.0478 231.381C57.9866 231.24 57.956 230.944 57.956 230.493V227.945H57.4056V227.362H57.956V226.265L58.7025 225.815V227.362H59.4572V227.945H58.7025V230.535C58.7025 230.749 58.715 230.887 58.74 230.948C58.7678 231.009 58.8109 231.058 58.8692 231.094C58.9304 231.13 59.0166 231.148 59.1278 231.148C59.2112 231.148 59.321 231.138 59.4572 231.119ZM59.9159 229.576C59.9159 228.756 60.1439 228.148 60.5998 227.754C60.9806 227.426 61.4449 227.262 61.9925 227.262C62.6013 227.262 63.0989 227.462 63.4854 227.862C63.8718 228.26 64.065 228.81 64.065 229.513C64.065 230.083 63.9788 230.532 63.8064 230.86C63.6369 231.185 63.3881 231.438 63.06 231.619C62.7348 231.8 62.3789 231.89 61.9925 231.89C61.3726 231.89 60.8708 231.691 60.4872 231.294C60.1063 230.896 59.9159 230.324 59.9159 229.576ZM60.6873 229.576C60.6873 230.143 60.811 230.568 61.0585 230.852C61.3059 231.133 61.6172 231.273 61.9925 231.273C62.365 231.273 62.675 231.131 62.9224 230.848C63.1698 230.564 63.2935 230.132 63.2935 229.551C63.2935 229.003 63.1684 228.589 62.9182 228.308C62.6708 228.025 62.3623 227.883 61.9925 227.883C61.6172 227.883 61.3059 228.023 61.0585 228.304C60.811 228.585 60.6873 229.009 60.6873 229.576ZM64.9532 231.79V225.677H65.7038V229.163L67.4801 227.362H68.4517L66.7587 229.005L68.6227 231.79H67.697L66.2333 229.526L65.7038 230.035V231.79H64.9532Z" fill="black"/>
<path d="M23 37H279" stroke="#ADADAD" stroke-width="0.305" stroke-linecap="round" stroke-dasharray="2.44 2.44"/>
<path d="M23 38H279" stroke="#ADADAD" stroke-width="0.305" stroke-linecap="round" stroke-dasharray="2.44 2.44"/>
<circle cx="31.6504" cy="53.1006" r="8.65043" fill="#3985ED"/>
<g filter="url(#filter0_d_306_705)">
<circle cx="31.6504" cy="82.3804" r="8.65043" fill="white"/>
<circle cx="31.6504" cy="82.3804" r="8.55157" stroke="#B8B8B8" stroke-width="0.197724"/>
</g>
<g filter="url(#filter1_d_306_705)">
<circle cx="31.6504" cy="111.66" r="8.65043" fill="white"/>
<circle cx="31.6504" cy="111.66" r="8.74929" stroke="#B8B8B8" stroke-width="0.197724"/>
</g>
<path d="M27.7299 56.8076H28.8555C29.0107 56.8076 29.1366 56.6818 29.1366 56.5265V51.6066C29.1366 51.4513 29.0107 51.3254 28.8555 51.3254H27.7299C27.5746 51.3254 27.4487 51.4513 27.4487 51.6066V56.5265C27.4487 56.6817 27.5746 56.8076 27.7299 56.8076Z" fill="white"/>
<path d="M27.7299 50.4608H28.8555C29.0107 50.4608 29.1366 50.3349 29.1366 50.1796V49.1801C29.1366 49.0248 29.0107 48.8989 28.8555 48.8989H27.7299C27.5746 48.8989 27.4487 49.0248 27.4487 49.1801V50.1796C27.4487 50.3349 27.5746 50.4608 27.7299 50.4608Z" fill="white"/>
<path d="M35.6833 51.8962C35.5252 51.688 35.2919 51.5168 34.9836 51.3826C34.6752 51.2485 34.3348 51.1814 33.9624 51.1814C33.2063 51.1814 32.5657 51.4699 32.0405 52.0471C31.936 52.1619 31.86 52.1368 31.86 51.9815V51.6067C31.86 51.4514 31.7341 51.3256 31.5788 51.3256H30.5734C30.4181 51.3256 30.2922 51.4514 30.2922 51.6067V56.5266C30.2922 56.6819 30.4181 56.8078 30.5734 56.8078H31.699C31.8543 56.8078 31.9801 56.6819 31.9801 56.5266V54.8156C31.9801 54.1028 32.0232 53.6142 32.1093 53.3499C32.1953 53.0856 32.3545 52.8734 32.5868 52.7132C32.8191 52.553 33.0813 52.4729 33.3737 52.4729C33.602 52.4729 33.7972 52.529 33.9594 52.6411C34.1216 52.7533 34.2387 52.9104 34.3108 53.1127C34.3829 53.3149 34.419 53.7604 34.419 54.4492V56.5266C34.419 56.6819 34.5448 56.8078 34.7001 56.8078H35.8257C35.981 56.8078 36.1068 56.6819 36.1068 56.5266V53.7404C36.1068 53.2478 36.0758 52.8694 36.0138 52.6051C35.9518 52.3408 35.8416 52.1045 35.6833 51.8962Z" fill="white"/>
<path d="M34.3342 77.6848H28.9674C27.8559 77.6848 26.9548 78.5859 26.9548 79.6974V85.0642C26.9548 86.1757 27.8559 87.0767 28.9674 87.0767H34.3342C35.4457 87.0767 36.3467 86.1757 36.3467 85.0642V79.6974C36.3467 78.5859 35.4457 77.6848 34.3342 77.6848Z" fill="url(#paint0_radial_306_705)"/>
<path d="M34.3342 77.6848H28.9674C27.8559 77.6848 26.9548 78.5859 26.9548 79.6974V85.0642C26.9548 86.1757 27.8559 87.0767 28.9674 87.0767H34.3342C35.4457 87.0767 36.3467 86.1757 36.3467 85.0642V79.6974C36.3467 78.5859 35.4457 77.6848 34.3342 77.6848Z" fill="url(#paint1_radial_306_705)"/>
<path d="M34.3342 77.6848H28.9674C27.8559 77.6848 26.9548 78.5859 26.9548 79.6974V85.0642C26.9548 86.1757 27.8559 87.0767 28.9674 87.0767H34.3342C35.4457 87.0767 36.3467 86.1757 36.3467 85.0642V79.6974C36.3467 78.5859 35.4457 77.6848 34.3342 77.6848Z" fill="url(#paint2_radial_306_705)"/>
<path fill-rule="evenodd" clip-rule="evenodd" d="M31.6503 84.0574C32.5765 84.0574 33.3274 83.3065 33.3274 82.3802C33.3274 81.454 32.5765 80.7031 31.6503 80.7031C30.724 80.7031 29.9731 81.454 29.9731 82.3802C29.9731 83.3065 30.724 84.0574 31.6503 84.0574ZM31.6503 83.3865C32.206 83.3865 32.6565 82.936 32.6565 82.3802C32.6565 81.8245 32.206 81.374 31.6503 81.374C31.0945 81.374 30.644 81.8245 30.644 82.3802C30.644 82.936 31.0945 83.3865 31.6503 83.3865Z" fill="white"/>
<path fill-rule="evenodd" clip-rule="evenodd" d="M28.2964 82.2462C28.2964 81.1191 28.2964 80.5555 28.5157 80.125C28.7087 79.7463 29.0166 79.4384 29.3953 79.2455C29.8258 79.0261 30.3893 79.0261 31.5165 79.0261H31.7848C32.9119 79.0261 33.4755 79.0261 33.906 79.2455C34.2847 79.4384 34.5926 79.7463 34.7855 80.125C35.0049 80.5555 35.0049 81.1191 35.0049 82.2462V82.5145C35.0049 83.6417 35.0049 84.2053 34.7855 84.6357C34.5926 85.0144 34.2847 85.3223 33.906 85.5153C33.4755 85.7346 32.9119 85.7346 31.7848 85.7346H31.5165C30.3893 85.7346 29.8258 85.7346 29.3953 85.5153C29.0166 85.3223 28.7087 85.0144 28.5157 84.6357C28.2964 84.2053 28.2964 83.6417 28.2964 82.5145V82.2462ZM31.5165 79.697H31.7848C32.3595 79.697 32.7501 79.6975 33.052 79.7222C33.3461 79.7462 33.4965 79.7897 33.6015 79.8432C33.8539 79.9718 34.0592 80.1771 34.1878 80.4295C34.2413 80.5345 34.2848 80.6849 34.3088 80.979C34.3335 81.2809 34.334 81.6716 34.334 82.2462V82.5145C34.334 83.0892 34.3335 83.4798 34.3088 83.7817C34.2848 84.0759 34.2413 84.2263 34.1878 84.3312C34.0592 84.5836 33.8539 84.7889 33.6015 84.9175C33.4965 84.971 33.3461 85.0146 33.052 85.0386C32.7501 85.0632 32.3595 85.0638 31.7848 85.0638H31.5165C30.9418 85.0638 30.5512 85.0632 30.2493 85.0386C29.9551 85.0146 29.8047 84.971 29.6998 84.9175C29.4474 84.7889 29.2421 84.5836 29.1135 84.3312C29.06 84.2263 29.0165 84.0759 28.9924 83.7817C28.9678 83.4798 28.9672 83.0892 28.9672 82.5145V82.2462C28.9672 81.6716 28.9678 81.2809 28.9924 80.979C29.0165 80.6849 29.06 80.5345 29.1135 80.4295C29.2421 80.1771 29.4474 79.9718 29.6998 79.8432C29.8047 79.7897 29.9551 79.7462 30.2493 79.7222C30.5512 79.6975 30.9418 79.697 31.5165 79.697Z" fill="white"/>
<path d="M40.3009 111.713C40.3009 109.405 39.3899 107.191 37.7684 105.559C36.1469 103.927 33.9476 103.01 31.6544 103.01C29.4772 103.008 27.3793 103.833 25.7799 105.32C24.1805 106.806 23.1973 108.846 23.0266 111.031C22.856 113.216 23.5105 115.385 24.8594 117.105C26.2083 118.825 28.1523 119.97 30.3031 120.311V114.228H28.1094V111.713H30.3044V109.796C30.3044 107.615 31.5951 106.409 33.5702 106.409C34.5164 106.409 35.5058 106.579 35.5058 106.579V108.722H34.4151C33.3405 108.722 33.007 109.393 33.007 110.081V111.713H35.4045L35.0216 114.228H33.0057V120.311C35.0395 119.986 36.8916 118.942 38.2289 117.366C39.5662 115.79 40.3009 113.786 40.3009 111.713Z" fill="#1877F2"/>
<g filter="url(#filter2_d_306_705)">
<circle cx="31.6504" cy="140.94" r="8.65043" fill="#FC471E"/>
<circle cx="31.6504" cy="140.94" r="8.74929" stroke="#B8B8B8" stroke-width="0.197724"/>
</g>
<g filter="url(#filter3_d_306_705)">
<circle cx="31.6504" cy="200.11" r="8.65043" fill="white"/>
<circle cx="31.6504" cy="200.11" r="8.74929" stroke="#B8B8B8" stroke-width="0.197724"/>
</g>
<g filter="url(#filter4_d_306_705)">
<circle cx="31.6504" cy="170.221" r="8.65043" fill="white"/>
<circle cx="31.6504" cy="170.221" r="8.74929" stroke="#B8B8B8" stroke-width="0.197724"/>
</g>
<g filter="url(#filter5_d_306_705)">
<circle cx="31.6504" cy="229.391" r="8.65043" fill="white"/>
<circle cx="31.6504" cy="229.391" r="8.74929" stroke="#B8B8B8" stroke-width="0.197724"/>
</g>
<path d="M31.8449 132.9C27.3027 132.9 23.6099 136.593 23.6099 141.135C23.6099 145.677 27.3027 149.37 31.8449 149.37C36.387 149.37 40.0799 145.677 40.0799 141.135C40.0799 136.593 36.387 132.9 31.8449 132.9Z" fill="#FC471E"/>
<path fill-rule="evenodd" clip-rule="evenodd" d="M34.1607 137.046C34.1534 137.093 34.1496 137.14 34.1496 137.188C34.1496 137.675 34.5365 138.07 35.0138 138.07C35.491 138.07 35.8779 137.675 35.8779 137.188C35.8779 136.701 35.491 136.307 35.0138 136.307C34.8011 136.307 34.6064 136.385 34.4558 136.515L32.2117 135.95L31.4006 139.26C30.3216 139.332 29.3512 139.666 28.6191 140.169C28.4112 139.961 28.1265 139.833 27.8124 139.833C27.176 139.833 26.6602 140.359 26.6602 141.008C26.6602 141.46 26.91 141.852 27.2764 142.049C27.2499 142.189 27.2363 142.332 27.2363 142.478C27.2363 144.263 29.2997 145.71 31.8452 145.71C34.3906 145.71 36.454 144.263 36.454 142.478C36.454 142.332 36.4404 142.189 36.4139 142.049C36.7803 141.852 37.0302 141.46 37.0302 141.008C37.0302 140.359 36.5143 139.833 35.8779 139.833C35.5638 139.833 35.2791 139.961 35.0712 140.169C34.2736 139.621 33.1932 139.274 31.9977 139.247L32.6309 136.663L34.1607 137.046ZM29.8288 142.772C30.306 142.772 30.6929 142.377 30.6929 141.89C30.6929 141.403 30.306 141.008 29.8288 141.008C29.3515 141.008 28.9646 141.403 28.9646 141.89C28.9646 142.377 29.3515 142.772 29.8288 142.772ZM33.8615 142.772C34.3388 142.772 34.7257 142.377 34.7257 141.89C34.7257 141.403 34.3388 141.008 33.8615 141.008C33.3843 141.008 32.9974 141.403 32.9974 141.89C32.9974 142.377 33.3843 142.772 33.8615 142.772ZM29.9885 143.703C29.8562 143.612 29.6774 143.649 29.5891 143.784C29.5008 143.919 29.5366 144.102 29.669 144.192C30.2958 144.618 31.0705 144.831 31.8452 144.831C32.6198 144.831 33.3945 144.618 34.0213 144.192C34.1537 144.102 34.1895 143.919 34.1012 143.784C34.0129 143.649 33.8341 143.612 33.7017 143.703C33.1717 144.063 32.5084 144.243 31.8452 144.243C31.4518 144.243 31.0585 144.18 30.6929 144.053C30.4421 143.966 30.2043 143.849 29.9885 143.703Z" fill="white"/>
<path fill-rule="evenodd" clip-rule="evenodd" d="M30.7602 171.46L30.7599 168.536L33.552 170.003L30.7602 171.46ZM36.8909 168.029C36.8909 168.029 36.7899 167.312 36.4802 166.996C36.0871 166.582 35.6466 166.58 35.4448 166.556C33.9987 166.45 31.8295 166.45 31.8295 166.45H31.825C31.825 166.45 29.6558 166.45 28.2096 166.556C28.0075 166.58 27.5673 166.582 27.174 166.996C26.8643 167.312 26.7635 168.029 26.7635 168.029C26.7635 168.029 26.6602 168.872 26.6602 169.714V170.503C26.6602 171.346 26.7635 172.188 26.7635 172.188C26.7635 172.188 26.8643 172.905 27.174 173.221C27.5673 173.635 28.0837 173.622 28.3136 173.665C29.1403 173.745 31.8272 173.77 31.8272 173.77C31.8272 173.77 33.9987 173.767 35.4448 173.662C35.6466 173.637 36.0871 173.635 36.4802 173.221C36.7899 172.905 36.8909 172.188 36.8909 172.188C36.8909 172.188 36.9943 171.346 36.9943 170.503V169.714C36.9943 168.872 36.8909 168.029 36.8909 168.029Z" fill="#CE1312"/>
<path d="M27.8784 231.237C27.9591 230.569 28.233 230.196 28.7491 229.812C29.4877 229.293 30.4102 229.587 30.4102 229.587V227.845C30.6345 227.839 30.8589 227.852 31.0807 227.884V230.126C31.0807 230.126 30.1584 229.833 29.4199 230.352C28.904 230.735 28.6296 231.109 28.5492 231.777C28.5467 232.14 28.6147 232.614 28.9281 233.024C28.8506 232.984 28.7716 232.939 28.6912 232.888C28.0008 232.424 27.8751 231.729 27.8784 231.237ZM34.89 224.624C34.3819 224.067 34.1898 223.505 34.1203 223.11H34.7594C34.7594 223.11 34.632 224.145 35.5607 225.163L35.5736 225.177C35.3233 225.02 35.0937 224.834 34.89 224.624ZM37.9687 226.202V228.399C37.9687 228.399 37.1532 228.367 36.5497 228.213C35.7069 227.998 35.1652 227.669 35.1652 227.669C35.1652 227.669 34.7911 227.434 34.7608 227.418V231.954C34.7608 232.207 34.6917 232.838 34.4808 233.364C34.2054 234.052 33.7806 234.504 33.7025 234.596C33.7025 234.596 33.1857 235.207 32.2741 235.618C31.4524 235.989 30.7309 235.98 30.5153 235.989C30.5153 235.989 29.2681 236.038 28.1459 235.309C27.9032 235.148 27.6767 234.966 27.4692 234.765L27.4748 234.769C28.5974 235.499 29.8442 235.449 29.8442 235.449C30.0602 235.44 30.7816 235.449 31.6031 235.078C32.5139 234.667 33.0314 234.056 33.0314 234.056C33.1087 233.964 33.5355 233.512 33.8097 232.824C34.02 232.298 34.0898 231.667 34.0898 231.414V226.878C34.12 226.895 34.4939 227.13 34.4939 227.13C34.4939 227.13 35.0359 227.459 35.8786 227.674C36.4824 227.828 37.2977 227.859 37.2977 227.859V226.138C37.5767 226.201 37.8144 226.217 37.9687 226.202Z" fill="#EE1D52"/>
<path d="M37.2978 226.138V227.859C37.2978 227.859 36.4824 227.827 35.8786 227.673C35.0359 227.459 34.494 227.129 34.494 227.129C34.494 227.129 34.1201 226.894 34.0898 226.878V231.415C34.0898 231.667 34.0206 232.298 33.8097 232.824C33.5344 233.513 33.1096 233.965 33.0314 234.057C33.0314 234.057 32.5145 234.668 31.6031 235.079C30.7816 235.45 30.0602 235.44 29.8442 235.45C29.8442 235.45 28.5974 235.499 27.4749 234.77L27.4693 234.766C27.3508 234.651 27.2392 234.53 27.1351 234.403C26.7769 233.966 26.5574 233.45 26.5022 233.302V233.3C26.4134 233.044 26.2269 232.429 26.2524 231.834C26.2975 230.783 26.6672 230.138 26.7649 229.976C27.0238 229.536 27.3605 229.141 27.76 228.811C28.1125 228.526 28.5122 228.299 28.9424 228.14C29.4076 227.953 29.9057 227.853 30.41 227.845V229.587C30.41 229.587 29.4874 229.294 28.7492 229.812C28.233 230.196 27.9591 230.569 27.8784 231.237C27.8751 231.729 28.0008 232.424 28.6906 232.888C28.7711 232.939 28.8501 232.984 28.9276 233.024C29.0481 233.181 29.1948 233.317 29.3617 233.428C30.0355 233.855 30.6002 233.884 31.3222 233.607C31.8036 233.422 32.166 233.005 32.3341 232.542C32.4397 232.253 32.4383 231.963 32.4383 231.662V223.11H34.1187C34.1881 223.505 34.3803 224.067 34.8883 224.624C35.0921 224.834 35.3217 225.02 35.5719 225.177C35.6459 225.254 36.024 225.632 36.5093 225.864C36.7603 225.984 37.0249 226.076 37.2978 226.138Z" fill="black"/>
<path d="M28.9424 228.141C28.5121 228.3 28.1125 228.527 27.76 228.812C27.3603 229.143 27.0237 229.538 26.7652 229.979C26.6674 230.14 26.2977 230.786 26.2526 231.837C26.2272 232.433 26.4137 233.048 26.5025 233.304V233.305C26.5585 233.452 26.7772 233.968 27.1354 234.406C27.2395 234.533 27.351 234.654 27.4695 234.769C27.0898 234.517 26.7512 234.213 26.4647 233.866C26.1095 233.433 25.8905 232.922 25.8334 232.771C25.8333 232.77 25.8333 232.769 25.8334 232.768V232.766C25.7443 232.51 25.5572 231.895 25.5833 231.298C25.6284 230.248 25.9981 229.603 26.0958 229.441C26.3543 228.999 26.6909 228.604 27.0906 228.273C27.4431 227.988 27.8427 227.761 28.2731 227.602C28.5415 227.495 28.8211 227.417 29.1071 227.367C29.5381 227.295 29.9783 227.289 30.4114 227.349V227.845C29.9066 227.853 29.408 227.953 28.9424 228.141Z" fill="#69C9D0"/>
<path d="M34.1197 223.11H32.4392V231.663C32.4392 231.963 32.4392 232.253 32.3351 232.543C32.1654 233.005 31.8043 233.423 31.3232 233.608C30.6009 233.886 30.0363 233.855 29.3627 233.429C29.1955 233.318 29.0484 233.182 28.9275 233.026C29.5013 233.319 30.015 233.314 30.6513 233.069C31.1322 232.884 31.4938 232.467 31.6629 232.004C31.7688 231.715 31.7674 231.425 31.7674 231.124V222.57H34.0877C34.0877 222.57 34.0617 222.783 34.1197 223.11ZM37.2973 225.663V226.139C37.025 226.076 36.7609 225.984 36.5103 225.864C36.025 225.632 35.6469 225.254 35.573 225.178C35.6587 225.232 35.7478 225.281 35.8396 225.325C36.4297 225.607 37.0108 225.691 37.2973 225.663Z" fill="#69C9D0"/>
<path fill-rule="evenodd" clip-rule="evenodd" d="M27.096 200C27.096 197.545 29.0858 195.555 31.5403 195.555C33.9948 195.555 35.9846 197.545 35.9846 200C35.9846 202.454 33.9948 204.444 31.5403 204.444C31.0026 204.444 30.4872 204.349 30.0101 204.174C30.3106 203.365 30.6052 202.554 30.8876 201.739C31.1879 201.953 31.5752 202.091 32.0631 202.091C33.0749 202.091 34.1415 201.424 34.4059 200.102C34.7378 198.442 33.4084 196.863 31.5403 196.863C30.7545 196.863 29.9816 197.178 29.4034 197.68C28.824 198.182 28.4032 198.905 28.4032 199.738C28.4032 200.143 28.5255 200.595 28.817 200.892C29.0186 201.094 29.3552 201.094 29.5572 200.892C29.7574 200.692 29.7613 200.37 29.5686 200.165C29.1577 199.652 29.6991 198.807 30.0883 198.47C30.4924 198.119 31.0266 197.908 31.5403 197.908C32.8094 197.908 33.5713 198.943 33.3804 199.897C33.2221 200.689 32.62 201.045 32.0631 201.045C31.6355 201.045 31.4052 200.865 31.2579 200.631C31.3383 200.378 31.4072 200.148 31.456 199.961C31.5566 199.576 31.6173 199.111 31.2704 198.822C31.0126 198.607 30.7083 198.655 30.5222 198.748C30.1763 198.921 29.9717 199.325 29.9717 199.738C29.9717 199.969 30.0077 200.327 30.1373 200.696C29.8035 201.703 29.4414 202.701 29.072 203.696C27.8805 202.899 27.096 201.541 27.096 200ZM31.5403 194.51C28.5082 194.51 26.0503 196.968 26.0503 200C26.0503 203.032 28.5082 205.49 31.5403 205.49C34.5723 205.49 37.0303 203.032 37.0303 200C37.0303 196.968 34.5723 194.51 31.5403 194.51Z" fill="#CE1312"/>
<rect x="152" y="53" width="127" height="3" rx="1.5" fill="#EEEEEE"/>
<rect x="152" y="112" width="127" height="3" rx="1.5" fill="#EEEEEE"/>
<rect x="152" y="199" width="127" height="3" rx="1.5" fill="#EEEEEE"/>
<rect x="152" y="82" width="127" height="3" rx="1.5" fill="#EEEEEE"/>
<rect x="152" y="170" width="127" height="3" rx="1.5" fill="#EEEEEE"/>
<rect x="152" y="141" width="127" height="3" rx="1.5" fill="#EEEEEE"/>
<rect x="152" y="229" width="127" height="3" rx="1.5" fill="#EEEEEE"/>
<rect x="152" y="53" width="63" height="3" rx="1.5" fill="#2563EB"/>
<rect x="152" y="112" width="63" height="3" rx="1.5" fill="#2563EB"/>
<rect x="152" y="199" width="63" height="3" rx="1.5" fill="#2563EB"/>
<rect x="152" y="82" width="63" height="3" rx="1.5" fill="#2563EB"/>
<rect x="152" y="170" width="63" height="3" rx="1.5" fill="#2563EB"/>
<rect x="152" y="141" width="63" height="3" rx="1.5" fill="#2563EB"/>
<rect x="152" y="229" width="63" height="3" rx="1.5" fill="#2563EB"/>
<path d="M26.7773 30.2793H36.9127" stroke="black" stroke-width="0.915" stroke-linecap="round" stroke-linejoin="round"/>
<path d="M39.2352 17.6099H24.4545C23.988 17.6099 23.6099 17.988 23.6099 18.4545V27.7452C23.6099 28.2117 23.988 28.5899 24.4545 28.5899H39.2352C39.7017 28.5899 40.0799 28.2117 40.0799 27.7452V18.4545C40.0799 17.988 39.7017 17.6099 39.2352 17.6099Z" stroke="black" stroke-width="0.915" stroke-linecap="round" stroke-linejoin="round"/>
<path d="M34.3197 23.1001L30.2151 20.7368V25.4633L34.3197 23.1001Z" stroke="black" stroke-width="0.915" stroke-linecap="round" stroke-linejoin="round"/>
</g>
<defs>
<filter id="filter0_d_306_705" x="20.0341" y="71.7527" width="21.2553" height="21.2553" filterUnits="userSpaceOnUse" color-interpolation-filters="sRGB">
<feFlood flood-opacity="0" result="BackgroundImageFix"/>
<feColorMatrix in="SourceAlpha" type="matrix" values="0 0 0 0 0 0 0 0 0 0 0 0 0 0 0 0 0 0 127 0" result="hardAlpha"/>
<feOffset dx="-0.988621"/>
<feGaussianBlur stdDeviation="0.988621"/>
<feComposite in2="hardAlpha" operator="out"/>
<feColorMatrix type="matrix" values="0 0 0 0 0 0 0 0 0 0 0 0 0 0 0 0 0 0 0.25 0"/>
<feBlend mode="normal" in2="BackgroundImageFix" result="effect1_dropShadow_306_705"/>
<feBlend mode="normal" in="SourceGraphic" in2="effect1_dropShadow_306_705" result="shape"/>
</filter>
<filter id="filter1_d_306_705" x="19.8364" y="100.835" width="21.6508" height="21.6508" filterUnits="userSpaceOnUse" color-interpolation-filters="sRGB">
<feFlood flood-opacity="0" result="BackgroundImageFix"/>
<feColorMatrix in="SourceAlpha" type="matrix" values="0 0 0 0 0 0 0 0 0 0 0 0 0 0 0 0 0 0 127 0" result="hardAlpha"/>
<feOffset dx="-0.988621"/>
<feGaussianBlur stdDeviation="0.988621"/>
<feComposite in2="hardAlpha" operator="out"/>
<feColorMatrix type="matrix" values="0 0 0 0 0 0 0 0 0 0 0 0 0 0 0 0 0 0 0.25 0"/>
<feBlend mode="normal" in2="BackgroundImageFix" result="effect1_dropShadow_306_705"/>
<feBlend mode="normal" in="SourceGraphic" in2="effect1_dropShadow_306_705" result="shape"/>
</filter>
<filter id="filter2_d_306_705" x="19.8364" y="130.115" width="21.6508" height="21.6508" filterUnits="userSpaceOnUse" color-interpolation-filters="sRGB">
<feFlood flood-opacity="0" result="BackgroundImageFix"/>
<feColorMatrix in="SourceAlpha" type="matrix" values="0 0 0 0 0 0 0 0 0 0 0 0 0 0 0 0 0 0 127 0" result="hardAlpha"/>
<feOffset dx="-0.988621"/>
<feGaussianBlur stdDeviation="0.988621"/>
<feComposite in2="hardAlpha" operator="out"/>
<feColorMatrix type="matrix" values="0 0 0 0 0 0 0 0 0 0 0 0 0 0 0 0 0 0 0.25 0"/>
<feBlend mode="normal" in2="BackgroundImageFix" result="effect1_dropShadow_306_705"/>
<feBlend mode="normal" in="SourceGraphic" in2="effect1_dropShadow_306_705" result="shape"/>
</filter>
<filter id="filter3_d_306_705" x="19.8364" y="189.285" width="21.6508" height="21.6508" filterUnits="userSpaceOnUse" color-interpolation-filters="sRGB">
<feFlood flood-opacity="0" result="BackgroundImageFix"/>
<feColorMatrix in="SourceAlpha" type="matrix" values="0 0 0 0 0 0 0 0 0 0 0 0 0 0 0 0 0 0 127 0" result="hardAlpha"/>
<feOffset dx="-0.988621"/>
<feGaussianBlur stdDeviation="0.988621"/>
<feComposite in2="hardAlpha" operator="out"/>
<feColorMatrix type="matrix" values="0 0 0 0 0 0 0 0 0 0 0 0 0 0 0 0 0 0 0.25 0"/>
<feBlend mode="normal" in2="BackgroundImageFix" result="effect1_dropShadow_306_705"/>
<feBlend mode="normal" in="SourceGraphic" in2="effect1_dropShadow_306_705" result="shape"/>
</filter>
<filter id="filter4_d_306_705" x="19.8364" y="159.395" width="21.6508" height="21.6508" filterUnits="userSpaceOnUse" color-interpolation-filters="sRGB">
<feFlood flood-opacity="0" result="BackgroundImageFix"/>
<feColorMatrix in="SourceAlpha" type="matrix" values="0 0 0 0 0 0 0 0 0 0 0 0 0 0 0 0 0 0 127 0" result="hardAlpha"/>
<feOffset dx="-0.988621"/>
<feGaussianBlur stdDeviation="0.988621"/>
<feComposite in2="hardAlpha" operator="out"/>
<feColorMatrix type="matrix" values="0 0 0 0 0 0 0 0 0 0 0 0 0 0 0 0 0 0 0.25 0"/>
<feBlend mode="normal" in2="BackgroundImageFix" result="effect1_dropShadow_306_705"/>
<feBlend mode="normal" in="SourceGraphic" in2="effect1_dropShadow_306_705" result="shape"/>
</filter>
<filter id="filter5_d_306_705" x="19.8364" y="218.565" width="21.6508" height="21.6508" filterUnits="userSpaceOnUse" color-interpolation-filters="sRGB">
<feFlood flood-opacity="0" result="BackgroundImageFix"/>
<feColorMatrix in="SourceAlpha" type="matrix" values="0 0 0 0 0 0 0 0 0 0 0 0 0 0 0 0 0 0 127 0" result="hardAlpha"/>
<feOffset dx="-0.988621"/>
<feGaussianBlur stdDeviation="0.988621"/>
<feComposite in2="hardAlpha" operator="out"/>
<feColorMatrix type="matrix" values="0 0 0 0 0 0 0 0 0 0 0 0 0 0 0 0 0 0 0.25 0"/>
<feBlend mode="normal" in2="BackgroundImageFix" result="effect1_dropShadow_306_705"/>
<feBlend mode="normal" in="SourceGraphic" in2="effect1_dropShadow_306_705" result="shape"/>
</filter>
<radialGradient id="paint0_radial_306_705" cx="0" cy="0" r="1" gradientUnits="userSpaceOnUse" gradientTransform="translate(30.3091 84.7287) rotate(-55.3758) scale(8.55991)">
<stop stop-color="#B13589"/>
<stop offset="0.79309" stop-color="#C62F94"/>
<stop offset="1" stop-color="#8A3AC8"/>
</radialGradient>
<radialGradient id="paint1_radial_306_705" cx="0" cy="0" r="1" gradientUnits="userSpaceOnUse" gradientTransform="translate(29.9737 87.4121) rotate(-65.1363) scale(7.57866)">
<stop stop-color="#E0E8B7"/>
<stop offset="0.444662" stop-color="#FB8A2E"/>
<stop offset="0.71474" stop-color="#E2425C"/>
<stop offset="1" stop-color="#E2425C" stop-opacity="0"/>
</radialGradient>
<radialGradient id="paint2_radial_306_705" cx="0" cy="0" r="1" gradientUnits="userSpaceOnUse" gradientTransform="translate(26.4517 78.0202) rotate(-8.1301) scale(13.045 2.79019)">
<stop offset="0.156701" stop-color="#406ADC"/>
<stop offset="0.467799" stop-color="#6A45BE"/>
<stop offset="1" stop-color="#6A45BE" stop-opacity="0"/>
</radialGradient>
<clipPath id="clip0_306_705">
<rect width="301" height="250" fill="white"/>
</clipPath>
</defs>
</svg>
