<svg width="100" height="100" viewBox="0 0 100 100" fill="none" xmlns="http://www.w3.org/2000/svg">
<path d="M9.00024 79.2855H55.8573V76.357H9.00024V79.2855Z" fill="black"/>
<path d="M17.7858 91H64.6428V88.0714H17.7858V91Z" fill="black"/>
<path d="M73.4284 76.3572V20.7145H70.4998V76.3572H73.4284Z" fill="black"/>
<path d="M20.7145 76.3572L20.7145 20.7145H17.7859L17.7859 76.3572H20.7145Z" fill="black"/>
<path d="M73.4287 76.3572H70.5002V82.2143C70.5002 83.7677 69.8831 85.2575 68.7847 86.3559C67.6862 87.4543 66.1964 88.0714 64.643 88.0714H61.7145V91H64.643C66.9732 91 69.2078 90.0744 70.8555 88.4267C72.5031 86.7791 73.4287 84.5444 73.4287 82.2143V76.3572Z" fill="black"/>
<path d="M52.9284 79.2855H55.857V82.2141C55.857 83.7675 56.4741 85.2573 57.5725 86.3557C58.6709 87.4541 60.1607 88.0712 61.7141 88.0712H64.6427V90.9998H61.7141C59.384 90.9998 57.1493 90.0741 55.5017 88.4265C53.8541 86.7789 52.9284 84.5442 52.9284 82.2141V79.2855Z" fill="black"/>
<path d="M9.00009 79.2855H11.9287V82.2141C11.9287 83.7675 12.5457 85.2573 13.6442 86.3557C14.7426 87.4541 16.2324 88.0712 17.7858 88.0712H20.7143V90.9998H17.7858C15.4557 90.9998 13.221 90.0741 11.5734 88.4265C9.92572 86.7789 9.00009 84.5442 9.00009 82.2141V79.2855Z" fill="black"/>
<path d="M90.9998 20.7145H73.4284V23.643H90.9998V20.7145Z" fill="black"/>
<path d="M82.2144 9H26.5717V11.9286H82.2144V9Z" fill="black"/>
<path d="M17.7862 20.7143H20.7147V17.7857C20.7147 16.2323 21.3318 14.7425 22.4302 13.6441C23.5287 12.5457 25.0184 11.9286 26.5718 11.9286H29.5004V9H26.5718C24.2417 9 22.0071 9.92563 20.3594 11.5733C18.7118 13.2209 17.7862 15.4556 17.7862 17.7857V20.7143Z" fill="black"/>
<path d="M70.5 20.7143H73.4286V17.7857C73.4286 16.2323 74.0457 14.7425 75.1441 13.6441C76.2425 12.5457 77.7323 11.9286 79.2857 11.9286H82.2143V9H79.2857C76.9556 9 74.721 9.92563 73.0733 11.5733C71.4257 13.2209 70.5 15.4556 70.5 17.7857V20.7143Z" fill="black"/>
<path d="M90.9999 20.7143H88.0713V17.7857C88.0713 16.2323 87.4542 14.7425 86.3558 13.6441C85.2574 12.5457 83.7676 11.9286 82.2142 11.9286H79.2856V9H82.2142C84.5443 9 86.779 9.92563 88.4266 11.5733C90.0742 13.2209 90.9999 15.4556 90.9999 17.7857V20.7143Z" fill="black"/>
</svg>
