<svg width="100" height="100" viewBox="0 0 100 100" fill="none" xmlns="http://www.w3.org/2000/svg">
<circle cx="50.181" cy="50.181" r="44.819" fill="white"/>
<path d="M95 50.2749C95 38.2672 90.2611 26.7514 81.8259 18.2607C73.3907 9.77004 61.95 5.00002 50.0208 5.00002C38.6947 4.98949 27.7815 9.28038 19.4613 17.0156C11.141 24.7508 6.02618 35.3608 5.13845 46.7263C4.25073 58.0918 7.65548 69.3761 14.6726 78.325C21.6897 87.274 31.8026 93.2288 42.9912 95V63.3593H31.5793V50.2749H42.9976V40.3015C42.9976 28.9569 49.7124 22.6831 59.9869 22.6831C64.9089 22.6831 70.0558 23.5692 70.0558 23.5692V34.7133H64.382C58.7917 34.7133 57.0568 38.2059 57.0568 41.7826V50.2749H69.5289L67.537 63.3593H57.0504V95C67.6302 93.3136 77.265 87.8826 84.2216 79.6839C91.1783 71.4852 95.0002 61.0569 95 50.2749Z" fill="#1877F2"/>
</svg>
