<svg width="100" height="100" viewBox="0 0 100 100" fill="none" xmlns="http://www.w3.org/2000/svg">
<path d="M59.25 20.4C59.25 17.8098 59.25 16.5146 59.7541 15.5253C60.1977 14.6551 60.9048 13.9475 61.7752 13.5041C62.7645 13 64.0595 13 66.65 13H79.6C82.1905 13 83.4855 13 84.4748 13.5041C85.3452 13.9475 86.0523 14.6551 86.4959 15.5253C87 16.5146 87 17.8098 87 20.4V33.35C87 35.9402 87 37.2354 86.4959 38.2247C86.0523 39.0949 85.3452 39.8025 84.4748 40.2459C83.4855 40.75 82.1905 40.75 79.6 40.75H66.65C64.0595 40.75 62.7645 40.75 61.7752 40.2459C60.9048 39.8025 60.1977 39.0949 59.7541 38.2247C59.25 37.2354 59.25 35.9402 59.25 33.35V20.4Z" stroke="black" stroke-width="4" stroke-linecap="round" stroke-linejoin="round"/>
<path d="M13 20.4C13 17.8098 13 16.5146 13.5041 15.5253C13.9475 14.6551 14.6551 13.9475 15.5253 13.5041C16.5146 13 17.8098 13 20.4 13H33.35C35.9402 13 37.2354 13 38.2247 13.5041C39.0949 13.9475 39.8025 14.6551 40.2459 15.5253C40.75 16.5146 40.75 17.8098 40.75 20.4V33.35C40.75 35.9402 40.75 37.2354 40.2459 38.2247C39.8025 39.0949 39.0949 39.8025 38.2247 40.2459C37.2354 40.75 35.9402 40.75 33.35 40.75H20.4C17.8098 40.75 16.5146 40.75 15.5253 40.2459C14.6551 39.8025 13.9475 39.0949 13.5041 38.2247C13 37.2354 13 35.9402 13 33.35V20.4Z" stroke="black" stroke-width="4" stroke-linecap="round" stroke-linejoin="round"/>
<path d="M13 66.65C13 64.0595 13 62.7645 13.5041 61.7752C13.9475 60.9048 14.6551 60.1977 15.5253 59.7541C16.5146 59.25 17.8098 59.25 20.4 59.25H33.35C35.9402 59.25 37.2354 59.25 38.2247 59.7541C39.0949 60.1977 39.8025 60.9048 40.2459 61.7752C40.75 62.7645 40.75 64.0595 40.75 66.65V79.6C40.75 82.1905 40.75 83.4855 40.2459 84.4748C39.8025 85.3452 39.0949 86.0523 38.2247 86.4959C37.2354 87 35.9402 87 33.35 87H20.4C17.8098 87 16.5146 87 15.5253 86.4959C14.6551 86.0523 13.9475 85.3452 13.5041 84.4748C13 83.4855 13 82.1905 13 79.6V66.65Z" stroke="black" stroke-width="4" stroke-linecap="round" stroke-linejoin="round"/>
<path d="M59.25 66.65C59.25 64.0595 59.25 62.7645 59.7541 61.7752C60.1977 60.9048 60.9048 60.1977 61.7752 59.7541C62.7645 59.25 64.0595 59.25 66.65 59.25H79.6C82.1905 59.25 83.4855 59.25 84.4748 59.7541C85.3452 60.1977 86.0523 60.9048 86.4959 61.7752C87 62.7645 87 64.0595 87 66.65V79.6C87 82.1905 87 83.4855 86.4959 84.4748C86.0523 85.3452 85.3452 86.0523 84.4748 86.4959C83.4855 87 82.1905 87 79.6 87H66.65C64.0595 87 62.7645 87 61.7752 86.4959C60.9048 86.0523 60.1977 85.3452 59.7541 84.4748C59.25 83.4855 59.25 82.1905 59.25 79.6V66.65Z" stroke="black" stroke-width="4" stroke-linecap="round" stroke-linejoin="round"/>
</svg>
