<svg width="100" height="100" viewBox="0 0 100 100" fill="none" xmlns="http://www.w3.org/2000/svg">
<path d="M64.8591 18.0516C63.7452 18.0187 62.6685 18.4545 61.8911 19.2529L61.684 19.4656C60.118 21.0738 60.3233 23.6924 62.1207 25.0369V25.0369C62.7636 25.5179 63.545 25.7778 64.3479 25.7778H85.43L56.3333 54.8744L41.7848 40.3263C41.4703 40.0115 41.0968 39.7617 40.6857 39.5913C40.2745 39.4209 39.8339 39.3332 39.3889 39.3332C38.9438 39.3332 38.5032 39.4209 38.0921 39.5913C37.681 39.7617 37.3075 40.0115 36.9929 40.3263L3.60032 73.7185C2.64678 74.6721 2.11108 75.9653 2.11108 77.3139V77.3139C2.11108 78.7974 3.31371 80 4.79723 80H4.98809C6.21438 80 7.39046 79.5129 8.25758 78.6457L39.3889 47.5145L53.9374 62.0626C54.2519 62.3774 54.6254 62.6272 55.0365 62.7976C55.4476 62.968 55.8883 63.0557 56.3333 63.0557C56.7783 63.0557 57.219 62.968 57.6301 62.7976C58.0412 62.6272 58.4147 62.3774 58.7293 62.0626L90.2222 30.57V51.7124C90.2222 52.4741 90.4808 53.2132 90.9557 53.8088V53.8088C92.2744 55.4628 94.7745 55.503 96.1457 53.8923L96.1856 53.8455C96.7113 53.228 97 52.4435 97 51.6326V20.9419C97 19.8603 96.1401 18.9746 95.059 18.9427L64.8591 18.0516Z" fill="black"/>
</svg>
