<svg width="100" height="100" viewBox="0 0 100 100" fill="none" xmlns="http://www.w3.org/2000/svg">
<circle cx="50.181" cy="50.181" r="43.819" fill="#3985ED"/>
<path d="M30.3217 68.9607H36.0234C36.81 68.9607 37.4476 68.323 37.4476 67.5364V42.6147C37.4476 41.828 36.81 41.1905 36.0234 41.1905H30.3217C29.5351 41.1905 28.8975 41.828 28.8975 42.6147V67.5364C28.8975 68.3229 29.5351 68.9607 30.3217 68.9607Z" fill="white"/>
<path d="M30.3217 36.809H36.0233C36.8099 36.809 37.4475 36.1714 37.4475 35.3848V30.3217C37.4475 29.5351 36.8099 28.8975 36.0233 28.8975H30.3217C29.535 28.8975 28.8975 29.5351 28.8975 30.3217V35.3848C28.8975 36.1714 29.535 36.809 30.3217 36.809Z" fill="white"/>
<path d="M70.6104 44.0811C69.8092 43.0265 68.6278 42.1592 67.0657 41.4794C65.5036 40.8 63.7793 40.4601 61.8928 40.4601C58.0631 40.4601 54.8179 41.9217 52.1575 44.8454C51.6281 45.4271 51.2432 45.2999 51.2432 44.5133V42.6147C51.2432 41.828 50.6056 41.1905 49.819 41.1905H44.7258C43.9391 41.1905 43.3016 41.828 43.3016 42.6147V67.5364C43.3016 68.323 43.9392 68.9607 44.7258 68.9607H50.4275C51.2141 68.9607 51.8516 68.323 51.8516 67.5364V58.8693C51.8516 55.2585 52.0697 52.7836 52.5057 51.4449C52.9417 50.1061 53.7483 49.0311 54.9247 48.2197C56.1014 47.4082 57.4299 47.0023 58.9109 47.0023C60.0671 47.0023 61.0561 47.2864 61.8778 47.8545C62.6994 48.4226 63.2928 49.2184 63.6579 50.2431C64.0232 51.2675 64.2057 53.5242 64.2057 57.0134V67.5363C64.2057 68.3229 64.8432 68.9606 65.6298 68.9606H71.3314C72.118 68.9606 72.7555 68.3229 72.7555 67.5363V53.4227C72.7555 50.9278 72.5983 49.0107 72.2842 47.672C71.9701 46.3332 71.412 45.1363 70.6104 44.0811Z" fill="white"/>
</svg>
