<svg width="100" height="100" viewBox="0 0 100 100" fill="none" xmlns="http://www.w3.org/2000/svg">
<path d="M86.8358 37.7462V30.4895C86.8358 23.3175 86.8358 19.7315 85.44 16.9922C84.2123 14.5826 82.2534 12.6235 79.8438 11.3958C77.1042 10 73.5185 10 66.3463 10H30.4896C23.3176 10 19.7316 10 16.9923 11.3958C14.5827 12.6235 12.6236 14.5826 11.3959 16.9922C10.0001 19.7315 10.0001 23.3175 10.0001 30.4895V66.3462C10.0001 73.5184 10.0001 77.1041 11.3959 79.8437C12.6236 82.2534 14.5827 84.2122 16.9923 85.4399C19.7316 86.8358 23.3176 86.8358 30.4896 86.8358H37.7463M71.4098 72.7974L64.1603 86.2608C62.9754 88.4613 62.3829 89.5617 61.6606 89.849C61.034 90.0983 60.3258 90.0364 59.7517 89.6821C59.09 89.274 58.6973 88.0877 57.9119 85.7152L46.2854 50.6004C45.5972 48.5225 45.2532 47.4839 45.5008 46.7919C45.7159 46.1896 46.1897 45.7158 46.792 45.5007C47.484 45.2531 48.5226 45.5971 50.6005 46.2853L85.7149 57.9118C88.0878 58.6976 89.2741 59.0904 89.6822 59.7516C90.0365 60.3261 90.0979 61.0339 89.8487 61.6609C89.5618 62.3828 88.4614 62.9753 86.2604 64.1602L72.7975 71.4097C72.4624 71.5903 72.2947 71.6808 72.1478 71.7964C72.0176 71.8997 71.8998 72.0175 71.7965 72.1477C71.6809 72.2946 71.5904 72.4623 71.4098 72.7974Z" stroke="black" stroke-width="5" stroke-linecap="round" stroke-linejoin="round"/>
</svg>
