<svg width="300" height="250" viewBox="0 0 300 250" fill="none" xmlns="http://www.w3.org/2000/svg">
<g clip-path="url(#clip0_306_572)">
<path d="M13 6.5H286C289.038 6.5 291.5 8.96243 291.5 12V263.5H7.5V12C7.5 8.96244 9.96243 6.5 13 6.5Z" fill="white" stroke="#D9D9D9"/>
<path d="M49.2352 32V22.6078H50.4781V27.2654L55.1422 22.6078H56.8271L52.887 26.4133L57.0001 32H55.36L52.0157 27.2462L50.4781 28.7454V32H49.2352ZM62.5483 29.8089L63.74 29.9563C63.5521 30.6525 63.204 31.1928 62.6957 31.5772C62.1874 31.9616 61.5382 32.1538 60.748 32.1538C59.7529 32.1538 58.9627 31.8484 58.3776 31.2376C57.7967 30.6226 57.5062 29.7619 57.5062 28.6557C57.5062 27.511 57.801 26.6226 58.3904 25.9905C58.9798 25.3584 59.7443 25.0423 60.684 25.0423C61.5937 25.0423 62.3369 25.352 62.9135 25.9713C63.4901 26.5906 63.7784 27.4619 63.7784 28.5852C63.7784 28.6536 63.7763 28.7561 63.772 28.8927H58.6979C58.7406 29.6402 58.952 30.2125 59.3322 30.6097C59.7123 31.007 60.1864 31.2056 60.7545 31.2056C61.1773 31.2056 61.5382 31.0945 61.8372 30.8724C62.1362 30.6503 62.3732 30.2958 62.5483 29.8089ZM58.762 27.9445H62.5611C62.5099 27.3722 62.3647 26.943 62.1255 26.6568C61.7582 26.2126 61.2819 25.9905 60.6968 25.9905C60.1672 25.9905 59.7208 26.1678 59.3578 26.5223C58.999 26.8768 58.8004 27.3509 58.762 27.9445ZM65.1431 34.6203L65.0149 33.5376C65.2669 33.606 65.4869 33.6401 65.6748 33.6401C65.9311 33.6401 66.1361 33.5974 66.2899 33.512C66.4436 33.4266 66.5696 33.307 66.6679 33.1532C66.7405 33.0379 66.8579 32.7517 67.0202 32.2947C67.0416 32.2306 67.0757 32.1367 67.1227 32.0128L64.5408 25.1961H65.7837L67.1996 29.1362C67.3833 29.6359 67.5477 30.1613 67.6929 30.7123C67.8253 30.1826 67.9834 29.6658 68.167 29.1618L69.6213 25.1961H70.7746L68.1862 32.1153C67.9086 32.8628 67.6929 33.3774 67.5392 33.6593C67.3342 34.0395 67.0992 34.3171 66.8344 34.4922C66.5696 34.6716 66.2536 34.7613 65.8862 34.7613C65.6641 34.7613 65.4164 34.7143 65.1431 34.6203ZM75.7654 32V22.6078H77.0083V32H75.7654ZM79.0584 32V25.1961H80.0963V26.1635C80.5961 25.416 81.3179 25.0423 82.2618 25.0423C82.6718 25.0423 83.0477 25.1171 83.3894 25.2665C83.7353 25.4118 83.9937 25.604 84.1646 25.8431C84.3354 26.0823 84.455 26.3664 84.5234 26.6952C84.5661 26.9088 84.5874 27.2825 84.5874 27.8164V32H83.4342V27.8613C83.4342 27.3914 83.3894 27.0412 83.2997 26.8106C83.21 26.5756 83.0498 26.3899 82.8192 26.2532C82.5928 26.1122 82.3259 26.0418 82.0183 26.0418C81.5272 26.0418 81.1022 26.1977 80.7434 26.5094C80.3889 26.8212 80.2117 27.4128 80.2117 28.2841V32H79.0584ZM90.7763 32V31.1415C90.3449 31.8163 89.7107 32.1538 88.8735 32.1538C88.3311 32.1538 87.8314 32.0043 87.3744 31.7053C86.9216 31.4063 86.5692 30.9899 86.3172 30.456C86.0695 29.9178 85.9457 29.3006 85.9457 28.6044C85.9457 27.9253 86.0588 27.3103 86.2852 26.7593C86.5116 26.2041 86.8511 25.7791 87.3039 25.4844C87.7566 25.1897 88.2628 25.0423 88.8223 25.0423C89.2323 25.0423 89.5975 25.1299 89.9178 25.305C90.2382 25.4758 90.4987 25.7001 90.6994 25.9777V22.6078H91.8462V32H90.7763ZM87.1309 28.6044C87.1309 29.4758 87.3146 30.1271 87.6819 30.5585C88.0492 30.9899 88.4827 31.2056 88.9824 31.2056C89.4864 31.2056 89.9136 31.0006 90.2638 30.5905C90.6183 30.1762 90.7955 29.5462 90.7955 28.7005C90.7955 27.7694 90.6162 27.086 90.2574 26.6504C89.8986 26.2147 89.4565 25.9969 88.9312 25.9969C88.4187 25.9969 87.9894 26.2062 87.6434 26.6248C87.3017 27.0433 87.1309 27.7032 87.1309 28.6044ZM93.6722 23.9339V22.6078H94.8254V23.9339H93.6722ZM93.6722 32V25.1961H94.8254V32H93.6722ZM101.027 29.5078L102.161 29.6551C102.037 30.4368 101.719 31.0497 101.206 31.4939C100.698 31.9338 100.072 32.1538 99.3293 32.1538C98.3982 32.1538 97.6486 31.8505 97.0805 31.244C96.5167 30.6332 96.2348 29.7598 96.2348 28.6237C96.2348 27.889 96.3566 27.2462 96.6 26.6952C96.8435 26.1443 97.2129 25.7321 97.7084 25.4587C98.2081 25.1811 98.7506 25.0423 99.3357 25.0423C100.075 25.0423 100.679 25.2302 101.149 25.6061C101.619 25.9777 101.92 26.5073 102.052 27.195L100.931 27.3679C100.824 26.9109 100.634 26.5671 100.361 26.3365C100.092 26.1058 99.7649 25.9905 99.3805 25.9905C98.7997 25.9905 98.3277 26.1998 97.9647 26.6184C97.6016 27.0327 97.4201 27.6904 97.4201 28.5916C97.4201 29.5057 97.5952 30.1698 97.9454 30.5841C98.2957 30.9984 98.7527 31.2056 99.3165 31.2056C99.7692 31.2056 100.147 31.0668 100.45 30.7891C100.754 30.5115 100.946 30.0844 101.027 29.5078ZM107.588 31.1607C107.16 31.5238 106.748 31.78 106.351 31.9295C105.958 32.079 105.535 32.1538 105.083 32.1538C104.335 32.1538 103.761 31.9722 103.359 31.6092C102.958 31.2419 102.757 30.7742 102.757 30.2061C102.757 29.873 102.832 29.5697 102.981 29.2964C103.135 29.0187 103.333 28.7966 103.577 28.6301C103.825 28.4635 104.102 28.3375 104.41 28.2521C104.636 28.1923 104.978 28.1346 105.435 28.0791C106.366 27.968 107.052 27.8356 107.491 27.6819C107.496 27.5238 107.498 27.4235 107.498 27.3808C107.498 26.9109 107.389 26.5799 107.171 26.3877C106.876 26.1272 106.439 25.9969 105.858 25.9969C105.315 25.9969 104.914 26.093 104.653 26.2852C104.397 26.4731 104.207 26.8084 104.083 27.2911L102.955 27.1373C103.058 26.6547 103.227 26.266 103.462 25.9713C103.697 25.6723 104.036 25.4438 104.48 25.2858C104.924 25.1235 105.439 25.0423 106.024 25.0423C106.605 25.0423 107.077 25.1106 107.44 25.2473C107.803 25.384 108.07 25.557 108.241 25.7663C108.412 25.9713 108.531 26.2318 108.6 26.5479C108.638 26.7444 108.657 27.0989 108.657 27.6114V29.149C108.657 30.2211 108.681 30.9002 108.728 31.1863C108.779 31.4682 108.877 31.7395 109.023 32H107.818C107.699 31.7608 107.622 31.4811 107.588 31.1607ZM107.491 28.5852C107.073 28.7561 106.445 28.9013 105.608 29.0209C105.134 29.0892 104.798 29.1661 104.602 29.2515C104.406 29.3369 104.254 29.4629 104.147 29.6295C104.04 29.7918 103.987 29.9733 103.987 30.1741C103.987 30.4816 104.102 30.7379 104.333 30.9429C104.568 31.1479 104.91 31.2504 105.358 31.2504C105.802 31.2504 106.197 31.1543 106.543 30.9621C106.889 30.7656 107.143 30.4987 107.306 30.1613C107.43 29.9007 107.491 29.5163 107.491 29.0081V28.5852ZM112.969 30.9685L113.136 31.9872C112.811 32.0555 112.521 32.0897 112.264 32.0897C111.846 32.0897 111.521 32.0235 111.291 31.8911C111.06 31.7587 110.898 31.5857 110.804 31.3721C110.71 31.1543 110.663 30.6994 110.663 30.0075V26.093H109.817V25.1961H110.663V23.5111L111.81 22.8192V25.1961H112.969V26.093H111.81V30.0716C111.81 30.4005 111.829 30.6119 111.867 30.7058C111.91 30.7998 111.976 30.8746 112.066 30.9301C112.16 30.9856 112.292 31.0134 112.463 31.0134C112.591 31.0134 112.76 30.9984 112.969 30.9685ZM113.674 28.598C113.674 27.338 114.024 26.4048 114.725 25.7983C115.31 25.2943 116.023 25.0423 116.864 25.0423C117.8 25.0423 118.564 25.3498 119.158 25.9649C119.752 26.5756 120.049 27.4213 120.049 28.5019C120.049 29.3775 119.916 30.0673 119.651 30.5713C119.391 31.071 119.009 31.4597 118.505 31.7373C118.005 32.0149 117.458 32.1538 116.864 32.1538C115.912 32.1538 115.141 31.8484 114.552 31.2376C113.967 30.6268 113.674 29.747 113.674 28.598ZM114.859 28.598C114.859 29.4693 115.049 30.1228 115.429 30.5585C115.81 30.9899 116.288 31.2056 116.864 31.2056C117.437 31.2056 117.913 30.9877 118.293 30.5521C118.673 30.1164 118.863 29.4523 118.863 28.5596C118.863 27.7182 118.671 27.0818 118.287 26.6504C117.907 26.2147 117.433 25.9969 116.864 25.9969C116.288 25.9969 115.81 26.2126 115.429 26.644C115.049 27.0754 114.859 27.7267 114.859 28.598ZM121.394 32V25.1961H122.432V26.2275C122.697 25.7449 122.94 25.4267 123.162 25.2729C123.389 25.1192 123.636 25.0423 123.905 25.0423C124.294 25.0423 124.689 25.1662 125.091 25.4139L124.693 26.4838C124.412 26.3172 124.13 26.234 123.848 26.234C123.596 26.234 123.369 26.3108 123.169 26.4646C122.968 26.6141 122.825 26.8234 122.739 27.0925C122.611 27.5025 122.547 27.951 122.547 28.4379V32H121.394ZM125.315 29.9691L126.455 29.7897C126.519 30.2467 126.697 30.5969 126.987 30.8404C127.282 31.0838 127.692 31.2056 128.217 31.2056C128.747 31.2056 129.14 31.0988 129.396 30.8852C129.652 30.6674 129.78 30.4133 129.78 30.1228C129.78 29.8623 129.667 29.6573 129.441 29.5078C129.283 29.4053 128.89 29.275 128.262 29.117C127.416 28.9034 126.829 28.7198 126.5 28.566C126.176 28.408 125.928 28.1923 125.757 27.9189C125.59 27.6413 125.507 27.3359 125.507 27.0028C125.507 26.6995 125.575 26.4198 125.712 26.1635C125.853 25.9029 126.043 25.6872 126.282 25.5164C126.462 25.384 126.705 25.2729 127.013 25.1833C127.325 25.0893 127.658 25.0423 128.012 25.0423C128.546 25.0423 129.014 25.1192 129.415 25.2729C129.821 25.4267 130.12 25.636 130.312 25.9008C130.504 26.1613 130.637 26.5116 130.709 26.9515L129.582 27.1053C129.531 26.755 129.381 26.4817 129.133 26.2852C128.89 26.0887 128.544 25.9905 128.095 25.9905C127.566 25.9905 127.188 26.0781 126.961 26.2532C126.735 26.4283 126.622 26.6333 126.622 26.8682C126.622 27.0177 126.669 27.1523 126.763 27.2718C126.857 27.3957 127.004 27.4982 127.205 27.5794C127.32 27.6221 127.66 27.7203 128.224 27.8741C129.039 28.0919 129.607 28.2713 129.928 28.4122C130.252 28.5489 130.507 28.7497 130.69 29.0145C130.874 29.2793 130.966 29.6082 130.966 30.0011C130.966 30.3855 130.852 30.7486 130.626 31.0902C130.404 31.4277 130.082 31.6903 129.659 31.8783C129.236 32.0619 128.757 32.1538 128.224 32.1538C127.339 32.1538 126.665 31.9701 126.199 31.6028C125.738 31.2355 125.443 30.6909 125.315 29.9691ZM132.657 26.5094V25.1961H133.97V26.5094H132.657ZM132.657 32V30.6866H133.97V32H132.657Z" fill="black"/>
<path d="M27.7851 62.4213V61.6499L30.5701 61.6454V64.0851C30.1425 64.426 29.7015 64.6831 29.2471 64.8565C28.7927 65.0269 28.3262 65.1121 27.8479 65.1121C27.2021 65.1121 26.6146 64.9746 26.0854 64.6995C25.5592 64.4215 25.1615 64.0208 24.8925 63.4976C24.6234 62.9744 24.4888 62.3899 24.4888 61.7441C24.4888 61.1043 24.6219 60.5078 24.888 59.9547C25.1571 59.3986 25.5427 58.986 26.045 58.7169C26.5473 58.4479 27.1258 58.3133 27.7806 58.3133C28.256 58.3133 28.685 58.391 29.0677 58.5465C29.4534 58.699 29.7554 58.9128 29.9736 59.1878C30.1919 59.4629 30.3578 59.8217 30.4714 60.2642L29.6866 60.4794C29.5879 60.1446 29.4654 59.8815 29.3189 59.6901C29.1724 59.4988 28.9631 59.3463 28.691 59.2327C28.4189 59.1161 28.117 59.0578 27.7851 59.0578C27.3874 59.0578 27.0436 59.1191 26.7536 59.2416C26.4636 59.3612 26.2289 59.5197 26.0495 59.717C25.8731 59.9143 25.7356 60.1311 25.6369 60.3673C25.4695 60.7739 25.3858 61.2149 25.3858 61.6903C25.3858 62.2763 25.4859 62.7666 25.6862 63.1613C25.8896 63.5559 26.184 63.8489 26.5697 64.0403C26.9554 64.2316 27.365 64.3273 27.7985 64.3273C28.1753 64.3273 28.543 64.2555 28.9018 64.112C29.2606 63.9655 29.5326 63.8101 29.718 63.6456V62.4213H27.7851ZM31.7451 65V60.2372H32.4716V60.9593C32.657 60.6214 32.8274 60.3987 32.9829 60.2911C33.1413 60.1834 33.3147 60.1296 33.5031 60.1296C33.7752 60.1296 34.0517 60.2163 34.3328 60.3897L34.0547 61.1387C33.8574 61.0221 33.66 60.9638 33.4627 60.9638C33.2863 60.9638 33.1279 61.0176 32.9873 61.1252C32.8468 61.2299 32.7467 61.3764 32.6869 61.5647C32.5972 61.8517 32.5523 62.1657 32.5523 62.5065V65H31.7451ZM34.5121 62.6186C34.5121 61.7366 34.7573 61.0834 35.2476 60.6588C35.6572 60.306 36.1565 60.1296 36.7455 60.1296C37.4003 60.1296 37.9355 60.3449 38.351 60.7754C38.7666 61.203 38.9744 61.7949 38.9744 62.5514C38.9744 63.1643 38.8817 63.6471 38.6964 63.9999C38.514 64.3497 38.2464 64.6218 37.8936 64.8161C37.5438 65.0105 37.1611 65.1076 36.7455 65.1076C36.0788 65.1076 35.5391 64.8939 35.1265 64.4663C34.7169 64.0388 34.5121 63.4229 34.5121 62.6186ZM35.3418 62.6186C35.3418 63.2285 35.4749 63.686 35.7409 63.9909C36.007 64.2929 36.3419 64.4439 36.7455 64.4439C37.1462 64.4439 37.4795 64.2914 37.7456 63.9865C38.0117 63.6815 38.1447 63.2166 38.1447 62.5917C38.1447 62.0027 38.0102 61.5572 37.7411 61.2553C37.475 60.9503 37.1432 60.7978 36.7455 60.7978C36.3419 60.7978 36.007 60.9488 35.7409 61.2508C35.4749 61.5528 35.3418 62.0087 35.3418 62.6186ZM40.8042 65L39.3466 60.2372H40.1808L40.9387 62.9864L41.2213 64.0089C41.2332 63.9581 41.3154 63.6307 41.4679 63.0267L42.2258 60.2372H43.0555L43.7686 62.9998L44.0063 63.9102L44.2798 62.9909L45.096 60.2372H45.8809L44.3919 65H43.5533L42.7954 62.1477L42.6115 61.336L41.6473 65H40.8042ZM48.325 64.278L48.4416 64.991C48.2144 65.0389 48.0111 65.0628 47.8317 65.0628C47.5387 65.0628 47.3115 65.0164 47.15 64.9238C46.9886 64.8311 46.875 64.71 46.8092 64.5605C46.7434 64.408 46.7105 64.0896 46.7105 63.6053V60.8651H46.1185V60.2372H46.7105V59.0578L47.5133 58.5734V60.2372H48.325V60.8651H47.5133V63.6501C47.5133 63.8803 47.5267 64.0283 47.5536 64.0941C47.5835 64.1599 47.6299 64.2122 47.6927 64.2511C47.7585 64.2899 47.8511 64.3094 47.9707 64.3094C48.0604 64.3094 48.1785 64.2989 48.325 64.278ZM49.1188 65V58.4254H49.9261V60.7844C50.3028 60.3479 50.7782 60.1296 51.3522 60.1296C51.705 60.1296 52.0114 60.1999 52.2716 60.3404C52.5317 60.4779 52.717 60.6693 52.8277 60.9144C52.9413 61.1596 52.9981 61.5154 52.9981 61.9818V65H52.1908V61.9818C52.1908 61.5782 52.1026 61.2852 51.9262 61.1028C51.7528 60.9174 51.5062 60.8247 51.1863 60.8247C50.9471 60.8247 50.7213 60.8875 50.5091 61.0131C50.2998 61.1357 50.1503 61.3031 50.0606 61.5154C49.9709 61.7277 49.9261 62.0207 49.9261 62.3944V65H49.1188ZM54.4556 61.1566V60.2372H55.375V61.1566H54.4556ZM54.4556 65V64.0806H55.375V65H54.4556Z" fill="black"/>
<path d="M24.4126 96.8877L25.2333 96.816C25.2722 97.1448 25.3619 97.4154 25.5024 97.6277C25.6459 97.837 25.8671 98.0074 26.1661 98.1389C26.4651 98.2675 26.8014 98.3318 27.1752 98.3318C27.507 98.3318 27.8 98.2824 28.0542 98.1838C28.3083 98.0851 28.4967 97.9506 28.6192 97.7802C28.7448 97.6068 28.8076 97.4184 28.8076 97.2151C28.8076 97.0088 28.7478 96.8294 28.6282 96.6769C28.5086 96.5215 28.3113 96.3914 28.0362 96.2868C27.8598 96.218 27.4697 96.1119 26.8657 95.9683C26.2618 95.8218 25.8387 95.6843 25.5966 95.5557C25.2826 95.3913 25.0479 95.188 24.8925 94.9458C24.74 94.7007 24.6637 94.4271 24.6637 94.1251C24.6637 93.7933 24.7579 93.4838 24.9463 93.1968C25.1346 92.9068 25.4097 92.687 25.7715 92.5375C26.1332 92.3881 26.5354 92.3133 26.9778 92.3133C27.4652 92.3133 27.8942 92.3925 28.265 92.551C28.6387 92.7065 28.9257 92.9367 29.126 93.2416C29.3263 93.5466 29.434 93.8919 29.4489 94.2776L28.6148 94.3404C28.5699 93.9248 28.4174 93.6109 28.1573 93.3986C27.9002 93.1863 27.519 93.0802 27.0137 93.0802C26.4875 93.0802 26.1033 93.1774 25.8612 93.3717C25.622 93.563 25.5024 93.7948 25.5024 94.0668C25.5024 94.303 25.5876 94.4974 25.758 94.6498C25.9254 94.8023 26.3619 94.9593 27.0675 95.1207C27.7761 95.2792 28.262 95.4182 28.5251 95.5378C28.9078 95.7142 29.1903 95.9384 29.3727 96.2105C29.555 96.4796 29.6462 96.7905 29.6462 97.1433C29.6462 97.4931 29.5461 97.8235 29.3458 98.1345C29.1454 98.4424 28.8569 98.6831 28.4802 98.8565C28.1065 99.0269 27.6849 99.1121 27.2155 99.1121C26.6206 99.1121 26.1213 99.0254 25.7176 98.852C25.317 98.6786 25.0016 98.4185 24.7714 98.0717C24.5441 97.7219 24.4246 97.3272 24.4126 96.8877ZM33.9919 97.4662L34.8261 97.5694C34.6945 98.0567 34.4508 98.4349 34.0951 98.704C33.7393 98.9731 33.2848 99.1076 32.7317 99.1076C32.0351 99.1076 31.482 98.8939 31.0724 98.4663C30.6658 98.0358 30.4625 97.4333 30.4625 96.659C30.4625 95.8577 30.6688 95.2358 31.0813 94.7934C31.4939 94.3509 32.0291 94.1296 32.6869 94.1296C33.3237 94.1296 33.8439 94.3464 34.2475 94.7799C34.6512 95.2134 34.853 95.8233 34.853 96.6097C34.853 96.6575 34.8515 96.7292 34.8485 96.8249H31.2966C31.3265 97.3481 31.4745 97.7488 31.7406 98.0268C32.0067 98.3049 32.3386 98.4439 32.7362 98.4439C33.0322 98.4439 33.2848 98.3662 33.4941 98.2107C33.7034 98.0552 33.8693 97.8071 33.9919 97.4662ZM31.3415 96.1612H34.0009C33.965 95.7606 33.8634 95.4601 33.6959 95.2598C33.4388 94.9488 33.1054 94.7934 32.6958 94.7934C32.3251 94.7934 32.0127 94.9174 31.7585 95.1656C31.5074 95.4137 31.3684 95.7456 31.3415 96.1612ZM38.952 98.4125C38.653 98.6666 38.3645 98.846 38.0864 98.9507C37.8114 99.0553 37.5154 99.1076 37.1985 99.1076C36.6753 99.1076 36.2731 98.9806 35.9921 98.7264C35.711 98.4693 35.5705 98.1419 35.5705 97.7443C35.5705 97.5111 35.6229 97.2988 35.7275 97.1075C35.8351 96.9131 35.9742 96.7576 36.1446 96.641C36.318 96.5244 36.5123 96.4362 36.7276 96.3764C36.886 96.3346 37.1252 96.2942 37.4451 96.2554C38.0969 96.1776 38.5768 96.0849 38.8847 95.9773C38.8877 95.8667 38.8892 95.7964 38.8892 95.7665C38.8892 95.4377 38.813 95.2059 38.6605 95.0714C38.4542 94.889 38.1477 94.7978 37.7411 94.7978C37.3614 94.7978 37.0804 94.8651 36.898 94.9996C36.7186 95.1312 36.5856 95.3659 36.4989 95.7037L35.7096 95.5961C35.7813 95.2583 35.8994 94.9862 36.0638 94.7799C36.2283 94.5706 36.466 94.4107 36.7769 94.3C37.0879 94.1864 37.4481 94.1296 37.8577 94.1296C38.2643 94.1296 38.5947 94.1775 38.8488 94.2731C39.103 94.3688 39.2898 94.4899 39.4094 94.6364C39.529 94.7799 39.6127 94.9623 39.6606 95.1835C39.6875 95.3211 39.7009 95.5692 39.7009 95.928V97.0043C39.7009 97.7547 39.7174 98.2301 39.7503 98.4304C39.7861 98.6278 39.8549 98.8176 39.9566 99H39.1134C39.0297 98.8326 38.9759 98.6367 38.952 98.4125ZM38.8847 96.6097C38.5917 96.7292 38.1522 96.8309 37.5662 96.9146C37.2344 96.9625 36.9997 97.0163 36.8621 97.0761C36.7246 97.1359 36.6185 97.2241 36.5437 97.3407C36.469 97.4543 36.4316 97.5813 36.4316 97.7219C36.4316 97.9371 36.5123 98.1165 36.6738 98.26C36.8382 98.4035 37.0774 98.4753 37.3913 98.4753C37.7023 98.4753 37.9788 98.408 38.221 98.2735C38.4632 98.1359 38.6411 97.9491 38.7547 97.7129C38.8414 97.5305 38.8847 97.2614 38.8847 96.9056V96.6097ZM40.6338 97.5783L41.432 97.4528C41.4769 97.7727 41.601 98.0179 41.8043 98.1883C42.0106 98.3587 42.2976 98.4439 42.6653 98.4439C43.0361 98.4439 43.3111 98.3692 43.4905 98.2197C43.6699 98.0672 43.7596 97.8893 43.7596 97.686C43.7596 97.5036 43.6804 97.3601 43.5219 97.2555C43.4113 97.1837 43.1362 97.0925 42.6967 96.9819C42.1047 96.8324 41.6936 96.7038 41.4634 96.5962C41.2362 96.4856 41.0628 96.3346 40.9432 96.1432C40.8266 95.9489 40.7683 95.7351 40.7683 95.5019C40.7683 95.2897 40.8161 95.0938 40.9118 94.9144C41.0105 94.7321 41.1435 94.5811 41.3109 94.4615C41.4365 94.3688 41.6069 94.2911 41.8222 94.2283C42.0405 94.1625 42.2737 94.1296 42.5218 94.1296C42.8955 94.1296 43.2229 94.1834 43.504 94.2911C43.788 94.3987 43.9973 94.5452 44.1318 94.7306C44.2664 94.9129 44.359 95.1581 44.4099 95.4661L43.6206 95.5737C43.5847 95.3285 43.48 95.1372 43.3066 94.9996C43.1362 94.8621 42.894 94.7934 42.5801 94.7934C42.2094 94.7934 41.9448 94.8546 41.7863 94.9772C41.6279 95.0998 41.5486 95.2433 41.5486 95.4078C41.5486 95.5124 41.5815 95.6066 41.6473 95.6903C41.7131 95.777 41.8162 95.8488 41.9567 95.9056C42.0375 95.9355 42.2752 96.0042 42.6698 96.1119C43.2409 96.2643 43.6385 96.3899 43.8627 96.4886C44.09 96.5842 44.2679 96.7248 44.3964 96.9101C44.525 97.0955 44.5893 97.3257 44.5893 97.6008C44.5893 97.8699 44.51 98.124 44.3516 98.3632C44.1961 98.5994 43.9704 98.7832 43.6744 98.9148C43.3784 99.0434 43.0435 99.1076 42.6698 99.1076C42.0509 99.1076 41.5785 98.9791 41.2526 98.7219C40.9297 98.4648 40.7234 98.0836 40.6338 97.5783ZM45.2485 96.6186C45.2485 95.7366 45.4937 95.0834 45.984 94.6588C46.3936 94.306 46.8929 94.1296 47.4819 94.1296C48.1367 94.1296 48.6718 94.3449 49.0874 94.7754C49.503 95.203 49.7108 95.7949 49.7108 96.5514C49.7108 97.1643 49.6181 97.6471 49.4327 97.9999C49.2504 98.3497 48.9828 98.6218 48.63 98.8161C48.2802 99.0105 47.8975 99.1076 47.4819 99.1076C46.8152 99.1076 46.2755 98.8939 45.8629 98.4663C45.4533 98.0388 45.2485 97.4229 45.2485 96.6186ZM46.0782 96.6186C46.0782 97.2285 46.2112 97.686 46.4773 97.9909C46.7434 98.2929 47.0783 98.4439 47.4819 98.4439C47.8825 98.4439 48.2159 98.2914 48.482 97.9865C48.7481 97.6815 48.8811 97.2166 48.8811 96.5917C48.8811 96.0027 48.7466 95.5572 48.4775 95.2553C48.2114 94.9503 47.8795 94.7978 47.4819 94.7978C47.0783 94.7978 46.7434 94.9488 46.4773 95.2508C46.2112 95.5528 46.0782 96.0087 46.0782 96.6186ZM50.6615 99V94.2372H51.3881V94.9144C51.7379 94.3912 52.2432 94.1296 52.9039 94.1296C53.1909 94.1296 53.454 94.1819 53.6932 94.2866C53.9354 94.3882 54.1163 94.5228 54.2359 94.6902C54.3554 94.8576 54.4392 95.0565 54.487 95.2867C54.5169 95.4362 54.5318 95.6978 54.5318 96.0715V99H53.7246V96.1029C53.7246 95.774 53.6932 95.5288 53.6304 95.3674C53.5676 95.203 53.4555 95.0729 53.2941 94.9772C53.1356 94.8786 52.9487 94.8292 52.7335 94.8292C52.3897 94.8292 52.0922 94.9384 51.841 95.1566C51.5929 95.3749 51.4688 95.789 51.4688 96.3989V99H50.6615ZM58.882 98.4125C58.583 98.6666 58.2945 98.846 58.0165 98.9507C57.7414 99.0553 57.4454 99.1076 57.1285 99.1076C56.6053 99.1076 56.2031 98.9806 55.9221 98.7264C55.6411 98.4693 55.5005 98.1419 55.5005 97.7443C55.5005 97.5111 55.5529 97.2988 55.6575 97.1075C55.7651 96.9131 55.9042 96.7576 56.0746 96.641C56.248 96.5244 56.4423 96.4362 56.6576 96.3764C56.8161 96.3346 57.0552 96.2942 57.3751 96.2554C58.0269 96.1776 58.5068 96.0849 58.8147 95.9773C58.8177 95.8667 58.8192 95.7964 58.8192 95.7665C58.8192 95.4377 58.743 95.2059 58.5905 95.0714C58.3842 94.889 58.0777 94.7978 57.6711 94.7978C57.2914 94.7978 57.0104 94.8651 56.828 94.9996C56.6486 95.1312 56.5156 95.3659 56.4289 95.7037L55.6396 95.5961C55.7113 95.2583 55.8294 94.9862 55.9939 94.7799C56.1583 94.5706 56.396 94.4107 56.7069 94.3C57.0179 94.1864 57.3781 94.1296 57.7877 94.1296C58.1944 94.1296 58.5247 94.1775 58.7789 94.2731C59.033 94.3688 59.2199 94.4899 59.3394 94.6364C59.459 94.7799 59.5428 94.9623 59.5906 95.1835C59.6175 95.3211 59.631 95.5692 59.631 95.928V97.0043C59.631 97.7547 59.6474 98.2301 59.6803 98.4304C59.7162 98.6278 59.7849 98.8176 59.8866 99H59.0435C58.9597 98.8326 58.9059 98.6367 58.882 98.4125ZM58.8147 96.6097C58.5217 96.7292 58.0822 96.8309 57.4962 96.9146C57.1644 96.9625 56.9297 97.0163 56.7921 97.0761C56.6546 97.1359 56.5485 97.2241 56.4737 97.3407C56.399 97.4543 56.3616 97.5813 56.3616 97.7219C56.3616 97.9371 56.4423 98.1165 56.6038 98.26C56.7682 98.4035 57.0074 98.4753 57.3213 98.4753C57.6323 98.4753 57.9088 98.408 58.151 98.2735C58.3932 98.1359 58.5711 97.9491 58.6847 97.7129C58.7714 97.5305 58.8147 97.2614 58.8147 96.9056V96.6097ZM60.8687 99V92.4254H61.676V99H60.8687ZM62.9362 93.3538V92.4254H63.7434V93.3538H62.9362ZM62.9362 99V94.2372H63.7434V99H62.9362ZM66.7392 98.278L66.8558 98.991C66.6286 99.0389 66.4253 99.0628 66.2459 99.0628C65.9529 99.0628 65.7257 99.0164 65.5642 98.9238C65.4028 98.8311 65.2891 98.71 65.2234 98.5605C65.1576 98.408 65.1247 98.0896 65.1247 97.6053V94.8651H64.5327V94.2372H65.1247V93.0578L65.9275 92.5734V94.2372H66.7392V94.8651H65.9275V97.6501C65.9275 97.8803 65.9409 98.0283 65.9678 98.0941C65.9977 98.1599 66.0441 98.2122 66.1069 98.2511C66.1726 98.2899 66.2653 98.3094 66.3849 98.3094C66.4746 98.3094 66.5927 98.2989 66.7392 98.278ZM67.4971 100.834L67.4074 100.076C67.5838 100.124 67.7378 100.148 67.8693 100.148C68.0487 100.148 68.1922 100.118 68.2999 100.058C68.4075 99.9986 68.4957 99.9149 68.5645 99.8072C68.6153 99.7265 68.6975 99.5262 68.8111 99.2063C68.8261 99.1614 68.85 99.0957 68.8829 99.009L67.0756 94.2372H67.9456L68.9367 96.9953C69.0653 97.3451 69.1804 97.7129 69.282 98.0986C69.3747 97.7278 69.4853 97.3661 69.6139 97.0133L70.6319 94.2372H71.4392L69.6273 99.0807C69.433 99.6039 69.282 99.9642 69.1744 100.162C69.0309 100.428 68.8664 100.622 68.6811 100.745C68.4957 100.87 68.2745 100.933 68.0173 100.933C67.8619 100.933 67.6885 100.9 67.4971 100.834ZM72.3496 95.1566V94.2372H73.2689V95.1566H72.3496ZM72.3496 99V98.0806H73.2689V99H72.3496Z" fill="black"/>
<path d="M24.4126 129.888L25.2333 129.816C25.2722 130.145 25.3619 130.415 25.5024 130.628C25.6459 130.837 25.8671 131.007 26.1661 131.139C26.4651 131.267 26.8014 131.332 27.1752 131.332C27.507 131.332 27.8 131.282 28.0542 131.184C28.3083 131.085 28.4967 130.951 28.6192 130.78C28.7448 130.607 28.8076 130.418 28.8076 130.215C28.8076 130.009 28.7478 129.829 28.6282 129.677C28.5086 129.521 28.3113 129.391 28.0362 129.287C27.8598 129.218 27.4697 129.112 26.8657 128.968C26.2618 128.822 25.8387 128.684 25.5966 128.556C25.2826 128.391 25.0479 128.188 24.8925 127.946C24.74 127.701 24.6637 127.427 24.6637 127.125C24.6637 126.793 24.7579 126.484 24.9463 126.197C25.1346 125.907 25.4097 125.687 25.7715 125.538C26.1332 125.388 26.5354 125.313 26.9778 125.313C27.4652 125.313 27.8942 125.393 28.265 125.551C28.6387 125.706 28.9257 125.937 29.126 126.242C29.3263 126.547 29.434 126.892 29.4489 127.278L28.6148 127.34C28.5699 126.925 28.4174 126.611 28.1573 126.399C27.9002 126.186 27.519 126.08 27.0137 126.08C26.4875 126.08 26.1033 126.177 25.8612 126.372C25.622 126.563 25.5024 126.795 25.5024 127.067C25.5024 127.303 25.5876 127.497 25.758 127.65C25.9254 127.802 26.3619 127.959 27.0675 128.121C27.7761 128.279 28.262 128.418 28.5251 128.538C28.9078 128.714 29.1903 128.938 29.3727 129.211C29.555 129.48 29.6462 129.791 29.6462 130.143C29.6462 130.493 29.5461 130.824 29.3458 131.134C29.1454 131.442 28.8569 131.683 28.4802 131.856C28.1065 132.027 27.6849 132.112 27.2155 132.112C26.6206 132.112 26.1213 132.025 25.7176 131.852C25.317 131.679 25.0016 131.418 24.7714 131.072C24.5441 130.722 24.4246 130.327 24.4126 129.888ZM30.7315 133.825V127.237H31.467V127.856C31.6404 127.614 31.8363 127.433 32.0545 127.313C32.2728 127.191 32.5374 127.13 32.8483 127.13C33.2549 127.13 33.6137 127.234 33.9246 127.444C34.2356 127.653 34.4703 127.949 34.6287 128.332C34.7872 128.711 34.8664 129.128 34.8664 129.583C34.8664 130.07 34.7782 130.51 34.6018 130.901C34.4284 131.29 34.1743 131.589 33.8394 131.798C33.5076 132.004 33.1578 132.108 32.79 132.108C32.5209 132.108 32.2788 132.051 32.0635 131.937C31.8512 131.824 31.6763 131.68 31.5388 131.507V133.825H30.7315ZM31.4625 129.646C31.4625 130.258 31.5866 130.711 31.8348 131.004C32.0829 131.297 32.3834 131.444 32.7362 131.444C33.095 131.444 33.4014 131.293 33.6556 130.991C33.9127 130.686 34.0412 130.215 34.0412 129.578C34.0412 128.971 33.9157 128.517 33.6645 128.215C33.4164 127.913 33.1189 127.762 32.7721 127.762C32.4282 127.762 32.1233 127.923 31.8572 128.246C31.5941 128.566 31.4625 129.033 31.4625 129.646ZM39.1045 130.466L39.9386 130.569C39.8071 131.057 39.5634 131.435 39.2076 131.704C38.8518 131.973 38.3974 132.108 37.8443 132.108C37.1476 132.108 36.5945 131.894 36.1849 131.466C35.7783 131.036 35.575 130.433 35.575 129.659C35.575 128.858 35.7813 128.236 36.1939 127.793C36.6065 127.351 37.1417 127.13 37.7994 127.13C38.4363 127.13 38.9565 127.346 39.3601 127.78C39.7637 128.213 39.9655 128.823 39.9655 129.61C39.9655 129.657 39.964 129.729 39.9611 129.825H36.4092C36.4391 130.348 36.5871 130.749 36.8532 131.027C37.1192 131.305 37.4511 131.444 37.8488 131.444C38.1447 131.444 38.3974 131.366 38.6067 131.211C38.816 131.055 38.9819 130.807 39.1045 130.466ZM36.454 129.161H39.1134C39.0776 128.761 38.9759 128.46 38.8085 128.26C38.5514 127.949 38.218 127.793 37.8084 127.793C37.4377 127.793 37.1252 127.917 36.8711 128.166C36.6199 128.414 36.4809 128.746 36.454 129.161ZM44.217 130.466L45.0512 130.569C44.9196 131.057 44.676 131.435 44.3202 131.704C43.9644 131.973 43.5099 132.108 42.9568 132.108C42.2602 132.108 41.7071 131.894 41.2975 131.466C40.8909 131.036 40.6876 130.433 40.6876 129.659C40.6876 128.858 40.8939 128.236 41.3065 127.793C41.7191 127.351 42.2542 127.13 42.912 127.13C43.5488 127.13 44.069 127.346 44.4727 127.78C44.8763 128.213 45.0781 128.823 45.0781 129.61C45.0781 129.657 45.0766 129.729 45.0736 129.825H41.5217C41.5516 130.348 41.6996 130.749 41.9657 131.027C42.2318 131.305 42.5637 131.444 42.9613 131.444C43.2573 131.444 43.5099 131.366 43.7192 131.211C43.9285 131.055 44.0944 130.807 44.217 130.466ZM41.5666 129.161H44.226C44.1901 128.761 44.0885 128.46 43.921 128.26C43.6639 127.949 43.3306 127.793 42.921 127.793C42.5502 127.793 42.2378 127.917 41.9837 128.166C41.7325 128.414 41.5935 128.746 41.5666 129.161ZM49.1592 132V131.399C48.8572 131.871 48.4132 132.108 47.8272 132.108C47.4475 132.108 47.0977 132.003 46.7778 131.794C46.4609 131.584 46.2142 131.293 46.0378 130.919C45.8644 130.542 45.7777 130.11 45.7777 129.623C45.7777 129.148 45.8569 128.717 46.0154 128.332C46.1739 127.943 46.4115 127.645 46.7285 127.439C47.0454 127.233 47.3997 127.13 47.7913 127.13C48.0784 127.13 48.334 127.191 48.5582 127.313C48.7825 127.433 48.9648 127.59 49.1054 127.784V125.425H49.9081V132H49.1592ZM46.6074 129.623C46.6074 130.233 46.7359 130.689 46.9931 130.991C47.2502 131.293 47.5537 131.444 47.9035 131.444C48.2563 131.444 48.5552 131.3 48.8004 131.013C49.0486 130.723 49.1726 130.282 49.1726 129.69C49.1726 129.039 49.0471 128.56 48.7959 128.255C48.5448 127.95 48.2353 127.798 47.8676 127.798C47.5088 127.798 47.2083 127.944 46.9662 128.237C46.727 128.53 46.6074 128.992 46.6074 129.623ZM51.406 128.157V127.237H52.3254V128.157H51.406ZM51.406 132V131.081H52.3254V132H51.406Z" fill="black"/>
<path d="M26.5877 169L24.0404 162.425H24.9821L26.6908 167.202C26.8284 167.584 26.9435 167.943 27.0361 168.278C27.1378 167.919 27.2559 167.56 27.3904 167.202L29.1664 162.425H30.0543L27.4801 169H26.5877ZM29.9198 166.619C29.9198 165.737 30.165 165.083 30.6553 164.659C31.0649 164.306 31.5642 164.13 32.1532 164.13C32.808 164.13 33.3431 164.345 33.7587 164.775C34.1743 165.203 34.3821 165.795 34.3821 166.551C34.3821 167.164 34.2894 167.647 34.104 168C33.9217 168.35 33.6541 168.622 33.3013 168.816C32.9515 169.01 32.5688 169.108 32.1532 169.108C31.4865 169.108 30.9468 168.894 30.5342 168.466C30.1246 168.039 29.9198 167.423 29.9198 166.619ZM30.7495 166.619C30.7495 167.229 30.8825 167.686 31.1486 167.991C31.4147 168.293 31.7496 168.444 32.1532 168.444C32.5538 168.444 32.8872 168.291 33.1533 167.986C33.4194 167.681 33.5524 167.217 33.5524 166.592C33.5524 166.003 33.4179 165.557 33.1488 165.255C32.8827 164.95 32.5508 164.798 32.1532 164.798C31.7496 164.798 31.4147 164.949 31.1486 165.251C30.8825 165.553 30.7495 166.009 30.7495 166.619ZM35.3149 169V162.425H36.1221V169H35.3149ZM40.4858 168.413C40.1868 168.667 39.8983 168.846 39.6202 168.951C39.3452 169.055 39.0492 169.108 38.7322 169.108C38.209 169.108 37.8069 168.981 37.5259 168.726C37.2448 168.469 37.1043 168.142 37.1043 167.744C37.1043 167.511 37.1566 167.299 37.2613 167.107C37.3689 166.913 37.5079 166.758 37.6783 166.641C37.8517 166.524 38.0461 166.436 38.2613 166.376C38.4198 166.335 38.659 166.294 38.9789 166.255C39.6307 166.178 40.1105 166.085 40.4185 165.977C40.4215 165.867 40.423 165.796 40.423 165.767C40.423 165.438 40.3467 165.206 40.1943 165.071C39.988 164.889 39.6815 164.798 39.2749 164.798C38.8952 164.798 38.6141 164.865 38.4318 165C38.2524 165.131 38.1193 165.366 38.0326 165.704L37.2433 165.596C37.3151 165.258 37.4332 164.986 37.5976 164.78C37.7621 164.571 37.9997 164.411 38.3107 164.3C38.6216 164.186 38.9819 164.13 39.3915 164.13C39.7981 164.13 40.1285 164.177 40.3826 164.273C40.6367 164.369 40.8236 164.49 40.9432 164.636C41.0628 164.78 41.1465 164.962 41.1943 165.184C41.2213 165.321 41.2347 165.569 41.2347 165.928V167.004C41.2347 167.755 41.2511 168.23 41.284 168.43C41.3199 168.628 41.3887 168.818 41.4903 169H40.6472C40.5635 168.833 40.5097 168.637 40.4858 168.413ZM40.4185 166.61C40.1255 166.729 39.686 166.831 39.1 166.915C38.7681 166.962 38.5334 167.016 38.3959 167.076C38.2584 167.136 38.1522 167.224 38.0775 167.341C38.0027 167.454 37.9654 167.581 37.9654 167.722C37.9654 167.937 38.0461 168.117 38.2075 168.26C38.372 168.404 38.6112 168.475 38.9251 168.475C39.236 168.475 39.5126 168.408 39.7548 168.273C39.9969 168.136 40.1748 167.949 40.2884 167.713C40.3751 167.531 40.4185 167.261 40.4185 166.906V166.61ZM44.2529 168.278L44.3695 168.991C44.1423 169.039 43.939 169.063 43.7596 169.063C43.4666 169.063 43.2394 169.016 43.0779 168.924C42.9165 168.831 42.8029 168.71 42.7371 168.56C42.6713 168.408 42.6384 168.09 42.6384 167.605V164.865H42.0464V164.237H42.6384V163.058L43.4412 162.573V164.237H44.2529V164.865H43.4412V167.65C43.4412 167.88 43.4546 168.028 43.4815 168.094C43.5114 168.16 43.5578 168.212 43.6206 168.251C43.6863 168.29 43.779 168.309 43.8986 168.309C43.9883 168.309 44.1064 168.299 44.2529 168.278ZM45.0512 163.354V162.425H45.8584V163.354H45.0512ZM45.0512 169V164.237H45.8584V169H45.0512ZM47.0738 169V162.425H47.881V169H47.0738ZM49.1412 163.354V162.425H49.9485V163.354H49.1412ZM49.1412 169V164.237H49.9485V169H49.1412ZM52.9443 168.278L53.0609 168.991C52.8336 169.039 52.6303 169.063 52.4509 169.063C52.1579 169.063 51.9307 169.016 51.7693 168.924C51.6078 168.831 51.4942 168.71 51.4284 168.56C51.3627 168.408 51.3298 168.09 51.3298 167.605V164.865H50.7378V164.237H51.3298V163.058L52.1325 162.573V164.237H52.9443V164.865H52.1325V167.65C52.1325 167.88 52.146 168.028 52.1729 168.094C52.2028 168.16 52.2491 168.212 52.3119 168.251C52.3777 168.29 52.4704 168.309 52.59 168.309C52.6797 168.309 52.7978 168.299 52.9443 168.278ZM53.7022 170.834L53.6125 170.076C53.7889 170.124 53.9429 170.148 54.0744 170.148C54.2538 170.148 54.3973 170.118 54.5049 170.058C54.6126 169.999 54.7008 169.915 54.7695 169.807C54.8204 169.727 54.9026 169.526 55.0162 169.206C55.0311 169.161 55.0551 169.096 55.0879 169.009L53.2806 164.237H54.1506L55.1418 166.995C55.2703 167.345 55.3854 167.713 55.4871 168.099C55.5798 167.728 55.6904 167.366 55.819 167.013L56.837 164.237H57.6442L55.8324 169.081C55.6381 169.604 55.4871 169.964 55.3795 170.162C55.2359 170.428 55.0715 170.622 54.8861 170.745C54.7008 170.87 54.4795 170.933 54.2224 170.933C54.0669 170.933 53.8935 170.9 53.7022 170.834ZM58.5546 165.157V164.237H59.474V165.157H58.5546ZM58.5546 169V168.081H59.474V169H58.5546Z" fill="black"/>
<path d="M24.4126 199.888L25.2333 199.816C25.2722 200.145 25.3619 200.415 25.5024 200.628C25.6459 200.837 25.8671 201.007 26.1661 201.139C26.4651 201.267 26.8014 201.332 27.1752 201.332C27.507 201.332 27.8 201.282 28.0542 201.184C28.3083 201.085 28.4967 200.951 28.6192 200.78C28.7448 200.607 28.8076 200.418 28.8076 200.215C28.8076 200.009 28.7478 199.829 28.6282 199.677C28.5086 199.521 28.3113 199.391 28.0362 199.287C27.8598 199.218 27.4697 199.112 26.8657 198.968C26.2618 198.822 25.8387 198.684 25.5966 198.556C25.2826 198.391 25.0479 198.188 24.8925 197.946C24.74 197.701 24.6637 197.427 24.6637 197.125C24.6637 196.793 24.7579 196.484 24.9463 196.197C25.1346 195.907 25.4097 195.687 25.7715 195.538C26.1332 195.388 26.5354 195.313 26.9778 195.313C27.4652 195.313 27.8942 195.393 28.265 195.551C28.6387 195.706 28.9257 195.937 29.126 196.242C29.3263 196.547 29.434 196.892 29.4489 197.278L28.6148 197.34C28.5699 196.925 28.4174 196.611 28.1573 196.399C27.9002 196.186 27.519 196.08 27.0137 196.08C26.4875 196.08 26.1033 196.177 25.8612 196.372C25.622 196.563 25.5024 196.795 25.5024 197.067C25.5024 197.303 25.5876 197.497 25.758 197.65C25.9254 197.802 26.3619 197.959 27.0675 198.121C27.7761 198.279 28.262 198.418 28.5251 198.538C28.9078 198.714 29.1903 198.938 29.3727 199.211C29.555 199.48 29.6462 199.791 29.6462 200.143C29.6462 200.493 29.5461 200.824 29.3458 201.134C29.1454 201.442 28.8569 201.683 28.4802 201.856C28.1065 202.027 27.6849 202.112 27.2155 202.112C26.6206 202.112 26.1213 202.025 25.7176 201.852C25.317 201.679 25.0016 201.418 24.7714 201.072C24.5441 200.722 24.4246 200.327 24.4126 199.888ZM33.9919 200.466L34.8261 200.569C34.6945 201.057 34.4508 201.435 34.0951 201.704C33.7393 201.973 33.2848 202.108 32.7317 202.108C32.0351 202.108 31.482 201.894 31.0724 201.466C30.6658 201.036 30.4625 200.433 30.4625 199.659C30.4625 198.858 30.6688 198.236 31.0813 197.793C31.4939 197.351 32.0291 197.13 32.6869 197.13C33.3237 197.13 33.8439 197.346 34.2475 197.78C34.6512 198.213 34.853 198.823 34.853 199.61C34.853 199.657 34.8515 199.729 34.8485 199.825H31.2966C31.3265 200.348 31.4745 200.749 31.7406 201.027C32.0067 201.305 32.3386 201.444 32.7362 201.444C33.0322 201.444 33.2848 201.366 33.4941 201.211C33.7034 201.055 33.8693 200.807 33.9919 200.466ZM31.3415 199.161H34.0009C33.965 198.761 33.8634 198.46 33.6959 198.26C33.4388 197.949 33.1054 197.793 32.6958 197.793C32.3251 197.793 32.0127 197.917 31.7585 198.166C31.5074 198.414 31.3684 198.746 31.3415 199.161ZM35.8441 202V197.237H36.5706V197.914C36.9204 197.391 37.4257 197.13 38.0864 197.13C38.3735 197.13 38.6366 197.182 38.8758 197.287C39.1179 197.388 39.2988 197.523 39.4184 197.69C39.538 197.858 39.6217 198.056 39.6695 198.287C39.6994 198.436 39.7144 198.698 39.7144 199.071V202H38.9071V199.103C38.9071 198.774 38.8758 198.529 38.813 198.367C38.7502 198.203 38.6381 198.073 38.4766 197.977C38.3182 197.879 38.1313 197.829 37.916 197.829C37.5722 197.829 37.2747 197.938 37.0236 198.157C36.7754 198.375 36.6513 198.789 36.6513 199.399V202H35.8441ZM42.7191 201.278L42.8357 201.991C42.6085 202.039 42.4052 202.063 42.2258 202.063C41.9328 202.063 41.7056 202.016 41.5441 201.924C41.3827 201.831 41.2691 201.71 41.2033 201.56C41.1375 201.408 41.1046 201.09 41.1046 200.605V197.865H40.5127V197.237H41.1046V196.058L41.9074 195.573V197.237H42.7191V197.865H41.9074V200.65C41.9074 200.88 41.9209 201.028 41.9478 201.094C41.9777 201.16 42.024 201.212 42.0868 201.251C42.1526 201.29 42.2453 201.309 42.3648 201.309C42.4545 201.309 42.5726 201.299 42.7191 201.278ZM43.5174 196.354V195.425H44.3247V196.354H43.5174ZM43.5174 202V197.237H44.3247V202H43.5174ZM45.558 202V197.237H46.28V197.905C46.4295 197.672 46.6283 197.485 46.8765 197.345C47.1246 197.201 47.4072 197.13 47.7241 197.13C48.0769 197.13 48.3654 197.203 48.5896 197.349C48.8168 197.496 48.9768 197.701 49.0695 197.964C49.4462 197.408 49.9365 197.13 50.5405 197.13C51.0129 197.13 51.3761 197.261 51.6302 197.524C51.8844 197.784 52.0114 198.187 52.0114 198.731V202H51.2087V199C51.2087 198.677 51.1818 198.445 51.128 198.305C51.0771 198.161 50.983 198.046 50.8454 197.959C50.7079 197.873 50.5464 197.829 50.3611 197.829C50.0262 197.829 49.7482 197.941 49.5269 198.166C49.3057 198.387 49.1951 198.743 49.1951 199.233V202H48.3878V198.906C48.3878 198.547 48.322 198.278 48.1905 198.098C48.0589 197.919 47.8437 197.829 47.5447 197.829C47.3175 197.829 47.1067 197.889 46.9123 198.009C46.721 198.128 46.582 198.303 46.4953 198.533C46.4086 198.764 46.3652 199.095 46.3652 199.529V202H45.558ZM56.4692 200.466L57.3034 200.569C57.1718 201.057 56.9282 201.435 56.5724 201.704C56.2166 201.973 55.7621 202.108 55.209 202.108C54.5124 202.108 53.9593 201.894 53.5497 201.466C53.1431 201.036 52.9398 200.433 52.9398 199.659C52.9398 198.858 53.1461 198.236 53.5587 197.793C53.9713 197.351 54.5064 197.13 55.1642 197.13C55.801 197.13 56.3212 197.346 56.7249 197.78C57.1285 198.213 57.3303 198.823 57.3303 199.61C57.3303 199.657 57.3288 199.729 57.3258 199.825H53.7739C53.8038 200.348 53.9518 200.749 54.2179 201.027C54.484 201.305 54.8159 201.444 55.2135 201.444C55.5095 201.444 55.7621 201.366 55.9714 201.211C56.1807 201.055 56.3467 200.807 56.4692 200.466ZM53.8188 199.161H56.4782C56.4423 198.761 56.3407 198.46 56.1732 198.26C55.9161 197.949 55.5828 197.793 55.1732 197.793C54.8024 197.793 54.49 197.917 54.2359 198.166C53.9847 198.414 53.8457 198.746 53.8188 199.161ZM58.3214 202V197.237H59.0479V197.914C59.3977 197.391 59.903 197.13 60.5638 197.13C60.8508 197.13 61.1139 197.182 61.3531 197.287C61.5953 197.388 61.7761 197.523 61.8957 197.69C62.0153 197.858 62.099 198.056 62.1469 198.287C62.1768 198.436 62.1917 198.698 62.1917 199.071V202H61.3845V199.103C61.3845 198.774 61.3531 198.529 61.2903 198.367C61.2275 198.203 61.1154 198.073 60.9539 197.977C60.7955 197.879 60.6086 197.829 60.3934 197.829C60.0495 197.829 59.752 197.938 59.5009 198.157C59.2527 198.375 59.1287 198.789 59.1287 199.399V202H58.3214ZM65.1965 201.278L65.3131 201.991C65.0858 202.039 64.8825 202.063 64.7031 202.063C64.4101 202.063 64.1829 202.016 64.0215 201.924C63.86 201.831 63.7464 201.71 63.6806 201.56C63.6149 201.408 63.582 201.09 63.582 200.605V197.865H62.99V197.237H63.582V196.058L64.3847 195.573V197.237H65.1965V197.865H64.3847V200.65C64.3847 200.88 64.3982 201.028 64.4251 201.094C64.455 201.16 64.5013 201.212 64.5641 201.251C64.6299 201.29 64.7226 201.309 64.8422 201.309C64.9319 201.309 65.05 201.299 65.1965 201.278ZM66.2145 198.157V197.237H67.1339V198.157H66.2145ZM66.2145 202V201.081H67.1339V202H66.2145Z" fill="black"/>
<path d="M24.7534 237V230.425H29.1888V231.201H25.6235V233.237H28.7089V234.013H25.6235V237H24.7534ZM29.9198 234.619C29.9198 233.737 30.165 233.083 30.6553 232.659C31.0649 232.306 31.5642 232.13 32.1532 232.13C32.808 232.13 33.3431 232.345 33.7587 232.775C34.1743 233.203 34.3821 233.795 34.3821 234.551C34.3821 235.164 34.2894 235.647 34.104 236C33.9217 236.35 33.6541 236.622 33.3013 236.816C32.9515 237.01 32.5688 237.108 32.1532 237.108C31.4865 237.108 30.9468 236.894 30.5342 236.466C30.1246 236.039 29.9198 235.423 29.9198 234.619ZM30.7495 234.619C30.7495 235.229 30.8825 235.686 31.1486 235.991C31.4147 236.293 31.7496 236.444 32.1532 236.444C32.5538 236.444 32.8872 236.291 33.1533 235.986C33.4194 235.681 33.5524 235.217 33.5524 234.592C33.5524 234.003 33.4179 233.557 33.1488 233.255C32.8827 232.95 32.5508 232.798 32.1532 232.798C31.7496 232.798 31.4147 232.949 31.1486 233.251C30.8825 233.553 30.7495 234.009 30.7495 234.619ZM35.3239 237V232.237H36.0504V232.959C36.2358 232.621 36.4062 232.399 36.5616 232.291C36.7201 232.183 36.8935 232.13 37.0819 232.13C37.3539 232.13 37.6305 232.216 37.9115 232.39L37.6335 233.139C37.4362 233.022 37.2388 232.964 37.0415 232.964C36.8651 232.964 36.7067 233.018 36.5661 233.125C36.4256 233.23 36.3255 233.376 36.2657 233.565C36.176 233.852 36.1311 234.166 36.1311 234.507V237H35.3239ZM41.6518 235.466L42.4859 235.569C42.3544 236.057 42.1107 236.435 41.7549 236.704C41.3991 236.973 40.9447 237.108 40.3916 237.108C39.695 237.108 39.1418 236.894 38.7322 236.466C38.3256 236.036 38.1223 235.433 38.1223 234.659C38.1223 233.858 38.3286 233.236 38.7412 232.793C39.1538 232.351 39.689 232.13 40.3467 232.13C40.9836 232.13 41.5038 232.346 41.9074 232.78C42.311 233.213 42.5128 233.823 42.5128 234.61C42.5128 234.657 42.5114 234.729 42.5084 234.825H38.9565C38.9864 235.348 39.1344 235.749 39.4005 236.027C39.6666 236.305 39.9984 236.444 40.3961 236.444C40.6921 236.444 40.9447 236.366 41.154 236.211C41.3633 236.055 41.5292 235.807 41.6518 235.466ZM39.0013 234.161H41.6608C41.6249 233.761 41.5232 233.46 41.3558 233.26C41.0987 232.949 40.7653 232.793 40.3557 232.793C39.985 232.793 39.6725 232.917 39.4184 233.166C39.1673 233.414 39.0282 233.746 39.0013 234.161ZM46.6119 235.255L47.4057 235.359C47.319 235.906 47.0962 236.335 46.7374 236.646C46.3816 236.954 45.9436 237.108 45.4234 237.108C44.7716 237.108 44.2469 236.895 43.8493 236.471C43.4546 236.043 43.2573 235.432 43.2573 234.637C43.2573 234.122 43.3425 233.672 43.5129 233.287C43.6834 232.901 43.942 232.612 44.2888 232.421C44.6386 232.227 45.0183 232.13 45.4279 232.13C45.9451 232.13 46.3682 232.261 46.6971 232.524C47.026 232.784 47.2367 233.155 47.3294 233.636L46.5446 233.758C46.4698 233.438 46.3368 233.197 46.1455 233.036C45.9571 232.874 45.7284 232.793 45.4593 232.793C45.0527 232.793 44.7223 232.94 44.4682 233.233C44.214 233.523 44.087 233.983 44.087 234.614C44.087 235.254 44.2096 235.719 44.4547 236.009C44.6999 236.299 45.0198 236.444 45.4144 236.444C45.7314 236.444 45.996 236.347 46.2082 236.152C46.4205 235.958 46.5551 235.659 46.6119 235.255ZM51.2042 236.413C50.9052 236.667 50.6167 236.846 50.3386 236.951C50.0636 237.055 49.7676 237.108 49.4507 237.108C48.9275 237.108 48.5253 236.981 48.2443 236.726C47.9633 236.469 47.8227 236.142 47.8227 235.744C47.8227 235.511 47.8751 235.299 47.9797 235.107C48.0873 234.913 48.2264 234.758 48.3968 234.641C48.5702 234.524 48.7645 234.436 48.9798 234.376C49.1382 234.335 49.3774 234.294 49.6973 234.255C50.3491 234.178 50.829 234.085 51.1369 233.977C51.1399 233.867 51.1414 233.796 51.1414 233.767C51.1414 233.438 51.0652 233.206 50.9127 233.071C50.7064 232.889 50.3999 232.798 49.9933 232.798C49.6136 232.798 49.3326 232.865 49.1502 233C48.9708 233.131 48.8378 233.366 48.7511 233.704L47.9618 233.596C48.0335 233.258 48.1516 232.986 48.316 232.78C48.4805 232.571 48.7182 232.411 49.0291 232.3C49.3401 232.186 49.7003 232.13 50.1099 232.13C50.5165 232.13 50.8469 232.177 51.101 232.273C51.3552 232.369 51.542 232.49 51.6616 232.636C51.7812 232.78 51.8649 232.962 51.9128 233.184C51.9397 233.321 51.9531 233.569 51.9531 233.928V235.004C51.9531 235.755 51.9696 236.23 52.0025 236.43C52.0384 236.628 52.1071 236.818 52.2088 237H51.3656C51.2819 236.833 51.2281 236.637 51.2042 236.413ZM51.1369 234.61C50.8439 234.729 50.4044 234.831 49.8184 234.915C49.4866 234.962 49.2519 235.016 49.1143 235.076C48.9768 235.136 48.8707 235.224 48.7959 235.341C48.7212 235.454 48.6838 235.581 48.6838 235.722C48.6838 235.937 48.7645 236.117 48.926 236.26C49.0904 236.404 49.3296 236.475 49.6435 236.475C49.9545 236.475 50.231 236.408 50.4732 236.273C50.7154 236.136 50.8933 235.949 51.0069 235.713C51.0936 235.531 51.1369 235.261 51.1369 234.906V234.61ZM52.886 235.578L53.6842 235.453C53.7291 235.773 53.8532 236.018 54.0565 236.188C54.2628 236.359 54.5498 236.444 54.9175 236.444C55.2883 236.444 55.5633 236.369 55.7427 236.22C55.9221 236.067 56.0118 235.889 56.0118 235.686C56.0118 235.504 55.9326 235.36 55.7741 235.255C55.6635 235.184 55.3884 235.093 54.9489 234.982C54.3569 234.832 53.9458 234.704 53.7156 234.596C53.4884 234.486 53.315 234.335 53.1954 234.143C53.0788 233.949 53.0205 233.735 53.0205 233.502C53.0205 233.29 53.0683 233.094 53.164 232.914C53.2627 232.732 53.3957 232.581 53.5632 232.461C53.6887 232.369 53.8591 232.291 54.0744 232.228C54.2927 232.163 54.5259 232.13 54.774 232.13C55.1477 232.13 55.4751 232.183 55.7562 232.291C56.0402 232.399 56.2495 232.545 56.384 232.731C56.5186 232.913 56.6113 233.158 56.6621 233.466L55.8728 233.574C55.8369 233.329 55.7323 233.137 55.5588 233C55.3884 232.862 55.1462 232.793 54.8323 232.793C54.4616 232.793 54.197 232.855 54.0385 232.977C53.8801 233.1 53.8008 233.243 53.8008 233.408C53.8008 233.512 53.8337 233.607 53.8995 233.69C53.9653 233.777 54.0684 233.849 54.2089 233.906C54.2897 233.935 54.5274 234.004 54.922 234.112C55.4931 234.264 55.8907 234.39 56.1149 234.489C56.3422 234.584 56.5201 234.725 56.6486 234.91C56.7772 235.095 56.8415 235.326 56.8415 235.601C56.8415 235.87 56.7622 236.124 56.6038 236.363C56.4483 236.599 56.2226 236.783 55.9266 236.915C55.6306 237.043 55.2957 237.108 54.922 237.108C54.3031 237.108 53.8307 236.979 53.5048 236.722C53.182 236.465 52.9757 236.084 52.886 235.578ZM59.5637 236.278L59.6803 236.991C59.4531 237.039 59.2498 237.063 59.0704 237.063C58.7774 237.063 58.5501 237.016 58.3887 236.924C58.2272 236.831 58.1136 236.71 58.0479 236.56C57.9821 236.408 57.9492 236.09 57.9492 235.605V232.865H57.3572V232.237H57.9492V231.058L58.752 230.573V232.237H59.5637V232.865H58.752V235.65C58.752 235.88 58.7654 236.028 58.7923 236.094C58.8222 236.16 58.8686 236.212 58.9313 236.251C58.9971 236.29 59.0898 236.309 59.2094 236.309C59.2991 236.309 59.4172 236.299 59.5637 236.278ZM60.5817 233.157V232.237H61.5011V233.157H60.5817ZM60.5817 237V236.081H61.5011V237H60.5817Z" fill="black"/>
<path d="M24 42H276" stroke="#ADADAD" stroke-width="0.328024" stroke-linecap="round" stroke-dasharray="2.62 2.62"/>
<path d="M24 43H276" stroke="#ADADAD" stroke-width="0.328024" stroke-linecap="round" stroke-dasharray="2.62 2.62"/>
<g filter="url(#filter0_d_306_572)">
<rect x="169" y="53" width="107" height="16" rx="2.62419" fill="#F8F8F8"/>
<rect x="169.164" y="53.164" width="106.672" height="15.672" rx="2.46018" stroke="#D9D9D9" stroke-width="0.328024"/>
</g>
<g filter="url(#filter1_d_306_572)">
<rect x="169" y="89" width="107" height="16" rx="2.62419" fill="#F8F8F8"/>
<rect x="169.164" y="89.164" width="106.672" height="15.672" rx="2.46018" stroke="#D9D9D9" stroke-width="0.328024"/>
</g>
<g filter="url(#filter2_d_306_572)">
<rect x="169" y="123" width="107" height="17" rx="2.62419" fill="#F8F8F8"/>
<rect x="169.164" y="123.164" width="106.672" height="16.672" rx="2.46018" stroke="#D9D9D9" stroke-width="0.328024"/>
</g>
<g filter="url(#filter3_d_306_572)">
<rect x="169" y="155" width="107" height="17" rx="2.62419" fill="#F8F8F8"/>
<rect x="169.164" y="155.164" width="106.672" height="16.672" rx="2.46018" stroke="#D9D9D9" stroke-width="0.328024"/>
</g>
<g filter="url(#filter4_d_306_572)">
<rect x="169" y="192" width="107" height="17" rx="2.62419" fill="#F8F8F8"/>
<rect x="169.164" y="192.164" width="106.672" height="16.672" rx="2.46018" stroke="#D9D9D9" stroke-width="0.328024"/>
</g>
<g filter="url(#filter5_d_306_572)">
<rect x="169" y="226" width="107" height="17" rx="2.62419" fill="#F8F8F8"/>
<rect x="169.164" y="226.164" width="106.672" height="16.672" rx="2.46018" stroke="#D9D9D9" stroke-width="0.328024"/>
</g>
<g filter="url(#filter6_d_306_572)">
<rect x="207" y="54" width="33" height="14" rx="1.3121" fill="white"/>
</g>
<g filter="url(#filter7_d_306_572)">
<rect x="207" y="90" width="33" height="14" rx="1.3121" fill="white"/>
</g>
<g filter="url(#filter8_d_306_572)">
<rect x="207" y="125" width="33" height="13" rx="1.3121" fill="white"/>
</g>
<g filter="url(#filter9_d_306_572)">
<rect x="207" y="157" width="33" height="14" rx="1.3121" fill="white"/>
</g>
<g filter="url(#filter10_d_306_572)">
<rect x="207" y="193" width="33" height="14" rx="1.3121" fill="white"/>
</g>
<g filter="url(#filter11_d_306_572)">
<rect x="207" y="228" width="33" height="13" rx="1.3121" fill="white"/>
</g>
<path d="M180.481 64V59.3039H181.102V63.4458H183.415V64H180.481ZM183.87 62.299C183.87 61.669 184.045 61.2024 184.395 60.8991C184.688 60.6472 185.044 60.5212 185.465 60.5212C185.933 60.5212 186.315 60.6749 186.612 60.9824C186.909 61.2878 187.057 61.7107 187.057 62.251C187.057 62.6888 186.991 63.0337 186.858 63.2857C186.728 63.5355 186.537 63.7299 186.285 63.8687C186.035 64.0075 185.762 64.0769 185.465 64.0769C184.989 64.0769 184.603 63.9242 184.309 63.6188C184.016 63.3134 183.87 62.8735 183.87 62.299ZM184.462 62.299C184.462 62.7347 184.557 63.0614 184.747 63.2792C184.937 63.4949 185.177 63.6028 185.465 63.6028C185.751 63.6028 185.989 63.4939 186.179 63.276C186.369 63.0582 186.464 62.7261 186.464 62.2798C186.464 61.8591 186.368 61.5409 186.176 61.3252C185.986 61.1074 185.749 60.9985 185.465 60.9985C185.177 60.9985 184.937 61.1063 184.747 61.322C184.557 61.5377 184.462 61.8634 184.462 62.299ZM188.364 64L187.323 60.598H187.919L188.46 62.5617L188.662 63.2921C188.67 63.2558 188.729 63.0219 188.838 62.5905L189.379 60.598H189.972L190.481 62.5713L190.651 63.2216L190.847 62.5649L191.43 60.598H191.99L190.927 64H190.328L189.786 61.9627L189.655 61.3829L188.966 64H188.364Z" fill="#5B5B5B"/>
<path d="M180.481 99V94.3039H181.102V98.4458H183.415V99H180.481ZM183.87 97.299C183.87 96.669 184.045 96.2024 184.395 95.8991C184.688 95.6472 185.044 95.5212 185.465 95.5212C185.933 95.5212 186.315 95.6749 186.612 95.9824C186.909 96.2878 187.057 96.7107 187.057 97.251C187.057 97.6888 186.991 98.0337 186.858 98.2857C186.728 98.5355 186.537 98.7299 186.285 98.8687C186.035 99.0075 185.762 99.0769 185.465 99.0769C184.989 99.0769 184.603 98.9242 184.309 98.6188C184.016 98.3134 183.87 97.8735 183.87 97.299ZM184.462 97.299C184.462 97.7347 184.557 98.0614 184.747 98.2792C184.937 98.4949 185.177 98.6028 185.465 98.6028C185.751 98.6028 185.989 98.4939 186.179 98.276C186.369 98.0582 186.464 97.7261 186.464 97.2798C186.464 96.8591 186.368 96.5409 186.176 96.3252C185.986 96.1074 185.749 95.9985 185.465 95.9985C185.177 95.9985 184.937 96.1063 184.747 96.322C184.557 96.5377 184.462 96.8634 184.462 97.299ZM188.364 99L187.323 95.598H187.919L188.46 97.5617L188.662 98.2921C188.67 98.2558 188.729 98.0219 188.838 97.5905L189.379 95.598H189.972L190.481 97.5713L190.651 98.2216L190.847 97.5649L191.43 95.598H191.99L190.927 99H190.328L189.786 96.9627L189.655 96.3829L188.966 99H188.364Z" fill="#5B5B5B"/>
<path d="M180.481 134V129.304H181.102V133.446H183.415V134H180.481ZM183.87 132.299C183.87 131.669 184.045 131.202 184.395 130.899C184.688 130.647 185.044 130.521 185.465 130.521C185.933 130.521 186.315 130.675 186.612 130.982C186.909 131.288 187.057 131.711 187.057 132.251C187.057 132.689 186.991 133.034 186.858 133.286C186.728 133.536 186.537 133.73 186.285 133.869C186.035 134.007 185.762 134.077 185.465 134.077C184.989 134.077 184.603 133.924 184.309 133.619C184.016 133.313 183.87 132.873 183.87 132.299ZM184.462 132.299C184.462 132.735 184.557 133.061 184.747 133.279C184.937 133.495 185.177 133.603 185.465 133.603C185.751 133.603 185.989 133.494 186.179 133.276C186.369 133.058 186.464 132.726 186.464 132.28C186.464 131.859 186.368 131.541 186.176 131.325C185.986 131.107 185.749 130.998 185.465 130.998C185.177 130.998 184.937 131.106 184.747 131.322C184.557 131.538 184.462 131.863 184.462 132.299ZM188.364 134L187.323 130.598H187.919L188.46 132.562L188.662 133.292C188.67 133.256 188.729 133.022 188.838 132.591L189.379 130.598H189.972L190.481 132.571L190.651 133.222L190.847 132.565L191.43 130.598H191.99L190.927 134H190.328L189.786 131.963L189.655 131.383L188.966 134H188.364Z" fill="#5B5B5B"/>
<path d="M180.481 166V161.304H181.102V165.446H183.415V166H180.481ZM183.87 164.299C183.87 163.669 184.045 163.202 184.395 162.899C184.688 162.647 185.044 162.521 185.465 162.521C185.933 162.521 186.315 162.675 186.612 162.982C186.909 163.288 187.057 163.711 187.057 164.251C187.057 164.689 186.991 165.034 186.858 165.286C186.728 165.536 186.537 165.73 186.285 165.869C186.035 166.007 185.762 166.077 185.465 166.077C184.989 166.077 184.603 165.924 184.309 165.619C184.016 165.313 183.87 164.873 183.87 164.299ZM184.462 164.299C184.462 164.735 184.557 165.061 184.747 165.279C184.937 165.495 185.177 165.603 185.465 165.603C185.751 165.603 185.989 165.494 186.179 165.276C186.369 165.058 186.464 164.726 186.464 164.28C186.464 163.859 186.368 163.541 186.176 163.325C185.986 163.107 185.749 162.998 185.465 162.998C185.177 162.998 184.937 163.106 184.747 163.322C184.557 163.538 184.462 163.863 184.462 164.299ZM188.364 166L187.323 162.598H187.919L188.46 164.562L188.662 165.292C188.67 165.256 188.729 165.022 188.838 164.591L189.379 162.598H189.972L190.481 164.571L190.651 165.222L190.847 164.565L191.43 162.598H191.99L190.927 166H190.328L189.786 163.963L189.655 163.383L188.966 166H188.364Z" fill="#5B5B5B"/>
<path d="M180.481 203V198.304H181.102V202.446H183.415V203H180.481ZM183.87 201.299C183.87 200.669 184.045 200.202 184.395 199.899C184.688 199.647 185.044 199.521 185.465 199.521C185.933 199.521 186.315 199.675 186.612 199.982C186.909 200.288 187.057 200.711 187.057 201.251C187.057 201.689 186.991 202.034 186.858 202.286C186.728 202.536 186.537 202.73 186.285 202.869C186.035 203.007 185.762 203.077 185.465 203.077C184.989 203.077 184.603 202.924 184.309 202.619C184.016 202.313 183.87 201.873 183.87 201.299ZM184.462 201.299C184.462 201.735 184.557 202.061 184.747 202.279C184.937 202.495 185.177 202.603 185.465 202.603C185.751 202.603 185.989 202.494 186.179 202.276C186.369 202.058 186.464 201.726 186.464 201.28C186.464 200.859 186.368 200.541 186.176 200.325C185.986 200.107 185.749 199.998 185.465 199.998C185.177 199.998 184.937 200.106 184.747 200.322C184.557 200.538 184.462 200.863 184.462 201.299ZM188.364 203L187.323 199.598H187.919L188.46 201.562L188.662 202.292C188.67 202.256 188.729 202.022 188.838 201.591L189.379 199.598H189.972L190.481 201.571L190.651 202.222L190.847 201.565L191.43 199.598H191.99L190.927 203H190.328L189.786 200.963L189.655 200.383L188.966 203H188.364Z" fill="#5B5B5B"/>
<path d="M180.481 237V232.304H181.102V236.446H183.415V237H180.481ZM183.87 235.299C183.87 234.669 184.045 234.202 184.395 233.899C184.688 233.647 185.044 233.521 185.465 233.521C185.933 233.521 186.315 233.675 186.612 233.982C186.909 234.288 187.057 234.711 187.057 235.251C187.057 235.689 186.991 236.034 186.858 236.286C186.728 236.536 186.537 236.73 186.285 236.869C186.035 237.007 185.762 237.077 185.465 237.077C184.989 237.077 184.603 236.924 184.309 236.619C184.016 236.313 183.87 235.873 183.87 235.299ZM184.462 235.299C184.462 235.735 184.557 236.061 184.747 236.279C184.937 236.495 185.177 236.603 185.465 236.603C185.751 236.603 185.989 236.494 186.179 236.276C186.369 236.058 186.464 235.726 186.464 235.28C186.464 234.859 186.368 234.541 186.176 234.325C185.986 234.107 185.749 233.998 185.465 233.998C185.177 233.998 184.937 234.106 184.747 234.322C184.557 234.538 184.462 234.863 184.462 235.299ZM188.364 237L187.323 233.598H187.919L188.46 235.562L188.662 236.292C188.67 236.256 188.729 236.022 188.838 235.591L189.379 233.598H189.972L190.481 235.571L190.651 236.222L190.847 235.565L191.43 233.598H191.99L190.927 237H190.328L189.786 234.963L189.655 234.383L188.966 237H188.364Z" fill="#5B5B5B"/>
<path d="M210.487 64V59.3039H211.422L212.534 62.629C212.636 62.9386 212.711 63.1703 212.758 63.3241C212.811 63.1532 212.895 62.9023 213.008 62.5713L214.132 59.3039H214.968V64H214.369V60.0695L213.005 64H212.444L211.086 60.0022V64H210.487ZM218.226 62.9045L218.822 62.9781C218.728 63.3262 218.554 63.5964 218.3 63.7886C218.046 63.9808 217.721 64.0769 217.326 64.0769C216.828 64.0769 216.433 63.9242 216.141 63.6188C215.85 63.3113 215.705 62.881 215.705 62.3278C215.705 61.7555 215.853 61.3113 216.147 60.9953C216.442 60.6792 216.824 60.5212 217.294 60.5212C217.749 60.5212 218.121 60.676 218.409 60.9856C218.697 61.2953 218.841 61.731 218.841 62.2926C218.841 62.3268 218.84 62.378 218.838 62.4464H216.301C216.322 62.8201 216.428 63.1063 216.618 63.3049C216.808 63.5035 217.045 63.6028 217.329 63.6028C217.541 63.6028 217.721 63.5473 217.871 63.4362C218.02 63.3252 218.139 63.1479 218.226 62.9045ZM216.333 61.9723H218.233C218.207 61.6861 218.134 61.4715 218.015 61.3284C217.831 61.1063 217.593 60.9953 217.3 60.9953C217.036 60.9953 216.812 61.0839 216.631 61.2611C216.452 61.4384 216.352 61.6754 216.333 61.9723ZM221.756 64V63.5708C221.541 63.9082 221.223 64.0769 220.805 64.0769C220.534 64.0769 220.284 64.0021 220.055 63.8526C219.829 63.7032 219.653 63.4949 219.527 63.228C219.403 62.9589 219.341 62.6503 219.341 62.3022C219.341 61.9627 219.398 61.6551 219.511 61.3797C219.624 61.102 219.794 60.8895 220.02 60.7422C220.246 60.5948 220.5 60.5212 220.779 60.5212C220.984 60.5212 221.167 60.5649 221.327 60.6525C221.487 60.7379 221.618 60.85 221.718 60.9888V59.3039H222.291V64H221.756ZM219.934 62.3022C219.934 62.7379 220.025 63.0636 220.209 63.2792C220.393 63.4949 220.61 63.6028 220.859 63.6028C221.111 63.6028 221.325 63.5003 221.5 63.2953C221.677 63.0881 221.766 62.7731 221.766 62.3503C221.766 61.8847 221.676 61.543 221.497 61.3252C221.317 61.1074 221.096 60.9985 220.834 60.9985C220.577 60.9985 220.363 61.1031 220.19 61.3124C220.019 61.5217 219.934 61.8516 219.934 62.3022ZM223.204 59.967V59.3039H223.781V59.967H223.204ZM223.204 64V60.598H223.781V64H223.204ZM226.891 64V63.5003C226.626 63.8847 226.267 64.0769 225.812 64.0769C225.611 64.0769 225.423 64.0384 225.248 63.9616C225.075 63.8847 224.946 63.7886 224.86 63.6733C224.777 63.5558 224.718 63.4127 224.684 63.244C224.661 63.1308 224.649 62.9514 224.649 62.7058V60.598H225.226V62.4848C225.226 62.7859 225.237 62.9888 225.261 63.0934C225.297 63.2451 225.374 63.3647 225.491 63.4522C225.609 63.5376 225.754 63.5804 225.927 63.5804C226.1 63.5804 226.262 63.5366 226.414 63.449C226.566 63.3593 226.672 63.2387 226.734 63.087C226.798 62.9333 226.83 62.7112 226.83 62.4207V60.598H227.407V64H226.891ZM228.314 64V60.598H228.829V61.0753C228.936 60.9088 229.078 60.7753 229.255 60.6749C229.433 60.5724 229.634 60.5212 229.861 60.5212C230.113 60.5212 230.319 60.5735 230.479 60.6781C230.641 60.7828 230.756 60.929 230.822 61.117C231.091 60.7198 231.441 60.5212 231.873 60.5212C232.21 60.5212 232.469 60.6151 232.651 60.803C232.832 60.9888 232.923 61.2761 232.923 61.6648V64H232.35V61.857C232.35 61.6263 232.331 61.4608 232.292 61.3604C232.256 61.2579 232.189 61.1757 232.09 61.1138C231.992 61.0518 231.877 61.0209 231.744 61.0209C231.505 61.0209 231.307 61.101 231.149 61.2611C230.991 61.4192 230.912 61.6733 230.912 62.0235V64H230.335V61.7897C230.335 61.5334 230.288 61.3412 230.194 61.2131C230.1 61.0849 229.946 61.0209 229.733 61.0209C229.57 61.0209 229.42 61.0636 229.281 61.149C229.144 61.2344 229.045 61.3594 228.983 61.5238C228.921 61.6882 228.89 61.9253 228.89 62.2349V64H228.314Z" fill="#2563EB"/>
<path d="M210.487 99V94.3039H211.422L212.534 97.629C212.636 97.9386 212.711 98.1703 212.758 98.3241C212.811 98.1532 212.895 97.9023 213.008 97.5713L214.132 94.3039H214.968V99H214.369V95.0695L213.005 99H212.444L211.086 95.0022V99H210.487ZM218.226 97.9045L218.822 97.9781C218.728 98.3262 218.554 98.5964 218.3 98.7886C218.046 98.9808 217.721 99.0769 217.326 99.0769C216.828 99.0769 216.433 98.9242 216.141 98.6188C215.85 98.3113 215.705 97.881 215.705 97.3278C215.705 96.7555 215.853 96.3113 216.147 95.9953C216.442 95.6792 216.824 95.5212 217.294 95.5212C217.749 95.5212 218.121 95.676 218.409 95.9856C218.697 96.2953 218.841 96.731 218.841 97.2926C218.841 97.3268 218.84 97.378 218.838 97.4464H216.301C216.322 97.8201 216.428 98.1063 216.618 98.3049C216.808 98.5035 217.045 98.6028 217.329 98.6028C217.541 98.6028 217.721 98.5473 217.871 98.4362C218.02 98.3252 218.139 98.1479 218.226 97.9045ZM216.333 96.9723H218.233C218.207 96.6861 218.134 96.4715 218.015 96.3284C217.831 96.1063 217.593 95.9953 217.3 95.9953C217.036 95.9953 216.812 96.0839 216.631 96.2611C216.452 96.4384 216.352 96.6754 216.333 96.9723ZM221.756 99V98.5708C221.541 98.9082 221.223 99.0769 220.805 99.0769C220.534 99.0769 220.284 99.0021 220.055 98.8526C219.829 98.7032 219.653 98.4949 219.527 98.228C219.403 97.9589 219.341 97.6503 219.341 97.3022C219.341 96.9627 219.398 96.6551 219.511 96.3797C219.624 96.102 219.794 95.8895 220.02 95.7422C220.246 95.5948 220.5 95.5212 220.779 95.5212C220.984 95.5212 221.167 95.5649 221.327 95.6525C221.487 95.7379 221.618 95.85 221.718 95.9888V94.3039H222.291V99H221.756ZM219.934 97.3022C219.934 97.7379 220.025 98.0636 220.209 98.2792C220.393 98.4949 220.61 98.6028 220.859 98.6028C221.111 98.6028 221.325 98.5003 221.5 98.2953C221.677 98.0881 221.766 97.7731 221.766 97.3503C221.766 96.8847 221.676 96.543 221.497 96.3252C221.317 96.1074 221.096 95.9985 220.834 95.9985C220.577 95.9985 220.363 96.1031 220.19 96.3124C220.019 96.5217 219.934 96.8516 219.934 97.3022ZM223.204 94.967V94.3039H223.781V94.967H223.204ZM223.204 99V95.598H223.781V99H223.204ZM226.891 99V98.5003C226.626 98.8847 226.267 99.0769 225.812 99.0769C225.611 99.0769 225.423 99.0384 225.248 98.9616C225.075 98.8847 224.946 98.7886 224.86 98.6733C224.777 98.5558 224.718 98.4127 224.684 98.244C224.661 98.1308 224.649 97.9514 224.649 97.7058V95.598H225.226V97.4848C225.226 97.7859 225.237 97.9888 225.261 98.0934C225.297 98.2451 225.374 98.3647 225.491 98.4522C225.609 98.5376 225.754 98.5804 225.927 98.5804C226.1 98.5804 226.262 98.5366 226.414 98.449C226.566 98.3593 226.672 98.2387 226.734 98.087C226.798 97.9333 226.83 97.7112 226.83 97.4207V95.598H227.407V99H226.891ZM228.314 99V95.598H228.829V96.0753C228.936 95.9088 229.078 95.7753 229.255 95.6749C229.433 95.5724 229.634 95.5212 229.861 95.5212C230.113 95.5212 230.319 95.5735 230.479 95.6781C230.641 95.7828 230.756 95.929 230.822 96.117C231.091 95.7198 231.441 95.5212 231.873 95.5212C232.21 95.5212 232.469 95.6151 232.651 95.803C232.832 95.9888 232.923 96.2761 232.923 96.6648V99H232.35V96.857C232.35 96.6263 232.331 96.4608 232.292 96.3604C232.256 96.2579 232.189 96.1757 232.09 96.1138C231.992 96.0518 231.877 96.0209 231.744 96.0209C231.505 96.0209 231.307 96.101 231.149 96.2611C230.991 96.4192 230.912 96.6733 230.912 97.0235V99H230.335V96.7897C230.335 96.5334 230.288 96.3412 230.194 96.2131C230.1 96.0849 229.946 96.0209 229.733 96.0209C229.57 96.0209 229.42 96.0636 229.281 96.149C229.144 96.2344 229.045 96.3594 228.983 96.5238C228.921 96.6882 228.89 96.9253 228.89 97.2349V99H228.314Z" fill="#2563EB"/>
<path d="M210.487 134V129.304H211.422L212.534 132.629C212.636 132.939 212.711 133.17 212.758 133.324C212.811 133.153 212.895 132.902 213.008 132.571L214.132 129.304H214.968V134H214.369V130.069L213.005 134H212.444L211.086 130.002V134H210.487ZM218.226 132.904L218.822 132.978C218.728 133.326 218.554 133.596 218.3 133.789C218.046 133.981 217.721 134.077 217.326 134.077C216.828 134.077 216.433 133.924 216.141 133.619C215.85 133.311 215.705 132.881 215.705 132.328C215.705 131.756 215.853 131.311 216.147 130.995C216.442 130.679 216.824 130.521 217.294 130.521C217.749 130.521 218.121 130.676 218.409 130.986C218.697 131.295 218.841 131.731 218.841 132.293C218.841 132.327 218.84 132.378 218.838 132.446H216.301C216.322 132.82 216.428 133.106 216.618 133.305C216.808 133.503 217.045 133.603 217.329 133.603C217.541 133.603 217.721 133.547 217.871 133.436C218.02 133.325 218.139 133.148 218.226 132.904ZM216.333 131.972H218.233C218.207 131.686 218.134 131.471 218.015 131.328C217.831 131.106 217.593 130.995 217.3 130.995C217.036 130.995 216.812 131.084 216.631 131.261C216.452 131.438 216.352 131.675 216.333 131.972ZM221.756 134V133.571C221.541 133.908 221.223 134.077 220.805 134.077C220.534 134.077 220.284 134.002 220.055 133.853C219.829 133.703 219.653 133.495 219.527 133.228C219.403 132.959 219.341 132.65 219.341 132.302C219.341 131.963 219.398 131.655 219.511 131.38C219.624 131.102 219.794 130.89 220.02 130.742C220.246 130.595 220.5 130.521 220.779 130.521C220.984 130.521 221.167 130.565 221.327 130.652C221.487 130.738 221.618 130.85 221.718 130.989V129.304H222.291V134H221.756ZM219.934 132.302C219.934 132.738 220.025 133.064 220.209 133.279C220.393 133.495 220.61 133.603 220.859 133.603C221.111 133.603 221.325 133.5 221.5 133.295C221.677 133.088 221.766 132.773 221.766 132.35C221.766 131.885 221.676 131.543 221.497 131.325C221.317 131.107 221.096 130.998 220.834 130.998C220.577 130.998 220.363 131.103 220.19 131.312C220.019 131.522 219.934 131.852 219.934 132.302ZM223.204 129.967V129.304H223.781V129.967H223.204ZM223.204 134V130.598H223.781V134H223.204ZM226.891 134V133.5C226.626 133.885 226.267 134.077 225.812 134.077C225.611 134.077 225.423 134.038 225.248 133.962C225.075 133.885 224.946 133.789 224.86 133.673C224.777 133.556 224.718 133.413 224.684 133.244C224.661 133.131 224.649 132.951 224.649 132.706V130.598H225.226V132.485C225.226 132.786 225.237 132.989 225.261 133.093C225.297 133.245 225.374 133.365 225.491 133.452C225.609 133.538 225.754 133.58 225.927 133.58C226.1 133.58 226.262 133.537 226.414 133.449C226.566 133.359 226.672 133.239 226.734 133.087C226.798 132.933 226.83 132.711 226.83 132.421V130.598H227.407V134H226.891ZM228.314 134V130.598H228.829V131.075C228.936 130.909 229.078 130.775 229.255 130.675C229.433 130.572 229.634 130.521 229.861 130.521C230.113 130.521 230.319 130.573 230.479 130.678C230.641 130.783 230.756 130.929 230.822 131.117C231.091 130.72 231.441 130.521 231.873 130.521C232.21 130.521 232.469 130.615 232.651 130.803C232.832 130.989 232.923 131.276 232.923 131.665V134H232.35V131.857C232.35 131.626 232.331 131.461 232.292 131.36C232.256 131.258 232.189 131.176 232.09 131.114C231.992 131.052 231.877 131.021 231.744 131.021C231.505 131.021 231.307 131.101 231.149 131.261C230.991 131.419 230.912 131.673 230.912 132.024V134H230.335V131.79C230.335 131.533 230.288 131.341 230.194 131.213C230.1 131.085 229.946 131.021 229.733 131.021C229.57 131.021 229.42 131.064 229.281 131.149C229.144 131.234 229.045 131.359 228.983 131.524C228.921 131.688 228.89 131.925 228.89 132.235V134H228.314Z" fill="#2563EB"/>
<path d="M210.487 166V161.304H211.422L212.534 164.629C212.636 164.939 212.711 165.17 212.758 165.324C212.811 165.153 212.895 164.902 213.008 164.571L214.132 161.304H214.968V166H214.369V162.069L213.005 166H212.444L211.086 162.002V166H210.487ZM218.226 164.904L218.822 164.978C218.728 165.326 218.554 165.596 218.3 165.789C218.046 165.981 217.721 166.077 217.326 166.077C216.828 166.077 216.433 165.924 216.141 165.619C215.85 165.311 215.705 164.881 215.705 164.328C215.705 163.756 215.853 163.311 216.147 162.995C216.442 162.679 216.824 162.521 217.294 162.521C217.749 162.521 218.121 162.676 218.409 162.986C218.697 163.295 218.841 163.731 218.841 164.293C218.841 164.327 218.84 164.378 218.838 164.446H216.301C216.322 164.82 216.428 165.106 216.618 165.305C216.808 165.503 217.045 165.603 217.329 165.603C217.541 165.603 217.721 165.547 217.871 165.436C218.02 165.325 218.139 165.148 218.226 164.904ZM216.333 163.972H218.233C218.207 163.686 218.134 163.471 218.015 163.328C217.831 163.106 217.593 162.995 217.3 162.995C217.036 162.995 216.812 163.084 216.631 163.261C216.452 163.438 216.352 163.675 216.333 163.972ZM221.756 166V165.571C221.541 165.908 221.223 166.077 220.805 166.077C220.534 166.077 220.284 166.002 220.055 165.853C219.829 165.703 219.653 165.495 219.527 165.228C219.403 164.959 219.341 164.65 219.341 164.302C219.341 163.963 219.398 163.655 219.511 163.38C219.624 163.102 219.794 162.89 220.02 162.742C220.246 162.595 220.5 162.521 220.779 162.521C220.984 162.521 221.167 162.565 221.327 162.652C221.487 162.738 221.618 162.85 221.718 162.989V161.304H222.291V166H221.756ZM219.934 164.302C219.934 164.738 220.025 165.064 220.209 165.279C220.393 165.495 220.61 165.603 220.859 165.603C221.111 165.603 221.325 165.5 221.5 165.295C221.677 165.088 221.766 164.773 221.766 164.35C221.766 163.885 221.676 163.543 221.497 163.325C221.317 163.107 221.096 162.998 220.834 162.998C220.577 162.998 220.363 163.103 220.19 163.312C220.019 163.522 219.934 163.852 219.934 164.302ZM223.204 161.967V161.304H223.781V161.967H223.204ZM223.204 166V162.598H223.781V166H223.204ZM226.891 166V165.5C226.626 165.885 226.267 166.077 225.812 166.077C225.611 166.077 225.423 166.038 225.248 165.962C225.075 165.885 224.946 165.789 224.86 165.673C224.777 165.556 224.718 165.413 224.684 165.244C224.661 165.131 224.649 164.951 224.649 164.706V162.598H225.226V164.485C225.226 164.786 225.237 164.989 225.261 165.093C225.297 165.245 225.374 165.365 225.491 165.452C225.609 165.538 225.754 165.58 225.927 165.58C226.1 165.58 226.262 165.537 226.414 165.449C226.566 165.359 226.672 165.239 226.734 165.087C226.798 164.933 226.83 164.711 226.83 164.421V162.598H227.407V166H226.891ZM228.314 166V162.598H228.829V163.075C228.936 162.909 229.078 162.775 229.255 162.675C229.433 162.572 229.634 162.521 229.861 162.521C230.113 162.521 230.319 162.573 230.479 162.678C230.641 162.783 230.756 162.929 230.822 163.117C231.091 162.72 231.441 162.521 231.873 162.521C232.21 162.521 232.469 162.615 232.651 162.803C232.832 162.989 232.923 163.276 232.923 163.665V166H232.35V163.857C232.35 163.626 232.331 163.461 232.292 163.36C232.256 163.258 232.189 163.176 232.09 163.114C231.992 163.052 231.877 163.021 231.744 163.021C231.505 163.021 231.307 163.101 231.149 163.261C230.991 163.419 230.912 163.673 230.912 164.024V166H230.335V163.79C230.335 163.533 230.288 163.341 230.194 163.213C230.1 163.085 229.946 163.021 229.733 163.021C229.57 163.021 229.42 163.064 229.281 163.149C229.144 163.234 229.045 163.359 228.983 163.524C228.921 163.688 228.89 163.925 228.89 164.235V166H228.314Z" fill="#2563EB"/>
<path d="M210.487 203V198.304H211.422L212.534 201.629C212.636 201.939 212.711 202.17 212.758 202.324C212.811 202.153 212.895 201.902 213.008 201.571L214.132 198.304H214.968V203H214.369V199.069L213.005 203H212.444L211.086 199.002V203H210.487ZM218.226 201.904L218.822 201.978C218.728 202.326 218.554 202.596 218.3 202.789C218.046 202.981 217.721 203.077 217.326 203.077C216.828 203.077 216.433 202.924 216.141 202.619C215.85 202.311 215.705 201.881 215.705 201.328C215.705 200.756 215.853 200.311 216.147 199.995C216.442 199.679 216.824 199.521 217.294 199.521C217.749 199.521 218.121 199.676 218.409 199.986C218.697 200.295 218.841 200.731 218.841 201.293C218.841 201.327 218.84 201.378 218.838 201.446H216.301C216.322 201.82 216.428 202.106 216.618 202.305C216.808 202.503 217.045 202.603 217.329 202.603C217.541 202.603 217.721 202.547 217.871 202.436C218.02 202.325 218.139 202.148 218.226 201.904ZM216.333 200.972H218.233C218.207 200.686 218.134 200.471 218.015 200.328C217.831 200.106 217.593 199.995 217.3 199.995C217.036 199.995 216.812 200.084 216.631 200.261C216.452 200.438 216.352 200.675 216.333 200.972ZM221.756 203V202.571C221.541 202.908 221.223 203.077 220.805 203.077C220.534 203.077 220.284 203.002 220.055 202.853C219.829 202.703 219.653 202.495 219.527 202.228C219.403 201.959 219.341 201.65 219.341 201.302C219.341 200.963 219.398 200.655 219.511 200.38C219.624 200.102 219.794 199.89 220.02 199.742C220.246 199.595 220.5 199.521 220.779 199.521C220.984 199.521 221.167 199.565 221.327 199.652C221.487 199.738 221.618 199.85 221.718 199.989V198.304H222.291V203H221.756ZM219.934 201.302C219.934 201.738 220.025 202.064 220.209 202.279C220.393 202.495 220.61 202.603 220.859 202.603C221.111 202.603 221.325 202.5 221.5 202.295C221.677 202.088 221.766 201.773 221.766 201.35C221.766 200.885 221.676 200.543 221.497 200.325C221.317 200.107 221.096 199.998 220.834 199.998C220.577 199.998 220.363 200.103 220.19 200.312C220.019 200.522 219.934 200.852 219.934 201.302ZM223.204 198.967V198.304H223.781V198.967H223.204ZM223.204 203V199.598H223.781V203H223.204ZM226.891 203V202.5C226.626 202.885 226.267 203.077 225.812 203.077C225.611 203.077 225.423 203.038 225.248 202.962C225.075 202.885 224.946 202.789 224.86 202.673C224.777 202.556 224.718 202.413 224.684 202.244C224.661 202.131 224.649 201.951 224.649 201.706V199.598H225.226V201.485C225.226 201.786 225.237 201.989 225.261 202.093C225.297 202.245 225.374 202.365 225.491 202.452C225.609 202.538 225.754 202.58 225.927 202.58C226.1 202.58 226.262 202.537 226.414 202.449C226.566 202.359 226.672 202.239 226.734 202.087C226.798 201.933 226.83 201.711 226.83 201.421V199.598H227.407V203H226.891ZM228.314 203V199.598H228.829V200.075C228.936 199.909 229.078 199.775 229.255 199.675C229.433 199.572 229.634 199.521 229.861 199.521C230.113 199.521 230.319 199.573 230.479 199.678C230.641 199.783 230.756 199.929 230.822 200.117C231.091 199.72 231.441 199.521 231.873 199.521C232.21 199.521 232.469 199.615 232.651 199.803C232.832 199.989 232.923 200.276 232.923 200.665V203H232.35V200.857C232.35 200.626 232.331 200.461 232.292 200.36C232.256 200.258 232.189 200.176 232.09 200.114C231.992 200.052 231.877 200.021 231.744 200.021C231.505 200.021 231.307 200.101 231.149 200.261C230.991 200.419 230.912 200.673 230.912 201.024V203H230.335V200.79C230.335 200.533 230.288 200.341 230.194 200.213C230.1 200.085 229.946 200.021 229.733 200.021C229.57 200.021 229.42 200.064 229.281 200.149C229.144 200.234 229.045 200.359 228.983 200.524C228.921 200.688 228.89 200.925 228.89 201.235V203H228.314Z" fill="#2563EB"/>
<path d="M210.487 237V232.304H211.422L212.534 235.629C212.636 235.939 212.711 236.17 212.758 236.324C212.811 236.153 212.895 235.902 213.008 235.571L214.132 232.304H214.968V237H214.369V233.069L213.005 237H212.444L211.086 233.002V237H210.487ZM218.226 235.904L218.822 235.978C218.728 236.326 218.554 236.596 218.3 236.789C218.046 236.981 217.721 237.077 217.326 237.077C216.828 237.077 216.433 236.924 216.141 236.619C215.85 236.311 215.705 235.881 215.705 235.328C215.705 234.756 215.853 234.311 216.147 233.995C216.442 233.679 216.824 233.521 217.294 233.521C217.749 233.521 218.121 233.676 218.409 233.986C218.697 234.295 218.841 234.731 218.841 235.293C218.841 235.327 218.84 235.378 218.838 235.446H216.301C216.322 235.82 216.428 236.106 216.618 236.305C216.808 236.503 217.045 236.603 217.329 236.603C217.541 236.603 217.721 236.547 217.871 236.436C218.02 236.325 218.139 236.148 218.226 235.904ZM216.333 234.972H218.233C218.207 234.686 218.134 234.471 218.015 234.328C217.831 234.106 217.593 233.995 217.3 233.995C217.036 233.995 216.812 234.084 216.631 234.261C216.452 234.438 216.352 234.675 216.333 234.972ZM221.756 237V236.571C221.541 236.908 221.223 237.077 220.805 237.077C220.534 237.077 220.284 237.002 220.055 236.853C219.829 236.703 219.653 236.495 219.527 236.228C219.403 235.959 219.341 235.65 219.341 235.302C219.341 234.963 219.398 234.655 219.511 234.38C219.624 234.102 219.794 233.89 220.02 233.742C220.246 233.595 220.5 233.521 220.779 233.521C220.984 233.521 221.167 233.565 221.327 233.652C221.487 233.738 221.618 233.85 221.718 233.989V232.304H222.291V237H221.756ZM219.934 235.302C219.934 235.738 220.025 236.064 220.209 236.279C220.393 236.495 220.61 236.603 220.859 236.603C221.111 236.603 221.325 236.5 221.5 236.295C221.677 236.088 221.766 235.773 221.766 235.35C221.766 234.885 221.676 234.543 221.497 234.325C221.317 234.107 221.096 233.998 220.834 233.998C220.577 233.998 220.363 234.103 220.19 234.312C220.019 234.522 219.934 234.852 219.934 235.302ZM223.204 232.967V232.304H223.781V232.967H223.204ZM223.204 237V233.598H223.781V237H223.204ZM226.891 237V236.5C226.626 236.885 226.267 237.077 225.812 237.077C225.611 237.077 225.423 237.038 225.248 236.962C225.075 236.885 224.946 236.789 224.86 236.673C224.777 236.556 224.718 236.413 224.684 236.244C224.661 236.131 224.649 235.951 224.649 235.706V233.598H225.226V235.485C225.226 235.786 225.237 235.989 225.261 236.093C225.297 236.245 225.374 236.365 225.491 236.452C225.609 236.538 225.754 236.58 225.927 236.58C226.1 236.58 226.262 236.537 226.414 236.449C226.566 236.359 226.672 236.239 226.734 236.087C226.798 235.933 226.83 235.711 226.83 235.421V233.598H227.407V237H226.891ZM228.314 237V233.598H228.829V234.075C228.936 233.909 229.078 233.775 229.255 233.675C229.433 233.572 229.634 233.521 229.861 233.521C230.113 233.521 230.319 233.573 230.479 233.678C230.641 233.783 230.756 233.929 230.822 234.117C231.091 233.72 231.441 233.521 231.873 233.521C232.21 233.521 232.469 233.615 232.651 233.803C232.832 233.989 232.923 234.276 232.923 234.665V237H232.35V234.857C232.35 234.626 232.331 234.461 232.292 234.36C232.256 234.258 232.189 234.176 232.09 234.114C231.992 234.052 231.877 234.021 231.744 234.021C231.505 234.021 231.307 234.101 231.149 234.261C230.991 234.419 230.912 234.673 230.912 235.024V237H230.335V234.79C230.335 234.533 230.288 234.341 230.194 234.213C230.1 234.085 229.946 234.021 229.733 234.021C229.57 234.021 229.42 234.064 229.281 234.149C229.144 234.234 229.045 234.359 228.983 234.524C228.921 234.688 228.89 234.925 228.89 235.235V237H228.314Z" fill="#2563EB"/>
<path d="M251.525 64V59.3039H252.147V61.2323H254.588V59.3039H255.209V64H254.588V61.7865H252.147V64H251.525ZM256.177 59.967V59.3039H256.753V59.967H256.177ZM256.177 64V60.598H256.753V64H256.177ZM257.528 64.2819L258.089 64.3652C258.113 64.5382 258.178 64.6642 258.284 64.7432C258.428 64.85 258.623 64.9033 258.871 64.9033C259.138 64.9033 259.344 64.85 259.489 64.7432C259.634 64.6364 259.732 64.4869 259.784 64.2947C259.814 64.1773 259.827 63.9306 259.825 63.5547C259.573 63.8516 259.259 64 258.883 64C258.416 64 258.054 63.8313 257.798 63.4939C257.541 63.1564 257.413 62.7518 257.413 62.2798C257.413 61.9552 257.472 61.6562 257.589 61.3829C257.707 61.1074 257.877 60.8949 258.099 60.7454C258.323 60.5959 258.586 60.5212 258.887 60.5212C259.288 60.5212 259.619 60.6835 259.88 61.0081V60.598H260.411V63.5387C260.411 64.0683 260.357 64.4431 260.248 64.6631C260.141 64.8852 259.97 65.0603 259.736 65.1884C259.503 65.3166 259.216 65.3806 258.874 65.3806C258.468 65.3806 258.14 65.2888 257.89 65.1052C257.641 64.9236 257.52 64.6492 257.528 64.2819ZM258.006 62.2382C258.006 62.6845 258.094 63.0102 258.272 63.2152C258.449 63.4202 258.671 63.5227 258.938 63.5227C259.203 63.5227 259.425 63.4213 259.604 63.2184C259.784 63.0134 259.873 62.693 259.873 62.2574C259.873 61.8409 259.78 61.527 259.595 61.3156C259.411 61.1042 259.189 60.9985 258.928 60.9985C258.672 60.9985 258.454 61.1031 258.275 61.3124C258.095 61.5195 258.006 61.8281 258.006 62.2382ZM261.286 64V59.3039H261.863V60.9888C262.132 60.677 262.471 60.5212 262.881 60.5212C263.133 60.5212 263.352 60.5713 263.538 60.6717C263.724 60.7699 263.856 60.9066 263.935 61.0817C264.016 61.2569 264.057 61.511 264.057 61.8441V64H263.48V61.8441C263.48 61.5558 263.417 61.3466 263.291 61.2163C263.167 61.0839 262.991 61.0177 262.763 61.0177C262.592 61.0177 262.431 61.0625 262.279 61.1522C262.13 61.2398 262.023 61.3594 261.959 61.511C261.895 61.6626 261.863 61.8719 261.863 62.1388V64H261.286Z" fill="#5B5B5B"/>
<path d="M251.525 99V94.3039H252.147V96.2323H254.588V94.3039H255.209V99H254.588V96.7865H252.147V99H251.525ZM256.177 94.967V94.3039H256.753V94.967H256.177ZM256.177 99V95.598H256.753V99H256.177ZM257.528 99.2819L258.089 99.3652C258.113 99.5382 258.178 99.6642 258.284 99.7432C258.428 99.85 258.623 99.9033 258.871 99.9033C259.138 99.9033 259.344 99.85 259.489 99.7432C259.634 99.6364 259.732 99.4869 259.784 99.2947C259.814 99.1773 259.827 98.9306 259.825 98.5547C259.573 98.8516 259.259 99 258.883 99C258.416 99 258.054 98.8313 257.798 98.4939C257.541 98.1564 257.413 97.7518 257.413 97.2798C257.413 96.9552 257.472 96.6562 257.589 96.3829C257.707 96.1074 257.877 95.8949 258.099 95.7454C258.323 95.5959 258.586 95.5212 258.887 95.5212C259.288 95.5212 259.619 95.6835 259.88 96.0081V95.598H260.411V98.5387C260.411 99.0683 260.357 99.4431 260.248 99.6631C260.141 99.8852 259.97 100.06 259.736 100.188C259.503 100.317 259.216 100.381 258.874 100.381C258.468 100.381 258.14 100.289 257.89 100.105C257.641 99.9236 257.52 99.6492 257.528 99.2819ZM258.006 97.2382C258.006 97.6845 258.094 98.0102 258.272 98.2152C258.449 98.4202 258.671 98.5227 258.938 98.5227C259.203 98.5227 259.425 98.4213 259.604 98.2184C259.784 98.0134 259.873 97.693 259.873 97.2574C259.873 96.8409 259.78 96.527 259.595 96.3156C259.411 96.1042 259.189 95.9985 258.928 95.9985C258.672 95.9985 258.454 96.1031 258.275 96.3124C258.095 96.5195 258.006 96.8281 258.006 97.2382ZM261.286 99V94.3039H261.863V95.9888C262.132 95.677 262.471 95.5212 262.881 95.5212C263.133 95.5212 263.352 95.5713 263.538 95.6717C263.724 95.7699 263.856 95.9066 263.935 96.0817C264.016 96.2569 264.057 96.511 264.057 96.8441V99H263.48V96.8441C263.48 96.5558 263.417 96.3466 263.291 96.2163C263.167 96.0839 262.991 96.0177 262.763 96.0177C262.592 96.0177 262.431 96.0625 262.279 96.1522C262.13 96.2398 262.023 96.3594 261.959 96.511C261.895 96.6626 261.863 96.8719 261.863 97.1388V99H261.286Z" fill="#5B5B5B"/>
<path d="M251.525 134V129.304H252.147V131.232H254.588V129.304H255.209V134H254.588V131.786H252.147V134H251.525ZM256.177 129.967V129.304H256.753V129.967H256.177ZM256.177 134V130.598H256.753V134H256.177ZM257.528 134.282L258.089 134.365C258.113 134.538 258.178 134.664 258.284 134.743C258.428 134.85 258.623 134.903 258.871 134.903C259.138 134.903 259.344 134.85 259.489 134.743C259.634 134.636 259.732 134.487 259.784 134.295C259.814 134.177 259.827 133.931 259.825 133.555C259.573 133.852 259.259 134 258.883 134C258.416 134 258.054 133.831 257.798 133.494C257.541 133.156 257.413 132.752 257.413 132.28C257.413 131.955 257.472 131.656 257.589 131.383C257.707 131.107 257.877 130.895 258.099 130.745C258.323 130.596 258.586 130.521 258.887 130.521C259.288 130.521 259.619 130.683 259.88 131.008V130.598H260.411V133.539C260.411 134.068 260.357 134.443 260.248 134.663C260.141 134.885 259.97 135.06 259.736 135.188C259.503 135.317 259.216 135.381 258.874 135.381C258.468 135.381 258.14 135.289 257.89 135.105C257.641 134.924 257.52 134.649 257.528 134.282ZM258.006 132.238C258.006 132.684 258.094 133.01 258.272 133.215C258.449 133.42 258.671 133.523 258.938 133.523C259.203 133.523 259.425 133.421 259.604 133.218C259.784 133.013 259.873 132.693 259.873 132.257C259.873 131.841 259.78 131.527 259.595 131.316C259.411 131.104 259.189 130.998 258.928 130.998C258.672 130.998 258.454 131.103 258.275 131.312C258.095 131.52 258.006 131.828 258.006 132.238ZM261.286 134V129.304H261.863V130.989C262.132 130.677 262.471 130.521 262.881 130.521C263.133 130.521 263.352 130.571 263.538 130.672C263.724 130.77 263.856 130.907 263.935 131.082C264.016 131.257 264.057 131.511 264.057 131.844V134H263.48V131.844C263.48 131.556 263.417 131.347 263.291 131.216C263.167 131.084 262.991 131.018 262.763 131.018C262.592 131.018 262.431 131.063 262.279 131.152C262.13 131.24 262.023 131.359 261.959 131.511C261.895 131.663 261.863 131.872 261.863 132.139V134H261.286Z" fill="#5B5B5B"/>
<path d="M251.525 166V161.304H252.147V163.232H254.588V161.304H255.209V166H254.588V163.786H252.147V166H251.525ZM256.177 161.967V161.304H256.753V161.967H256.177ZM256.177 166V162.598H256.753V166H256.177ZM257.528 166.282L258.089 166.365C258.113 166.538 258.178 166.664 258.284 166.743C258.428 166.85 258.623 166.903 258.871 166.903C259.138 166.903 259.344 166.85 259.489 166.743C259.634 166.636 259.732 166.487 259.784 166.295C259.814 166.177 259.827 165.931 259.825 165.555C259.573 165.852 259.259 166 258.883 166C258.416 166 258.054 165.831 257.798 165.494C257.541 165.156 257.413 164.752 257.413 164.28C257.413 163.955 257.472 163.656 257.589 163.383C257.707 163.107 257.877 162.895 258.099 162.745C258.323 162.596 258.586 162.521 258.887 162.521C259.288 162.521 259.619 162.683 259.88 163.008V162.598H260.411V165.539C260.411 166.068 260.357 166.443 260.248 166.663C260.141 166.885 259.97 167.06 259.736 167.188C259.503 167.317 259.216 167.381 258.874 167.381C258.468 167.381 258.14 167.289 257.89 167.105C257.641 166.924 257.52 166.649 257.528 166.282ZM258.006 164.238C258.006 164.684 258.094 165.01 258.272 165.215C258.449 165.42 258.671 165.523 258.938 165.523C259.203 165.523 259.425 165.421 259.604 165.218C259.784 165.013 259.873 164.693 259.873 164.257C259.873 163.841 259.78 163.527 259.595 163.316C259.411 163.104 259.189 162.998 258.928 162.998C258.672 162.998 258.454 163.103 258.275 163.312C258.095 163.52 258.006 163.828 258.006 164.238ZM261.286 166V161.304H261.863V162.989C262.132 162.677 262.471 162.521 262.881 162.521C263.133 162.521 263.352 162.571 263.538 162.672C263.724 162.77 263.856 162.907 263.935 163.082C264.016 163.257 264.057 163.511 264.057 163.844V166H263.48V163.844C263.48 163.556 263.417 163.347 263.291 163.216C263.167 163.084 262.991 163.018 262.763 163.018C262.592 163.018 262.431 163.063 262.279 163.152C262.13 163.24 262.023 163.359 261.959 163.511C261.895 163.663 261.863 163.872 261.863 164.139V166H261.286Z" fill="#5B5B5B"/>
<path d="M251.525 203V198.304H252.147V200.232H254.588V198.304H255.209V203H254.588V200.786H252.147V203H251.525ZM256.177 198.967V198.304H256.753V198.967H256.177ZM256.177 203V199.598H256.753V203H256.177ZM257.528 203.282L258.089 203.365C258.113 203.538 258.178 203.664 258.284 203.743C258.428 203.85 258.623 203.903 258.871 203.903C259.138 203.903 259.344 203.85 259.489 203.743C259.634 203.636 259.732 203.487 259.784 203.295C259.814 203.177 259.827 202.931 259.825 202.555C259.573 202.852 259.259 203 258.883 203C258.416 203 258.054 202.831 257.798 202.494C257.541 202.156 257.413 201.752 257.413 201.28C257.413 200.955 257.472 200.656 257.589 200.383C257.707 200.107 257.877 199.895 258.099 199.745C258.323 199.596 258.586 199.521 258.887 199.521C259.288 199.521 259.619 199.683 259.88 200.008V199.598H260.411V202.539C260.411 203.068 260.357 203.443 260.248 203.663C260.141 203.885 259.97 204.06 259.736 204.188C259.503 204.317 259.216 204.381 258.874 204.381C258.468 204.381 258.14 204.289 257.89 204.105C257.641 203.924 257.52 203.649 257.528 203.282ZM258.006 201.238C258.006 201.684 258.094 202.01 258.272 202.215C258.449 202.42 258.671 202.523 258.938 202.523C259.203 202.523 259.425 202.421 259.604 202.218C259.784 202.013 259.873 201.693 259.873 201.257C259.873 200.841 259.78 200.527 259.595 200.316C259.411 200.104 259.189 199.998 258.928 199.998C258.672 199.998 258.454 200.103 258.275 200.312C258.095 200.52 258.006 200.828 258.006 201.238ZM261.286 203V198.304H261.863V199.989C262.132 199.677 262.471 199.521 262.881 199.521C263.133 199.521 263.352 199.571 263.538 199.672C263.724 199.77 263.856 199.907 263.935 200.082C264.016 200.257 264.057 200.511 264.057 200.844V203H263.48V200.844C263.48 200.556 263.417 200.347 263.291 200.216C263.167 200.084 262.991 200.018 262.763 200.018C262.592 200.018 262.431 200.063 262.279 200.152C262.13 200.24 262.023 200.359 261.959 200.511C261.895 200.663 261.863 200.872 261.863 201.139V203H261.286Z" fill="#5B5B5B"/>
<path d="M251.525 237V232.304H252.147V234.232H254.588V232.304H255.209V237H254.588V234.786H252.147V237H251.525ZM256.177 232.967V232.304H256.753V232.967H256.177ZM256.177 237V233.598H256.753V237H256.177ZM257.528 237.282L258.089 237.365C258.113 237.538 258.178 237.664 258.284 237.743C258.428 237.85 258.623 237.903 258.871 237.903C259.138 237.903 259.344 237.85 259.489 237.743C259.634 237.636 259.732 237.487 259.784 237.295C259.814 237.177 259.827 236.931 259.825 236.555C259.573 236.852 259.259 237 258.883 237C258.416 237 258.054 236.831 257.798 236.494C257.541 236.156 257.413 235.752 257.413 235.28C257.413 234.955 257.472 234.656 257.589 234.383C257.707 234.107 257.877 233.895 258.099 233.745C258.323 233.596 258.586 233.521 258.887 233.521C259.288 233.521 259.619 233.683 259.88 234.008V233.598H260.411V236.539C260.411 237.068 260.357 237.443 260.248 237.663C260.141 237.885 259.97 238.06 259.736 238.188C259.503 238.317 259.216 238.381 258.874 238.381C258.468 238.381 258.14 238.289 257.89 238.105C257.641 237.924 257.52 237.649 257.528 237.282ZM258.006 235.238C258.006 235.684 258.094 236.01 258.272 236.215C258.449 236.42 258.671 236.523 258.938 236.523C259.203 236.523 259.425 236.421 259.604 236.218C259.784 236.013 259.873 235.693 259.873 235.257C259.873 234.841 259.78 234.527 259.595 234.316C259.411 234.104 259.189 233.998 258.928 233.998C258.672 233.998 258.454 234.103 258.275 234.312C258.095 234.52 258.006 234.828 258.006 235.238ZM261.286 237V232.304H261.863V233.989C262.132 233.677 262.471 233.521 262.881 233.521C263.133 233.521 263.352 233.571 263.538 233.672C263.724 233.77 263.856 233.907 263.935 234.082C264.016 234.257 264.057 234.511 264.057 234.844V237H263.48V234.844C263.48 234.556 263.417 234.347 263.291 234.216C263.167 234.084 262.991 234.018 262.763 234.018C262.592 234.018 262.431 234.063 262.279 234.152C262.13 234.24 262.023 234.359 261.959 234.511C261.895 234.663 261.863 234.872 261.863 235.139V237H261.286Z" fill="#5B5B5B"/>
<path d="M41.7471 25.4609V24.0326C41.7471 22.6211 41.7471 21.9153 41.4724 21.3762C41.2308 20.9019 40.8453 20.5163 40.371 20.2747C39.8318 20 39.1261 20 37.7145 20H30.6574C29.2458 20 28.5401 20 28.0009 20.2747C27.5267 20.5163 27.1411 20.9019 26.8995 21.3762C26.6248 21.9153 26.6248 22.6211 26.6248 24.0326V31.0897C26.6248 32.5013 26.6248 33.207 26.8995 33.7462C27.1411 34.2205 27.5267 34.606 28.0009 34.8477C28.5401 35.1224 29.2458 35.1224 30.6574 35.1224H32.0856M38.7111 32.3594L37.2843 35.0092C37.051 35.4423 36.9344 35.6589 36.7923 35.7154C36.669 35.7645 36.5296 35.7523 36.4166 35.6826C36.2864 35.6023 36.2091 35.3688 36.0545 34.9018L33.7662 27.9907C33.6308 27.5818 33.5631 27.3774 33.6118 27.2412C33.6541 27.1226 33.7474 27.0294 33.8659 26.987C34.0021 26.9383 34.2065 27.006 34.6155 27.1415L41.5265 29.4297C41.9935 29.5844 42.227 29.6617 42.3073 29.7918C42.3771 29.9049 42.3892 30.0442 42.3401 30.1676C42.2836 30.3097 42.0671 30.4263 41.6339 30.6595L38.9842 32.0863C38.9182 32.1218 38.8852 32.1397 38.8563 32.1624C38.8307 32.1828 38.8075 32.2059 38.7872 32.2316C38.7644 32.2605 38.7466 32.2935 38.7111 32.3594Z" stroke="black" stroke-width="0.984072" stroke-linecap="round" stroke-linejoin="round"/>
</g>
<defs>
<filter id="filter0_d_306_572" x="168.344" y="52.344" width="108.312" height="17.3121" filterUnits="userSpaceOnUse" color-interpolation-filters="sRGB">
<feFlood flood-opacity="0" result="BackgroundImageFix"/>
<feColorMatrix in="SourceAlpha" type="matrix" values="0 0 0 0 0 0 0 0 0 0 0 0 0 0 0 0 0 0 127 0" result="hardAlpha"/>
<feOffset/>
<feGaussianBlur stdDeviation="0.328024"/>
<feComposite in2="hardAlpha" operator="out"/>
<feColorMatrix type="matrix" values="0 0 0 0 0.564706 0 0 0 0 0.564706 0 0 0 0 0.564706 0 0 0 0.25 0"/>
<feBlend mode="normal" in2="BackgroundImageFix" result="effect1_dropShadow_306_572"/>
<feBlend mode="normal" in="SourceGraphic" in2="effect1_dropShadow_306_572" result="shape"/>
</filter>
<filter id="filter1_d_306_572" x="168.344" y="88.344" width="108.312" height="17.3121" filterUnits="userSpaceOnUse" color-interpolation-filters="sRGB">
<feFlood flood-opacity="0" result="BackgroundImageFix"/>
<feColorMatrix in="SourceAlpha" type="matrix" values="0 0 0 0 0 0 0 0 0 0 0 0 0 0 0 0 0 0 127 0" result="hardAlpha"/>
<feOffset/>
<feGaussianBlur stdDeviation="0.328024"/>
<feComposite in2="hardAlpha" operator="out"/>
<feColorMatrix type="matrix" values="0 0 0 0 0.564706 0 0 0 0 0.564706 0 0 0 0 0.564706 0 0 0 0.25 0"/>
<feBlend mode="normal" in2="BackgroundImageFix" result="effect1_dropShadow_306_572"/>
<feBlend mode="normal" in="SourceGraphic" in2="effect1_dropShadow_306_572" result="shape"/>
</filter>
<filter id="filter2_d_306_572" x="168.344" y="122.344" width="108.312" height="18.3121" filterUnits="userSpaceOnUse" color-interpolation-filters="sRGB">
<feFlood flood-opacity="0" result="BackgroundImageFix"/>
<feColorMatrix in="SourceAlpha" type="matrix" values="0 0 0 0 0 0 0 0 0 0 0 0 0 0 0 0 0 0 127 0" result="hardAlpha"/>
<feOffset/>
<feGaussianBlur stdDeviation="0.328024"/>
<feComposite in2="hardAlpha" operator="out"/>
<feColorMatrix type="matrix" values="0 0 0 0 0.564706 0 0 0 0 0.564706 0 0 0 0 0.564706 0 0 0 0.25 0"/>
<feBlend mode="normal" in2="BackgroundImageFix" result="effect1_dropShadow_306_572"/>
<feBlend mode="normal" in="SourceGraphic" in2="effect1_dropShadow_306_572" result="shape"/>
</filter>
<filter id="filter3_d_306_572" x="168.344" y="154.344" width="108.312" height="18.3121" filterUnits="userSpaceOnUse" color-interpolation-filters="sRGB">
<feFlood flood-opacity="0" result="BackgroundImageFix"/>
<feColorMatrix in="SourceAlpha" type="matrix" values="0 0 0 0 0 0 0 0 0 0 0 0 0 0 0 0 0 0 127 0" result="hardAlpha"/>
<feOffset/>
<feGaussianBlur stdDeviation="0.328024"/>
<feComposite in2="hardAlpha" operator="out"/>
<feColorMatrix type="matrix" values="0 0 0 0 0.564706 0 0 0 0 0.564706 0 0 0 0 0.564706 0 0 0 0.25 0"/>
<feBlend mode="normal" in2="BackgroundImageFix" result="effect1_dropShadow_306_572"/>
<feBlend mode="normal" in="SourceGraphic" in2="effect1_dropShadow_306_572" result="shape"/>
</filter>
<filter id="filter4_d_306_572" x="168.344" y="191.344" width="108.312" height="18.3121" filterUnits="userSpaceOnUse" color-interpolation-filters="sRGB">
<feFlood flood-opacity="0" result="BackgroundImageFix"/>
<feColorMatrix in="SourceAlpha" type="matrix" values="0 0 0 0 0 0 0 0 0 0 0 0 0 0 0 0 0 0 127 0" result="hardAlpha"/>
<feOffset/>
<feGaussianBlur stdDeviation="0.328024"/>
<feComposite in2="hardAlpha" operator="out"/>
<feColorMatrix type="matrix" values="0 0 0 0 0.564706 0 0 0 0 0.564706 0 0 0 0 0.564706 0 0 0 0.25 0"/>
<feBlend mode="normal" in2="BackgroundImageFix" result="effect1_dropShadow_306_572"/>
<feBlend mode="normal" in="SourceGraphic" in2="effect1_dropShadow_306_572" result="shape"/>
</filter>
<filter id="filter5_d_306_572" x="168.344" y="225.344" width="108.312" height="18.3121" filterUnits="userSpaceOnUse" color-interpolation-filters="sRGB">
<feFlood flood-opacity="0" result="BackgroundImageFix"/>
<feColorMatrix in="SourceAlpha" type="matrix" values="0 0 0 0 0 0 0 0 0 0 0 0 0 0 0 0 0 0 127 0" result="hardAlpha"/>
<feOffset/>
<feGaussianBlur stdDeviation="0.328024"/>
<feComposite in2="hardAlpha" operator="out"/>
<feColorMatrix type="matrix" values="0 0 0 0 0.564706 0 0 0 0 0.564706 0 0 0 0 0.564706 0 0 0 0.25 0"/>
<feBlend mode="normal" in2="BackgroundImageFix" result="effect1_dropShadow_306_572"/>
<feBlend mode="normal" in="SourceGraphic" in2="effect1_dropShadow_306_572" result="shape"/>
</filter>
<filter id="filter6_d_306_572" x="205.688" y="52.6879" width="35.6242" height="16.6242" filterUnits="userSpaceOnUse" color-interpolation-filters="sRGB">
<feFlood flood-opacity="0" result="BackgroundImageFix"/>
<feColorMatrix in="SourceAlpha" type="matrix" values="0 0 0 0 0 0 0 0 0 0 0 0 0 0 0 0 0 0 127 0" result="hardAlpha"/>
<feOffset/>
<feGaussianBlur stdDeviation="0.656048"/>
<feComposite in2="hardAlpha" operator="out"/>
<feColorMatrix type="matrix" values="0 0 0 0 0 0 0 0 0 0 0 0 0 0 0 0 0 0 0.25 0"/>
<feBlend mode="normal" in2="BackgroundImageFix" result="effect1_dropShadow_306_572"/>
<feBlend mode="normal" in="SourceGraphic" in2="effect1_dropShadow_306_572" result="shape"/>
</filter>
<filter id="filter7_d_306_572" x="205.688" y="88.6879" width="35.6242" height="16.6242" filterUnits="userSpaceOnUse" color-interpolation-filters="sRGB">
<feFlood flood-opacity="0" result="BackgroundImageFix"/>
<feColorMatrix in="SourceAlpha" type="matrix" values="0 0 0 0 0 0 0 0 0 0 0 0 0 0 0 0 0 0 127 0" result="hardAlpha"/>
<feOffset/>
<feGaussianBlur stdDeviation="0.656048"/>
<feComposite in2="hardAlpha" operator="out"/>
<feColorMatrix type="matrix" values="0 0 0 0 0 0 0 0 0 0 0 0 0 0 0 0 0 0 0.25 0"/>
<feBlend mode="normal" in2="BackgroundImageFix" result="effect1_dropShadow_306_572"/>
<feBlend mode="normal" in="SourceGraphic" in2="effect1_dropShadow_306_572" result="shape"/>
</filter>
<filter id="filter8_d_306_572" x="205.688" y="123.688" width="35.6242" height="15.6242" filterUnits="userSpaceOnUse" color-interpolation-filters="sRGB">
<feFlood flood-opacity="0" result="BackgroundImageFix"/>
<feColorMatrix in="SourceAlpha" type="matrix" values="0 0 0 0 0 0 0 0 0 0 0 0 0 0 0 0 0 0 127 0" result="hardAlpha"/>
<feOffset/>
<feGaussianBlur stdDeviation="0.656048"/>
<feComposite in2="hardAlpha" operator="out"/>
<feColorMatrix type="matrix" values="0 0 0 0 0 0 0 0 0 0 0 0 0 0 0 0 0 0 0.25 0"/>
<feBlend mode="normal" in2="BackgroundImageFix" result="effect1_dropShadow_306_572"/>
<feBlend mode="normal" in="SourceGraphic" in2="effect1_dropShadow_306_572" result="shape"/>
</filter>
<filter id="filter9_d_306_572" x="205.688" y="155.688" width="35.6242" height="16.6242" filterUnits="userSpaceOnUse" color-interpolation-filters="sRGB">
<feFlood flood-opacity="0" result="BackgroundImageFix"/>
<feColorMatrix in="SourceAlpha" type="matrix" values="0 0 0 0 0 0 0 0 0 0 0 0 0 0 0 0 0 0 127 0" result="hardAlpha"/>
<feOffset/>
<feGaussianBlur stdDeviation="0.656048"/>
<feComposite in2="hardAlpha" operator="out"/>
<feColorMatrix type="matrix" values="0 0 0 0 0 0 0 0 0 0 0 0 0 0 0 0 0 0 0.25 0"/>
<feBlend mode="normal" in2="BackgroundImageFix" result="effect1_dropShadow_306_572"/>
<feBlend mode="normal" in="SourceGraphic" in2="effect1_dropShadow_306_572" result="shape"/>
</filter>
<filter id="filter10_d_306_572" x="205.688" y="191.688" width="35.6242" height="16.6242" filterUnits="userSpaceOnUse" color-interpolation-filters="sRGB">
<feFlood flood-opacity="0" result="BackgroundImageFix"/>
<feColorMatrix in="SourceAlpha" type="matrix" values="0 0 0 0 0 0 0 0 0 0 0 0 0 0 0 0 0 0 127 0" result="hardAlpha"/>
<feOffset/>
<feGaussianBlur stdDeviation="0.656048"/>
<feComposite in2="hardAlpha" operator="out"/>
<feColorMatrix type="matrix" values="0 0 0 0 0 0 0 0 0 0 0 0 0 0 0 0 0 0 0.25 0"/>
<feBlend mode="normal" in2="BackgroundImageFix" result="effect1_dropShadow_306_572"/>
<feBlend mode="normal" in="SourceGraphic" in2="effect1_dropShadow_306_572" result="shape"/>
</filter>
<filter id="filter11_d_306_572" x="205.688" y="226.688" width="35.6242" height="15.6242" filterUnits="userSpaceOnUse" color-interpolation-filters="sRGB">
<feFlood flood-opacity="0" result="BackgroundImageFix"/>
<feColorMatrix in="SourceAlpha" type="matrix" values="0 0 0 0 0 0 0 0 0 0 0 0 0 0 0 0 0 0 127 0" result="hardAlpha"/>
<feOffset/>
<feGaussianBlur stdDeviation="0.656048"/>
<feComposite in2="hardAlpha" operator="out"/>
<feColorMatrix type="matrix" values="0 0 0 0 0 0 0 0 0 0 0 0 0 0 0 0 0 0 0.25 0"/>
<feBlend mode="normal" in2="BackgroundImageFix" result="effect1_dropShadow_306_572"/>
<feBlend mode="normal" in="SourceGraphic" in2="effect1_dropShadow_306_572" result="shape"/>
</filter>
<clipPath id="clip0_306_572">
<rect width="300" height="250" fill="white"/>
</clipPath>
</defs>
</svg>
