<svg width="100" height="100" viewBox="0 0 100 100" fill="none" xmlns="http://www.w3.org/2000/svg">
<g clip-path="url(#clip0_228_104)">
<circle cx="50.181" cy="50.181" r="49.2496" fill="white" stroke="#B8B8B8" stroke-width="1.13872"/>
<path d="M65.6352 23.1366H34.7271C28.3258 23.1366 23.1366 28.3258 23.1366 34.7271V65.6352C23.1366 72.0365 28.3258 77.2257 34.7271 77.2257H65.6352C72.0365 77.2257 77.2257 72.0365 77.2257 65.6352V34.7271C77.2257 28.3258 72.0365 23.1366 65.6352 23.1366Z" fill="url(#paint0_radial_228_104)"/>
<path d="M65.6352 23.1366H34.7271C28.3258 23.1366 23.1366 28.3258 23.1366 34.7271V65.6352C23.1366 72.0365 28.3258 77.2257 34.7271 77.2257H65.6352C72.0365 77.2257 77.2257 72.0365 77.2257 65.6352V34.7271C77.2257 28.3258 72.0365 23.1366 65.6352 23.1366Z" fill="url(#paint1_radial_228_104)"/>
<path d="M65.6352 23.1366H34.7271C28.3258 23.1366 23.1366 28.3258 23.1366 34.7271V65.6352C23.1366 72.0365 28.3258 77.2257 34.7271 77.2257H65.6352C72.0365 77.2257 77.2257 72.0365 77.2257 65.6352V34.7271C77.2257 28.3258 72.0365 23.1366 65.6352 23.1366Z" fill="url(#paint2_radial_228_104)"/>
<path fill-rule="evenodd" clip-rule="evenodd" d="M50.181 59.84C55.5153 59.84 59.8398 55.5156 59.8398 50.1812C59.8398 44.8469 55.5153 40.5224 50.181 40.5224C44.8466 40.5224 40.5222 44.8469 40.5222 50.1812C40.5222 55.5156 44.8466 59.84 50.181 59.84ZM50.181 55.9765C53.3817 55.9765 55.9763 53.3819 55.9763 50.1812C55.9763 46.9805 53.3817 44.3859 50.181 44.3859C46.9803 44.3859 44.3857 46.9805 44.3857 50.1812C44.3857 53.3819 46.9803 55.9765 50.181 55.9765Z" fill="white"/>
<path fill-rule="evenodd" clip-rule="evenodd" d="M30.8639 49.4085C30.8639 42.9172 30.8639 39.6715 32.1271 37.1922C33.2384 35.0113 35.0115 33.2381 37.1924 32.1269C39.6717 30.8636 42.9174 30.8636 49.4087 30.8636H50.9541C57.4454 30.8636 60.6911 30.8636 63.1703 32.1269C65.3513 33.2381 67.1245 35.0113 68.2356 37.1922C69.499 39.6715 69.499 42.9172 69.499 49.4085V50.9539C69.499 57.4452 69.499 60.6909 68.2356 63.1701C67.1245 65.3511 65.3513 67.1242 63.1703 68.2354C60.6911 69.4988 57.4454 69.4988 50.9541 69.4988H49.4087C42.9174 69.4988 39.6717 69.4988 37.1924 68.2354C35.0115 67.1242 33.2384 65.3511 32.1271 63.1701C30.8639 60.6909 30.8639 57.4452 30.8639 50.9539V49.4085ZM49.4087 34.7271H50.9541C54.2636 34.7271 56.5131 34.7302 58.2521 34.8722C59.9461 35.0106 60.8123 35.2614 61.4165 35.5693C62.8703 36.3102 64.0524 37.4922 64.7932 38.9461C65.1011 39.5504 65.3521 40.4166 65.4904 42.1105C65.6324 43.8495 65.6355 46.099 65.6355 49.4085V50.9539C65.6355 54.2634 65.6324 56.5129 65.4904 58.2519C65.3521 59.9458 65.1011 60.812 64.7932 61.4163C64.0524 62.8701 62.8703 64.0522 61.4165 64.793C60.8123 65.1009 59.9461 65.3519 58.2521 65.4902C56.5131 65.6321 54.2636 65.6352 50.9541 65.6352H49.4087C46.0992 65.6352 43.8497 65.6321 42.1107 65.4902C40.4168 65.3519 39.5506 65.1009 38.9463 64.793C37.4925 64.0522 36.3104 62.8701 35.5696 61.4163C35.2617 60.812 35.0108 59.9458 34.8724 58.2519C34.7304 56.5129 34.7274 54.2634 34.7274 50.9539V49.4085C34.7274 46.099 34.7304 43.8495 34.8724 42.1105C35.0108 40.4166 35.2617 39.5504 35.5696 38.9461C36.3104 37.4922 37.4925 36.3102 38.9463 35.5693C39.5506 35.2614 40.4168 35.0106 42.1107 34.8722C43.8497 34.7302 46.0992 34.7271 49.4087 34.7271Z" fill="white"/>
</g>
<defs>
<radialGradient id="paint0_radial_228_104" cx="0" cy="0" r="1" gradientUnits="userSpaceOnUse" gradientTransform="translate(42.4541 63.7034) rotate(-55.3758) scale(49.2976)">
<stop stop-color="#B13589"/>
<stop offset="0.79309" stop-color="#C62F94"/>
<stop offset="1" stop-color="#8A3AC8"/>
</radialGradient>
<radialGradient id="paint1_radial_228_104" cx="0" cy="0" r="1" gradientUnits="userSpaceOnUse" gradientTransform="translate(40.5224 79.1575) rotate(-65.1363) scale(43.6465)">
<stop stop-color="#E0E8B7"/>
<stop offset="0.444662" stop-color="#FB8A2E"/>
<stop offset="0.71474" stop-color="#E2425C"/>
<stop offset="1" stop-color="#E2425C" stop-opacity="0"/>
</radialGradient>
<radialGradient id="paint2_radial_228_104" cx="0" cy="0" r="1" gradientUnits="userSpaceOnUse" gradientTransform="translate(20.2389 25.0683) rotate(-8.1301) scale(75.1277 16.069)">
<stop offset="0.156701" stop-color="#406ADC"/>
<stop offset="0.467799" stop-color="#6A45BE"/>
<stop offset="1" stop-color="#6A45BE" stop-opacity="0"/>
</radialGradient>
<clipPath id="clip0_228_104">
<rect width="100" height="100" fill="white"/>
</clipPath>
</defs>
</svg>
