<svg width="100" height="100" viewBox="0 0 100 100" fill="none" xmlns="http://www.w3.org/2000/svg">
<g clip-path="url(#clip0_228_109)">
<g filter="url(#filter0_d_228_109)">
<circle cx="50.181" cy="50.181" r="43.819" fill="white"/>
<circle cx="50.181" cy="50.181" r="44.3198" stroke="#B8B8B8" stroke-width="1.00158"/>
</g>
<path fill-rule="evenodd" clip-rule="evenodd" d="M27.109 49.6216C27.109 37.1882 37.1883 27.109 49.6216 27.109C62.055 27.109 72.1343 37.1882 72.1343 49.6216C72.1343 62.055 62.055 72.1343 49.6216 72.1343C46.8979 72.1343 44.2871 71.6506 41.8705 70.7644C43.3928 66.6674 44.8847 62.559 46.3155 58.4294C47.8365 59.5134 49.7986 60.2158 52.2702 60.2158C57.3951 60.2158 62.7979 56.8381 64.1373 50.141C65.8188 41.7329 59.0844 33.7303 49.6216 33.7303C45.6414 33.7303 41.726 35.3293 38.797 37.8685C35.862 40.4129 33.7304 44.0779 33.7304 48.2973C33.7304 50.3489 34.35 52.6351 35.8267 54.1392C36.8479 55.1621 38.553 55.1658 39.576 54.143C40.5906 53.1283 40.6099 51.4952 39.634 50.4572C37.5526 47.8598 40.2948 43.5805 42.2668 41.8709C44.3136 40.0966 47.0194 39.0274 49.6216 39.0274C56.0502 39.0274 59.9099 44.2676 58.9429 49.1022C58.1407 53.1132 55.0909 54.9187 52.2702 54.9187C50.1039 54.9187 48.9373 54.0042 48.1912 52.8211C48.5985 51.5384 48.9473 50.3733 49.1944 49.4264C49.704 47.4726 50.0118 45.1196 48.2547 43.6555C46.9487 42.5671 45.407 42.8085 44.4644 43.2799C42.7125 44.1558 41.676 46.2047 41.676 48.2973C41.676 49.4664 41.858 51.2778 42.5149 53.1482C40.8238 58.2506 38.9898 63.3067 37.1185 68.3458C31.083 64.3075 27.109 57.4287 27.109 49.6216ZM49.6216 21.8119C34.2628 21.8119 21.8119 34.2627 21.8119 49.6216C21.8119 64.9805 34.2628 77.4314 49.6216 77.4314C64.9806 77.4314 77.4314 64.9805 77.4314 49.6216C77.4314 34.2627 64.9806 21.8119 49.6216 21.8119Z" fill="#CE1312"/>
</g>
<defs>
<filter id="filter0_d_228_109" x="-9.66317" y="-4.65529" width="109.673" height="109.673" filterUnits="userSpaceOnUse" color-interpolation-filters="sRGB">
<feFlood flood-opacity="0" result="BackgroundImageFix"/>
<feColorMatrix in="SourceAlpha" type="matrix" values="0 0 0 0 0 0 0 0 0 0 0 0 0 0 0 0 0 0 127 0" result="hardAlpha"/>
<feOffset dx="-5.00788"/>
<feGaussianBlur stdDeviation="5.00788"/>
<feComposite in2="hardAlpha" operator="out"/>
<feColorMatrix type="matrix" values="0 0 0 0 0 0 0 0 0 0 0 0 0 0 0 0 0 0 0.25 0"/>
<feBlend mode="normal" in2="BackgroundImageFix" result="effect1_dropShadow_228_109"/>
<feBlend mode="normal" in="SourceGraphic" in2="effect1_dropShadow_228_109" result="shape"/>
</filter>
<clipPath id="clip0_228_109">
<rect width="100" height="100" fill="white"/>
</clipPath>
</defs>
</svg>
