<svg width="100" height="100" viewBox="0 0 100 100" fill="none" xmlns="http://www.w3.org/2000/svg">
<circle cx="50.181" cy="50.181" r="41.2855" fill="#FC471E" stroke="#B8B8B8" stroke-width="0.933005"/>
<path d="M51.0992 12.2405C29.6662 12.2405 12.2405 29.6662 12.2405 51.0992C12.2405 72.5322 29.6662 89.9578 51.0992 89.9578C72.5322 89.9578 89.9578 72.5322 89.9578 51.0992C89.9578 29.6662 72.5322 12.2405 51.0992 12.2405Z" fill="#FC471E"/>
<path fill-rule="evenodd" clip-rule="evenodd" d="M62.0257 31.8057C61.9911 32.0233 61.9732 32.2466 61.9732 32.4741C61.9732 34.7715 63.7989 36.6341 66.0509 36.6341C68.303 36.6341 70.1287 34.7715 70.1287 32.4741C70.1287 30.1766 68.303 28.3141 66.0509 28.3141C65.0475 28.3141 64.1287 28.6839 63.4181 29.2972L52.8287 26.6326L49.0013 42.2508C43.9098 42.5927 39.3307 44.1656 35.8763 46.5404C34.8955 45.5592 33.5518 44.954 32.0696 44.954C29.0668 44.954 26.6326 47.4374 26.6326 50.5006C26.6326 52.6327 27.8115 54.4835 29.5405 55.4119C29.4156 56.0735 29.3511 56.7486 29.3511 57.434C29.3511 65.8582 39.088 72.6873 51.0992 72.6873C63.1103 72.6873 72.8472 65.8582 72.8472 57.434C72.8472 56.7486 72.7828 56.0735 72.6577 55.4119C74.3867 54.4835 75.5657 52.6327 75.5657 50.5006C75.5657 47.4374 73.1316 44.954 70.1287 44.954C68.6466 44.954 67.3028 45.5592 66.322 46.5404C62.5585 43.9532 57.4602 42.3175 51.8187 42.1891L54.8067 29.9958L62.0257 31.8057ZM41.5844 58.8208C43.8364 58.8208 45.6621 56.9583 45.6621 54.6607C45.6621 52.3631 43.8364 50.5006 41.5844 50.5006C39.3324 50.5006 37.5066 52.3631 37.5066 54.6607C37.5066 56.9583 39.3324 58.8208 41.5844 58.8208ZM60.6139 58.8208C62.8659 58.8208 64.6917 56.9583 64.6917 54.6607C64.6917 52.3631 62.8659 50.5006 60.6139 50.5006C58.3619 50.5006 56.5362 52.3631 56.5362 54.6607C56.5362 56.9583 58.3619 58.8208 60.6139 58.8208ZM42.3382 63.2136C41.7138 62.7888 40.87 62.9608 40.4535 63.598C40.037 64.2355 40.2058 65.0964 40.8303 65.5212C43.7883 67.5327 47.4438 68.5386 51.0992 68.5386C54.7545 68.5386 58.41 67.5327 61.3678 65.5212C61.9925 65.0964 62.1613 64.2355 61.7448 63.598C61.3284 62.9608 60.4845 62.7888 59.8598 63.2136C57.3585 64.9146 54.229 65.7653 51.0992 65.7653C49.2432 65.7653 47.387 65.4662 45.6621 64.868C44.4785 64.4573 43.3563 63.9058 42.3382 63.2136Z" fill="white"/>
</svg>
