<svg width="100" height="100" viewBox="0 0 100 100" fill="none" xmlns="http://www.w3.org/2000/svg">
<path d="M87.4998 18.3126V31.2501C87.4998 32.2447 87.1047 33.1985 86.4014 33.9018C85.6981 34.605 84.7443 35.0001 83.7498 35.0001H70.6248C70.0812 35.0063 69.5428 34.8942 69.0468 34.6716C68.5509 34.449 68.1092 34.1212 67.7525 33.711C67.3958 33.3008 67.1326 32.8179 66.981 32.2959C66.8294 31.7738 66.7932 31.2251 66.8748 30.6876C67.0511 29.7779 67.5426 28.9596 68.2628 28.3765C68.983 27.7935 69.8858 27.4832 70.8123 27.5001H75.1248C70.7569 22.6359 65.0704 19.145 58.7562 17.4515C52.4419 15.7579 45.7717 15.9347 39.5559 17.9602C33.3402 19.9858 27.8466 23.773 23.7425 28.8617C19.6384 33.9503 17.1005 40.1214 16.4373 46.6251C16.344 47.5533 15.9081 48.4134 15.2147 49.0375C14.5213 49.6616 13.6201 50.0048 12.6873 50.0001C12.1616 50.0027 11.6412 49.8948 11.16 49.6834C10.6787 49.4719 10.2473 49.1616 9.89368 48.7727C9.54008 48.3837 9.2722 47.9248 9.10743 47.4256C8.94266 46.9264 8.88469 46.3981 8.93726 45.8751C9.72483 38.0022 12.76 30.5219 17.6809 24.3261C22.6018 18.1304 29.2008 13.4805 36.691 10.9311C44.1812 8.38167 52.2466 8.04019 59.9255 9.94738C67.6044 11.8546 74.5728 15.93 79.9998 21.6876V18.1251C79.9936 17.5815 80.1057 17.0431 80.3283 16.5472C80.5509 16.0512 80.8786 15.6096 81.2888 15.2529C81.6991 14.8962 82.1819 14.6329 82.704 14.4813C83.226 14.3298 83.7748 14.2935 84.3123 14.3751C85.2219 14.5515 86.0403 15.043 86.6233 15.7632C87.2063 16.4834 87.5167 17.3861 87.4998 18.3126Z" fill="black"/>
<path d="M12.5 81.6875V68.75C12.5 67.7555 12.8951 66.8017 13.5984 66.0984C14.3017 65.3951 15.2555 65 16.25 65H29.375C29.9186 64.9939 30.457 65.106 30.953 65.3286C31.4489 65.5512 31.8906 65.8789 32.2473 66.2891C32.604 66.6993 32.8672 67.1822 33.0188 67.7043C33.1704 68.2263 33.2066 68.7751 33.125 69.3125C32.9487 70.2222 32.4572 71.0406 31.737 71.6236C31.0168 72.2066 30.114 72.517 29.1875 72.5H24.875C29.2429 77.3642 34.9294 80.8552 41.2437 82.5487C47.5579 84.2422 54.2281 84.0655 60.4439 82.0399C66.6596 80.0144 72.1532 76.2272 76.2573 71.1385C80.3614 66.0498 82.8993 59.8787 83.5626 53.375C83.6558 52.4468 84.0917 51.5867 84.7851 50.9626C85.4785 50.3386 86.3797 49.9954 87.3126 50C87.8382 49.9974 88.3586 50.1053 88.8398 50.3168C89.3211 50.5282 89.7525 50.8385 90.1061 51.2275C90.4597 51.6164 90.7276 52.0754 90.8924 52.5746C91.0571 53.0738 91.1151 53.602 91.0626 54.125C90.275 61.9979 87.2398 69.4782 82.3189 75.674C77.398 81.8698 70.799 86.5196 63.3088 89.0691C55.8186 91.6185 47.7532 91.96 40.0743 90.0528C32.3954 88.1456 25.427 84.0702 20 78.3125V81.875C20.0062 82.4186 19.8941 82.957 19.6715 83.453C19.4489 83.9489 19.1212 84.3906 18.711 84.7473C18.3007 85.104 17.8179 85.3672 17.2958 85.5188C16.7738 85.6704 16.225 85.7066 15.6875 85.625C14.7779 85.4487 13.9595 84.9572 13.3765 84.237C12.7935 83.5168 12.4831 82.614 12.5 81.6875Z" fill="black"/>
<path d="M51.3127 46.25C44.7502 44.9375 44.7502 43.8125 44.7502 42.875C44.7502 41.9375 45.1252 41.75 45.6877 41.1875C46.7221 40.6314 47.8901 40.3718 49.0627 40.4375C51.2413 40.4186 53.3828 41.0026 55.2502 42.125C55.6297 42.4347 56.0722 42.6581 56.5468 42.7797C57.0214 42.9012 57.5168 42.9179 57.9985 42.8287C58.4803 42.7395 58.9368 42.5465 59.3364 42.2631C59.7361 41.9797 60.0692 41.6126 60.3127 41.1875C60.6341 40.8041 60.8711 40.3573 61.0083 39.8762C61.1456 39.395 61.1799 38.8904 61.1092 38.3951C61.0384 37.8999 60.8641 37.4251 60.5977 37.0016C60.3312 36.5782 59.9786 36.2156 59.5627 35.9375C57.7797 34.837 55.8094 34.0743 53.7502 33.6875V29.375C53.7502 28.3804 53.3551 27.4266 52.6518 26.7234C51.9486 26.0201 50.9947 25.625 50.0002 25.625C49.0056 25.625 48.0518 26.0201 47.3485 26.7234C46.6453 27.4266 46.2502 28.3804 46.2502 29.375V33.5C40.6252 34.4375 36.8752 38.1875 36.8752 43.25C36.8752 48.3125 43.0627 52.4375 49.0627 53.5625C55.0627 54.6875 55.2502 56 55.2502 56.9375C55.2502 57.875 53.1877 59.5625 50.5627 59.5625C47.8019 59.617 45.1001 58.7603 42.8752 57.125C42.4585 56.848 41.9906 56.6571 41.4991 56.5636C41.0076 56.4702 40.5023 56.4761 40.013 56.5809C39.5238 56.6858 39.0605 56.8874 38.6504 57.1741C38.2403 57.4607 37.8917 57.8266 37.6252 58.25C37.3295 58.6017 37.1088 59.01 36.9765 59.45C36.8442 59.89 36.8031 60.3523 36.8557 60.8087C36.9084 61.2651 37.0537 61.706 37.2827 62.1043C37.5118 62.5026 37.8197 62.8499 38.1877 63.125C40.6003 64.8182 43.3507 65.9696 46.2502 66.5V70.625C46.2502 71.6196 46.6453 72.5734 47.3485 73.2767C48.0518 73.9799 49.0056 74.375 50.0002 74.375C50.9947 74.375 51.9486 73.9799 52.6518 73.2767C53.3551 72.5734 53.7502 71.6196 53.7502 70.625V66.5C55.807 66.1967 57.7473 65.3559 59.3752 64.0625C60.5505 63.1996 61.5036 62.0694 62.1557 60.7653C62.8078 59.4611 63.1401 58.0205 63.1252 56.5625C63.1252 49.625 56.7502 47.375 51.3127 46.25Z" fill="black"/>
</svg>
