<svg width="100" height="100" viewBox="0 0 100 100" fill="none" xmlns="http://www.w3.org/2000/svg">
<path d="M2.83333 32.2768C2.83333 31.0981 3.2803 29.9676 4.07591 29.1341C4.87152 28.3006 5.9506 27.8324 7.07576 27.8324H39.2588L29.5309 17.6413C29.1257 17.2313 28.8025 16.7409 28.5802 16.1986C28.3578 15.6564 28.2408 15.0732 28.2359 14.4831C28.231 13.8929 28.3384 13.3077 28.5517 12.7615C28.765 12.2153 29.08 11.719 29.4783 11.3017C29.8767 10.8844 30.3503 10.5544 30.8717 10.331C31.3931 10.1075 31.9517 9.99504 32.515 10.0002C33.0783 10.0053 33.635 10.1279 34.1526 10.3608C34.6702 10.5938 35.1383 10.9323 35.5297 11.3568L52.4994 29.1346C53.2947 29.9681 53.7415 31.0983 53.7415 32.2768C53.7415 33.4553 53.2947 34.5856 52.4994 35.4191L35.5297 53.1968C35.1383 53.6213 34.6702 53.9599 34.1526 54.1928C33.635 54.4258 33.0783 54.5484 32.515 54.5535C31.9517 54.5586 31.3931 54.4462 30.8717 54.2227C30.3503 53.9992 29.8767 53.6692 29.4783 53.2519C29.08 52.8346 28.765 52.3384 28.5517 51.7922C28.3384 51.246 28.231 50.6607 28.2359 50.0706C28.2408 49.4805 28.3578 48.8973 28.5802 48.355C28.8025 47.8128 29.1257 47.3224 29.5309 46.9124L39.2588 36.7213H7.07576C5.9506 36.7213 4.87152 36.253 4.07591 35.4195C3.2803 34.586 2.83333 33.4556 2.83333 32.2768ZM91.9242 63.3879H59.7412L69.4691 53.1968C70.2419 52.3586 70.6695 51.2359 70.6598 50.0706C70.6502 48.9053 70.204 47.7906 69.4174 46.9665C68.6308 46.1425 67.5668 45.6751 66.4544 45.665C65.3421 45.6548 64.2704 46.1028 63.4703 46.9124L46.5006 64.6902C45.7053 65.5236 45.2585 66.6539 45.2585 67.8324C45.2585 69.0109 45.7053 70.1412 46.5006 70.9746L63.4703 88.7524C64.2704 89.562 65.3421 90.01 66.4544 89.9998C67.5668 89.9897 68.6308 89.5223 69.4174 88.6983C70.204 87.8742 70.6502 86.7595 70.6598 85.5942C70.6695 84.4289 70.2419 83.3062 69.4691 82.468L59.7412 72.2768H91.9242C93.0494 72.2768 94.1285 71.8086 94.9241 70.9751C95.7197 70.1416 96.1667 69.0111 96.1667 67.8324C96.1667 66.6537 95.7197 65.5232 94.9241 64.6897C94.1285 63.8562 93.0494 63.3879 91.9242 63.3879Z" fill="black"/>
</svg>
