<svg width="100" height="100" viewBox="0 0 100 100" fill="none" xmlns="http://www.w3.org/2000/svg">
<path fill-rule="evenodd" clip-rule="evenodd" d="M12.2963 14.125C12.2963 11.2946 9.91675 9 6.98148 9C4.04621 9 1.66667 11.2946 1.66667 14.125V60.249V85.875C1.66667 88.7055 4.04621 91 6.98148 91H92.0185C94.9539 91 97.3333 88.7055 97.3333 85.875C97.3333 83.0445 94.9539 80.75 92.0185 80.75H12.2963V62.3728L33.5556 41.8728L51.0567 58.7489C53.1321 60.7502 56.4975 60.7502 58.5729 58.7489L86.7037 31.6228V44.875C86.7037 47.7055 89.0831 50 92.0185 50C94.9539 50 97.3333 47.7055 97.3333 44.875V19.25C97.3333 16.4196 94.9539 14.125 92.0185 14.125H65.4444C62.5091 14.125 60.1296 16.4196 60.1296 19.25C60.1296 22.0804 62.5091 24.375 65.4444 24.375H79.1875L54.8148 47.8772L37.3137 31.0011C35.2381 28.9996 31.873 28.9996 29.7974 31.0011L12.2963 47.8772V14.125Z" fill="black"/>
</svg>
