<svg width="100" height="100" viewBox="0 0 100 100" fill="none" xmlns="http://www.w3.org/2000/svg">
<circle cx="50.181" cy="50.181" r="44.3198" fill="white" stroke="#B8B8B8" stroke-width="1.00158"/>
<path d="M31.0721 59.5376C31.4807 56.1545 32.8681 54.2605 35.4827 52.3189C39.2239 49.6892 43.897 51.1766 43.897 51.1766V42.3521C45.0333 42.3229 46.1699 42.3903 47.2933 42.5532V53.9097C47.2933 53.9097 42.6216 52.4222 38.8806 55.0533C36.2674 56.9936 34.877 58.8891 34.4698 62.2722C34.4571 64.1092 34.8018 66.5104 36.3895 68.5866C35.9968 68.3853 35.5967 68.156 35.1891 67.8987C31.692 65.5503 31.055 62.0274 31.0721 59.5376ZM66.5892 26.0352C64.0157 23.2152 63.0423 20.3679 62.6906 18.3677H65.928C65.928 18.3677 65.2825 23.6122 69.9869 28.7697L70.0523 28.839C68.7842 28.0415 67.6215 27.1001 66.5892 26.0352ZM82.1847 34.0304V45.1584C82.1847 45.1584 78.0537 44.9968 74.9964 44.219C70.7274 43.131 67.9836 41.4627 67.9836 41.4627C67.9836 41.4627 66.0883 40.273 65.9351 40.1901V63.1695C65.9351 64.4491 65.5847 67.6443 64.5164 70.3094C63.1218 73.7959 60.9697 76.0842 60.5739 76.552C60.5739 76.552 57.9564 79.6453 53.3385 81.7286C49.1761 83.6077 45.5214 83.5601 44.4291 83.6077C44.4291 83.6077 38.1117 83.8579 32.4269 80.1635C31.1976 79.3491 30.0502 78.4269 28.9993 77.4085L29.0277 77.4289C34.7139 81.1233 41.0298 80.8731 41.0298 80.8731C42.1238 80.8255 45.7782 80.8731 49.9393 78.994C54.553 76.911 57.1746 73.8176 57.1746 73.8176C57.5663 73.3499 59.7283 71.0613 61.1172 67.5737C62.1826 64.91 62.5359 61.7132 62.5359 60.4338V37.4571C62.6891 37.5413 64.5831 38.7309 64.5831 38.7309C64.5831 38.7309 67.3284 40.4009 71.5972 41.4872C74.6558 42.2651 78.7858 42.4269 78.7858 42.4269V33.7069C80.1987 34.0236 81.4032 34.1094 82.1847 34.0304Z" fill="#EE1D52"/>
<path d="M78.7881 33.7069V42.424C78.7881 42.424 74.6581 42.2622 71.5996 41.4846C67.3307 40.3967 64.5854 38.7283 64.5854 38.7283C64.5854 38.7283 62.6914 37.5387 62.5382 37.4542V60.4365C62.5382 61.716 62.1878 64.9126 61.1195 67.5764C59.7249 71.0642 57.5728 73.3525 57.177 73.8203C57.177 73.8203 54.5582 76.9136 49.9416 78.9969C45.7805 80.876 42.1261 80.8284 41.0322 80.876C41.0322 80.876 34.7162 81.1262 29.03 77.4318L29.0017 77.4114C28.4013 76.8299 27.8362 76.2163 27.3092 75.5731C25.4946 73.3606 24.3824 70.7445 24.1029 69.998V69.9886C23.6532 68.6915 22.7083 65.5762 22.8374 62.559C23.0659 57.2357 24.9385 53.9682 25.4336 53.1496C26.7449 50.9175 28.4505 48.9202 30.4743 47.2472C32.2602 45.8031 34.2844 44.6543 36.464 43.8477C38.8202 42.9007 41.3433 42.3929 43.898 42.3521V51.1766C43.898 51.1766 39.2247 49.6947 35.4851 52.3189C32.8704 54.2605 31.483 56.1545 31.0744 59.5376C31.0574 62.0274 31.6944 65.5503 35.1886 67.9C35.5962 68.1584 35.9962 68.3877 36.3889 68.5879C36.9992 69.3815 37.7422 70.073 38.5878 70.6344C42.0011 72.7951 44.8612 72.9459 48.5188 71.5427C50.9574 70.6046 52.7931 68.4902 53.6444 66.1472C54.1794 64.6844 54.1723 63.2116 54.1723 61.6888V18.3677H62.6843C63.0363 20.3679 64.0094 23.2152 66.583 26.0352C67.6152 27.1001 68.7782 28.0415 70.046 28.839C70.4206 29.2265 72.3358 31.1424 74.7943 32.3186C76.0655 32.9265 77.4058 33.3924 78.7881 33.7069Z" fill="black"/>
<path d="M36.4631 43.8476C34.2836 44.6544 32.2593 45.8033 30.4734 47.2471C28.449 48.9241 26.7439 50.9255 25.4342 53.1618C24.9391 53.9778 23.0664 57.2479 22.838 62.5712C22.7089 65.5884 23.6538 68.7037 24.1035 70.0008V70.0102C24.3872 70.7501 25.4952 73.366 27.3098 75.5853C27.8368 76.2285 28.4019 76.8424 29.0023 77.4236C27.0788 76.1484 25.3633 74.6071 23.912 72.8494C22.1131 70.6562 21.0036 68.0673 20.7142 67.303C20.7139 67.2975 20.7139 67.2921 20.7142 67.2868V67.2772C20.2631 65.9814 19.3154 62.8648 19.4473 59.8436C19.6757 54.5203 21.5484 51.2529 22.0436 50.4343C23.3528 48.1975 25.058 46.196 27.0828 44.5195C28.8683 43.075 30.8926 41.9261 33.0725 41.12C34.4322 40.5794 35.8487 40.1806 37.2974 39.9304C39.4806 39.5652 41.7106 39.5333 43.9042 39.8365V42.352C41.3472 42.392 38.8215 42.8998 36.4631 43.8476Z" fill="#69C9D0"/>
<path d="M62.6894 18.3677H54.177V61.6902C54.177 63.213 54.177 64.6816 53.6494 66.1486C52.7897 68.4903 50.9608 70.6044 48.5235 71.5428C44.8649 72.9515 42.0048 72.7952 38.5928 70.6345C37.7457 70.0755 37.0008 69.3863 36.3882 68.5948C39.2951 70.081 41.8969 70.0551 45.1201 68.8153C47.5561 67.8769 49.3876 65.7625 50.2444 63.4198C50.7807 61.9567 50.7736 60.4841 50.7736 58.9624V15.632H62.5275C62.5275 15.632 62.3957 16.7089 62.6894 18.3677ZM78.7858 31.296V33.7069C77.4061 33.3919 76.0685 32.9261 74.7993 32.3186C72.3408 31.1424 70.4254 29.2266 70.051 28.839C70.4855 29.1125 70.9365 29.3613 71.4014 29.5841C74.3907 31.0146 77.3344 31.4416 78.7858 31.296Z" fill="#69C9D0"/>
</svg>
