<svg width="100" height="100" viewBox="0 0 100 100" fill="none" xmlns="http://www.w3.org/2000/svg">
<path d="M50.5 44.75C67.0375 44.75 84.625 39.6837 84.625 30.3125V22.4375C84.625 13.0663 67.0375 8 50.5 8C33.9625 8 16.375 13.0663 16.375 22.4375V30.3125C16.375 39.6837 33.9625 44.75 50.5 44.75ZM21.625 22.4375C21.625 18.6838 32.8862 13.25 50.5 13.25C68.1138 13.25 79.375 18.6838 79.375 22.4375V30.3125C79.375 34.0662 68.1138 39.5 50.5 39.5C32.8862 39.5 21.625 34.0662 21.625 30.3125V22.4375Z" fill="black"/>
<path d="M50.5 92C67.0375 92 84.625 86.9337 84.625 77.5625V69.6875C84.625 68.9913 84.3484 68.3236 83.8562 67.8313C83.3639 67.3391 82.6962 67.0625 82 67.0625C81.3038 67.0625 80.6361 67.3391 80.1438 67.8313C79.6516 68.3236 79.375 68.9913 79.375 69.6875V77.5625C79.375 81.3162 68.1138 86.75 50.5 86.75C32.8862 86.75 21.625 81.3162 21.625 77.5625V69.6875C21.625 68.9913 21.3484 68.3236 20.8562 67.8313C20.3639 67.3391 19.6962 67.0625 19 67.0625C18.3038 67.0625 17.6361 67.3391 17.1438 67.8313C16.6516 68.3236 16.375 68.9913 16.375 69.6875V77.5625C16.375 86.9337 33.9625 92 50.5 92Z" fill="black"/>
<path d="M50.5 68.375C67.0375 68.375 84.625 63.3087 84.625 53.9375V46.0625C84.625 45.3663 84.3484 44.6986 83.8562 44.2063C83.3639 43.7141 82.6962 43.4375 82 43.4375C81.3038 43.4375 80.6361 43.7141 80.1438 44.2063C79.6516 44.6986 79.375 45.3663 79.375 46.0625V53.9375C79.375 57.6912 68.1138 63.125 50.5 63.125C32.8862 63.125 21.625 57.6912 21.625 53.9375V46.0625C21.625 45.3663 21.3484 44.6986 20.8562 44.2063C20.3639 43.7141 19.6962 43.4375 19 43.4375C18.3038 43.4375 17.6361 43.7141 17.1438 44.2063C16.6516 44.6986 16.375 45.3663 16.375 46.0625V53.9375C16.375 63.3087 33.9625 68.375 50.5 68.375Z" fill="black"/>
</svg>
