<svg width="150" height="100" viewBox="0 0 150 100" fill="none" xmlns="http://www.w3.org/2000/svg">
<path d="M17.9019 35.7393H9.42691V36.4603H12.123V50.4737C12.123 54.6537 10.9526 55.8764 8.32966 55.8764C7.86684 55.9262 7.40319 55.7901 7.04065 55.4981C6.67812 55.2062 6.44639 54.7821 6.39642 54.3193C6.3808 54.2049 6.3808 54.0889 6.39642 53.9745C6.39642 52.4488 6.31282 51.5083 4.91252 51.5083C3.51222 51.5083 3.35547 52.9295 3.35547 53.3579C3.35547 55.2912 4.21237 56.7646 8.06841 56.7646C12.6664 56.7646 15.1535 55.218 15.1535 50.0975V36.4499H17.9855L17.9019 35.7393Z" fill="#503629"/>
<path d="M19.0369 53.5044C18.8182 53.4966 18.6003 53.5344 18.397 53.6154C18.1937 53.6963 18.0095 53.8187 17.856 53.9747C17.6997 54.1284 17.5764 54.3124 17.4938 54.5155C17.4111 54.7185 17.3708 54.9363 17.3753 55.1555C17.372 55.3699 17.413 55.5826 17.4957 55.7804C17.5784 55.9782 17.7011 56.1568 17.856 56.305C18.1707 56.6149 18.5952 56.7877 19.0369 56.7857C19.4849 56.7887 19.9163 56.6162 20.2386 56.305C20.3936 56.1568 20.5163 55.9782 20.599 55.7804C20.6817 55.5826 20.7227 55.3699 20.7193 55.1555C20.7221 54.9414 20.6827 54.7289 20.6033 54.5301C20.5239 54.3312 20.4061 54.1499 20.2567 53.9966C20.1072 53.8433 19.9291 53.7209 19.7323 53.6365C19.5356 53.552 19.3241 53.5071 19.11 53.5044H19.0369Z" fill="#503629"/>
<path d="M37.8451 53.5045C37.6316 53.4989 37.419 53.5357 37.2197 53.6126C37.0203 53.6896 36.8382 53.8052 36.6838 53.9528C36.5293 54.1005 36.4056 54.2772 36.3198 54.4729C36.2339 54.6685 36.1877 54.8792 36.1836 55.0929V55.1556C36.1836 55.3733 36.2302 55.5886 36.3203 55.7869C36.4105 55.9852 36.542 56.1618 36.7061 56.3051C37.022 56.613 37.4457 56.7855 37.8869 56.7857C38.1077 56.7905 38.3272 56.7503 38.5319 56.6677C38.7367 56.5851 38.9226 56.4617 39.0782 56.3051C39.2385 56.1599 39.3661 55.9824 39.4526 55.7842C39.5391 55.5861 39.5825 55.3718 39.5798 55.1556C39.5856 54.9353 39.5448 54.7162 39.4602 54.5128C39.3755 54.3093 39.249 54.1259 39.0887 53.9747C38.9366 53.8228 38.7555 53.703 38.5563 53.6222C38.3571 53.5414 38.1437 53.5014 37.9287 53.5045" fill="#503629"/>
<path d="M31.9824 35.7393H23.6224V36.4603H26.0572V52.4592C26.1209 53.1119 26.0461 53.7707 25.8378 54.3925C25.7423 54.6157 25.5994 54.8155 25.4189 54.9779C25.2385 55.1403 25.0248 55.2615 24.7928 55.333C24.2842 55.5041 23.7514 55.5923 23.2148 55.5942V56.263H32.0973V55.5942C31.5208 55.598 30.9469 55.517 30.394 55.3539C30.1629 55.2805 29.9501 55.1587 29.7699 54.9965C29.5897 54.8343 29.4462 54.6355 29.349 54.4134C29.177 54.0005 29.1019 53.5536 29.1295 53.1071V47.6313H31.3449C37.7612 47.6313 39.5691 45.1024 39.5691 41.6644C39.5691 38.2264 38.4823 35.7393 31.9824 35.7393ZM30.8329 46.8162H29.1504V36.5544H30.6761C35.6294 36.5335 36.7998 38.5503 36.7998 41.8525C36.7998 45.1547 34.8561 46.8894 30.9165 46.8894" fill="#503629"/>
<path d="M66.0558 54.3402C65.9192 53.8866 65.8592 53.4133 65.8782 52.9399V36.4603H68.0831V35.7915H62.785L56.4732 51.4142C56.4634 51.4402 56.4464 51.4628 56.4242 51.4795C56.402 51.4961 56.3755 51.5061 56.3478 51.5083C56.3154 51.5095 56.2833 51.5013 56.2554 51.4846C56.2276 51.4679 56.2052 51.4434 56.1911 51.4142C56.1911 51.4142 49.5553 35.9796 49.4822 35.7915H43.6406V36.4394H46.2009V53.7655C46.1775 54.1376 46.0587 54.4975 45.856 54.8105C45.617 55.123 45.2892 55.3561 44.9155 55.4793C44.5149 55.572 44.1037 55.6106 43.6929 55.5942V56.263H49.4822V55.5942C49.1277 55.5986 48.7748 55.5457 48.4372 55.4375C48.024 55.3435 47.6554 55.1112 47.3922 54.7791C47.1866 54.4668 47.0643 54.1071 47.0369 53.7341L46.9742 52.292V38.613H47.319C47.319 38.613 54.8744 56.054 54.8744 56.2526H55.6059L62.7328 38.7593H62.9209V52.8563C62.9301 53.343 62.8703 53.8285 62.7432 54.2984C62.6652 54.5077 62.5465 54.6995 62.3941 54.8627C62.2416 55.0259 62.0584 55.1573 61.855 55.2494C61.3817 55.4162 60.8833 55.501 60.3815 55.5002V56.169H68.4802V55.5002C67.9666 55.499 67.4571 55.407 66.9754 55.2285C66.758 55.1311 66.5647 54.987 66.4094 54.8063C66.2541 54.6257 66.1405 54.413 66.0767 54.1835" fill="#503629"/>
<path d="M76.9796 41.2256C72.6533 41.2256 69.8945 44.0784 69.8945 49.0631C69.8945 56.3781 75.6107 56.8483 76.8333 56.8483C79.2786 56.8483 83.9184 55.3331 83.9184 48.9272C83.9184 43.8903 80.9506 41.2256 76.9483 41.2256M76.9483 55.9392C73.6879 55.9392 73.1863 54.3299 73.1863 49.1362C73.1863 45.113 73.4371 42.0929 76.9483 42.0929C80.7207 42.0929 80.7416 45.2279 80.7416 48.8541C80.7416 54.0791 79.8429 55.8974 76.9483 55.8974" fill="#503629"/>
<path d="M95.2581 41.4453C92.6665 41.4453 91.8723 42.971 91.1408 44.5176H90.9422C90.9422 44.5176 90.566 42.2709 90.4302 41.6021H85.3828V42.3649H88.0998V52.5328C88.137 53.2452 88.023 53.9575 87.7654 54.6227C87.4937 55.1348 86.8667 55.3856 85.8426 55.3856H85.3933V56.2843H93.7533V55.3856H93.3562C92.2485 55.3856 91.7782 55.1452 91.4856 54.6645C91.1901 53.9952 91.0713 53.2612 91.1408 52.5328V47.2346C91.1408 45.4686 92.4784 43.4413 94.0877 43.4413C95.697 43.4413 95.7283 46.0224 97.6407 44.9879C98.6857 44.4236 98.4975 41.4662 95.279 41.4662" fill="#503629"/>
<path d="M128.673 54.7482C127.775 54.7482 127.482 54.2466 127.43 53.421V45.4059C127.484 44.8569 127.418 44.3028 127.238 43.7815C127.058 43.2602 126.767 42.7841 126.385 42.3859C125.601 41.6126 124.117 41.205 121.954 41.205C120.337 41.0854 118.724 41.4805 117.346 42.3336C116.939 42.5791 116.603 42.9257 116.371 43.3396C116.138 43.7535 116.017 44.2205 116.019 44.6953C115.992 44.886 116.012 45.0803 116.075 45.262C116.139 45.4437 116.245 45.6077 116.384 45.7403C116.64 45.9584 116.968 46.0738 117.304 46.0643C118.14 46.0643 118.6 45.6358 118.788 44.549C118.81 43.9172 119.042 43.3107 119.446 42.8248C119.717 42.5793 120.037 42.3931 120.384 42.2779C120.731 42.1628 121.099 42.1212 121.463 42.156C121.873 42.1088 122.288 42.1611 122.674 42.3084C123.06 42.4558 123.404 42.6938 123.678 43.0024C124.097 43.6356 124.302 44.3864 124.264 45.1447V47.6004C121.578 47.8408 115.235 48.3424 115.517 53.1598C115.614 54.1333 116.077 55.0337 116.812 55.6794C117.547 56.3252 118.5 56.6683 119.477 56.6396C120.422 56.6111 121.349 56.3798 122.197 55.9615C123.044 55.5432 123.792 54.9477 124.389 54.2152C124.518 54.8686 124.877 55.4542 125.4 55.8662C125.923 56.2783 126.576 56.4896 127.242 56.462C129.196 56.462 130.377 55.5006 130.502 53.1284H129.99C129.865 54.1734 129.227 54.7168 128.694 54.7168M124.295 53.1702C124.305 53.1857 124.311 53.2039 124.311 53.2225C124.311 53.2411 124.305 53.2593 124.295 53.2747V53.3374C123.428 54.3075 122.241 54.9342 120.951 55.1035C120.649 55.1147 120.348 55.0662 120.065 54.9609C119.781 54.8556 119.522 54.6955 119.3 54.4897C119.079 54.284 118.901 54.0366 118.775 53.7618C118.649 53.487 118.579 53.1901 118.568 52.8881C118.558 52.7734 118.558 52.658 118.568 52.5432C118.568 49.8158 122.33 48.4469 124.379 48.4469L124.295 53.1702Z" fill="#503629"/>
<path d="M145.873 54.6437C145.488 53.9827 145.307 53.2231 145.35 52.4596V45.8239C145.393 44.9738 145.225 44.1264 144.859 43.3577C144.519 42.7355 144.008 42.224 143.386 41.8842C142.697 41.5481 141.937 41.3832 141.17 41.4035C140.189 41.3791 139.22 41.6318 138.375 42.1327C137.531 42.6336 136.844 43.3624 136.395 44.2355H136.071L135.548 41.5812H131.023V42.344H133.312V52.4596C133.329 53.0357 133.273 53.6116 133.145 54.1734C133.091 54.389 132.985 54.5879 132.835 54.7521C132.686 54.9163 132.498 55.0406 132.288 55.1139C131.883 55.261 131.454 55.3319 131.023 55.3229V56.253H138.276V55.3125C137.998 55.3272 137.721 55.2794 137.464 55.1727C137.207 55.066 136.977 54.9031 136.792 54.6959C136.464 54.0509 136.322 53.327 136.384 52.6059V48.7499C136.245 47.3325 136.434 45.902 136.938 44.5699C137.232 44.0605 137.658 43.64 138.171 43.353C138.685 43.0661 139.266 42.9232 139.854 42.9397C140.257 42.8988 140.663 42.9757 141.022 43.1613C141.382 43.3468 141.681 43.6328 141.881 43.9847C142.237 45.0914 142.403 46.2502 142.372 47.4123V52.1984C142.426 52.7893 142.426 53.3839 142.372 53.9749C142.351 54.1857 142.283 54.3892 142.173 54.5701C142.062 54.751 141.913 54.9047 141.735 55.0199C141.38 55.2185 140.981 55.3229 140.575 55.3229V56.2634H147.566V55.3334C146.688 55.2707 146.113 55.0617 145.852 54.6541" fill="#503629"/>
<path d="M113.084 40.6302C112.85 40.7272 112.647 40.8849 112.494 41.0869C112.342 41.289 112.246 41.5282 112.217 41.7797C112.102 42.3753 111.872 42.7306 111.569 42.8247C111.223 42.9154 110.857 42.8935 110.524 42.762C109.202 41.6409 107.499 41.072 105.769 41.1736C104.324 41.061 102.894 41.5257 101.791 42.4659C100.688 43.4061 100.003 44.7451 99.8859 46.1896C99.8859 46.409 99.8859 46.6285 99.8859 46.8479C99.8859 49.9829 101.088 51.4355 103.711 51.9893C103.878 51.9893 103.878 52.1983 103.711 52.2192C101.506 52.6268 99.5306 53.2642 99.5306 55.4065C99.5286 55.9064 99.6826 56.3945 99.971 56.8028C100.259 57.2111 100.668 57.5194 101.14 57.6846C102.538 58.1654 104.009 58.3954 105.487 58.3638C106.653 58.3527 107.818 58.405 108.977 58.5206C109.656 58.5818 110.308 58.8078 110.879 59.1789C111.127 59.3825 111.321 59.6427 111.447 59.9373C111.572 60.232 111.625 60.5525 111.6 60.8718C111.59 61.3736 111.436 61.8619 111.156 62.2787C110.876 62.6954 110.483 63.0232 110.022 63.223C108.789 63.828 107.423 64.1119 106.051 64.0486C104.783 64.1405 103.516 63.8609 102.404 63.2439C102.077 63.0166 101.829 62.6938 101.692 62.3197C101.556 61.9456 101.538 61.5385 101.642 61.154C101.742 60.8546 101.72 60.5278 101.581 60.2442C101.442 59.9607 101.197 59.7432 100.9 59.6387H100.743C100.502 59.6081 100.258 59.6446 100.036 59.7441C99.815 59.8437 99.6256 60.0025 99.4888 60.203C99.2478 60.6096 99.1349 61.0794 99.1649 61.5511C99.1915 62.2281 99.4451 62.8766 99.8848 63.3921C100.325 63.9076 100.925 64.2603 101.589 64.3934C102.896 64.81 104.262 65.0112 105.633 64.9891C107.215 65.0628 108.792 64.7695 110.242 64.1322C111.102 63.771 111.837 63.1658 112.357 62.3914C112.877 61.617 113.159 60.7073 113.168 59.7746C113.209 58.8736 112.968 57.9823 112.478 57.2248C111.015 55.2184 108.946 55.4901 104.285 55.2602C102.049 55.2602 101.61 54.8631 101.61 54.2152C101.61 53.1702 102.436 52.8044 105.654 52.3133C108.873 51.8221 111.83 50.6517 111.83 46.7748C111.84 45.8267 111.64 44.8883 111.245 44.0264C111.847 44.1934 112.483 44.1934 113.084 44.0264C113.362 43.9516 113.622 43.8201 113.847 43.6403C114.071 43.4605 114.256 43.2362 114.391 42.9814C114.533 42.7869 114.629 42.5627 114.673 42.3257C114.716 42.0886 114.705 41.8448 114.641 41.6125C114.37 40.7451 113.847 40.4316 113.053 40.672M105.842 51.3623C103.941 51.3623 102.801 50.6726 102.801 46.8061C102.801 44.0787 103.752 42.0514 105.842 42.0514C108.225 42.0514 108.873 43.901 108.873 46.7434C108.873 50.7771 107.588 51.3623 105.842 51.3623Z" fill="#503629"/>
</svg>
