<svg width="300" height="250" viewBox="0 0 300 250" fill="none" xmlns="http://www.w3.org/2000/svg">
<g clip-path="url(#clip0_306_526)">
<path d="M5.5 12C5.5 8.96243 7.96243 6.5 11 6.5H284C287.038 6.5 289.5 8.96244 289.5 12V255.5H5.5V12Z" fill="white" stroke="#D9D9D9"/>
<path d="M38.7948 31.1367V19.7998H42.7001C43.5817 19.7998 44.2545 19.8539 44.7185 19.9622C45.3681 20.1117 45.9223 20.3824 46.3811 20.7742C46.9792 21.2794 47.4251 21.9264 47.719 22.7152C48.018 23.4989 48.1675 24.3959 48.1675 25.4064C48.1675 26.2674 48.067 27.0304 47.8659 27.6954C47.6649 28.3605 47.4071 28.9121 47.0926 29.3503C46.7781 29.7834 46.4327 30.1262 46.0563 30.3789C45.6852 30.6263 45.234 30.8145 44.703 30.9434C44.1772 31.0723 43.5714 31.1367 42.8857 31.1367H38.7948ZM40.2951 29.7989H42.7156C43.4631 29.7989 44.0483 29.7293 44.471 29.5901C44.8989 29.4509 45.2392 29.255 45.4918 29.0023C45.8476 28.6466 46.1234 28.1697 46.3193 27.5717C46.5203 26.9685 46.6209 26.239 46.6209 25.3832C46.6209 24.1974 46.425 23.2875 46.0331 22.6534C45.6465 22.0141 45.1748 21.5862 44.618 21.3697C44.2158 21.215 43.5688 21.1377 42.6769 21.1377H40.2951V29.7989ZM55.6842 28.492L57.1226 28.6698C56.8958 29.5102 56.4756 30.1623 55.8621 30.6263C55.2486 31.0903 54.4649 31.3223 53.5112 31.3223C52.3099 31.3223 51.3562 30.9537 50.6499 30.2165C49.9487 29.4741 49.5982 28.4352 49.5982 27.1C49.5982 25.7183 49.9539 24.646 50.6654 23.883C51.3768 23.1199 52.2996 22.7384 53.4338 22.7384C54.532 22.7384 55.429 23.1122 56.125 23.8598C56.821 24.6073 57.169 25.659 57.169 27.0149C57.169 27.0974 57.1664 27.2211 57.1613 27.3861H51.0365C51.0881 28.2883 51.3433 28.9791 51.8021 29.4586C52.261 29.9381 52.8332 30.1778 53.5189 30.1778C54.0293 30.1778 54.4649 30.0438 54.8258 29.7757C55.1867 29.5076 55.4728 29.0797 55.6842 28.492ZM51.1139 26.2416H55.6997C55.6378 25.5508 55.4625 25.0326 55.1738 24.6872C54.7304 24.151 54.1556 23.883 53.4493 23.883C52.81 23.883 52.2713 24.0969 51.8331 24.5248C51.4 24.9527 51.1603 25.525 51.1139 26.2416ZM61.9172 29.8917L62.1183 31.1213C61.7264 31.2037 61.3759 31.245 61.0665 31.245C60.5613 31.245 60.1695 31.1651 59.8911 31.0053C59.6127 30.8454 59.4168 30.6366 59.3034 30.3789C59.1899 30.1159 59.1332 29.5669 59.1332 28.7317V24.0067H58.1124V22.924H59.1332V20.8902L60.5175 20.055V22.924H61.9172V24.0067H60.5175V28.809C60.5175 29.206 60.5407 29.4612 60.5871 29.5746C60.6386 29.688 60.7185 29.7782 60.8268 29.8453C60.9402 29.9123 61.1001 29.9458 61.3063 29.9458C61.4609 29.9458 61.6646 29.9278 61.9172 29.8917ZM68.6451 30.1237C68.1296 30.5619 67.632 30.8712 67.1526 31.0517C66.6783 31.2321 66.1679 31.3223 65.6214 31.3223C64.7192 31.3223 64.0258 31.1032 63.5412 30.665C63.0566 30.2216 62.8142 29.6571 62.8142 28.9714C62.8142 28.5693 62.9045 28.2032 63.0849 27.8733C63.2705 27.5382 63.5102 27.2701 63.8041 27.069C64.1031 26.868 64.4382 26.7159 64.8094 26.6128C65.0827 26.5406 65.4951 26.471 66.0467 26.404C67.1706 26.2699 67.9981 26.1101 68.5291 25.9245C68.5343 25.7338 68.5368 25.6126 68.5368 25.5611C68.5368 24.994 68.4054 24.5944 68.1424 24.3624C67.7867 24.0479 67.2583 23.8907 66.5571 23.8907C65.9024 23.8907 65.4178 24.0067 65.1033 24.2387C64.794 24.4655 64.5645 24.8702 64.415 25.4528L63.054 25.2672C63.1777 24.6846 63.3814 24.2155 63.6649 23.8598C63.9485 23.4989 64.3583 23.2231 64.8945 23.0323C65.4307 22.8364 66.0519 22.7384 66.7582 22.7384C67.4593 22.7384 68.029 22.8209 68.4672 22.9859C68.9055 23.1509 69.2277 23.3597 69.4339 23.6123C69.6401 23.8598 69.7845 24.1742 69.867 24.5557C69.9133 24.7929 69.9365 25.2208 69.9365 25.8395V27.6954C69.9365 28.9895 69.9649 29.8092 70.0216 30.1546C70.0835 30.4949 70.2021 30.8222 70.3773 31.1367H68.9235C68.7791 30.848 68.6863 30.5103 68.6451 30.1237ZM68.5291 27.0149C68.0239 27.2211 67.266 27.3964 66.2555 27.5408C65.6833 27.6233 65.2786 27.7161 65.0414 27.8192C64.8043 27.9223 64.6212 28.0744 64.4924 28.2754C64.3635 28.4713 64.299 28.6904 64.299 28.9327C64.299 29.3039 64.4382 29.6133 64.7166 29.8607C65.0002 30.1082 65.4126 30.2319 65.9539 30.2319C66.4901 30.2319 66.967 30.1159 67.3846 29.8839C67.8022 29.6468 68.1089 29.3246 68.3048 28.9173C68.4543 28.6028 68.5291 28.1388 68.5291 27.5253V27.0149ZM72.1096 21.4006V19.7998H73.5016V21.4006H72.1096ZM72.1096 31.1367V22.924H73.5016V31.1367H72.1096ZM75.5973 31.1367V19.7998H76.9893V31.1367H75.5973ZM78.5978 28.6853L79.9743 28.4688C80.0516 29.0204 80.2656 29.4431 80.6161 29.737C80.9719 30.0309 81.4668 30.1778 82.1009 30.1778C82.7402 30.1778 83.2145 30.0489 83.5238 29.7911C83.8332 29.5282 83.9878 29.2215 83.9878 28.8709C83.9878 28.5564 83.8512 28.3089 83.578 28.1285C83.3872 28.0048 82.9129 27.8475 82.155 27.6568C81.1343 27.399 80.4254 27.1773 80.0284 26.9917C79.6366 26.801 79.3376 26.5406 79.1314 26.2107C78.9303 25.8755 78.8298 25.5069 78.8298 25.1048C78.8298 24.7388 78.9122 24.4011 79.0772 24.0917C79.2474 23.7773 79.4768 23.5169 79.7655 23.3107C79.982 23.1509 80.2759 23.0168 80.6471 22.9086C81.0234 22.7951 81.4255 22.7384 81.8535 22.7384C82.4979 22.7384 83.0624 22.8312 83.547 23.0168C84.0368 23.2024 84.3977 23.455 84.6297 23.7747C84.8617 24.0892 85.0215 24.5119 85.1091 25.0429L83.7481 25.2285C83.6862 24.8058 83.5058 24.4758 83.2068 24.2387C82.9129 24.0015 82.4953 23.883 81.954 23.883C81.3147 23.883 80.8584 23.9886 80.5852 24.2C80.312 24.4114 80.1753 24.6589 80.1753 24.9424C80.1753 25.1228 80.2321 25.2852 80.3455 25.4296C80.4589 25.5791 80.6368 25.7028 80.8791 25.8008C81.0183 25.8523 81.4281 25.9709 82.1086 26.1565C83.0933 26.4195 83.779 26.636 84.1657 26.8061C84.5575 26.9711 84.8643 27.2134 85.0859 27.533C85.3076 27.8527 85.4185 28.2496 85.4185 28.724C85.4185 29.1879 85.2818 29.6262 85.0086 30.0386C84.7405 30.4459 84.3513 30.7629 83.8409 30.9898C83.3305 31.2115 82.7531 31.3223 82.1086 31.3223C81.0415 31.3223 80.2269 31.1006 79.6649 30.6573C79.1082 30.2139 78.7524 29.5566 78.5978 28.6853ZM87.46 24.5093V22.924H89.0454V24.5093H87.46ZM87.46 31.1367V29.5514H89.0454V31.1367H87.46Z" fill="black"/>
<path d="M18.5679 40.8923H275.139" stroke="#ADADAD" stroke-width="0.395941" stroke-linecap="round" stroke-dasharray="3.17 3.17"/>
<path d="M18.5679 42.4766H275.139" stroke="#ADADAD" stroke-width="0.395941" stroke-linecap="round" stroke-dasharray="3.17 3.17"/>
<path d="M18.5679 32.2952H27.6179V31.7295H18.5679V32.2952Z" fill="black"/>
<path d="M20.2644 34.5581H29.3145V33.9925H20.2644V34.5581Z" fill="black"/>
<path d="M31.0117 31.7301V20.9832H30.4461V31.7301H31.0117Z" fill="black"/>
<path d="M20.8306 31.7301V20.9832H20.2649V31.7301H20.8306Z" fill="black"/>
<path d="M31.0118 31.7297H30.4462V32.861C30.4462 33.161 30.327 33.4488 30.1148 33.6609C29.9027 33.8731 29.6149 33.9923 29.3149 33.9923H28.7493V34.5579H29.3149C29.7649 34.5579 30.1965 34.3791 30.5148 34.0609C30.833 33.7426 31.0118 33.311 31.0118 32.861V31.7297Z" fill="black"/>
<path d="M27.0522 32.2952H27.6179V32.8608C27.6179 33.1608 27.7371 33.4486 27.9492 33.6607C28.1614 33.8729 28.4491 33.9921 28.7491 33.9921H29.3148V34.5577H28.7491C28.2991 34.5577 27.8675 34.3789 27.5493 34.0607C27.231 33.7424 27.0522 33.3108 27.0522 32.8608V32.2952Z" fill="black"/>
<path d="M18.5679 32.2952H19.1335V32.8608C19.1335 33.1608 19.2527 33.4486 19.4648 33.6607C19.677 33.8729 19.9647 33.9921 20.2648 33.9921H20.8304V34.5577H20.2648C19.8147 34.5577 19.3831 34.3789 19.0649 34.0607C18.7466 33.7424 18.5679 33.3108 18.5679 32.8608V32.2952Z" fill="black"/>
<path d="M34.4055 20.9832H31.0117V21.5488H34.4055V20.9832Z" fill="black"/>
<path d="M32.7086 18.7202H21.9617V19.2858H32.7086V18.7202Z" fill="black"/>
<path d="M20.2649 20.9827H20.8305V20.4171C20.8305 20.1171 20.9497 19.8293 21.1619 19.6172C21.374 19.405 21.6618 19.2858 21.9618 19.2858H22.5274V18.7202H21.9618C21.5117 18.7202 21.0801 18.899 20.7619 19.2172C20.4437 19.5354 20.2649 19.9671 20.2649 20.4171V20.9827Z" fill="black"/>
<path d="M30.446 20.9827H31.0117V20.4171C31.0117 20.1171 31.1309 19.8293 31.343 19.6172C31.5552 19.405 31.8429 19.2858 32.1429 19.2858H32.7086V18.7202H32.1429C31.6929 18.7202 31.2613 18.899 30.9431 19.2172C30.6248 19.5354 30.446 19.9671 30.446 20.4171V20.9827Z" fill="black"/>
<path d="M34.4056 20.9827H33.84V20.4171C33.84 20.1171 33.7208 19.8293 33.5086 19.6172C33.2965 19.405 33.0087 19.2858 32.7087 19.2858H32.1431V18.7202H32.7087C33.1587 18.7202 33.5903 18.899 33.9086 19.2172C34.2268 19.5354 34.4056 19.9671 34.4056 20.4171V20.9827Z" fill="black"/>
<path d="M18.9842 63L21.9435 55.2942H23.0421L26.1959 63H25.0343L24.1354 60.6662H20.9133L20.067 63H18.9842ZM21.2077 59.8357H23.82L23.0158 57.7016C22.7705 57.0534 22.5883 56.5207 22.4692 56.1037C22.3711 56.5978 22.2326 57.0884 22.0539 57.5755L21.2077 59.8357ZM28.2406 63L26.1171 57.4178H27.1158L28.3142 60.7608C28.4439 61.1217 28.563 61.4967 28.6716 61.8857C28.7557 61.5913 28.8731 61.2374 29.0238 60.8239L30.2643 57.4178H31.2367L29.1237 63H28.2406ZM31.899 63.4626L32.8189 63.5992C32.8574 63.8831 32.9643 64.0898 33.1395 64.2195C33.3743 64.3947 33.6949 64.4823 34.1014 64.4823C34.5394 64.4823 34.8776 64.3947 35.1159 64.2195C35.3542 64.0443 35.5154 63.799 35.5995 63.4836C35.6485 63.2908 35.6713 62.8861 35.6678 62.2694C35.2543 62.7565 34.7392 63 34.1224 63C33.355 63 32.761 62.7232 32.3405 62.1695C31.92 61.6158 31.7098 60.9518 31.7098 60.1774C31.7098 59.6447 31.8061 59.1541 31.9989 58.7056C32.1916 58.2535 32.4702 57.9049 32.8346 57.6596C33.2026 57.4143 33.6336 57.2916 34.1277 57.2916C34.7865 57.2916 35.3296 57.558 35.7571 58.0906V57.4178H36.6297V62.2431C36.6297 63.1121 36.5403 63.7271 36.3616 64.0881C36.1864 64.4525 35.9061 64.7398 35.5206 64.9501C35.1387 65.1603 34.6673 65.2655 34.1067 65.2655C33.4409 65.2655 32.903 65.1148 32.493 64.8134C32.083 64.5156 31.885 64.0653 31.899 63.4626ZM32.6822 60.109C32.6822 60.8414 32.8276 61.3758 33.1185 61.7122C33.4093 62.0486 33.7738 62.2168 34.2118 62.2168C34.6463 62.2168 35.0107 62.0504 35.3051 61.7175C35.5995 61.3811 35.7466 60.8554 35.7466 60.1406C35.7466 59.4572 35.5942 58.9421 35.2893 58.5952C34.988 58.2483 34.6235 58.0748 34.196 58.0748C33.7755 58.0748 33.4181 58.2465 33.1237 58.5899C32.8294 58.9299 32.6822 59.4362 32.6822 60.109ZM41.1974 63V55.2942H44.614C45.3009 55.2942 45.823 55.3643 46.1804 55.5045C46.5379 55.6412 46.8234 55.8847 47.0372 56.2351C47.251 56.5855 47.3578 56.9728 47.3578 57.3968C47.3578 57.9434 47.1809 58.4042 46.827 58.7792C46.473 59.1541 45.9264 59.3924 45.187 59.494C45.4568 59.6237 45.6618 59.7516 45.802 59.8777C46.0998 60.1511 46.3819 60.4927 46.6482 60.9027L47.9886 63H46.7061L45.6863 61.3968C45.3885 60.9343 45.1432 60.5803 44.9504 60.335C44.7577 60.0898 44.5843 59.918 44.4301 59.8199C44.2794 59.7218 44.1252 59.6535 43.9675 59.6149C43.8519 59.5904 43.6626 59.5781 43.3998 59.5781H42.2172V63H41.1974ZM42.2172 58.6951H44.409C44.8751 58.6951 45.2395 58.6478 45.5024 58.5532C45.7652 58.455 45.9649 58.3009 46.1016 58.0906C46.2382 57.8768 46.3066 57.6456 46.3066 57.3968C46.3066 57.0323 46.1734 56.7327 45.9071 56.4979C45.6443 56.2632 45.2273 56.1458 44.6561 56.1458H42.2172V58.6951ZM52.6615 61.2023L53.6391 61.3232C53.485 61.8944 53.1994 62.3377 52.7824 62.6531C52.3654 62.9685 51.8327 63.1262 51.1844 63.1262C50.368 63.1262 49.7197 62.8756 49.2396 62.3745C48.763 61.8699 48.5247 61.1638 48.5247 60.2562C48.5247 59.3171 48.7665 58.5882 49.2501 58.0696C49.7337 57.5509 50.3609 57.2916 51.1319 57.2916C51.8783 57.2916 52.488 57.5457 52.9611 58.0538C53.4341 58.5619 53.6707 59.2768 53.6707 60.1984C53.6707 60.2544 53.6689 60.3386 53.6654 60.4507H49.5024C49.5375 61.0639 49.7109 61.5335 50.0228 61.8594C50.3347 62.1853 50.7236 62.3482 51.1897 62.3482C51.5366 62.3482 51.8327 62.2571 52.078 62.0749C52.3233 61.8927 52.5178 61.6018 52.6615 61.2023ZM49.555 59.6728H52.672C52.6299 59.2032 52.5108 58.851 52.3145 58.6162C52.0132 58.2518 51.6225 58.0696 51.1424 58.0696C50.7079 58.0696 50.3417 58.215 50.0438 58.5058C49.7495 58.7967 49.5865 59.1857 49.555 59.6728ZM56.3829 63L54.2594 57.4178H55.2581L56.4565 60.7608C56.5862 61.1217 56.7053 61.4967 56.814 61.8857C56.8981 61.5913 57.0154 61.2374 57.1661 60.8239L58.4066 57.4178H59.379L57.266 63H56.3829ZM64.0361 61.2023L65.0138 61.3232C64.8596 61.8944 64.574 62.3377 64.157 62.6531C63.74 62.9685 63.2074 63.1262 62.5591 63.1262C61.7426 63.1262 61.0944 62.8756 60.6143 62.3745C60.1377 61.8699 59.8994 61.1638 59.8994 60.2562C59.8994 59.3171 60.1412 58.5882 60.6248 58.0696C61.1084 57.5509 61.7356 57.2916 62.5065 57.2916C63.2529 57.2916 63.8627 57.5457 64.3357 58.0538C64.8088 58.5619 65.0454 59.2768 65.0454 60.1984C65.0454 60.2544 65.0436 60.3386 65.0401 60.4507H60.8771C60.9121 61.0639 61.0856 61.5335 61.3975 61.8594C61.7093 62.1853 62.0983 62.3482 62.5644 62.3482C62.9113 62.3482 63.2074 62.2571 63.4527 62.0749C63.698 61.8927 63.8925 61.6018 64.0361 61.2023ZM60.9297 59.6728H64.0467C64.0046 59.2032 63.8855 58.851 63.6892 58.6162C63.3879 58.2518 62.9971 58.0696 62.5171 58.0696C62.0825 58.0696 61.7163 58.215 61.4185 58.5058C61.1241 58.7967 60.9612 59.1857 60.9297 59.6728ZM66.207 63V57.4178H67.0585V58.2115C67.4685 57.5983 68.0607 57.2916 68.8352 57.2916C69.1716 57.2916 69.4799 57.353 69.7603 57.4756C70.0441 57.5948 70.2561 57.7524 70.3963 57.9487C70.5365 58.1449 70.6346 58.3779 70.6906 58.6478C70.7257 58.823 70.7432 59.1296 70.7432 59.5676V63H69.7971V59.6044C69.7971 59.219 69.7603 58.9316 69.6867 58.7424C69.6131 58.5497 69.4817 58.3972 69.2925 58.2851C69.1067 58.1694 68.8877 58.1116 68.6354 58.1116C68.2324 58.1116 67.8838 58.2395 67.5894 58.4953C67.2986 58.7511 67.1531 59.2365 67.1531 59.9513V63H66.207ZM75.8576 63V62.18C75.4231 62.8108 74.8326 63.1262 74.0862 63.1262C73.7568 63.1262 73.4485 63.0631 73.1611 62.9369C72.8773 62.8108 72.6653 62.6531 72.5251 62.4639C72.3884 62.2711 72.2921 62.0363 72.236 61.7595C72.1974 61.5738 72.1782 61.2794 72.1782 60.8764V57.4178H73.1243V60.5138C73.1243 61.0079 73.1436 61.3408 73.1821 61.5125C73.2417 61.7613 73.3679 61.9575 73.5606 62.1012C73.7533 62.2413 73.9916 62.3114 74.2754 62.3114C74.5593 62.3114 74.8256 62.2396 75.0744 62.0959C75.3232 61.9487 75.4984 61.7507 75.6 61.5019C75.7052 61.2496 75.7577 60.8852 75.7577 60.4086V57.4178H76.7039V63H75.8576ZM82.0127 61.2023L82.9904 61.3232C82.8362 61.8944 82.5506 62.3377 82.1336 62.6531C81.7166 62.9685 81.184 63.1262 80.5357 63.1262C79.7192 63.1262 79.071 62.8756 78.5909 62.3745C78.1143 61.8699 77.876 61.1638 77.876 60.2562C77.876 59.3171 78.1178 58.5882 78.6014 58.0696C79.085 57.5509 79.7122 57.2916 80.4832 57.2916C81.2296 57.2916 81.8393 57.5457 82.3124 58.0538C82.7854 58.5619 83.022 59.2768 83.022 60.1984C83.022 60.2544 83.0202 60.3386 83.0167 60.4507H78.8537C78.8887 61.0639 79.0622 61.5335 79.3741 61.8594C79.6859 62.1853 80.0749 62.3482 80.541 62.3482C80.8879 62.3482 81.184 62.2571 81.4293 62.0749C81.6746 61.8927 81.8691 61.6018 82.0127 61.2023ZM78.9063 59.6728H82.0233C81.9812 59.2032 81.8621 58.851 81.6658 58.6162C81.3645 58.2518 80.9737 58.0696 80.4937 58.0696C80.0591 58.0696 79.693 58.215 79.3951 58.5058C79.1007 58.7967 78.9378 59.1857 78.9063 59.6728ZM84.4464 58.4953V57.4178H85.524V58.4953H84.4464ZM84.4464 63V61.9225H85.524V63H84.4464ZM18.9842 86L21.9435 78.2942H23.0421L26.1959 86H25.0343L24.1354 83.6662H20.9133L20.067 86H18.9842ZM21.2077 82.8357H23.82L23.0158 80.7016C22.7705 80.0534 22.5883 79.5207 22.4692 79.1037C22.3711 79.5978 22.2326 80.0884 22.0539 80.5755L21.2077 82.8357ZM28.2406 86L26.1171 80.4178H27.1158L28.3142 83.7608C28.4439 84.1217 28.563 84.4967 28.6716 84.8857C28.7557 84.5913 28.8731 84.2374 29.0238 83.8239L30.2643 80.4178H31.2367L29.1237 86H28.2406ZM31.899 86.4626L32.8189 86.5992C32.8574 86.8831 32.9643 87.0898 33.1395 87.2195C33.3743 87.3947 33.6949 87.4823 34.1014 87.4823C34.5394 87.4823 34.8776 87.3947 35.1159 87.2195C35.3542 87.0443 35.5154 86.799 35.5995 86.4836C35.6485 86.2908 35.6713 85.8861 35.6678 85.2694C35.2543 85.7565 34.7392 86 34.1224 86C33.355 86 32.761 85.7232 32.3405 85.1695C31.92 84.6158 31.7098 83.9518 31.7098 83.1774C31.7098 82.6447 31.8061 82.1541 31.9989 81.7056C32.1916 81.2535 32.4702 80.9049 32.8346 80.6596C33.2026 80.4143 33.6336 80.2916 34.1277 80.2916C34.7865 80.2916 35.3296 80.558 35.7571 81.0906V80.4178H36.6297V85.2431C36.6297 86.1121 36.5403 86.7271 36.3616 87.0881C36.1864 87.4525 35.9061 87.7398 35.5206 87.9501C35.1387 88.1603 34.6673 88.2655 34.1067 88.2655C33.4409 88.2655 32.903 88.1148 32.493 87.8134C32.083 87.5156 31.885 87.0653 31.899 86.4626ZM32.6822 83.109C32.6822 83.8414 32.8276 84.3758 33.1185 84.7122C33.4093 85.0486 33.7738 85.2168 34.2118 85.2168C34.6463 85.2168 35.0107 85.0504 35.3051 84.7175C35.5995 84.3811 35.7466 83.8554 35.7466 83.1406C35.7466 82.4572 35.5942 81.9421 35.2893 81.5952C34.988 81.2483 34.6235 81.0748 34.196 81.0748C33.7755 81.0748 33.4181 81.2465 33.1237 81.5899C32.8294 81.9299 32.6822 82.4362 32.6822 83.109ZM41.1396 86V78.2942H44.0306C44.6193 78.2942 45.0906 78.3731 45.4445 78.5308C45.802 78.685 46.0806 78.925 46.2803 79.2509C46.4835 79.5733 46.5852 79.9114 46.5852 80.2654C46.5852 80.5948 46.4958 80.9049 46.3171 81.1957C46.1384 81.4866 45.8685 81.7214 45.5076 81.9001C45.9737 82.0367 46.3311 82.2698 46.5799 82.5992C46.8322 82.9286 46.9584 83.3175 46.9584 83.7661C46.9584 84.127 46.8813 84.4634 46.7271 84.7753C46.5764 85.0836 46.3889 85.3219 46.1647 85.4901C45.9404 85.6583 45.6583 85.7862 45.3184 85.8738C44.982 85.9579 44.5685 86 44.0779 86H41.1396ZM42.1593 81.5321H43.8256C44.2776 81.5321 44.6018 81.5023 44.798 81.4428C45.0573 81.3657 45.2518 81.2378 45.3815 81.0591C45.5146 80.8803 45.5812 80.6561 45.5812 80.3863C45.5812 80.1304 45.5199 79.9062 45.3972 79.7134C45.2746 79.5172 45.0994 79.384 44.8716 79.314C44.6438 79.2404 44.2531 79.2036 43.6994 79.2036H42.1593V81.5321ZM42.1593 85.0907H44.0779C44.4073 85.0907 44.6386 85.0784 44.7717 85.0539C45.0065 85.0118 45.2027 84.9417 45.3604 84.8436C45.5181 84.7455 45.6478 84.6036 45.7494 84.4178C45.851 84.2286 45.9018 84.0114 45.9018 83.7661C45.9018 83.4787 45.8282 83.2299 45.6811 83.0197C45.5339 82.8059 45.3289 82.657 45.0661 82.5729C44.8068 82.4853 44.4318 82.4415 43.9412 82.4415H42.1593V85.0907ZM48.0149 83.5243L48.9768 83.4402C49.0223 83.8256 49.1275 84.1428 49.2922 84.3916C49.4604 84.6369 49.7197 84.8366 50.0701 84.9908C50.4205 85.1415 50.8147 85.2168 51.2528 85.2168C51.6417 85.2168 51.9852 85.159 52.283 85.0434C52.5809 84.9277 52.8016 84.77 52.9453 84.5703C53.0925 84.367 53.1661 84.1463 53.1661 83.908C53.1661 83.6662 53.096 83.4559 52.9558 83.2772C52.8156 83.095 52.5844 82.9426 52.262 82.8199C52.0552 82.7393 51.5979 82.6149 50.8901 82.4467C50.1822 82.275 49.6864 82.1138 49.4025 81.9631C49.0346 81.7704 48.7595 81.5321 48.5773 81.2483C48.3986 80.9609 48.3092 80.6403 48.3092 80.2864C48.3092 79.8974 48.4196 79.5347 48.6404 79.1983C48.8611 78.8584 49.1835 78.6009 49.6075 78.4256C50.0316 78.2504 50.5029 78.1628 51.0215 78.1628C51.5927 78.1628 52.0955 78.2557 52.5301 78.4414C52.9681 78.6236 53.3045 78.8935 53.5393 79.2509C53.7741 79.6083 53.9002 80.0131 53.9177 80.4651L52.94 80.5387C52.8875 80.0516 52.7088 79.6837 52.4039 79.4349C52.1025 79.1861 51.6558 79.0617 51.0635 79.0617C50.4468 79.0617 49.9965 79.1755 49.7127 79.4033C49.4323 79.6276 49.2922 79.8992 49.2922 80.218C49.2922 80.4949 49.392 80.7227 49.5918 80.9014C49.788 81.0801 50.2996 81.2641 51.1266 81.4533C51.9571 81.639 52.5266 81.802 52.8349 81.9421C53.2835 82.1489 53.6146 82.4117 53.8284 82.7306C54.0421 83.0459 54.149 83.4104 54.149 83.8239C54.149 84.2339 54.0316 84.6211 53.7968 84.9855C53.562 85.3465 53.2239 85.6286 52.7824 85.8318C52.3443 86.0315 51.8502 86.1314 51.3001 86.1314C50.6027 86.1314 50.0175 86.0298 49.5445 85.8265C49.0749 85.6233 48.7052 85.3184 48.4354 84.9119C48.1691 84.5019 48.0289 84.0394 48.0149 83.5243ZM55.5577 86V78.2942H58.9743C59.6611 78.2942 60.1833 78.3643 60.5407 78.5045C60.8981 78.6412 61.1837 78.8847 61.3975 79.2351C61.6112 79.5855 61.7181 79.9728 61.7181 80.3968C61.7181 80.9434 61.5411 81.4042 61.1872 81.7792C60.8333 82.1541 60.2866 82.3924 59.5472 82.494C59.8171 82.6237 60.0221 82.7516 60.1622 82.8777C60.4601 83.1511 60.7422 83.4927 61.0085 83.9027L62.3489 86H61.0663L60.0466 84.3968C59.7487 83.9343 59.5034 83.5803 59.3107 83.335C59.118 83.0898 58.9445 82.918 58.7903 82.8199C58.6397 82.7218 58.4855 82.6535 58.3278 82.6149C58.2121 82.5904 58.0229 82.5781 57.7601 82.5781H56.5774V86H55.5577ZM56.5774 81.6951H58.7693C59.2354 81.6951 59.5998 81.6478 59.8626 81.5532C60.1254 81.455 60.3252 81.3009 60.4618 81.0906C60.5985 80.8768 60.6668 80.6456 60.6668 80.3968C60.6668 80.0323 60.5337 79.7327 60.2674 79.4979C60.0045 79.2632 59.5875 79.1458 59.0164 79.1458H56.5774V81.6951ZM63.4632 81.4953V80.4178H64.5407V81.4953H63.4632ZM63.4632 86V84.9225H64.5407V86H63.4632ZM248.857 87.8337V81.2152H249.596V81.837C249.77 81.5937 249.967 81.412 250.186 81.2918C250.406 81.1687 250.671 81.1071 250.984 81.1071C251.392 81.1071 251.753 81.2122 252.065 81.4225C252.378 81.6328 252.613 81.9301 252.773 82.3146C252.932 82.696 253.011 83.115 253.011 83.5716C253.011 84.0612 252.923 84.5027 252.745 84.8962C252.571 85.2866 252.316 85.587 251.98 85.7973C251.646 86.0045 251.295 86.1081 250.925 86.1081C250.655 86.1081 250.412 86.0511 250.195 85.9369C249.982 85.8228 249.806 85.6786 249.668 85.5044V87.8337H248.857ZM249.592 83.6347C249.592 84.2504 249.716 84.7054 249.966 84.9998C250.215 85.2942 250.517 85.4413 250.871 85.4413C251.232 85.4413 251.54 85.2896 251.795 84.9863C252.053 84.6799 252.182 84.2068 252.182 83.5671C252.182 82.9573 252.056 82.5008 251.804 82.1974C251.555 81.8941 251.256 81.7424 250.907 81.7424C250.562 81.7424 250.255 81.9046 249.988 82.229C249.724 82.5504 249.592 83.0189 249.592 83.6347ZM253.998 80.3277V79.3951H254.809V80.3277H253.998ZM253.998 86V81.2152H254.809V86H253.998ZM259.323 84.4591L260.161 84.5628C260.029 85.0524 259.784 85.4323 259.427 85.7026C259.07 85.973 258.613 86.1081 258.057 86.1081C257.358 86.1081 256.802 85.8934 256.39 85.4639C255.982 85.0313 255.778 84.4261 255.778 83.6482C255.778 82.8432 255.985 82.2185 256.399 81.7739C256.814 81.3294 257.352 81.1071 258.012 81.1071C258.652 81.1071 259.175 81.3249 259.58 81.7604C259.986 82.1959 260.188 82.8087 260.188 83.5986C260.188 83.6467 260.187 83.7188 260.184 83.8149H256.616C256.646 84.3405 256.794 84.743 257.062 85.0223C257.329 85.3017 257.662 85.4413 258.062 85.4413C258.359 85.4413 258.613 85.3632 258.823 85.207C259.034 85.0509 259.2 84.8016 259.323 84.4591ZM256.661 83.1481H259.332C259.296 82.7456 259.194 82.4437 259.026 82.2425C258.768 81.9301 258.433 81.7739 258.021 81.7739C257.649 81.7739 257.335 81.8986 257.08 82.1479C256.827 82.3972 256.688 82.7306 256.661 83.1481ZM264.306 84.2474L265.104 84.351C265.017 84.9007 264.793 85.3317 264.433 85.6441C264.075 85.9534 263.635 86.1081 263.112 86.1081C262.458 86.1081 261.931 85.8949 261.531 85.4684C261.135 85.0388 260.936 84.4246 260.936 83.6256C260.936 83.109 261.022 82.657 261.193 82.2695C261.364 81.882 261.624 81.5922 261.973 81.4C262.324 81.2047 262.705 81.1071 263.117 81.1071C263.637 81.1071 264.062 81.2393 264.392 81.5036C264.722 81.7649 264.934 82.1374 265.027 82.6209L264.239 82.7426C264.164 82.4212 264.03 82.1794 263.838 82.0172C263.649 81.855 263.419 81.7739 263.148 81.7739C262.74 81.7739 262.408 81.9211 262.153 82.2155C261.897 82.5068 261.77 82.9694 261.77 83.6031C261.77 84.2459 261.893 84.713 262.139 85.0043C262.386 85.2957 262.707 85.4413 263.103 85.4413C263.422 85.4413 263.688 85.3437 263.901 85.1485C264.114 84.9532 264.249 84.6529 264.306 84.2474ZM269.073 84.4591L269.911 84.5628C269.779 85.0524 269.534 85.4323 269.177 85.7026C268.819 85.973 268.363 86.1081 267.807 86.1081C267.107 86.1081 266.552 85.8934 266.14 85.4639C265.732 85.0313 265.527 84.4261 265.527 83.6482C265.527 82.8432 265.735 82.2185 266.149 81.7739C266.564 81.3294 267.101 81.1071 267.762 81.1071C268.402 81.1071 268.924 81.3249 269.33 81.7604C269.735 82.1959 269.938 82.8087 269.938 83.5986C269.938 83.6467 269.937 83.7188 269.934 83.8149H266.365C266.395 84.3405 266.544 84.743 266.811 85.0223C267.079 85.3017 267.412 85.4413 267.812 85.4413C268.109 85.4413 268.363 85.3632 268.573 85.207C268.783 85.0509 268.95 84.8016 269.073 84.4591ZM266.41 83.1481H269.082C269.046 82.7456 268.944 82.4437 268.776 82.2425C268.517 81.9301 268.183 81.7739 267.771 81.7739C267.399 81.7739 267.085 81.8986 266.829 82.1479C266.577 82.3972 266.437 82.7306 266.41 83.1481ZM18.9842 109L21.9435 101.294H23.0421L26.1959 109H25.0343L24.1354 106.666H20.9133L20.067 109H18.9842ZM21.2077 105.836H23.82L23.0158 103.702C22.7705 103.053 22.5883 102.521 22.4692 102.104C22.3711 102.598 22.2326 103.088 22.0539 103.575L21.2077 105.836ZM28.2406 109L26.1171 103.418H27.1158L28.3142 106.761C28.4439 107.122 28.563 107.497 28.6716 107.886C28.7557 107.591 28.8731 107.237 29.0238 106.824L30.2643 103.418H31.2367L29.1237 109H28.2406ZM31.899 109.463L32.8189 109.599C32.8574 109.883 32.9643 110.09 33.1395 110.219C33.3743 110.395 33.6949 110.482 34.1014 110.482C34.5394 110.482 34.8776 110.395 35.1159 110.219C35.3542 110.044 35.5154 109.799 35.5995 109.484C35.6485 109.291 35.6713 108.886 35.6678 108.269C35.2543 108.756 34.7392 109 34.1224 109C33.355 109 32.761 108.723 32.3405 108.17C31.92 107.616 31.7098 106.952 31.7098 106.177C31.7098 105.645 31.8061 105.154 31.9989 104.706C32.1916 104.254 32.4702 103.905 32.8346 103.66C33.2026 103.414 33.6336 103.292 34.1277 103.292C34.7865 103.292 35.3296 103.558 35.7571 104.091V103.418H36.6297V108.243C36.6297 109.112 36.5403 109.727 36.3616 110.088C36.1864 110.452 35.9061 110.74 35.5206 110.95C35.1387 111.16 34.6673 111.265 34.1067 111.265C33.4409 111.265 32.903 111.115 32.493 110.813C32.083 110.516 31.885 110.065 31.899 109.463ZM32.6822 106.109C32.6822 106.841 32.8276 107.376 33.1185 107.712C33.4093 108.049 33.7738 108.217 34.2118 108.217C34.6463 108.217 35.0107 108.05 35.3051 107.717C35.5995 107.381 35.7466 106.855 35.7466 106.141C35.7466 105.457 35.5942 104.942 35.2893 104.595C34.988 104.248 34.6235 104.075 34.196 104.075C33.7755 104.075 33.4181 104.247 33.1237 104.59C32.8294 104.93 32.6822 105.436 32.6822 106.109ZM41.1817 109V101.294H44.0884C44.6 101.294 44.9907 101.319 45.2606 101.368C45.639 101.431 45.9562 101.552 46.212 101.731C46.4678 101.906 46.6728 102.153 46.827 102.472C46.9846 102.791 47.0635 103.141 47.0635 103.523C47.0635 104.178 46.855 104.734 46.438 105.189C46.021 105.641 45.2676 105.867 44.1778 105.867H42.2014V109H41.1817ZM42.2014 104.958H44.1935C44.8523 104.958 45.3201 104.835 45.597 104.59C45.8738 104.345 46.0122 103.999 46.0122 103.554C46.0122 103.232 45.9299 102.957 45.7652 102.729C45.604 102.498 45.3902 102.346 45.1239 102.272C44.9522 102.226 44.6351 102.204 44.1725 102.204H42.2014V104.958ZM48.2304 109V103.418H49.0819V104.264C49.2992 103.868 49.4989 103.607 49.6811 103.481C49.8669 103.355 50.0701 103.292 50.2909 103.292C50.6097 103.292 50.9339 103.393 51.2633 103.597L50.9374 104.474C50.7061 104.338 50.4748 104.269 50.2436 104.269C50.0368 104.269 49.8511 104.332 49.6864 104.459C49.5217 104.581 49.4043 104.753 49.3342 104.974C49.2291 105.31 49.1765 105.678 49.1765 106.077V109H48.2304ZM51.831 102.382V101.294H52.7771V102.382H51.831ZM51.831 109V103.418H52.7771V109H51.831ZM57.8652 106.955L58.7956 107.076C58.694 107.717 58.4329 108.22 58.0124 108.585C57.5954 108.946 57.082 109.126 56.4723 109.126C55.7084 109.126 55.0934 108.877 54.6273 108.38C54.1648 107.879 53.9335 107.162 53.9335 106.23C53.9335 105.627 54.0334 105.1 54.2331 104.648C54.4328 104.196 54.736 103.858 55.1424 103.633C55.5524 103.406 55.9975 103.292 56.4776 103.292C57.0838 103.292 57.5796 103.446 57.9651 103.754C58.3506 104.059 58.5976 104.494 58.7062 105.058L57.7864 105.2C57.6988 104.825 57.5428 104.543 57.3186 104.353C57.0978 104.164 56.8297 104.07 56.5143 104.07C56.0378 104.07 55.6506 104.241 55.3527 104.585C55.0548 104.925 54.9059 105.464 54.9059 106.204C54.9059 106.954 55.0496 107.498 55.3369 107.838C55.6243 108.178 55.9992 108.348 56.4618 108.348C56.8332 108.348 57.1434 108.234 57.3922 108.007C57.641 107.779 57.7986 107.428 57.8652 106.955ZM63.4264 107.202L64.4041 107.323C64.2499 107.894 63.9643 108.338 63.5473 108.653C63.1303 108.968 62.5977 109.126 61.9494 109.126C61.1329 109.126 60.4846 108.876 60.0045 108.374C59.528 107.87 59.2897 107.164 59.2897 106.256C59.2897 105.317 59.5315 104.588 60.0151 104.07C60.4986 103.551 61.1259 103.292 61.8968 103.292C62.6432 103.292 63.2529 103.546 63.726 104.054C64.1991 104.562 64.4356 105.277 64.4356 106.198C64.4356 106.254 64.4339 106.339 64.4304 106.451H60.2674C60.3024 107.064 60.4759 107.533 60.7877 107.859C61.0996 108.185 61.4886 108.348 61.9546 108.348C62.3016 108.348 62.5977 108.257 62.843 108.075C63.0882 107.893 63.2827 107.602 63.4264 107.202ZM60.3199 105.673H63.4369C63.3949 105.203 63.2757 104.851 63.0795 104.616C62.7781 104.252 62.3874 104.07 61.9073 104.07C61.4728 104.07 61.1066 104.215 60.8088 104.506C60.5144 104.797 60.3515 105.186 60.3199 105.673ZM65.8601 104.495V103.418H66.9376V104.495H65.8601ZM65.8601 109V107.922H66.9376V109H65.8601Z" fill="black"/>
<path d="M217.983 64.1091V63.1629C217.51 63.1034 217.125 62.9982 216.827 62.8476C216.532 62.6934 216.277 62.4463 216.059 62.1064C215.846 61.7665 215.721 61.3513 215.686 60.8607L216.638 60.682C216.711 61.1901 216.841 61.5633 217.027 61.8016C217.293 62.138 217.612 62.3254 217.983 62.364V59.3521C217.594 59.2785 217.197 59.1278 216.79 58.9001C216.489 58.7319 216.256 58.4988 216.091 58.201C215.93 57.9031 215.849 57.565 215.849 57.1865C215.849 56.5137 216.087 55.9688 216.564 55.5518C216.883 55.2715 217.356 55.0998 217.983 55.0367V54.5846H218.54V55.0367C219.091 55.0892 219.527 55.2504 219.849 55.5203C220.263 55.8637 220.511 56.335 220.596 56.9342L219.618 57.0814C219.562 56.7099 219.444 56.4261 219.266 56.2299C219.091 56.0301 218.849 55.8987 218.54 55.8356V58.5637C219.017 58.6828 219.332 58.7757 219.487 58.8423C219.781 58.9719 220.021 59.1296 220.207 59.3153C220.392 59.501 220.534 59.7218 220.632 59.9776C220.734 60.2334 220.785 60.5103 220.785 60.8081C220.785 61.4634 220.576 62.0101 220.159 62.4481C219.742 62.8861 219.203 63.1209 218.54 63.1524V64.1091H217.983ZM217.983 55.8251C217.615 55.8812 217.324 56.0284 217.111 56.2667C216.9 56.5049 216.795 56.787 216.795 57.1129C216.795 57.4353 216.885 57.7051 217.063 57.9224C217.246 58.1397 217.552 58.3131 217.983 58.4428V55.8251ZM218.54 62.364C218.908 62.3184 219.211 62.159 219.45 61.8857C219.692 61.6123 219.812 61.2742 219.812 60.8712C219.812 60.5278 219.727 60.2527 219.555 60.0459C219.387 59.8357 219.048 59.6482 218.54 59.4835V62.364ZM226.714 62.0907V63H221.621C221.614 62.7722 221.65 62.5532 221.731 62.343C221.861 61.996 222.067 61.6544 222.351 61.318C222.639 60.9816 223.052 60.5926 223.592 60.1511C224.429 59.4642 224.995 58.9211 225.289 58.5216C225.584 58.1186 225.731 57.7384 225.731 57.381C225.731 57.006 225.596 56.6907 225.326 56.4349C225.06 56.1755 224.711 56.0459 224.28 56.0459C223.825 56.0459 223.46 56.1826 223.187 56.4559C222.914 56.7292 222.775 57.1077 222.772 57.5912L221.799 57.4914C221.866 56.766 222.116 56.2141 222.551 55.8356C222.985 55.4537 223.569 55.2627 224.301 55.2627C225.041 55.2627 225.626 55.4677 226.057 55.8777C226.488 56.2877 226.703 56.7958 226.703 57.402C226.703 57.7104 226.64 58.0135 226.514 58.3114C226.388 58.6092 226.178 58.9228 225.883 59.2522C225.593 59.5816 225.107 60.0337 224.427 60.6084C223.86 61.0849 223.495 61.4091 223.334 61.5808C223.173 61.749 223.04 61.919 222.935 62.0907H226.714ZM227.876 61.2181L228.785 61.134C228.862 61.5615 229.009 61.8716 229.226 62.0644C229.444 62.2571 229.722 62.3535 230.062 62.3535C230.353 62.3535 230.607 62.2869 230.824 62.1537C231.045 62.0206 231.226 61.8436 231.366 61.6228C231.506 61.3986 231.623 61.0972 231.718 60.7188C231.813 60.3403 231.86 59.9548 231.86 59.5624C231.86 59.5203 231.858 59.4572 231.855 59.3731C231.665 59.6745 231.406 59.9198 231.077 60.109C230.751 60.2947 230.397 60.3876 230.015 60.3876C229.377 60.3876 228.837 60.1563 228.396 59.6938C227.954 59.2312 227.734 58.6215 227.734 57.8646C227.734 57.0831 227.963 56.4541 228.422 55.9776C228.885 55.501 229.463 55.2627 230.157 55.2627C230.658 55.2627 231.115 55.3976 231.529 55.6674C231.946 55.9373 232.261 56.3227 232.475 56.8238C232.692 57.3214 232.801 58.0433 232.801 58.9894C232.801 59.9741 232.694 60.7591 232.48 61.3443C232.266 61.926 231.947 62.3692 231.523 62.6741C231.103 62.979 230.609 63.1314 230.041 63.1314C229.438 63.1314 228.946 62.965 228.564 62.6321C228.182 62.2957 227.953 61.8243 227.876 61.2181ZM231.749 57.8173C231.749 57.2741 231.604 56.8431 231.313 56.5242C231.026 56.2053 230.679 56.0459 230.272 56.0459C229.852 56.0459 229.486 56.2176 229.174 56.561C228.862 56.9044 228.706 57.3495 228.706 57.8961C228.706 58.3867 228.853 58.7862 229.148 59.0946C229.445 59.3994 229.812 59.5519 230.246 59.5519C230.684 59.5519 231.043 59.3994 231.324 59.0946C231.608 58.7862 231.749 58.3604 231.749 57.8173ZM234.236 63V61.9225H235.313V63C235.313 63.396 235.243 63.7149 235.103 63.9566C234.963 64.2019 234.74 64.3912 234.435 64.5243L234.173 64.1196C234.372 64.032 234.52 63.9023 234.614 63.7306C234.709 63.5624 234.761 63.3189 234.772 63H234.236ZM239.755 63V61.155H236.412V60.2877L239.928 55.2942H240.701V60.2877H241.742V61.155H240.701V63H239.755ZM239.755 60.2877V56.8133L237.342 60.2877H239.755ZM242.719 60.9658L243.666 60.8397C243.774 61.3758 243.958 61.763 244.217 62.0013C244.48 62.2361 244.799 62.3535 245.174 62.3535C245.619 62.3535 245.994 62.1993 246.299 61.8909C246.607 61.5825 246.762 61.2006 246.762 60.745C246.762 60.3105 246.62 59.9531 246.336 59.6728C246.052 59.3889 245.691 59.247 245.253 59.247C245.074 59.247 244.852 59.282 244.585 59.3521L244.691 58.5216C244.754 58.5286 244.804 58.5321 244.843 58.5321C245.246 58.5321 245.609 58.427 245.931 58.2168C246.253 58.0065 246.415 57.6824 246.415 57.2443C246.415 56.8974 246.297 56.6101 246.062 56.3823C245.828 56.1545 245.525 56.0406 245.153 56.0406C244.785 56.0406 244.479 56.1563 244.233 56.3876C243.988 56.6188 243.83 56.9657 243.76 57.4283L242.814 57.2601C242.93 56.6258 243.193 56.1352 243.602 55.7883C244.012 55.4379 244.522 55.2627 245.132 55.2627C245.553 55.2627 245.94 55.3538 246.294 55.536C246.648 55.7147 246.917 55.96 247.103 56.2719C247.292 56.5838 247.387 56.9149 247.387 57.2654C247.387 57.5983 247.298 57.9014 247.119 58.1747C246.94 58.448 246.676 58.6653 246.325 58.8265C246.781 58.9316 247.135 59.1506 247.387 59.4835C247.639 59.8129 247.766 60.2264 247.766 60.724C247.766 61.3968 247.52 61.968 247.03 62.4376C246.539 62.9036 245.919 63.1367 245.169 63.1367C244.493 63.1367 243.93 62.9352 243.482 62.5322C243.037 62.1292 242.783 61.6071 242.719 60.9658ZM251.739 63V61.155H248.396V60.2877L251.913 55.2942H252.685V60.2877H253.726V61.155H252.685V63H251.739ZM251.739 60.2877V56.8133L249.327 60.2877H251.739ZM255.229 63V61.9225H256.307V63H255.229ZM257.695 59.1997C257.695 58.2886 257.788 57.5562 257.973 57.0025C258.162 56.4454 258.441 56.0161 258.809 55.7147C259.18 55.4134 259.647 55.2627 260.207 55.2627C260.621 55.2627 260.983 55.3468 261.295 55.515C261.607 55.6797 261.865 55.9197 262.068 56.2351C262.271 56.547 262.431 56.929 262.546 57.381C262.662 57.8295 262.72 58.4358 262.72 59.1997C262.72 60.1038 262.627 60.8344 262.441 61.3916C262.255 61.9452 261.977 62.3745 261.605 62.6794C261.237 62.9807 260.771 63.1314 260.207 63.1314C259.464 63.1314 258.881 62.8651 258.457 62.3324C257.949 61.6912 257.695 60.6469 257.695 59.1997ZM258.667 59.1997C258.667 60.4647 258.814 61.3075 259.109 61.728C259.406 62.145 259.773 62.3535 260.207 62.3535C260.642 62.3535 261.006 62.1432 261.301 61.7227C261.598 61.3022 261.747 60.4612 261.747 59.1997C261.747 57.9312 261.598 57.0884 261.301 56.6714C261.006 56.2544 260.638 56.0459 260.197 56.0459C259.762 56.0459 259.415 56.2299 259.156 56.5978C258.83 57.0674 258.667 57.9347 258.667 59.1997ZM263.692 60.9658L264.638 60.8397C264.747 61.3758 264.931 61.763 265.19 62.0013C265.453 62.2361 265.772 62.3535 266.147 62.3535C266.592 62.3535 266.967 62.1993 267.272 61.8909C267.58 61.5825 267.734 61.2006 267.734 60.745C267.734 60.3105 267.592 59.9531 267.308 59.6728C267.025 59.3889 266.664 59.247 266.226 59.247C266.047 59.247 265.824 59.282 265.558 59.3521L265.663 58.5216C265.726 58.5286 265.777 58.5321 265.816 58.5321C266.219 58.5321 266.581 58.427 266.904 58.2168C267.226 58.0065 267.387 57.6824 267.387 57.2443C267.387 56.8974 267.27 56.6101 267.035 56.3823C266.8 56.1545 266.497 56.0406 266.126 56.0406C265.758 56.0406 265.451 56.1563 265.206 56.3876C264.961 56.6188 264.803 56.9657 264.733 57.4283L263.787 57.2601C263.902 56.6258 264.165 56.1352 264.575 55.7883C264.985 55.4379 265.495 55.2627 266.105 55.2627C266.525 55.2627 266.913 55.3538 267.266 55.536C267.62 55.7147 267.89 55.96 268.076 56.2719C268.265 56.5838 268.36 56.9149 268.36 57.2654C268.36 57.5983 268.27 57.9014 268.092 58.1747C267.913 58.448 267.648 58.6653 267.298 58.8265C267.754 58.9316 268.107 59.1506 268.36 59.4835C268.612 59.8129 268.738 60.2264 268.738 60.724C268.738 61.3968 268.493 61.968 268.002 62.4376C267.512 62.9036 266.891 63.1367 266.142 63.1367C265.465 63.1367 264.903 62.9352 264.454 62.5322C264.009 62.1292 263.755 61.6071 263.692 60.9658ZM216.306 86H215.36V79.971C215.133 80.1883 214.833 80.4055 214.461 80.6228C214.094 80.84 213.762 81.003 213.468 81.1116V80.197C213.997 79.9482 214.46 79.6469 214.856 79.2929C215.252 78.939 215.532 78.5956 215.697 78.2627H216.306V86ZM223.707 85.0907V86H218.614C218.607 85.7722 218.644 85.5532 218.724 85.343C218.854 84.996 219.061 84.6544 219.345 84.318C219.632 83.9816 220.045 83.5926 220.585 83.1511C221.423 82.4642 221.989 81.9211 222.283 81.5216C222.577 81.1186 222.724 80.7384 222.724 80.381C222.724 80.006 222.589 79.6907 222.32 79.4349C222.053 79.1755 221.705 79.0459 221.274 79.0459C220.818 79.0459 220.454 79.1826 220.18 79.4559C219.907 79.7292 219.769 80.1077 219.765 80.5912L218.793 80.4914C218.859 79.766 219.11 79.2141 219.544 78.8356C219.979 78.4537 220.562 78.2627 221.295 78.2627C222.034 78.2627 222.619 78.4677 223.05 78.8777C223.481 79.2877 223.697 79.7958 223.697 80.402C223.697 80.7104 223.634 81.0135 223.508 81.3114C223.381 81.6092 223.171 81.9228 222.877 82.2522C222.586 82.5816 222.101 83.0337 221.421 83.6084C220.853 84.0849 220.489 84.4091 220.328 84.5808C220.166 84.749 220.033 84.919 219.928 85.0907H223.707ZM225.237 86V84.9225H226.314V86C226.314 86.396 226.244 86.7149 226.104 86.9566C225.964 87.2019 225.742 87.3912 225.437 87.5243L225.174 87.1196C225.374 87.032 225.521 86.9023 225.615 86.7306C225.71 86.5624 225.763 86.3189 225.773 86H225.237ZM227.723 82.1997C227.723 81.2886 227.816 80.5562 228.002 80.0025C228.191 79.4454 228.47 79.0161 228.837 78.7147C229.209 78.4134 229.675 78.2627 230.236 78.2627C230.649 78.2627 231.012 78.3468 231.324 78.515C231.636 78.6797 231.893 78.9197 232.096 79.2351C232.3 79.547 232.459 79.929 232.575 80.381C232.69 80.8295 232.748 81.4358 232.748 82.1997C232.748 83.1038 232.655 83.8344 232.47 84.3916C232.284 84.9452 232.005 85.3745 231.634 85.6794C231.266 85.9807 230.8 86.1314 230.236 86.1314C229.493 86.1314 228.909 85.8651 228.485 85.3324C227.977 84.6912 227.723 83.6469 227.723 82.1997ZM228.696 82.1997C228.696 83.4647 228.843 84.3075 229.137 84.728C229.435 85.145 229.801 85.3535 230.236 85.3535C230.67 85.3535 231.035 85.1432 231.329 84.7227C231.627 84.3022 231.776 83.4612 231.776 82.1997C231.776 80.9312 231.627 80.0884 231.329 79.6714C231.035 79.2544 230.667 79.0459 230.225 79.0459C229.791 79.0459 229.444 79.2299 229.184 79.5978C228.859 80.0674 228.696 80.9347 228.696 82.1997ZM233.715 82.1997C233.715 81.2886 233.808 80.5562 233.994 80.0025C234.183 79.4454 234.462 79.0161 234.83 78.7147C235.201 78.4134 235.667 78.2627 236.228 78.2627C236.641 78.2627 237.004 78.3468 237.316 78.515C237.628 78.6797 237.885 78.9197 238.089 79.2351C238.292 79.547 238.451 79.929 238.567 80.381C238.683 80.8295 238.74 81.4358 238.74 82.1997C238.74 83.1038 238.648 83.8344 238.462 84.3916C238.276 84.9452 237.998 85.3745 237.626 85.6794C237.258 85.9807 236.792 86.1314 236.228 86.1314C235.485 86.1314 234.902 85.8651 234.478 85.3324C233.969 84.6912 233.715 83.6469 233.715 82.1997ZM234.688 82.1997C234.688 83.4647 234.835 84.3075 235.129 84.728C235.427 85.145 235.793 85.3535 236.228 85.3535C236.662 85.3535 237.027 85.1432 237.321 84.7227C237.619 84.3022 237.768 83.4612 237.768 82.1997C237.768 80.9312 237.619 80.0884 237.321 79.6714C237.027 79.2544 236.659 79.0459 236.217 79.0459C235.783 79.0459 235.436 79.2299 235.177 79.5978C234.851 80.0674 234.688 80.9347 234.688 82.1997ZM239.708 82.1997C239.708 81.2886 239.8 80.5562 239.986 80.0025C240.175 79.4454 240.454 79.0161 240.822 78.7147C241.193 78.4134 241.659 78.2627 242.22 78.2627C242.634 78.2627 242.996 78.3468 243.308 78.515C243.62 78.6797 243.878 78.9197 244.081 79.2351C244.284 79.547 244.444 79.929 244.559 80.381C244.675 80.8295 244.733 81.4358 244.733 82.1997C244.733 83.1038 244.64 83.8344 244.454 84.3916C244.268 84.9452 243.99 85.3745 243.618 85.6794C243.25 85.9807 242.784 86.1314 242.22 86.1314C241.477 86.1314 240.894 85.8651 240.47 85.3324C239.962 84.6912 239.708 83.6469 239.708 82.1997ZM240.68 82.1997C240.68 83.4647 240.827 84.3075 241.122 84.728C241.419 85.145 241.786 85.3535 242.22 85.3535C242.655 85.3535 243.019 85.1432 243.313 84.7227C243.611 84.3022 243.76 83.4612 243.76 82.1997C243.76 80.9312 243.611 80.0884 243.313 79.6714C243.019 79.2544 242.651 79.0459 242.21 79.0459C241.775 79.0459 241.428 79.2299 241.169 79.5978C240.843 80.0674 240.68 80.9347 240.68 82.1997ZM238.346 110.109V109.163C237.873 109.103 237.488 108.998 237.19 108.848C236.895 108.693 236.64 108.446 236.422 108.106C236.209 107.767 236.084 107.351 236.049 106.861L237.001 106.682C237.074 107.19 237.204 107.563 237.39 107.802C237.656 108.138 237.975 108.325 238.346 108.364V105.352C237.957 105.279 237.559 105.128 237.153 104.9C236.852 104.732 236.619 104.499 236.454 104.201C236.293 103.903 236.212 103.565 236.212 103.187C236.212 102.514 236.45 101.969 236.927 101.552C237.246 101.271 237.719 101.1 238.346 101.037V100.585H238.903V101.037C239.454 101.089 239.89 101.25 240.212 101.52C240.626 101.864 240.874 102.335 240.959 102.934L239.981 103.081C239.925 102.71 239.807 102.426 239.629 102.23C239.454 102.03 239.212 101.899 238.903 101.836V104.564C239.38 104.683 239.695 104.776 239.849 104.842C240.144 104.972 240.384 105.13 240.57 105.315C240.755 105.501 240.897 105.722 240.995 105.978C241.097 106.233 241.148 106.51 241.148 106.808C241.148 107.463 240.939 108.01 240.522 108.448C240.105 108.886 239.566 109.121 238.903 109.152V110.109H238.346ZM238.346 101.825C237.978 101.881 237.687 102.028 237.474 102.267C237.263 102.505 237.158 102.787 237.158 103.113C237.158 103.435 237.248 103.705 237.426 103.922C237.609 104.14 237.915 104.313 238.346 104.443V101.825ZM238.903 108.364C239.271 108.318 239.574 108.159 239.813 107.886C240.054 107.612 240.175 107.274 240.175 106.871C240.175 106.528 240.09 106.253 239.918 106.046C239.75 105.836 239.411 105.648 238.903 105.484V108.364ZM245.668 109H244.722V102.971C244.494 103.188 244.195 103.406 243.823 103.623C243.455 103.84 243.124 104.003 242.83 104.112V103.197C243.359 102.948 243.822 102.647 244.217 102.293C244.613 101.939 244.894 101.596 245.058 101.263H245.668V109ZM248.097 106.982L249.09 106.897C249.164 107.381 249.334 107.745 249.6 107.991C249.87 108.233 250.194 108.353 250.572 108.353C251.028 108.353 251.413 108.182 251.729 107.838C252.044 107.495 252.202 107.039 252.202 106.472C252.202 105.932 252.049 105.506 251.745 105.194C251.443 104.883 251.047 104.727 250.557 104.727C250.252 104.727 249.977 104.797 249.731 104.937C249.486 105.074 249.293 105.252 249.153 105.473L248.265 105.357L249.011 101.399H252.843V102.303H249.768L249.353 104.374C249.815 104.052 250.301 103.891 250.809 103.891C251.482 103.891 252.049 104.124 252.512 104.59C252.975 105.056 253.206 105.655 253.206 106.388C253.206 107.085 253.003 107.688 252.596 108.196C252.102 108.82 251.427 109.131 250.572 109.131C249.872 109.131 249.299 108.935 248.854 108.543C248.412 108.15 248.16 107.63 248.097 106.982ZM254.62 109V107.922H255.697V109H254.62ZM257.227 107.218L258.136 107.134C258.213 107.562 258.36 107.872 258.578 108.064C258.795 108.257 259.074 108.353 259.414 108.353C259.704 108.353 259.958 108.287 260.176 108.154C260.396 108.021 260.577 107.844 260.717 107.623C260.857 107.399 260.975 107.097 261.069 106.719C261.164 106.34 261.211 105.955 261.211 105.562C261.211 105.52 261.209 105.457 261.206 105.373C261.017 105.675 260.757 105.92 260.428 106.109C260.102 106.295 259.748 106.388 259.366 106.388C258.728 106.388 258.189 106.156 257.747 105.694C257.306 105.231 257.085 104.621 257.085 103.865C257.085 103.083 257.314 102.454 257.774 101.978C258.236 101.501 258.814 101.263 259.508 101.263C260.009 101.263 260.467 101.398 260.88 101.667C261.297 101.937 261.612 102.323 261.826 102.824C262.043 103.321 262.152 104.043 262.152 104.989C262.152 105.974 262.045 106.759 261.831 107.344C261.618 107.926 261.299 108.369 260.875 108.674C260.454 108.979 259.96 109.131 259.392 109.131C258.79 109.131 258.297 108.965 257.915 108.632C257.533 108.296 257.304 107.824 257.227 107.218ZM261.101 103.817C261.101 103.274 260.955 102.843 260.665 102.524C260.377 102.205 260.03 102.046 259.624 102.046C259.203 102.046 258.837 102.218 258.525 102.561C258.213 102.904 258.057 103.349 258.057 103.896C258.057 104.387 258.205 104.786 258.499 105.095C258.797 105.399 259.163 105.552 259.597 105.552C260.036 105.552 260.395 105.399 260.675 105.095C260.959 104.786 261.101 104.36 261.101 103.817ZM263.219 107.218L264.128 107.134C264.206 107.562 264.353 107.872 264.57 108.064C264.787 108.257 265.066 108.353 265.406 108.353C265.697 108.353 265.951 108.287 266.168 108.154C266.389 108.021 266.569 107.844 266.709 107.623C266.849 107.399 266.967 107.097 267.061 106.719C267.156 106.34 267.203 105.955 267.203 105.562C267.203 105.52 267.202 105.457 267.198 105.373C267.009 105.675 266.75 105.92 266.42 106.109C266.094 106.295 265.74 106.388 265.358 106.388C264.721 106.388 264.181 106.156 263.739 105.694C263.298 105.231 263.077 104.621 263.077 103.865C263.077 103.083 263.307 102.454 263.766 101.978C264.228 101.501 264.806 101.263 265.5 101.263C266.001 101.263 266.459 101.398 266.872 101.667C267.289 101.937 267.605 102.323 267.818 102.824C268.036 103.321 268.144 104.043 268.144 104.989C268.144 105.974 268.037 106.759 267.824 107.344C267.61 107.926 267.291 108.369 266.867 108.674C266.446 108.979 265.952 109.131 265.385 109.131C264.782 109.131 264.29 108.965 263.908 108.632C263.526 108.296 263.296 107.824 263.219 107.218ZM267.093 103.817C267.093 103.274 266.948 102.843 266.657 102.524C266.369 102.205 266.022 102.046 265.616 102.046C265.195 102.046 264.829 102.218 264.517 102.561C264.206 102.904 264.05 103.349 264.05 103.896C264.05 104.387 264.197 104.786 264.491 105.095C264.789 105.399 265.155 105.552 265.59 105.552C266.028 105.552 266.387 105.399 266.667 105.095C266.951 104.786 267.093 104.36 267.093 103.817Z" fill="#666666"/>
<path d="M24.74 146.351V143.715H19.9643V142.476L24.9878 135.342H26.0916V142.476H27.5784V143.715H26.0916V146.351H24.74ZM24.74 142.476V137.512L21.2934 142.476H24.74ZM29.726 146.351V144.811H31.2654V146.351H29.726ZM38.3389 146.351H36.9872V137.738C36.6618 138.048 36.2338 138.358 35.7032 138.669C35.1776 138.979 34.7045 139.212 34.284 139.367V138.061C35.0399 137.705 35.7007 137.275 36.2664 136.769C36.8321 136.263 37.2325 135.773 37.4678 135.297H38.3389V146.351ZM41.1698 146.538L44.3611 135.155H45.4424L42.2586 146.538H41.1698ZM46.0882 143.467L47.5074 143.347C47.6125 144.038 47.8553 144.558 48.2358 144.909C48.6212 145.254 49.0843 145.427 49.6249 145.427C50.2757 145.427 50.8264 145.182 51.2769 144.691C51.7275 144.201 51.9527 143.55 51.9527 142.739C51.9527 141.968 51.735 141.36 51.2994 140.914C50.8689 140.469 50.3032 140.246 49.6024 140.246C49.1669 140.246 48.7739 140.346 48.4235 140.546C48.0731 140.741 47.7977 140.997 47.5975 141.312L46.3285 141.147L47.3948 135.493H52.8688V136.784H48.4761L47.8828 139.743C48.5436 139.282 49.237 139.052 49.9628 139.052C50.924 139.052 51.735 139.385 52.3958 140.051C53.0566 140.716 53.387 141.572 53.387 142.619C53.387 143.615 53.0966 144.476 52.5159 145.202C51.8101 146.093 50.8464 146.538 49.6249 146.538C48.6237 146.538 47.8052 146.258 47.1695 145.697C46.5387 145.137 46.1783 144.393 46.0882 143.467ZM19.7533 161.351L22.7126 153.645H23.8112L26.9649 161.351H25.8033L24.9045 159.017H21.6823L20.8361 161.351H19.7533ZM21.9767 158.186H24.5891L23.7849 156.052C23.5396 155.404 23.3574 154.871 23.2382 154.454C23.1401 154.948 23.0017 155.439 22.823 155.926L21.9767 158.186ZM29.0097 161.351L26.8861 155.768H27.8848L29.0832 159.111C29.2129 159.472 29.332 159.847 29.4407 160.236C29.5248 159.942 29.6422 159.588 29.7928 159.174L31.0333 155.768H32.0058L29.8927 161.351H29.0097ZM32.668 161.813L33.5879 161.95C33.6265 162.234 33.7333 162.44 33.9085 162.57C34.1433 162.745 34.464 162.833 34.8704 162.833C35.3085 162.833 35.6466 162.745 35.8849 162.57C36.1232 162.395 36.2844 162.15 36.3685 161.834C36.4176 161.641 36.4403 161.237 36.4368 160.62C36.0233 161.107 35.5082 161.351 34.8915 161.351C34.124 161.351 33.5301 161.074 33.1096 160.52C32.6891 159.966 32.4788 159.302 32.4788 158.528C32.4788 157.995 32.5752 157.505 32.7679 157.056C32.9607 156.604 33.2392 156.255 33.6037 156.01C33.9716 155.765 34.4026 155.642 34.8967 155.642C35.5555 155.642 36.0987 155.909 36.5262 156.441V155.768H37.3987V160.594C37.3987 161.463 37.3094 162.078 37.1307 162.439C36.9555 162.803 36.6751 163.09 36.2897 163.301C35.9077 163.511 35.4364 163.616 34.8757 163.616C34.2099 163.616 33.672 163.465 33.262 163.164C32.852 162.866 32.654 162.416 32.668 161.813ZM33.4512 158.46C33.4512 159.192 33.5967 159.726 33.8875 160.063C34.1784 160.399 34.5428 160.567 34.9808 160.567C35.4154 160.567 35.7798 160.401 36.0741 160.068C36.3685 159.732 36.5157 159.206 36.5157 158.491C36.5157 157.808 36.3632 157.293 36.0584 156.946C35.757 156.599 35.3926 156.425 34.9651 156.425C34.5446 156.425 34.1871 156.597 33.8928 156.941C33.5984 157.28 33.4512 157.787 33.4512 158.46ZM41.9665 161.351V153.645H45.3831C46.0699 153.645 46.592 153.715 46.9495 153.855C47.3069 153.992 47.5925 154.235 47.8062 154.586C48.02 154.936 48.1269 155.323 48.1269 155.747C48.1269 156.294 47.9499 156.755 47.596 157.13C47.2421 157.505 46.6954 157.743 45.956 157.845C46.2258 157.974 46.4308 158.102 46.571 158.228C46.8689 158.502 47.151 158.843 47.4173 159.253L48.7576 161.351H47.4751L46.4554 159.747C46.1575 159.285 45.9122 158.931 45.7195 158.686C45.5268 158.44 45.3533 158.269 45.1991 158.171C45.0484 158.072 44.8942 158.004 44.7366 157.966C44.6209 157.941 44.4317 157.929 44.1689 157.929H42.9862V161.351H41.9665ZM42.9862 157.046H45.1781C45.6441 157.046 46.0086 156.998 46.2714 156.904C46.5342 156.806 46.734 156.651 46.8706 156.441C47.0073 156.227 47.0756 155.996 47.0756 155.747C47.0756 155.383 46.9425 155.083 46.6761 154.849C46.4133 154.614 45.9963 154.496 45.4251 154.496H42.9862V157.046ZM53.4305 159.553L54.4082 159.674C54.254 160.245 53.9684 160.688 53.5514 161.004C53.1344 161.319 52.6018 161.477 51.9535 161.477C51.137 161.477 50.4887 161.226 50.0086 160.725C49.5321 160.22 49.2938 159.514 49.2938 158.607C49.2938 157.668 49.5356 156.939 50.0192 156.42C50.5027 155.902 51.13 155.642 51.9009 155.642C52.6473 155.642 53.257 155.896 53.7301 156.404C54.2032 156.913 54.4397 157.627 54.4397 158.549C54.4397 158.605 54.438 158.689 54.4345 158.801H50.2715C50.3065 159.415 50.48 159.884 50.7918 160.21C51.1037 160.536 51.4927 160.699 51.9587 160.699C52.3057 160.699 52.6018 160.608 52.8471 160.425C53.0924 160.243 53.2868 159.952 53.4305 159.553ZM50.324 158.023H53.441C53.399 157.554 53.2798 157.202 53.0836 156.967C52.7822 156.602 52.3915 156.42 51.9114 156.42C51.4769 156.42 51.1107 156.566 50.8129 156.856C50.5185 157.147 50.3556 157.536 50.324 158.023ZM57.152 161.351L55.0284 155.768H56.0271L57.2256 159.111C57.3552 159.472 57.4744 159.847 57.583 160.236C57.6671 159.942 57.7845 159.588 57.9352 159.174L59.1757 155.768H60.1481L58.035 161.351H57.152ZM60.9891 154.733V153.645H61.9352V154.733H60.9891ZM60.9891 161.351V155.768H61.9352V161.351H60.9891ZM67.2021 159.553L68.1797 159.674C68.0256 160.245 67.74 160.688 67.323 161.004C66.906 161.319 66.3733 161.477 65.725 161.477C64.9086 161.477 64.2603 161.226 63.7802 160.725C63.3036 160.22 63.0653 159.514 63.0653 158.607C63.0653 157.668 63.3071 156.939 63.7907 156.42C64.2743 155.902 64.9015 155.642 65.6725 155.642C66.4189 155.642 67.0286 155.896 67.5017 156.404C67.9747 156.913 68.2113 157.627 68.2113 158.549C68.2113 158.605 68.2095 158.689 68.206 158.801H64.043C64.0781 159.415 64.2515 159.884 64.5634 160.21C64.8753 160.536 65.2642 160.699 65.7303 160.699C66.0772 160.699 66.3733 160.608 66.6186 160.425C66.8639 160.243 67.0584 159.952 67.2021 159.553ZM64.0956 158.023H67.2126C67.1705 157.554 67.0514 157.202 66.8551 156.967C66.5538 156.602 66.1631 156.42 65.683 156.42C65.2485 156.42 64.8823 156.566 64.5844 156.856C64.2901 157.147 64.1271 157.536 64.0956 158.023ZM70.4032 161.351L68.6949 155.768H69.6725L70.5608 158.99L70.892 160.189C70.906 160.129 71.0024 159.746 71.1811 159.038L72.0694 155.768H73.0418L73.8776 159.006L74.1562 160.073L74.4768 158.996L75.4335 155.768H76.3533L74.6082 161.351H73.6253L72.737 158.008L72.5215 157.056L71.3913 161.351H70.4032ZM76.7738 159.684L77.7094 159.537C77.762 159.912 77.9074 160.199 78.1457 160.399C78.3875 160.599 78.7239 160.699 79.1549 160.699C79.5895 160.699 79.9118 160.611 80.1221 160.436C80.3323 160.257 80.4375 160.049 80.4375 159.81C80.4375 159.597 80.3446 159.429 80.1589 159.306C80.0292 159.222 79.7068 159.115 79.1917 158.985C78.4979 158.81 78.0161 158.659 77.7462 158.533C77.4799 158.404 77.2767 158.227 77.1365 158.002C76.9998 157.775 76.9315 157.524 76.9315 157.251C76.9315 157.002 76.9876 156.772 77.0997 156.562C77.2153 156.348 77.3713 156.171 77.5675 156.031C77.7147 155.923 77.9144 155.831 78.1667 155.758C78.4225 155.681 78.6959 155.642 78.9867 155.642C79.4248 155.642 79.8085 155.705 80.1379 155.831C80.4708 155.958 80.7161 156.129 80.8737 156.347C81.0314 156.56 81.1401 156.848 81.1996 157.209L80.2745 157.335C80.2325 157.047 80.1098 156.823 79.9066 156.662C79.7068 156.501 79.423 156.42 79.0551 156.42C78.6205 156.42 78.3104 156.492 78.1247 156.636C77.939 156.779 77.8461 156.948 77.8461 157.14C77.8461 157.263 77.8847 157.373 77.9617 157.471C78.0388 157.573 78.1597 157.657 78.3244 157.724C78.419 157.759 78.6976 157.839 79.1602 157.966C79.8295 158.144 80.2956 158.291 80.5584 158.407C80.8247 158.519 81.0332 158.684 81.1839 158.901C81.3345 159.118 81.4099 159.388 81.4099 159.711C81.4099 160.026 81.317 160.324 81.1313 160.604C80.9491 160.881 80.6845 161.097 80.3376 161.251C79.9907 161.401 79.5982 161.477 79.1602 161.477C78.4348 161.477 77.8811 161.326 77.4992 161.025C77.1207 160.723 76.8789 160.277 76.7738 159.684ZM82.7976 156.846V155.768H83.8751V156.846H82.7976ZM82.7976 161.351V160.273H83.8751V161.351H82.7976Z" fill="black"/>
<path d="M19 124.124H275.821" stroke="#ADADAD" stroke-width="0.384462" stroke-linecap="round" stroke-dasharray="3.08 3.08"/>
<path d="M19 204.092H275.821" stroke="#ADADAD" stroke-width="0.384462" stroke-linecap="round" stroke-dasharray="3.08 3.08"/>
<path d="M19 125.661H275.821" stroke="#ADADAD" stroke-width="0.384462" stroke-linecap="round" stroke-dasharray="3.08 3.08"/>
<path d="M19 205.629H275.821" stroke="#ADADAD" stroke-width="0.384462" stroke-linecap="round" stroke-dasharray="3.08 3.08"/>
<path d="M21.0214 225.225L21.9833 225.141C22.0289 225.527 22.134 225.844 22.2987 226.093C22.4669 226.338 22.7262 226.538 23.0766 226.692C23.4271 226.843 23.8213 226.918 24.2593 226.918C24.6483 226.918 24.9917 226.86 25.2896 226.745C25.5874 226.629 25.8082 226.471 25.9518 226.271C26.099 226.068 26.1726 225.847 26.1726 225.609C26.1726 225.367 26.1025 225.157 25.9624 224.978C25.8222 224.796 25.5909 224.644 25.2685 224.521C25.0618 224.441 24.6045 224.316 23.8966 224.148C23.1888 223.976 22.6929 223.815 22.4091 223.664C22.0411 223.472 21.7661 223.233 21.5838 222.949C21.4051 222.662 21.3158 222.341 21.3158 221.988C21.3158 221.599 21.4262 221.236 21.6469 220.899C21.8677 220.56 22.1901 220.302 22.6141 220.127C23.0381 219.952 23.5094 219.864 24.028 219.864C24.5992 219.864 25.1021 219.957 25.5366 220.143C25.9746 220.325 26.311 220.595 26.5458 220.952C26.7806 221.309 26.9067 221.714 26.9243 222.166L25.9466 222.24C25.894 221.753 25.7153 221.385 25.4104 221.136C25.1091 220.887 24.6623 220.763 24.0701 220.763C23.4533 220.763 23.0031 220.877 22.7192 221.104C22.4389 221.329 22.2987 221.6 22.2987 221.919C22.2987 222.196 22.3986 222.424 22.5983 222.603C22.7946 222.781 23.3062 222.965 24.1332 223.154C24.9637 223.34 25.5331 223.503 25.8415 223.643C26.29 223.85 26.6212 224.113 26.8349 224.432C27.0487 224.747 27.1555 225.112 27.1555 225.525C27.1555 225.935 27.0382 226.322 26.8034 226.687C26.5686 227.048 26.2304 227.33 25.7889 227.533C25.3509 227.733 24.8568 227.833 24.3066 227.833C23.6093 227.833 23.0241 227.731 22.551 227.528C22.0814 227.324 21.7118 227.02 21.4419 226.613C21.1756 226.203 21.0354 225.741 21.0214 225.225ZM32.2489 225.904L33.2266 226.024C33.0724 226.596 32.7868 227.039 32.3698 227.354C31.9528 227.67 31.4202 227.827 30.7719 227.827C29.9554 227.827 29.3071 227.577 28.8271 227.076C28.3505 226.571 28.1122 225.865 28.1122 224.957C28.1122 224.018 28.354 223.289 28.8376 222.771C29.3211 222.252 29.9484 221.993 30.7193 221.993C31.4657 221.993 32.0755 222.247 32.5485 222.755C33.0216 223.263 33.2581 223.978 33.2581 224.9C33.2581 224.956 33.2564 225.04 33.2529 225.152H29.0899C29.1249 225.765 29.2984 226.235 29.6102 226.561C29.9221 226.886 30.3111 227.049 30.7772 227.049C31.1241 227.049 31.4202 226.958 31.6655 226.776C31.9108 226.594 32.1052 226.303 32.2489 225.904ZM29.1424 224.374H32.2594C32.2174 223.904 32.0982 223.552 31.902 223.317C31.6006 222.953 31.2099 222.771 30.7298 222.771C30.2953 222.771 29.9291 222.916 29.6313 223.207C29.3369 223.498 29.174 223.887 29.1424 224.374ZM38.2411 225.904L39.2188 226.024C39.0646 226.596 38.779 227.039 38.362 227.354C37.945 227.67 37.4124 227.827 36.7641 227.827C35.9476 227.827 35.2993 227.577 34.8193 227.076C34.3427 226.571 34.1044 225.865 34.1044 224.957C34.1044 224.018 34.3462 223.289 34.8298 222.771C35.3134 222.252 35.9406 221.993 36.7115 221.993C37.4579 221.993 38.0677 222.247 38.5407 222.755C39.0138 223.263 39.2503 223.978 39.2503 224.9C39.2503 224.956 39.2486 225.04 39.2451 225.152H35.0821C35.1171 225.765 35.2906 226.235 35.6025 226.561C35.9143 226.886 36.3033 227.049 36.7694 227.049C37.1163 227.049 37.4124 226.958 37.6577 226.776C37.903 226.594 38.0975 226.303 38.2411 225.904ZM35.1346 224.374H38.2516C38.2096 223.904 38.0904 223.552 37.8942 223.317C37.5928 222.953 37.2021 222.771 36.722 222.771C36.2875 222.771 35.9213 222.916 35.6235 223.207C35.3291 223.498 35.1662 223.887 35.1346 224.374ZM43.4081 229.84V222.119H44.2701V222.844C44.4734 222.56 44.7029 222.348 44.9587 222.208C45.2145 222.065 45.5246 221.993 45.8891 221.993C46.3656 221.993 46.7861 222.115 47.1506 222.361C47.515 222.606 47.7901 222.953 47.9758 223.402C48.1615 223.847 48.2544 224.335 48.2544 224.868C48.2544 225.439 48.151 225.954 47.9443 226.413C47.741 226.869 47.4432 227.219 47.0507 227.465C46.6617 227.706 46.2518 227.827 45.8207 227.827C45.5054 227.827 45.2215 227.761 44.9692 227.628C44.7204 227.494 44.5154 227.326 44.3542 227.123V229.84H43.4081ZM44.2649 224.942C44.2649 225.66 44.4103 226.191 44.7011 226.534C44.992 226.878 45.3442 227.049 45.7577 227.049C46.1782 227.049 46.5373 226.872 46.8352 226.519C47.1366 226.161 47.2872 225.609 47.2872 224.863C47.2872 224.151 47.1401 223.619 46.8457 223.265C46.5549 222.911 46.2062 222.734 45.7997 222.734C45.3967 222.734 45.0393 222.923 44.7274 223.302C44.419 223.677 44.2649 224.223 44.2649 224.942ZM49.3898 227.701V222.119H50.2413V222.965C50.4586 222.569 50.6583 222.308 50.8405 222.182C51.0262 222.056 51.2295 221.993 51.4503 221.993C51.7691 221.993 52.0933 222.094 52.4227 222.298L52.0968 223.175C51.8655 223.039 51.6342 222.97 51.4029 222.97C51.1962 222.97 51.0105 223.034 50.8458 223.16C50.6811 223.282 50.5637 223.454 50.4936 223.675C50.3885 224.011 50.3359 224.379 50.3359 224.779V227.701H49.3898ZM52.6329 224.91C52.6329 223.876 52.9203 223.111 53.495 222.613C53.975 222.2 54.5602 221.993 55.2506 221.993C56.018 221.993 56.6452 222.245 57.1323 222.75C57.6194 223.251 57.863 223.945 57.863 224.831C57.863 225.55 57.7543 226.116 57.5371 226.529C57.3233 226.939 57.0097 227.258 56.5962 227.486C56.1862 227.713 55.7377 227.827 55.2506 227.827C54.4691 227.827 53.8366 227.577 53.353 227.076C52.873 226.575 52.6329 225.853 52.6329 224.91ZM53.6053 224.91C53.6053 225.625 53.7613 226.161 54.0732 226.519C54.385 226.872 54.7775 227.049 55.2506 227.049C55.7201 227.049 56.1109 226.871 56.4227 226.513C56.7346 226.156 56.8905 225.611 56.8905 224.879C56.8905 224.188 56.7329 223.666 56.4175 223.312C56.1056 222.955 55.7166 222.776 55.2506 222.776C54.7775 222.776 54.385 222.953 54.0732 223.307C53.7613 223.661 53.6053 224.195 53.6053 224.91ZM62.5989 227.701V226.997C62.245 227.55 61.7246 227.827 61.0378 227.827C60.5927 227.827 60.1827 227.705 59.8078 227.459C59.4364 227.214 59.1473 226.872 58.9405 226.434C58.7373 225.993 58.6356 225.487 58.6356 224.915C58.6356 224.358 58.7285 223.854 58.9142 223.402C59.0999 222.946 59.3785 222.597 59.75 222.355C60.1214 222.114 60.5367 221.993 60.9957 221.993C61.3321 221.993 61.6317 222.065 61.8946 222.208C62.1574 222.348 62.3711 222.532 62.5358 222.76V219.995H63.4767V227.701H62.5989ZM59.6081 224.915C59.6081 225.63 59.7587 226.165 60.0601 226.519C60.3615 226.872 60.7171 227.049 61.1271 227.049C61.5406 227.049 61.8911 226.881 62.1784 226.545C62.4692 226.205 62.6147 225.688 62.6147 224.994C62.6147 224.23 62.4675 223.67 62.1731 223.312C61.8788 222.955 61.5161 222.776 61.0851 222.776C60.6646 222.776 60.3124 222.948 60.0286 223.291C59.7482 223.635 59.6081 224.176 59.6081 224.915ZM68.6279 227.701V226.881C68.1934 227.512 67.6029 227.827 66.8565 227.827C66.5271 227.827 66.2188 227.764 65.9314 227.638C65.6476 227.512 65.4356 227.354 65.2954 227.165C65.1587 226.972 65.0624 226.738 65.0063 226.461C64.9678 226.275 64.9485 225.981 64.9485 225.578V222.119H65.8946V225.215C65.8946 225.709 65.9139 226.042 65.9524 226.214C66.012 226.462 66.1382 226.659 66.3309 226.802C66.5236 226.943 66.7619 227.013 67.0457 227.013C67.3296 227.013 67.5959 226.941 67.8447 226.797C68.0935 226.65 68.2687 226.452 68.3703 226.203C68.4755 225.951 68.528 225.586 68.528 225.11V222.119H69.4742V227.701H68.6279ZM74.6043 225.656L75.5347 225.777C75.4331 226.419 75.172 226.921 74.7515 227.286C74.3345 227.647 73.8211 227.827 73.2114 227.827C72.4475 227.827 71.8325 227.579 71.3664 227.081C70.9039 226.58 70.6726 225.863 70.6726 224.931C70.6726 224.328 70.7725 223.801 70.9722 223.349C71.172 222.897 71.4751 222.559 71.8816 222.334C72.2916 222.107 72.7366 221.993 73.2167 221.993C73.8229 221.993 74.3187 222.147 74.7042 222.455C75.0897 222.76 75.3367 223.195 75.4453 223.759L74.5255 223.901C74.4379 223.526 74.2819 223.244 74.0577 223.055C73.8369 222.865 73.5688 222.771 73.2535 222.771C72.7769 222.771 72.3897 222.942 72.0918 223.286C71.794 223.626 71.645 224.165 71.645 224.905C71.645 225.655 71.7887 226.2 72.076 226.54C72.3634 226.879 72.7383 227.049 73.2009 227.049C73.5723 227.049 73.8825 226.936 74.1313 226.708C74.3801 226.48 74.5378 226.13 74.6043 225.656ZM78.4099 226.855L78.5466 227.691C78.2803 227.747 78.042 227.775 77.8317 227.775C77.4883 227.775 77.222 227.72 77.0328 227.612C76.8435 227.503 76.7104 227.361 76.6333 227.186C76.5562 227.007 76.5176 226.634 76.5176 226.066V222.855H75.8238V222.119H76.5176V220.737L77.4585 220.169V222.119H78.4099V222.855H77.4585V226.119C77.4585 226.389 77.4743 226.562 77.5058 226.639C77.5409 226.716 77.5952 226.778 77.6688 226.823C77.7459 226.869 77.8545 226.892 77.9947 226.892C78.0998 226.892 78.2382 226.879 78.4099 226.855ZM81.9842 224.91C81.9842 223.876 82.2716 223.111 82.8462 222.613C83.3263 222.2 83.9115 221.993 84.6019 221.993C85.3693 221.993 85.9965 222.245 86.4836 222.75C86.9707 223.251 87.2142 223.945 87.2142 224.831C87.2142 225.55 87.1056 226.116 86.8884 226.529C86.6746 226.939 86.361 227.258 85.9475 227.486C85.5375 227.713 85.0889 227.827 84.6019 227.827C83.8204 227.827 83.1879 227.577 82.7043 227.076C82.2242 226.575 81.9842 225.853 81.9842 224.91ZM82.9566 224.91C82.9566 225.625 83.1126 226.161 83.4244 226.519C83.7363 226.872 84.1288 227.049 84.6019 227.049C85.0714 227.049 85.4621 226.871 85.774 226.513C86.0859 226.156 86.2418 225.611 86.2418 224.879C86.2418 224.188 86.0841 223.666 85.7688 223.312C85.4569 222.955 85.0679 222.776 84.6019 222.776C84.1288 222.776 83.7363 222.953 83.4244 223.307C83.1126 223.661 82.9566 224.195 82.9566 224.91ZM88.3286 227.701V222.119H89.1801V222.913C89.5901 222.299 90.1823 221.993 90.9567 221.993C91.2931 221.993 91.6015 222.054 91.8819 222.177C92.1657 222.296 92.3777 222.454 92.5179 222.65C92.658 222.846 92.7562 223.079 92.8122 223.349C92.8473 223.524 92.8648 223.831 92.8648 224.269V227.701H91.9186V224.306C91.9186 223.92 91.8819 223.633 91.8083 223.444C91.7347 223.251 91.6033 223.098 91.414 222.986C91.2283 222.871 91.0093 222.813 90.757 222.813C90.354 222.813 90.0053 222.941 89.711 223.197C89.4201 223.452 89.2747 223.938 89.2747 224.653V227.701H88.3286ZM94.5836 223.197V222.119H95.6611V223.197H94.5836ZM94.5836 227.701V226.624H95.6611V227.701H94.5836Z" fill="black"/>
<g filter="url(#filter0_d_306_526)">
<circle cx="209.74" cy="229.46" r="10.9041" fill="white"/>
<circle cx="209.74" cy="229.46" r="10.7795" stroke="#B8B8B8" stroke-width="0.249238"/>
</g>
<path fill-rule="evenodd" clip-rule="evenodd" d="M210.098 230.031C209.884 230.459 209.517 230.734 209.12 230.827C209.059 230.827 208.967 230.857 208.876 230.857C208.204 230.857 207.807 230.337 207.807 229.574C207.807 228.595 208.387 228.138 209.12 227.923C209.517 227.831 209.976 227.8 210.434 227.8V228.168C210.434 228.87 210.464 229.42 210.098 230.031ZM210.434 226.396C210.037 226.426 209.578 226.456 209.12 226.517C208.417 226.609 207.715 226.731 207.136 227.007C206.005 227.465 205.241 228.443 205.241 229.878C205.241 231.682 206.402 232.598 207.869 232.598C208.357 232.598 208.754 232.536 209.12 232.446C209.701 232.262 210.189 231.926 210.769 231.314C211.105 231.773 211.198 231.988 211.777 232.476C211.93 232.536 212.083 232.536 212.205 232.446C212.572 232.14 213.214 231.59 213.549 231.284C213.702 231.162 213.672 230.978 213.579 230.827C213.244 230.398 212.907 230.031 212.907 229.207V226.456C212.907 225.295 213 224.226 212.144 223.432C211.442 222.791 210.342 222.546 209.487 222.546H209.12C207.563 222.636 205.914 223.309 205.546 225.234C205.485 225.479 205.669 225.57 205.791 225.601L207.502 225.815C207.685 225.784 207.777 225.631 207.807 225.479C207.959 224.807 208.509 224.471 209.12 224.409H209.243C209.61 224.409 210.007 224.562 210.22 224.868C210.464 225.234 210.434 225.724 210.434 226.152V226.396Z" fill="#343B45"/>
<path fill-rule="evenodd" clip-rule="evenodd" d="M216.612 232.911V232.91C216.605 232.766 216.575 232.656 216.515 232.565L216.509 232.556L216.501 232.547C216.44 232.48 216.382 232.455 216.318 232.427C216.129 232.354 215.853 232.315 215.521 232.314C215.282 232.314 215.019 232.337 214.755 232.395L214.754 232.377L214.488 232.466L214.483 232.468L214.333 232.517V232.523C214.156 232.597 213.996 232.688 213.847 232.796C213.754 232.865 213.677 232.957 213.673 233.098C213.671 233.175 213.71 233.263 213.774 233.315C213.839 233.367 213.913 233.385 213.979 233.385C213.995 233.385 214.01 233.384 214.023 233.382L214.036 233.381L214.045 233.379C214.176 233.351 214.365 233.333 214.587 233.302C214.778 233.281 214.98 233.265 215.154 233.265C215.278 233.264 215.39 233.273 215.466 233.29C215.504 233.298 215.533 233.307 215.548 233.316C215.554 233.317 215.558 233.32 215.561 233.321C215.564 233.332 215.569 233.36 215.568 233.398C215.57 233.544 215.508 233.816 215.422 234.082C215.339 234.347 215.238 234.613 215.172 234.79C215.155 234.831 215.145 234.876 215.145 234.924C215.143 234.995 215.172 235.082 215.234 235.139C215.294 235.196 215.373 235.218 215.438 235.218H215.441C215.539 235.217 215.622 235.178 215.693 235.122C216.369 234.515 216.604 233.544 216.614 232.998L216.612 232.911ZM214.609 233.753C214.54 233.752 214.469 233.768 214.403 233.799C214.329 233.829 214.254 233.863 214.182 233.893L214.077 233.937L213.94 233.991V233.993C212.455 234.595 210.895 234.949 209.452 234.98C209.399 234.981 209.345 234.981 209.294 234.981C207.023 234.983 205.171 233.929 203.303 232.891C203.238 232.857 203.17 232.839 203.105 232.839C203.021 232.839 202.935 232.871 202.872 232.93C202.81 232.989 202.772 233.075 202.773 233.162C202.772 233.275 202.833 233.379 202.919 233.447C204.672 234.97 206.594 236.385 209.18 236.387C209.23 236.387 209.282 236.385 209.333 236.384C210.977 236.348 212.837 235.791 214.281 234.884L214.289 234.879C214.478 234.766 214.667 234.637 214.845 234.495C214.956 234.412 215.032 234.284 215.032 234.15C215.028 233.913 214.827 233.753 214.609 233.753Z" fill="#FF9A00"/>
<path d="M212.699 227.134C212.699 227.484 212.415 227.768 212.065 227.768C211.715 227.768 211.431 227.484 211.431 227.134C211.431 226.784 211.715 226.5 212.065 226.5C212.415 226.5 212.699 226.784 212.699 227.134Z" fill="white"/>
<g filter="url(#filter1_d_306_526)">
<ellipse cx="228.148" cy="229.082" rx="10.7649" ry="11.1494" fill="white"/>
<path d="M228.148 240.356C234.166 240.356 239.037 235.304 239.037 229.082C239.037 222.859 234.166 217.808 228.148 217.808C222.129 217.808 217.258 222.859 217.258 229.082C217.258 235.304 222.129 240.356 228.148 240.356Z" stroke="#B8B8B8" stroke-width="0.249238"/>
</g>
<path d="M230.426 232.412C229.696 232.464 229.766 232.073 230.201 231.505C231.191 230.185 233.024 228.391 233.106 227.08C233.22 225.379 231.509 224.853 229.747 224.853C228.521 224.884 227.252 225.224 226.387 225.532C223.409 226.583 221.542 228.234 220.358 230.09C219.132 231.925 219.513 233.689 222.161 233.741C224.161 233.658 225.511 233.102 226.87 232.401C226.88 232.401 223.089 233.483 221.686 232.689C221.531 232.607 221.377 232.493 221.336 232.175C221.336 231.524 222.409 230.845 223.037 230.629V229.515C224.305 229.959 225.8 229.835 227.079 228.886C227.12 229 227.161 229.143 227.151 229.299H227.368C227.419 228.855 227.12 228.422 226.625 228.391C226.768 228.505 226.872 228.597 226.924 228.68L226.904 228.699L226.894 228.709C225.246 229.864 223.647 229.328 223.493 229.297L224.411 228.399L224.153 227.748C225.979 227.11 227.483 226.644 229.986 226.202L229.426 225.75L229.715 225.576C231.199 225.988 232.199 226.297 232.147 227.08C232.128 227.214 232.075 227.369 231.992 227.534C231.55 228.41 230.252 229.823 229.725 230.432C229.385 230.835 229.045 231.206 228.808 231.577C228.54 231.959 228.405 232.31 228.395 232.629C228.446 235.218 236.085 231.412 237.59 230.41C235.395 231.35 233.014 232.247 230.426 232.412ZM232.096 226.462C232.151 226.564 232.177 226.689 232.177 226.837C232.175 226.703 232.149 226.576 232.096 226.462Z" fill="#F35325"/>
<g filter="url(#filter2_d_306_526)">
<ellipse cx="245.833" cy="229.851" rx="10.7649" ry="11.1494" fill="white"/>
<path d="M245.833 241.125C251.851 241.125 256.722 236.073 256.722 229.851C256.722 223.628 251.851 218.577 245.833 218.577C239.814 218.577 234.943 223.628 234.943 229.851C234.943 236.073 239.814 241.125 245.833 241.125Z" stroke="#B8B8B8" stroke-width="0.249238"/>
</g>
<path d="M242.314 232.478C242.406 231.713 242.72 231.284 243.312 230.845C244.158 230.25 245.215 230.587 245.215 230.587V228.59C245.472 228.584 245.729 228.599 245.983 228.636V231.205C245.983 231.205 244.927 230.868 244.08 231.464C243.489 231.903 243.175 232.331 243.083 233.097C243.08 233.512 243.158 234.056 243.517 234.525C243.428 234.48 243.337 234.428 243.245 234.37C242.454 233.838 242.31 233.041 242.314 232.478ZM250.349 224.899C249.766 224.261 249.546 223.617 249.467 223.165H250.199C250.199 223.165 250.053 224.351 251.117 225.518L251.132 225.533C250.845 225.353 250.582 225.14 250.349 224.899ZM253.877 226.708V229.225C253.877 229.225 252.942 229.189 252.251 229.013C251.285 228.767 250.664 228.389 250.664 228.389C250.664 228.389 250.235 228.12 250.201 228.101V233.3C250.201 233.589 250.121 234.312 249.88 234.915C249.564 235.704 249.077 236.221 248.988 236.327C248.988 236.327 248.396 237.027 247.351 237.498C246.409 237.923 245.583 237.913 245.336 237.923C245.336 237.923 243.906 237.98 242.62 237.144C242.342 236.96 242.083 236.751 241.845 236.521L241.851 236.526C243.138 237.361 244.567 237.305 244.567 237.305C244.814 237.294 245.641 237.305 246.582 236.88C247.626 236.408 248.219 235.709 248.219 235.709C248.307 235.603 248.797 235.085 249.111 234.296C249.352 233.693 249.432 232.97 249.432 232.681V227.483C249.466 227.502 249.895 227.771 249.895 227.771C249.895 227.771 250.516 228.149 251.482 228.395C252.174 228.571 253.108 228.607 253.108 228.607V226.635C253.427 226.706 253.7 226.726 253.877 226.708Z" fill="#EE1D52"/>
<path d="M253.108 226.635V228.607C253.108 228.607 252.174 228.57 251.482 228.394C250.516 228.148 249.895 227.771 249.895 227.771C249.895 227.771 249.467 227.501 249.432 227.482V232.681C249.432 232.971 249.353 233.694 249.111 234.297C248.796 235.086 248.309 235.603 248.219 235.709C248.219 235.709 247.627 236.409 246.583 236.88C245.641 237.305 244.815 237.295 244.567 237.305C244.567 237.305 243.138 237.362 241.852 236.526L241.845 236.522C241.71 236.39 241.582 236.251 241.463 236.106C241.052 235.605 240.8 235.013 240.737 234.845V234.842C240.636 234.549 240.422 233.844 240.451 233.162C240.503 231.957 240.926 231.218 241.038 231.033C241.335 230.528 241.721 230.076 242.179 229.698C242.583 229.371 243.041 229.111 243.534 228.929C244.067 228.714 244.637 228.6 245.215 228.59V230.587C245.215 230.587 244.158 230.251 243.312 230.845C242.721 231.284 242.407 231.713 242.314 232.478C242.31 233.041 242.455 233.838 243.245 234.37C243.337 234.428 243.428 234.48 243.517 234.526C243.655 234.705 243.823 234.861 244.014 234.988C244.786 235.477 245.433 235.511 246.261 235.194C246.812 234.982 247.228 234.503 247.42 233.973C247.541 233.642 247.54 233.309 247.54 232.965V223.165H249.465C249.545 223.617 249.765 224.261 250.347 224.899C250.581 225.14 250.844 225.353 251.131 225.533C251.215 225.621 251.649 226.054 252.205 226.321C252.492 226.458 252.796 226.563 253.108 226.635Z" fill="black"/>
<path d="M243.533 228.929C243.04 229.111 242.582 229.371 242.178 229.698C241.72 230.077 241.335 230.53 241.038 231.036C240.926 231.221 240.503 231.96 240.451 233.165C240.422 233.847 240.636 234.552 240.737 234.845V234.847C240.801 235.015 241.052 235.607 241.463 236.109C241.582 236.254 241.71 236.393 241.846 236.525C241.41 236.236 241.022 235.887 240.694 235.49C240.287 234.994 240.036 234.408 239.971 234.235C239.97 234.234 239.97 234.233 239.971 234.231V234.229C239.869 233.936 239.654 233.231 239.684 232.548C239.736 231.343 240.159 230.604 240.271 230.419C240.567 229.913 240.953 229.46 241.411 229.081C241.815 228.754 242.273 228.494 242.766 228.312C243.074 228.189 243.394 228.099 243.722 228.043C244.216 227.96 244.72 227.953 245.217 228.021V228.591C244.638 228.6 244.067 228.714 243.533 228.929Z" fill="#69C9D0"/>
<path d="M249.467 223.165H247.541V232.965C247.541 233.31 247.541 233.642 247.421 233.974C247.227 234.504 246.813 234.982 246.262 235.194C245.434 235.513 244.787 235.478 244.015 234.989C243.824 234.862 243.655 234.706 243.517 234.527C244.174 234.864 244.763 234.858 245.492 234.577C246.043 234.365 246.457 233.887 246.651 233.357C246.773 233.026 246.771 232.692 246.771 232.348V222.546H249.43C249.43 222.546 249.4 222.79 249.467 223.165ZM253.108 226.089V226.635C252.796 226.564 252.493 226.458 252.206 226.321C251.65 226.055 251.217 225.621 251.132 225.534C251.23 225.596 251.332 225.652 251.437 225.702C252.114 226.026 252.78 226.122 253.108 226.089Z" fill="#69C9D0"/>
<g filter="url(#filter3_d_306_526)">
<circle cx="263.657" cy="229.605" r="10.9041" fill="white"/>
<circle cx="263.657" cy="229.605" r="10.7795" stroke="#B8B8B8" stroke-width="0.249238"/>
</g>
<path d="M267.04 223.686H260.275C258.874 223.686 257.738 224.822 257.738 226.223V232.988C257.738 234.389 258.874 235.525 260.275 235.525H267.04C268.441 235.525 269.577 234.389 269.577 232.988V226.223C269.577 224.822 268.441 223.686 267.04 223.686Z" fill="url(#paint0_radial_306_526)"/>
<path d="M267.04 223.686H260.275C258.874 223.686 257.738 224.822 257.738 226.223V232.988C257.738 234.389 258.874 235.525 260.275 235.525H267.04C268.441 235.525 269.577 234.389 269.577 232.988V226.223C269.577 224.822 268.441 223.686 267.04 223.686Z" fill="url(#paint1_radial_306_526)"/>
<path d="M267.04 223.686H260.275C258.874 223.686 257.738 224.822 257.738 226.223V232.988C257.738 234.389 258.874 235.525 260.275 235.525H267.04C268.441 235.525 269.577 234.389 269.577 232.988V226.223C269.577 224.822 268.441 223.686 267.04 223.686Z" fill="url(#paint2_radial_306_526)"/>
<path fill-rule="evenodd" clip-rule="evenodd" d="M263.657 231.719C264.825 231.719 265.771 230.773 265.771 229.605C265.771 228.438 264.825 227.491 263.657 227.491C262.489 227.491 261.543 228.438 261.543 229.605C261.543 230.773 262.489 231.719 263.657 231.719ZM263.657 230.874C264.358 230.874 264.925 230.306 264.925 229.605C264.925 228.905 264.358 228.337 263.657 228.337C262.956 228.337 262.389 228.905 262.389 229.605C262.389 230.306 262.956 230.874 263.657 230.874Z" fill="white"/>
<path fill-rule="evenodd" clip-rule="evenodd" d="M259.429 229.436C259.429 228.015 259.429 227.305 259.706 226.762C259.949 226.285 260.337 225.897 260.814 225.654C261.357 225.377 262.067 225.377 263.488 225.377H263.826C265.247 225.377 265.958 225.377 266.5 225.654C266.978 225.897 267.366 226.285 267.609 226.762C267.885 227.305 267.885 228.015 267.885 229.436V229.774C267.885 231.195 267.885 231.906 267.609 232.448C267.366 232.926 266.978 233.314 266.5 233.557C265.958 233.833 265.247 233.833 263.826 233.833H263.488C262.067 233.833 261.357 233.833 260.814 233.557C260.337 233.314 259.949 232.926 259.706 232.448C259.429 231.906 259.429 231.195 259.429 229.774V229.436ZM263.488 226.223H263.826C264.551 226.223 265.043 226.223 265.424 226.255C265.795 226.285 265.984 226.34 266.116 226.407C266.435 226.569 266.693 226.828 266.855 227.146C266.923 227.279 266.978 227.468 267.008 227.839C267.039 228.219 267.04 228.712 267.04 229.436V229.774C267.04 230.499 267.039 230.991 267.008 231.372C266.978 231.743 266.923 231.932 266.855 232.064C266.693 232.383 266.435 232.641 266.116 232.803C265.984 232.871 265.795 232.926 265.424 232.956C265.043 232.987 264.551 232.988 263.826 232.988H263.488C262.764 232.988 262.271 232.987 261.891 232.956C261.52 232.926 261.331 232.871 261.198 232.803C260.88 232.641 260.621 232.383 260.459 232.064C260.392 231.932 260.337 231.743 260.307 231.372C260.275 230.991 260.275 230.499 260.275 229.774V229.436C260.275 228.712 260.275 228.219 260.307 227.839C260.337 227.468 260.392 227.279 260.459 227.146C260.621 226.828 260.88 226.569 261.198 226.407C261.331 226.34 261.52 226.285 261.891 226.255C262.271 226.223 262.764 226.223 263.488 226.223Z" fill="white"/>
<path d="M30.1571 174.096L32.6621 181.806H40.7682L34.2102 186.57L36.7151 194.28L30.1571 189.515L23.5991 194.28L26.1041 186.57L19.5461 181.806H27.6522L30.1571 174.096Z" fill="#FFEA00"/>
<path d="M56.2968 174.096L58.8017 181.806H66.9078L60.3498 186.57L62.8548 194.28L56.2968 189.515L49.7388 194.28L52.2437 186.57L45.6857 181.806H53.7918L56.2968 174.096Z" fill="#FFEA00"/>
<path d="M82.4364 174.096L84.9414 181.806H93.0475L86.4895 186.57L88.9944 194.28L82.4364 189.515L75.8784 194.28L78.3834 186.57L71.8254 181.806H79.9315L82.4364 174.096Z" fill="#FFEA00"/>
<path d="M108.576 174.096L111.081 181.806H119.187L112.629 186.57L115.134 194.28L108.576 189.515L102.018 194.28L104.523 186.57L97.9648 181.806H106.071L108.576 174.096Z" fill="#FFEA00"/>
<path d="M134.715 174.096L137.22 181.806H145.327L138.769 186.57L141.273 194.28L134.715 189.515L128.157 194.28L130.662 186.57L124.104 181.806H132.211L134.715 174.096Z" fill="#D9D9D9"/>
</g>
<defs>
<filter id="filter0_d_306_526" x="195.097" y="216.063" width="26.7931" height="26.7931" filterUnits="userSpaceOnUse" color-interpolation-filters="sRGB">
<feFlood flood-opacity="0" result="BackgroundImageFix"/>
<feColorMatrix in="SourceAlpha" type="matrix" values="0 0 0 0 0 0 0 0 0 0 0 0 0 0 0 0 0 0 127 0" result="hardAlpha"/>
<feOffset dx="-1.24619"/>
<feGaussianBlur stdDeviation="1.24619"/>
<feComposite in2="hardAlpha" operator="out"/>
<feColorMatrix type="matrix" values="0 0 0 0 0 0 0 0 0 0 0 0 0 0 0 0 0 0 0.25 0"/>
<feBlend mode="normal" in2="BackgroundImageFix" result="effect1_dropShadow_306_526"/>
<feBlend mode="normal" in="SourceGraphic" in2="effect1_dropShadow_306_526" result="shape"/>
</filter>
<filter id="filter1_d_306_526" x="213.395" y="215.191" width="27.0131" height="27.7821" filterUnits="userSpaceOnUse" color-interpolation-filters="sRGB">
<feFlood flood-opacity="0" result="BackgroundImageFix"/>
<feColorMatrix in="SourceAlpha" type="matrix" values="0 0 0 0 0 0 0 0 0 0 0 0 0 0 0 0 0 0 127 0" result="hardAlpha"/>
<feOffset dx="-1.24619"/>
<feGaussianBlur stdDeviation="1.24619"/>
<feComposite in2="hardAlpha" operator="out"/>
<feColorMatrix type="matrix" values="0 0 0 0 0 0 0 0 0 0 0 0 0 0 0 0 0 0 0.25 0"/>
<feBlend mode="normal" in2="BackgroundImageFix" result="effect1_dropShadow_306_526"/>
<feBlend mode="normal" in="SourceGraphic" in2="effect1_dropShadow_306_526" result="shape"/>
</filter>
<filter id="filter2_d_306_526" x="231.08" y="215.96" width="27.0131" height="27.7821" filterUnits="userSpaceOnUse" color-interpolation-filters="sRGB">
<feFlood flood-opacity="0" result="BackgroundImageFix"/>
<feColorMatrix in="SourceAlpha" type="matrix" values="0 0 0 0 0 0 0 0 0 0 0 0 0 0 0 0 0 0 127 0" result="hardAlpha"/>
<feOffset dx="-1.24619"/>
<feGaussianBlur stdDeviation="1.24619"/>
<feComposite in2="hardAlpha" operator="out"/>
<feColorMatrix type="matrix" values="0 0 0 0 0 0 0 0 0 0 0 0 0 0 0 0 0 0 0.25 0"/>
<feBlend mode="normal" in2="BackgroundImageFix" result="effect1_dropShadow_306_526"/>
<feBlend mode="normal" in="SourceGraphic" in2="effect1_dropShadow_306_526" result="shape"/>
</filter>
<filter id="filter3_d_306_526" x="249.014" y="216.209" width="26.7931" height="26.7931" filterUnits="userSpaceOnUse" color-interpolation-filters="sRGB">
<feFlood flood-opacity="0" result="BackgroundImageFix"/>
<feColorMatrix in="SourceAlpha" type="matrix" values="0 0 0 0 0 0 0 0 0 0 0 0 0 0 0 0 0 0 127 0" result="hardAlpha"/>
<feOffset dx="-1.24619"/>
<feGaussianBlur stdDeviation="1.24619"/>
<feComposite in2="hardAlpha" operator="out"/>
<feColorMatrix type="matrix" values="0 0 0 0 0 0 0 0 0 0 0 0 0 0 0 0 0 0 0.25 0"/>
<feBlend mode="normal" in2="BackgroundImageFix" result="effect1_dropShadow_306_526"/>
<feBlend mode="normal" in="SourceGraphic" in2="effect1_dropShadow_306_526" result="shape"/>
</filter>
<radialGradient id="paint0_radial_306_526" cx="0" cy="0" r="1" gradientUnits="userSpaceOnUse" gradientTransform="translate(261.966 232.565) rotate(-55.3758) scale(10.79)">
<stop stop-color="#B13589"/>
<stop offset="0.79309" stop-color="#C62F94"/>
<stop offset="1" stop-color="#8A3AC8"/>
</radialGradient>
<radialGradient id="paint1_radial_306_526" cx="0" cy="0" r="1" gradientUnits="userSpaceOnUse" gradientTransform="translate(261.543 235.948) rotate(-65.1363) scale(9.55314)">
<stop stop-color="#E0E8B7"/>
<stop offset="0.444662" stop-color="#FB8A2E"/>
<stop offset="0.71474" stop-color="#E2425C"/>
<stop offset="1" stop-color="#E2425C" stop-opacity="0"/>
</radialGradient>
<radialGradient id="paint2_radial_306_526" cx="0" cy="0" r="1" gradientUnits="userSpaceOnUse" gradientTransform="translate(257.104 224.109) rotate(-8.1301) scale(16.4436 3.51712)">
<stop offset="0.156701" stop-color="#406ADC"/>
<stop offset="0.467799" stop-color="#6A45BE"/>
<stop offset="1" stop-color="#6A45BE" stop-opacity="0"/>
</radialGradient>
<clipPath id="clip0_306_526">
<rect width="300" height="250" fill="white"/>
</clipPath>
</defs>
</svg>
