<svg width="100" height="100" viewBox="0 0 100 100" fill="none" xmlns="http://www.w3.org/2000/svg">
<rect width="100" height="100" rx="50" fill="#020202"/>
<path d="M12.5364 61V40.0545H15.0727V58.75H24.8091V61H12.5364ZM45.5935 50.5273C45.5935 52.7364 45.1946 54.6455 44.3969 56.2545C43.5991 57.8636 42.5048 59.1045 41.1139 59.9773C39.723 60.85 38.1344 61.2864 36.348 61.2864C34.5616 61.2864 32.973 60.85 31.5821 59.9773C30.1912 59.1045 29.0969 57.8636 28.2991 56.2545C27.5014 54.6455 27.1026 52.7364 27.1026 50.5273C27.1026 48.3182 27.5014 46.4091 28.2991 44.8C29.0969 43.1909 30.1912 41.95 31.5821 41.0773C32.973 40.2045 34.5616 39.7682 36.348 39.7682C38.1344 39.7682 39.723 40.2045 41.1139 41.0773C42.5048 41.95 43.5991 43.1909 44.3969 44.8C45.1946 46.4091 45.5935 48.3182 45.5935 50.5273ZM43.1389 50.5273C43.1389 48.7136 42.8355 47.183 42.2287 45.9352C41.6287 44.6875 40.8139 43.7432 39.7844 43.1023C38.7616 42.4614 37.6162 42.1409 36.348 42.1409C35.0798 42.1409 33.931 42.4614 32.9014 43.1023C31.8787 43.7432 31.0639 44.6875 30.4571 45.9352C29.8571 47.183 29.5571 48.7136 29.5571 50.5273C29.5571 52.3409 29.8571 53.8716 30.4571 55.1193C31.0639 56.367 31.8787 57.3114 32.9014 57.9523C33.931 58.5932 35.0798 58.9136 36.348 58.9136C37.6162 58.9136 38.7616 58.5932 39.7844 57.9523C40.8139 57.3114 41.6287 56.367 42.2287 55.1193C42.8355 53.8716 43.1389 52.3409 43.1389 50.5273ZM64.1764 46.6C63.9514 45.9114 63.6548 45.2943 63.2866 44.7489C62.9253 44.1966 62.4923 43.7261 61.9878 43.3375C61.4901 42.9489 60.9242 42.6523 60.2901 42.4477C59.656 42.2432 58.9605 42.1409 58.2037 42.1409C56.9628 42.1409 55.8344 42.4614 54.8185 43.1023C53.8026 43.7432 52.9946 44.6875 52.3946 45.9352C51.7946 47.183 51.4946 48.7136 51.4946 50.5273C51.4946 52.3409 51.798 53.8716 52.4048 55.1193C53.0116 56.367 53.8332 57.3114 54.8696 57.9523C55.906 58.5932 57.0719 58.9136 58.3673 58.9136C59.5673 58.9136 60.6242 58.658 61.5378 58.1466C62.4582 57.6284 63.1742 56.8989 63.6855 55.958C64.2037 55.0102 64.4628 53.8955 64.4628 52.6136L65.2401 52.7773H58.9401V50.5273H66.9173V52.7773C66.9173 54.5023 66.5492 56.0023 65.8128 57.2773C65.0832 58.5523 64.0742 59.5409 62.7855 60.2432C61.5037 60.9386 60.031 61.2864 58.3673 61.2864C56.5128 61.2864 54.8832 60.85 53.4787 59.9773C52.081 59.1045 50.9901 57.8636 50.206 56.2545C49.4287 54.6455 49.0401 52.7364 49.0401 50.5273C49.0401 48.8705 49.2616 47.3807 49.7048 46.058C50.1548 44.7284 50.7889 43.5966 51.6071 42.6625C52.4253 41.7284 53.3935 41.0125 54.5116 40.5148C55.6298 40.017 56.8605 39.7682 58.2037 39.7682C59.3082 39.7682 60.3378 39.9352 61.2923 40.2693C62.2537 40.5966 63.1094 41.0636 63.8594 41.6705C64.6162 42.2705 65.2469 42.9898 65.7514 43.8284C66.256 44.6602 66.6037 45.5841 66.7946 46.6H64.1764ZM88.9341 50.5273C88.9341 52.7364 88.5352 54.6455 87.7375 56.2545C86.9398 57.8636 85.8455 59.1045 84.4545 59.9773C83.0636 60.85 81.475 61.2864 79.6886 61.2864C77.9023 61.2864 76.3136 60.85 74.9227 59.9773C73.5318 59.1045 72.4375 57.8636 71.6398 56.2545C70.842 54.6455 70.4432 52.7364 70.4432 50.5273C70.4432 48.3182 70.842 46.4091 71.6398 44.8C72.4375 43.1909 73.5318 41.95 74.9227 41.0773C76.3136 40.2045 77.9023 39.7682 79.6886 39.7682C81.475 39.7682 83.0636 40.2045 84.4545 41.0773C85.8455 41.95 86.9398 43.1909 87.7375 44.8C88.5352 46.4091 88.9341 48.3182 88.9341 50.5273ZM86.4795 50.5273C86.4795 48.7136 86.1761 47.183 85.5693 45.9352C84.9693 44.6875 84.1545 43.7432 83.125 43.1023C82.1023 42.4614 80.9568 42.1409 79.6886 42.1409C78.4205 42.1409 77.2716 42.4614 76.242 43.1023C75.2193 43.7432 74.4045 44.6875 73.7977 45.9352C73.1977 47.183 72.8977 48.7136 72.8977 50.5273C72.8977 52.3409 73.1977 53.8716 73.7977 55.1193C74.4045 56.367 75.2193 57.3114 76.242 57.9523C77.2716 58.5932 78.4205 58.9136 79.6886 58.9136C80.9568 58.9136 82.1023 58.5932 83.125 57.9523C84.1545 57.3114 84.9693 56.367 85.5693 55.1193C86.1761 53.8716 86.4795 52.3409 86.4795 50.5273Z" fill="white"/>
</svg>
