<svg width="100" height="100" viewBox="0 0 100 100" fill="none" xmlns="http://www.w3.org/2000/svg">
<path d="M89.2741 21.5598V68.9638C89.2741 72.7341 86.2107 76.2684 82.4404 76.7397L81.1443 76.8971C72.5826 78.0361 59.3865 82.3951 51.8459 86.5582C50.8248 87.1473 49.136 87.1473 48.0756 86.5582L47.9185 86.48C40.3777 82.3562 27.2212 78.0361 18.6987 76.8971L17.5596 76.7397C13.7893 76.2684 10.7259 72.7341 10.7259 68.9638V21.5204C10.7259 16.8468 14.5354 13.3122 19.209 13.7049C27.4566 14.3726 39.9457 18.5358 46.9366 22.8952L47.9185 23.4841C49.0574 24.1911 50.9426 24.1911 52.0815 23.4841L52.7492 23.0522C55.2234 21.5205 58.3654 19.9888 61.7822 18.6142V34.6381L69.637 29.4146L77.4918 34.6381V14.1372C78.5522 13.9408 79.5734 13.8228 80.5159 13.7443H80.7516C85.4252 13.3515 89.2741 16.8469 89.2741 21.5598Z" stroke="black" stroke-width="3" stroke-linecap="round" stroke-linejoin="round"/>
<path d="M50 25V87" stroke="black" stroke-width="3" stroke-linecap="round" stroke-linejoin="round"/>
<path d="M77.4918 14.1373V34.6383L69.637 29.4147L61.7822 34.6383V18.6144C66.9271 16.5721 72.6611 14.9228 77.4918 14.1373Z" stroke="black" stroke-width="3" stroke-linecap="round" stroke-linejoin="round"/>
</svg>
