<svg width="100" height="100" viewBox="0 0 100 100" fill="none" xmlns="http://www.w3.org/2000/svg">
<path d="M55.231 68.2595C53.7577 66.7205 51.7727 65.8725 49.6415 65.8725C47.5104 65.8725 45.5252 66.7203 44.0525 68.2597C43.045 69.3125 42.1904 70.498 41.5121 71.7833C41.1274 72.5123 41.4068 73.4151 42.1356 73.7996C42.8648 74.1838 43.7674 73.9049 44.1519 73.1761C44.7006 72.1357 45.3926 71.1758 46.2086 70.3232C47.1131 69.3779 48.3323 68.8571 49.6413 68.8571C50.9503 68.8571 52.1695 69.3779 53.0742 70.3232C55.3372 72.688 56.5835 75.7934 56.5835 79.0676C56.5835 83.9154 53.7626 90.5375 49.6411 92.8409C45.5198 90.5375 42.6989 83.9152 42.6989 79.0676C42.6989 78.2434 42.0307 77.5753 41.2067 77.5753C40.3826 77.5753 39.7144 78.2436 39.7144 79.0676C39.7144 82.1801 40.6338 85.7347 42.237 88.8201C43.9974 92.2081 46.4127 94.7127 49.0383 95.8726C49.2304 95.9574 49.4357 96 49.6413 96C49.8469 96 50.0524 95.9576 50.2443 95.8726C52.8699 94.7125 55.2852 92.2081 57.0456 88.8201C58.6488 85.7347 59.5682 82.1801 59.5682 79.0676C59.5684 75.0207 58.028 71.1825 55.231 68.2595Z" fill="black"/>
<path d="M74.5459 44.2987C72.3352 40.4053 69.7547 37.8602 68.6387 36.8591C68.5578 33.1224 67.8292 29.0507 66.518 25.0345C66.2621 24.2509 65.4194 23.8231 64.6363 24.079C63.8527 24.3347 63.4253 25.1774 63.6808 25.9606C64.977 29.9308 65.6622 33.9389 65.6622 37.5509C65.6622 44.7648 62.916 51.6074 57.9301 56.818C55.7456 59.1007 52.8022 60.3578 49.6419 60.3578C46.4816 60.3578 43.5379 59.1009 41.3537 56.818C36.3676 51.6074 33.6214 44.765 33.6214 37.5509C33.6214 31.8013 35.3419 25.1921 38.3419 19.4184C41.3754 13.5804 45.3684 9.24873 49.6421 7.13975C53.9712 9.2755 58.0021 13.6807 61.0485 19.6258C61.4246 20.3593 62.3238 20.6493 63.0573 20.2732C63.7909 19.8973 64.0806 18.998 63.7047 18.2645C60.2058 11.437 55.4258 6.41652 50.2447 4.12767C49.8606 3.95787 49.4228 3.95787 49.0385 4.12767C43.9199 6.38885 39.1805 11.3306 35.6932 18.0422C32.5985 23.9979 30.78 30.81 30.6492 36.8545C29.5357 37.8528 26.9511 40.3997 24.7374 44.2982C22.0965 48.9492 19.5105 56.4775 22.1864 65.9315C22.3324 66.4479 22.7445 66.8459 23.2655 66.9742C23.3838 67.0033 23.5035 67.0173 23.622 67.0173C24.0265 67.0173 24.4199 66.8526 24.7052 66.5514C24.7832 66.4693 32.5821 58.3715 41.1844 60.6124C43.6267 62.3845 46.5506 63.3424 49.6415 63.3424C52.7323 63.3424 55.6562 62.3843 58.0985 60.6124C66.6688 58.3805 74.5004 66.4707 74.5775 66.5514C74.8628 66.8527 75.2562 67.0173 75.6606 67.0173C75.7794 67.0173 75.8991 67.0031 76.0171 66.9742C76.5382 66.8459 76.9501 66.4477 77.0963 65.9315C79.7726 56.4778 77.1865 48.9495 74.5459 44.2987ZM28.2921 60.103C26.7507 60.9907 25.4581 61.9417 24.4908 62.7316C23.3602 56.8376 24.2939 51.1767 27.2769 45.8713C28.4472 43.79 29.749 42.1232 30.8208 40.9231C31.4734 46.9302 33.8616 52.5799 37.7373 57.2447C34.6613 57.3177 31.46 58.2788 28.2921 60.103ZM74.7924 62.7316C73.8251 61.9417 72.5325 60.9907 70.9911 60.103C67.8236 58.2788 64.6221 57.3177 61.5461 57.2449C65.4217 52.5801 67.81 46.9304 68.4626 40.9233C69.5344 42.1232 70.8362 43.7902 72.0065 45.8715C74.9893 51.1767 75.923 56.8376 74.7924 62.7316Z" fill="black"/>
<path d="M54.728 33.9728H46.0479V30.789H54.7279C55.5521 30.789 56.2202 30.1207 56.2202 29.2967C56.2202 28.4724 55.5519 27.8044 54.7279 27.8044H51.134V25.7719C51.134 24.9477 50.4657 24.2796 49.6417 24.2796C48.8174 24.2796 48.1494 24.9479 48.1494 25.7719V27.8044H44.5557C43.7314 27.8044 43.0634 28.4726 43.0634 29.2967V35.4651C43.0634 36.2893 43.7316 36.9574 44.5557 36.9574H53.2358V40.1413H44.5557C43.7314 40.1413 43.0634 40.8095 43.0634 41.6336C43.0634 42.4576 43.7316 43.1259 44.5557 43.1259H48.1496V45.1583C48.1496 45.9825 48.8178 46.6506 49.6419 46.6506C50.4661 46.6506 51.1341 45.9823 51.1341 45.1583V43.1259H54.728C55.5523 43.1259 56.2203 42.4576 56.2203 41.6336V35.4651C56.2203 34.6409 55.5521 33.9728 54.728 33.9728Z" fill="black"/>
</svg>
