<svg width="100" height="100" viewBox="0 0 100 100" fill="none" xmlns="http://www.w3.org/2000/svg">
<path d="M30.4158 20.3333H91.6667L83.3333 49.5H34.9031M87.5 66.1667H37.5L29.1667 12H16.6667M16.6667 32.8333H8.33333M20.8333 45.3333H8.33333M25 57.8333H8.33333M41.6667 82.8333C41.6667 85.1346 39.8012 87 37.5 87C35.1988 87 33.3333 85.1346 33.3333 82.8333C33.3333 80.5321 35.1988 78.6667 37.5 78.6667C39.8012 78.6667 41.6667 80.5321 41.6667 82.8333ZM87.5 82.8333C87.5 85.1346 85.6346 87 83.3333 87C81.0321 87 79.1667 85.1346 79.1667 82.8333C79.1667 80.5321 81.0321 78.6667 83.3333 78.6667C85.6346 78.6667 87.5 80.5321 87.5 82.8333Z" stroke="black" stroke-width="3" stroke-linecap="round" stroke-linejoin="round"/>
</svg>
