<svg width="100" height="100" viewBox="0 0 100 100" fill="none" xmlns="http://www.w3.org/2000/svg">
<path d="M13.2081 31.227C10.0993 31.227 7.57021 28.698 7.57021 25.5894C7.57021 22.4807 10.0994 19.9517 13.2081 19.9517C16.3166 19.9517 18.8455 22.4807 18.8455 25.5894C18.8455 28.698 16.3166 31.227 13.2081 31.227ZM13.2081 23.0086C11.785 23.0086 10.6271 24.1663 10.6271 25.5893C10.6271 27.0123 11.7849 28.17 13.2081 28.17C14.631 28.17 15.7886 27.0123 15.7886 25.5893C15.7886 24.1664 14.631 23.0086 13.2081 23.0086Z" fill="black"/>
<path d="M60.9343 39.8587C57.8255 39.8587 55.2964 37.3298 55.2964 34.2214C55.2964 31.1127 57.8256 28.5836 60.9343 28.5836C64.0428 28.5836 66.5717 31.1127 66.5717 34.2214C66.5717 37.3298 64.0427 39.8587 60.9343 39.8587ZM60.9343 31.6405C59.5111 31.6405 58.3533 32.7983 58.3533 34.2214C58.3533 35.6442 59.5111 36.8018 60.9343 36.8018C62.3571 36.8018 63.5148 35.6442 63.5148 34.2214C63.5148 32.7983 62.3571 31.6405 60.9343 31.6405Z" fill="black"/>
<path d="M37.0712 24.4997C31.9738 24.4997 27.8267 20.3527 27.8267 15.2554C27.8267 10.1581 31.9738 6.01114 37.0712 6.01114C42.1683 6.01114 46.3151 10.1581 46.3151 15.2554C46.3151 20.3527 42.1683 24.4997 37.0712 24.4997ZM37.0712 9.06805C33.6594 9.06805 30.8836 11.8437 30.8836 15.2554C30.8836 18.6672 33.6594 21.4428 37.0712 21.4428C40.4827 21.4428 43.2582 18.6672 43.2582 15.2554C43.2582 11.8437 40.4827 9.06805 37.0712 9.06805Z" fill="black"/>
<path d="M84.798 24.4997C79.7007 24.4997 75.5535 20.3527 75.5535 15.2554C75.5535 10.1581 79.7006 6.01114 84.798 6.01114C89.8951 6.01114 94.0421 10.1581 94.0421 15.2554C94.0421 20.3527 89.8951 24.4997 84.798 24.4997ZM84.798 9.06805C81.3861 9.06805 78.6104 11.8437 78.6104 15.2554C78.6104 18.6672 81.3861 21.4428 84.798 21.4428C88.2095 21.4428 90.9852 18.6672 90.9852 15.2554C90.9852 11.8437 88.2095 9.06805 84.798 9.06805Z" fill="black"/>
<path d="M30.5113 19.2043L29.0938 16.4958L16.6078 23.0305L18.0253 25.739L30.5113 19.2043Z" fill="black"/>
<path d="M58.64 31.2259L44.3162 19.242L42.3546 21.5866L56.6784 33.5705L58.64 31.2259Z" fill="black"/>
<path d="M65.4608 34.0215L63.5374 31.6454L78.088 19.8682L80.0114 22.2442L65.4608 34.0215Z" fill="black"/>
<path d="M16.6774 93H9.73857C7.5732 93 5.81145 91.214 5.81145 89.0188V42.7226C5.81145 40.5273 7.5732 38.7413 9.73857 38.7413H16.6774C18.8428 38.7413 20.6045 40.5273 20.6045 42.7226V89.0187C20.6045 91.214 18.8428 93 16.6774 93ZM9.73857 41.7982C9.25865 41.7982 8.86836 42.2129 8.86836 42.7226V89.0187C8.86836 89.5283 9.25865 89.9431 9.73857 89.9431H16.6774C17.1573 89.9431 17.5476 89.5284 17.5476 89.0187V42.7226C17.5476 42.2129 17.1572 41.7982 16.6774 41.7982H9.73857Z" fill="black"/>
<path d="M40.5403 93H33.6013C31.436 93 29.6744 91.0916 29.6744 88.7458V37.2956C29.6744 34.9498 31.436 33.0414 33.6013 33.0414H40.5403C42.7056 33.0414 44.4672 34.9498 44.4672 37.2956V88.7458C44.4672 91.0916 42.7056 93 40.5403 93ZM33.6013 36.0983C33.1297 36.0983 32.7312 36.6467 32.7312 37.2957V88.7459C32.7312 89.3949 33.1296 89.9431 33.6013 89.9431H40.5403C41.0119 89.9431 41.4103 89.3949 41.4103 88.7459V37.2956C41.4103 36.6466 41.0119 36.0983 40.5403 36.0983L33.6013 36.0983Z" fill="black"/>
<path d="M64.4036 93H57.4649C55.2994 93 53.5376 91.4471 53.5376 89.5382V53.0453C53.5376 51.1364 55.2994 49.5834 57.4649 49.5834H64.4036C66.5691 49.5834 68.3309 51.1364 68.3309 53.0453V89.5382C68.3309 91.4471 66.5691 93 64.4036 93ZM57.4649 52.6403C56.9033 52.6403 56.5945 52.9444 56.5945 53.0453V89.5382C56.5945 89.6391 56.9033 89.9431 57.4649 89.9431H64.4036C64.9652 89.9431 65.274 89.6391 65.274 89.5382V53.0453C65.274 52.9444 64.9652 52.6403 64.4036 52.6403H57.4649Z" fill="black"/>
<path d="M88.2669 93H81.3279C79.1625 93 77.401 91.0916 77.401 88.7458V37.2956C77.401 34.9498 79.1625 33.0414 81.3279 33.0414H88.2669C90.4325 33.0414 92.1943 34.9498 92.1943 37.2956V88.7458C92.1942 91.0916 90.4325 93 88.2669 93ZM81.3279 36.0983C80.8562 36.0983 80.4579 36.6467 80.4579 37.2957V88.7459C80.4579 89.3949 80.8562 89.9431 81.3279 89.9431H88.2669C88.7388 89.9431 89.1373 89.3949 89.1373 88.7459V37.2956C89.1373 36.6466 88.7388 36.0983 88.2669 36.0983L81.3279 36.0983Z" fill="black"/>
</svg>
