<svg width="100" height="100" viewBox="0 0 100 100" fill="none" xmlns="http://www.w3.org/2000/svg">
<path d="M78.3871 28.7097C69.7787 28.7097 62.7742 35.7142 62.7742 44.3226V49.5671C59.9468 45.5446 55.28 42.9032 50 42.9032C41.3916 42.9032 34.3871 49.9077 34.3871 58.5161V63.7606C31.5597 59.7382 26.8929 57.0968 21.6129 57.0968C13.0045 57.0968 6 64.1013 6 72.7097V94H94V44.3226C94 35.7142 86.9955 28.7097 78.3871 28.7097ZM34.3871 91.1613H8.83871V81.6587C11.6661 85.6811 16.3329 88.3226 21.6129 88.3226C26.8929 88.3226 31.5597 85.6811 34.3871 81.6587V91.1613ZM21.6129 85.4838C14.5701 85.4838 8.83871 79.7525 8.83871 72.7097C8.83871 65.6668 14.5701 59.9355 21.6129 59.9355C28.6557 59.9355 34.3871 65.6668 34.3871 72.7097C34.3871 79.7525 28.6557 85.4838 21.6129 85.4838ZM62.7742 91.1613H37.2258V67.4651C40.0532 71.4876 44.72 74.129 50 74.129C55.28 74.129 59.9468 71.4876 62.7742 67.4651V91.1613ZM50 71.2903C42.9572 71.2903 37.2258 65.5589 37.2258 58.5161C37.2258 51.4733 42.9572 45.7419 50 45.7419C57.0428 45.7419 62.7742 51.4733 62.7742 58.5161C62.7742 65.5589 57.0428 71.2903 50 71.2903ZM91.1613 91.1613H65.6129V53.2716C68.4403 57.294 73.1071 59.9355 78.3871 59.9355C83.6671 59.9355 88.3339 57.294 91.1613 53.2716V91.1613ZM78.3871 57.0968C71.3443 57.0968 65.6129 51.3654 65.6129 44.3226C65.6129 37.2797 71.3443 31.5484 78.3871 31.5484C85.4299 31.5484 91.1613 37.2797 91.1613 44.3226C91.1613 51.3654 85.4299 57.0968 78.3871 57.0968Z" fill="black"/>
<path d="M76.9678 40.0646H79.8065C80.5885 40.0646 81.2258 40.7019 81.2258 41.4839H84.0645C84.0645 39.1363 82.1541 37.2259 79.8065 37.2259V34.3871H76.9678V37.2259C74.6201 37.2259 72.7097 39.1363 72.7097 41.4839C72.7097 43.8315 74.6201 45.742 76.9678 45.742H79.8065C80.5885 45.742 81.2258 46.3793 81.2258 47.1613C81.2258 47.9434 80.5885 48.5807 79.8065 48.5807H76.9678C76.1857 48.5807 75.5484 47.9434 75.5484 47.1613H72.7097C72.7097 49.509 74.6201 51.4194 76.9678 51.4194V54.2581H79.8065V51.4194C82.1541 51.4194 84.0645 49.509 84.0645 47.1613C84.0645 44.8137 82.1541 42.9033 79.8065 42.9033H76.9678C76.1857 42.9033 75.5484 42.266 75.5484 41.4839C75.5484 40.7019 76.1857 40.0646 76.9678 40.0646Z" fill="black"/>
<path d="M48.5806 54.258H51.4193C52.2014 54.258 52.8387 54.8953 52.8387 55.6773H55.6774C55.6774 53.3297 53.767 51.4193 51.4193 51.4193V48.5806H48.5806V51.4193C46.233 51.4193 44.3226 53.3297 44.3226 55.6773C44.3226 58.025 46.233 59.9354 48.5806 59.9354H51.4193C52.2014 59.9354 52.8387 60.5727 52.8387 61.3548C52.8387 62.1368 52.2014 62.7741 51.4193 62.7741H48.5806C47.7986 62.7741 47.1613 62.1368 47.1613 61.3548H44.3226C44.3226 63.7024 46.233 65.6128 48.5806 65.6128V68.4515H51.4193V65.6128C53.767 65.6128 55.6774 63.7024 55.6774 61.3548C55.6774 59.0071 53.767 57.0967 51.4193 57.0967H48.5806C47.7986 57.0967 47.1613 56.4594 47.1613 55.6773C47.1613 54.8953 47.7986 54.258 48.5806 54.258Z" fill="black"/>
<path d="M20.1935 68.4517H23.0322C23.8143 68.4517 24.4516 69.0889 24.4516 69.871H27.2903C27.2903 67.5234 25.3798 65.6129 23.0322 65.6129V62.7742H20.1935V65.6129C17.8459 65.6129 15.9355 67.5234 15.9355 69.871C15.9355 72.2186 17.8459 74.1291 20.1935 74.1291H23.0322C23.8143 74.1291 24.4516 74.7664 24.4516 75.5484C24.4516 76.3305 23.8143 76.9678 23.0322 76.9678H20.1935C19.4115 76.9678 18.7742 76.3305 18.7742 75.5484H15.9355C15.9355 77.896 17.8459 79.8065 20.1935 79.8065V82.6452H23.0322V79.8065C25.3798 79.8065 27.2903 77.896 27.2903 75.5484C27.2903 73.2008 25.3798 71.2904 23.0322 71.2904H20.1935C19.4115 71.2904 18.7742 70.6531 18.7742 69.871C18.7742 69.0889 19.4115 68.4517 20.1935 68.4517Z" fill="black"/>
<path d="M9.58386 44.4929L10.9322 46.991L77.5284 11.0288L74.3164 16.6508L76.7804 18.0588L83.6713 6H69.871V8.83871H75.6108L9.58386 44.4929Z" fill="black"/>
<path d="M13.7695 32.7973L30.1744 23.9633C31.2148 25.1257 32.7094 25.8709 34.3871 25.8709C37.5182 25.8709 40.0645 23.3246 40.0645 20.1935C40.0645 17.0624 37.5182 14.5161 34.3871 14.5161C31.256 14.5161 28.7097 17.0624 28.7097 20.1935C28.7097 20.6264 28.7679 21.0437 28.8601 21.4482L12.424 30.2993L13.7695 32.7973ZM34.3871 17.3548C35.9526 17.3548 37.2258 18.6279 37.2258 20.1935C37.2258 21.759 35.9526 23.0322 34.3871 23.0322C32.8215 23.0322 31.5484 21.759 31.5484 20.1935C31.5484 18.6279 32.8215 17.3548 34.3871 17.3548Z" fill="black"/>
<path d="M10.893 34.2362L9.62361 31.6974L6.78523 33.1166L8.05462 35.6554L10.893 34.2362Z" fill="black"/>
<path d="M33.6405 45.5716L50.0455 36.7376C51.0858 37.9 52.5804 38.6452 54.2581 38.6452C57.3892 38.6452 59.9355 36.0989 59.9355 32.9678C59.9355 29.8367 57.3892 27.2903 54.2581 27.2903C51.127 27.2903 48.5807 29.8367 48.5807 32.9678C48.5807 33.4007 48.6389 33.818 48.7311 34.2225L32.295 43.0722L33.6405 45.5716ZM54.2581 30.1291C55.8236 30.1291 57.0968 31.4022 57.0968 32.9678C57.0968 34.5333 55.8236 35.8065 54.2581 35.8065C52.6925 35.8065 51.4194 34.5333 51.4194 32.9678C51.4194 31.4022 52.6925 30.1291 54.2581 30.1291Z" fill="black"/>
<path d="M27.9253 48.4307L30.7637 47.0115L29.4943 44.4728L26.6559 45.8919L27.9253 48.4307Z" fill="black"/>
</svg>
