<svg width="100" height="100" viewBox="0 0 100 100" fill="none" xmlns="http://www.w3.org/2000/svg">
<path d="M50.5 54.2222C58.324 54.2222 64.6667 47.8796 64.6667 40.0556C64.6667 32.2315 58.324 25.8889 50.5 25.8889C42.676 25.8889 36.3333 32.2315 36.3333 40.0556C36.3333 47.8796 42.676 54.2222 50.5 54.2222Z" stroke="black" stroke-width="4" stroke-linecap="round"/>
<path d="M50.5 92C73.9721 92 93 72.9721 93 49.5C93 26.0279 73.9721 7 50.5 7C27.0279 7 8 26.0279 8 49.5C8 72.9721 27.0279 92 50.5 92Z" stroke="black" stroke-width="4"/>
<path d="M78.8333 81.1668C77.1621 76.1461 73.4793 71.71 68.3566 68.5457C63.2339 65.3818 56.9572 63.6667 50.5 63.6667C44.0428 63.6667 37.7661 65.3818 32.6433 68.5457C27.5205 71.71 23.8379 76.1461 22.1667 81.1668" stroke="black" stroke-width="4" stroke-linecap="round"/>
</svg>
