<svg width="100" height="100" viewBox="0 0 100 100" fill="none" xmlns="http://www.w3.org/2000/svg">
<path d="M38.069 37.7C39.0329 34.9598 40.9355 32.6493 43.44 31.1774C45.9443 29.7057 48.8885 29.1677 51.7515 29.6587C54.6146 30.1498 57.2111 31.6382 59.0819 33.8605C60.9523 36.0827 61.9765 38.8952 61.972 41.8C61.972 50 49.672 54.1 49.672 54.1M50 70.5H50.041M91 50C91 72.6435 72.6435 91 50 91C27.3563 91 9 72.6435 9 50C9 27.3563 27.3563 9 50 9C72.6435 9 91 27.3563 91 50Z" stroke="black" stroke-width="4" stroke-linecap="round" stroke-linejoin="round"/>
</svg>
